<?xml version="1.0" encoding="UTF-8" standalone="no"?>
<!DOCTYPE svg PUBLIC "-//W3C//DTD SVG 1.1//EN"
 "http://www.w3.org/Graphics/SVG/1.1/DTD/svg11.dtd">
<!-- Generated by graphviz version 2.38.0 (20140413.2041)
 -->
<!-- Title: %3 Pages: 1 -->
<svg width="1685pt" height="392pt"
 viewBox="0.00 0.00 1685.29 392.00" xmlns="http://www.w3.org/2000/svg" xmlns:xlink="http://www.w3.org/1999/xlink">
<g id="graph0" class="graph" transform="scale(1 1) rotate(0) translate(4 388)">
<title>%3</title>
<polygon fill="white" stroke="none" points="-4,4 -4,-388 1681.29,-388 1681.29,4 -4,4"/>
<!-- Rhttp://www.w3.org/2002/07/owl#i:Carrier -->
<g id="node1" class="node"><title>Rhttp://www.w3.org/2002/07/owl#i:Carrier</title>
<g id="a_node1"><a xlink:href="http://www.w3.org/2002/07/owl#i:Carrier" xlink:title="infocar:Carrier">
<ellipse fill="none" stroke="blue" cx="525.29" cy="-105" rx="69.5877" ry="18"/>
<text text-anchor="middle" x="525.29" y="-101.3" font-family="Times,serif" font-size="14.00">infocar:Carrier</text>
</a>
</g>
</g>
<!-- Rhttp://www.w3.org/2002/07/owl#h:PhysicalCreation -->
<g id="node2" class="node"><title>Rhttp://www.w3.org/2002/07/owl#h:PhysicalCreation</title>
<g id="a_node2"><a xlink:href="http://www.w3.org/2002/07/owl#h:PhysicalCreation" xlink:title="human:PhysicalCreation">
<ellipse fill="none" stroke="blue" cx="118.29" cy="-18" rx="118.079" ry="18"/>
<text text-anchor="middle" x="118.29" y="-14.3" font-family="Times,serif" font-size="14.00">human:PhysicalCreation</text>
</a>
</g>
</g>
<!-- Rhttp://www.w3.org/2002/07/owl#i:Carrier&#45;&gt;Rhttp://www.w3.org/2002/07/owl#h:PhysicalCreation -->
<g id="edge1" class="edge"><title>Rhttp://www.w3.org/2002/07/owl#i:Carrier&#45;&gt;Rhttp://www.w3.org/2002/07/owl#h:PhysicalCreation</title>
<path fill="none" stroke="green" d="M470.869,-93.7815C435.127,-86.9807 387.372,-77.7246 345.29,-69 293.676,-58.2994 235.635,-45.5013 191.163,-35.532"/>
<polygon fill="green" stroke="green" points="191.838,-32.0965 181.314,-33.3208 190.304,-38.9265 191.838,-32.0965"/>
<text text-anchor="middle" x="402.79" y="-57.8" font-family="Times,serif" font-size="14.00">rdfs:subClassOf</text>
</g>
<!-- Rhttp://www.w3.org/2000/01/rdf&#45;schema#ci:E84_Information_Carrier -->
<g id="node3" class="node"><title>Rhttp://www.w3.org/2000/01/rdf&#45;schema#ci:E84_Information_Carrier</title>
<g id="a_node3"><a xlink:href="http://www.w3.org/2000/01/rdf-schema#ci:E84_Information_Carrier" xlink:title="cidoc:E84_Information_Carrier">
<ellipse fill="none" stroke="purple" cx="415.29" cy="-18" rx="161.372" ry="18"/>
<text text-anchor="middle" x="415.29" y="-14.3" font-family="Times,serif" font-size="14.00">cidoc:E84_Information_Carrier</text>
</a>
</g>
</g>
<!-- Rhttp://www.w3.org/2002/07/owl#i:Carrier&#45;&gt;Rhttp://www.w3.org/2000/01/rdf&#45;schema#ci:E84_Information_Carrier -->
<g id="edge2" class="edge"><title>Rhttp://www.w3.org/2002/07/owl#i:Carrier&#45;&gt;Rhttp://www.w3.org/2000/01/rdf&#45;schema#ci:E84_Information_Carrier</title>
<path fill="none" stroke="green" d="M504.34,-87.8121C487.616,-74.8888 463.967,-56.6141 445.242,-42.1452"/>
<polygon fill="green" stroke="green" points="447.344,-39.3465 437.291,-36.0015 443.064,-44.8855 447.344,-39.3465"/>
<text text-anchor="middle" x="534.79" y="-57.8" font-family="Times,serif" font-size="14.00">rdfs:subClassOf</text>
</g>
<!-- Rhttp://www.w3.org/2000/01/rdf&#45;schema#Literal -->
<g id="node4" class="node"><title>Rhttp://www.w3.org/2000/01/rdf&#45;schema#Literal</title>
<g id="a_node4"><a xlink:href="http://www.w3.org/2000/01/rdf-schema#Literal" xlink:title="rdfs:Literal">
<ellipse fill="none" stroke="brown" cx="658.29" cy="-18" rx="63.8893" ry="18"/>
<text text-anchor="middle" x="658.29" y="-14.3" font-family="Times,serif" font-size="14.00">rdfs:Literal</text>
</a>
</g>
</g>
<!-- Rhttp://www.w3.org/2002/07/owl#i:Carrier&#45;&gt;Rhttp://www.w3.org/2000/01/rdf&#45;schema#Literal -->
<g id="edge3" class="edge"><title>Rhttp://www.w3.org/2002/07/owl#i:Carrier&#45;&gt;Rhttp://www.w3.org/2000/01/rdf&#45;schema#Literal</title>
<path fill="none" stroke="blue" d="M559.349,-89.0894C571.34,-83.3553 584.707,-76.3967 596.29,-69 608.734,-61.0527 621.584,-51.0361 632.336,-42.0591"/>
<polygon fill="blue" stroke="blue" points="634.758,-44.5936 640.108,-35.4485 630.223,-39.2616 634.758,-44.5936"/>
<text text-anchor="middle" x="716.29" y="-57.8" font-family="Times,serif" font-size="14.00">infocar:carrierHasDescription</text>
</g>
<!-- Rhttp://www.w3.org/2002/07/owl#im:Photograph -->
<g id="node5" class="node"><title>Rhttp://www.w3.org/2002/07/owl#im:Photograph</title>
<g id="a_node5"><a xlink:href="http://www.w3.org/2002/07/owl#im:Photograph" xlink:title="image:Photograph">
<ellipse fill="none" stroke="blue" cx="859.29" cy="-18" rx="98.5829" ry="18"/>
<text text-anchor="middle" x="859.29" y="-14.3" font-family="Times,serif" font-size="14.00">image:Photograph</text>
</a>
</g>
</g>
<!-- Rhttp://www.w3.org/2002/07/owl#i:Carrier&#45;&gt;Rhttp://www.w3.org/2002/07/owl#im:Photograph -->
<g id="edge4" class="edge"><title>Rhttp://www.w3.org/2002/07/owl#i:Carrier&#45;&gt;Rhttp://www.w3.org/2002/07/owl#im:Photograph</title>
<path fill="none" stroke="blue" d="M584.854,-95.6152C605.836,-92.754 629.594,-89.6184 651.29,-87 688.785,-82.4746 787.277,-87.3464 820.29,-69 830.353,-63.4074 838.703,-54.0401 845.059,-44.9154"/>
<polygon fill="blue" stroke="blue" points="848.085,-46.6803 850.534,-36.3724 842.192,-42.9033 848.085,-46.6803"/>
<text text-anchor="middle" x="952.29" y="-57.8" font-family="Times,serif" font-size="14.00">image:hasPhotoRepresentation</text>
</g>
<!-- Rhttp://www.w3.org/2002/07/owl#i:Manuscript -->
<g id="node6" class="node"><title>Rhttp://www.w3.org/2002/07/owl#i:Manuscript</title>
<g id="a_node6"><a xlink:href="http://www.w3.org/2002/07/owl#i:Manuscript" xlink:title="infocar:Manuscript">
<ellipse fill="none" stroke="blue" cx="395.29" cy="-192" rx="89.8845" ry="18"/>
<text text-anchor="middle" x="395.29" y="-188.3" font-family="Times,serif" font-size="14.00">infocar:Manuscript</text>
</a>
</g>
</g>
<!-- Rhttp://www.w3.org/2002/07/owl#i:Manuscript&#45;&gt;Rhttp://www.w3.org/2002/07/owl#i:Carrier -->
<g id="edge5" class="edge"><title>Rhttp://www.w3.org/2002/07/owl#i:Manuscript&#45;&gt;Rhttp://www.w3.org/2002/07/owl#i:Carrier</title>
<path fill="none" stroke="green" d="M390.876,-174.004C389.191,-163.44 389.129,-150.17 396.29,-141 404.366,-130.656 430.489,-122.62 457.134,-116.872"/>
<polygon fill="green" stroke="green" points="457.85,-120.298 466.942,-114.858 456.442,-113.441 457.85,-120.298"/>
<text text-anchor="middle" x="453.79" y="-144.8" font-family="Times,serif" font-size="14.00">rdfs:subClassOf</text>
</g>
<!-- Rhttp://www.w3.org/2000/01/rdf&#45;schema#fr:F4_Manifestation_Singleton -->
<g id="node7" class="node"><title>Rhttp://www.w3.org/2000/01/rdf&#45;schema#fr:F4_Manifestation_Singleton</title>
<g id="a_node7"><a xlink:href="http://www.w3.org/2000/01/rdf-schema#fr:F4_Manifestation_Singleton" xlink:title="frbroo:F4_Manifestation_Singleton">
<ellipse fill="none" stroke="purple" cx="834.29" cy="-105" rx="173.569" ry="18"/>
<text text-anchor="middle" x="834.29" y="-101.3" font-family="Times,serif" font-size="14.00">frbroo:F4_Manifestation_Singleton</text>
</a>
</g>
</g>
<!-- Rhttp://www.w3.org/2002/07/owl#i:Manuscript&#45;&gt;Rhttp://www.w3.org/2000/01/rdf&#45;schema#fr:F4_Manifestation_Singleton -->
<g id="edge6" class="edge"><title>Rhttp://www.w3.org/2002/07/owl#i:Manuscript&#45;&gt;Rhttp://www.w3.org/2000/01/rdf&#45;schema#fr:F4_Manifestation_Singleton</title>
<path fill="none" stroke="green" d="M462.042,-179.945C475.67,-177.842 489.928,-175.754 503.29,-174 579.06,-164.055 599.844,-173.258 674.29,-156 693.192,-151.618 696.861,-147.074 715.29,-141 731.959,-135.506 750.076,-129.962 767.03,-124.958"/>
<polygon fill="green" stroke="green" points="768.246,-128.249 776.858,-122.078 766.277,-121.531 768.246,-128.249"/>
<text text-anchor="middle" x="772.79" y="-144.8" font-family="Times,serif" font-size="14.00">rdfs:subClassOf</text>
</g>
<!-- Rhttp://www.w3.org/2002/07/owl#i:Typescript -->
<g id="node8" class="node"><title>Rhttp://www.w3.org/2002/07/owl#i:Typescript</title>
<g id="a_node8"><a xlink:href="http://www.w3.org/2002/07/owl#i:Typescript" xlink:title="infocar:Typescript">
<ellipse fill="none" stroke="blue" cx="834.29" cy="-192" rx="85.2851" ry="18"/>
<text text-anchor="middle" x="834.29" y="-188.3" font-family="Times,serif" font-size="14.00">infocar:Typescript</text>
</a>
</g>
</g>
<!-- Rhttp://www.w3.org/2002/07/owl#i:Typescript&#45;&gt;Rhttp://www.w3.org/2002/07/owl#i:Carrier -->
<g id="edge7" class="edge"><title>Rhttp://www.w3.org/2002/07/owl#i:Typescript&#45;&gt;Rhttp://www.w3.org/2002/07/owl#i:Carrier</title>
<path fill="none" stroke="green" d="M757.007,-184.43C681.616,-177.499 575.906,-166.19 559.29,-156 550.028,-150.32 542.697,-141.06 537.251,-132.043"/>
<polygon fill="green" stroke="green" points="540.306,-130.336 532.43,-123.249 534.168,-133.701 540.306,-130.336"/>
<text text-anchor="middle" x="616.79" y="-144.8" font-family="Times,serif" font-size="14.00">rdfs:subClassOf</text>
</g>
<!-- Rhttp://www.w3.org/2002/07/owl#i:Typescript&#45;&gt;Rhttp://www.w3.org/2000/01/rdf&#45;schema#fr:F4_Manifestation_Singleton -->
<g id="edge8" class="edge"><title>Rhttp://www.w3.org/2002/07/owl#i:Typescript&#45;&gt;Rhttp://www.w3.org/2000/01/rdf&#45;schema#fr:F4_Manifestation_Singleton</title>
<path fill="none" stroke="green" d="M834.29,-173.799C834.29,-162.163 834.29,-146.548 834.29,-133.237"/>
<polygon fill="green" stroke="green" points="837.79,-133.175 834.29,-123.175 830.79,-133.175 837.79,-133.175"/>
<text text-anchor="middle" x="891.79" y="-144.8" font-family="Times,serif" font-size="14.00">rdfs:subClassOf</text>
</g>
<!-- Rhttp://www.w3.org/2002/07/owl#i:Sender -->
<g id="node9" class="node"><title>Rhttp://www.w3.org/2002/07/owl#i:Sender</title>
<g id="a_node9"><a xlink:href="http://www.w3.org/2002/07/owl#i:Sender" xlink:title="infocar:Sender">
<ellipse fill="none" stroke="blue" cx="1165.29" cy="-192" rx="68.4888" ry="18"/>
<text text-anchor="middle" x="1165.29" y="-188.3" font-family="Times,serif" font-size="14.00">infocar:Sender</text>
</a>
</g>
</g>
<!-- Rhttp://www.w3.org/2002/07/owl#h:Role -->
<g id="node10" class="node"><title>Rhttp://www.w3.org/2002/07/owl#h:Role</title>
<g id="a_node10"><a xlink:href="http://www.w3.org/2002/07/owl#h:Role" xlink:title="human:Role">
<ellipse fill="none" stroke="blue" cx="1246.29" cy="-105" rx="59.2899" ry="18"/>
<text text-anchor="middle" x="1246.29" y="-101.3" font-family="Times,serif" font-size="14.00">human:Role</text>
</a>
</g>
</g>
<!-- Rhttp://www.w3.org/2002/07/owl#i:Sender&#45;&gt;Rhttp://www.w3.org/2002/07/owl#h:Role -->
<g id="edge9" class="edge"><title>Rhttp://www.w3.org/2002/07/owl#i:Sender&#45;&gt;Rhttp://www.w3.org/2002/07/owl#h:Role</title>
<path fill="none" stroke="green" d="M1168.72,-173.714C1171.5,-163.299 1176.3,-150.296 1184.29,-141 1189.56,-134.87 1196.18,-129.589 1203.12,-125.122"/>
<polygon fill="green" stroke="green" points="1205.16,-127.983 1212,-119.896 1201.61,-121.949 1205.16,-127.983"/>
<text text-anchor="middle" x="1241.79" y="-144.8" font-family="Times,serif" font-size="14.00">rdfs:subClassOf</text>
</g>
<!-- Rhttp://www.w3.org/2002/07/owl#i:Receiver -->
<g id="node11" class="node"><title>Rhttp://www.w3.org/2002/07/owl#i:Receiver</title>
<g id="a_node11"><a xlink:href="http://www.w3.org/2002/07/owl#i:Receiver" xlink:title="infocar:Receiver">
<ellipse fill="none" stroke="blue" cx="1328.29" cy="-192" rx="76.8869" ry="18"/>
<text text-anchor="middle" x="1328.29" y="-188.3" font-family="Times,serif" font-size="14.00">infocar:Receiver</text>
</a>
</g>
</g>
<!-- Rhttp://www.w3.org/2002/07/owl#i:Receiver&#45;&gt;Rhttp://www.w3.org/2002/07/owl#h:Role -->
<g id="edge10" class="edge"><title>Rhttp://www.w3.org/2002/07/owl#i:Receiver&#45;&gt;Rhttp://www.w3.org/2002/07/owl#h:Role</title>
<path fill="none" stroke="green" d="M1320.87,-173.953C1315.81,-163.627 1308.38,-150.634 1299.29,-141 1294.41,-135.827 1288.62,-131.039 1282.7,-126.77"/>
<polygon fill="green" stroke="green" points="1284.25,-123.597 1274.01,-120.903 1280.34,-129.399 1284.25,-123.597"/>
<text text-anchor="middle" x="1366.79" y="-144.8" font-family="Times,serif" font-size="14.00">rdfs:subClassOf</text>
</g>
<!-- Rhttp://www.w3.org/2002/07/owl#i:Letter -->
<g id="node12" class="node"><title>Rhttp://www.w3.org/2002/07/owl#i:Letter</title>
<g id="a_node12"><a xlink:href="http://www.w3.org/2002/07/owl#i:Letter" xlink:title="infocar:Letter">
<ellipse fill="none" stroke="blue" cx="980.29" cy="-279" rx="64.9885" ry="18"/>
<text text-anchor="middle" x="980.29" y="-275.3" font-family="Times,serif" font-size="14.00">infocar:Letter</text>
</a>
</g>
</g>
<!-- Rhttp://www.w3.org/2002/07/owl#i:Letter&#45;&gt;Rhttp://www.w3.org/2002/07/owl#i:Carrier -->
<g id="edge11" class="edge"><title>Rhttp://www.w3.org/2002/07/owl#i:Letter&#45;&gt;Rhttp://www.w3.org/2002/07/owl#i:Carrier</title>
<path fill="none" stroke="green" d="M918.669,-273.262C846.276,-266.11 723.578,-248.986 625.29,-210 583.686,-193.498 567.309,-191.68 540.29,-156 535.211,-149.294 531.844,-140.879 529.614,-132.875"/>
<polygon fill="green" stroke="green" points="533.02,-132.069 527.355,-123.116 526.2,-133.648 533.02,-132.069"/>
<text text-anchor="middle" x="682.79" y="-188.3" font-family="Times,serif" font-size="14.00">rdfs:subClassOf</text>
</g>
<!-- Rhttp://www.w3.org/2002/07/owl#i:Letter&#45;&gt;Rhttp://www.w3.org/2002/07/owl#i:Manuscript -->
<g id="edge13" class="edge"><title>Rhttp://www.w3.org/2002/07/owl#i:Letter&#45;&gt;Rhttp://www.w3.org/2002/07/owl#i:Manuscript</title>
<path fill="none" stroke="green" d="M915.944,-276.461C767.833,-272.607 414.07,-261.504 396.29,-243 390.537,-237.013 388.942,-228.523 389.202,-220.234"/>
<polygon fill="green" stroke="green" points="392.708,-220.376 390.35,-210.047 385.752,-219.592 392.708,-220.376"/>
<text text-anchor="middle" x="453.79" y="-231.8" font-family="Times,serif" font-size="14.00">rdfs:subClassOf</text>
</g>
<!-- Rhttp://www.w3.org/2002/07/owl#i:Letter&#45;&gt;Rhttp://www.w3.org/2000/01/rdf&#45;schema#fr:F4_Manifestation_Singleton -->
<g id="edge12" class="edge"><title>Rhttp://www.w3.org/2002/07/owl#i:Letter&#45;&gt;Rhttp://www.w3.org/2000/01/rdf&#45;schema#fr:F4_Manifestation_Singleton</title>
<path fill="none" stroke="green" d="M978.686,-260.835C975.288,-228.073 966.331,-158.334 950.29,-141 944.436,-134.675 937.485,-129.478 929.938,-125.21"/>
<polygon fill="green" stroke="green" points="931.339,-121.996 920.835,-120.614 928.185,-128.245 931.339,-121.996"/>
<text text-anchor="middle" x="1029.79" y="-188.3" font-family="Times,serif" font-size="14.00">rdfs:subClassOf</text>
</g>
<!-- Rhttp://www.w3.org/2002/07/owl#i:Letter&#45;&gt;Rhttp://www.w3.org/2002/07/owl#i:Typescript -->
<g id="edge14" class="edge"><title>Rhttp://www.w3.org/2002/07/owl#i:Letter&#45;&gt;Rhttp://www.w3.org/2002/07/owl#i:Typescript</title>
<path fill="none" stroke="green" d="M921.46,-271.126C886.259,-265.68 846.28,-256.676 835.29,-243 830.165,-236.624 828.677,-228.168 828.843,-220.027"/>
<polygon fill="green" stroke="green" points="832.328,-220.351 829.789,-210.065 825.359,-219.689 832.328,-220.351"/>
<text text-anchor="middle" x="892.79" y="-231.8" font-family="Times,serif" font-size="14.00">rdfs:subClassOf</text>
</g>
<!-- Rhttp://www.w3.org/2002/07/owl#i:Letter&#45;&gt;Rhttp://www.w3.org/2002/07/owl#i:Sender -->
<g id="edge15" class="edge"><title>Rhttp://www.w3.org/2002/07/owl#i:Letter&#45;&gt;Rhttp://www.w3.org/2002/07/owl#i:Sender</title>
<path fill="none" stroke="blue" d="M982.207,-260.769C984.334,-249.832 988.823,-236.235 998.29,-228 998.552,-227.772 1056.08,-215.746 1103.53,-205.855"/>
<polygon fill="blue" stroke="blue" points="1104.41,-209.248 1113.48,-203.781 1102.98,-202.395 1104.41,-209.248"/>
<text text-anchor="middle" x="1055.29" y="-231.8" font-family="Times,serif" font-size="14.00">infocar:hasSender</text>
</g>
<!-- Rhttp://www.w3.org/2002/07/owl#i:Letter&#45;&gt;Rhttp://www.w3.org/2002/07/owl#i:Receiver -->
<g id="edge16" class="edge"><title>Rhttp://www.w3.org/2002/07/owl#i:Letter&#45;&gt;Rhttp://www.w3.org/2002/07/owl#i:Receiver</title>
<path fill="none" stroke="blue" d="M1028.71,-266.866C1059.88,-259.37 1097.29,-249.673 1112.29,-243 1123.44,-238.04 1123.92,-232.439 1135.29,-228 1180.21,-210.459 1194.85,-218.677 1242.29,-210 1248.58,-208.85 1255.12,-207.62 1261.66,-206.366"/>
<polygon fill="blue" stroke="blue" points="1262.74,-209.721 1271.9,-204.386 1261.41,-202.849 1262.74,-209.721"/>
<text text-anchor="middle" x="1198.79" y="-231.8" font-family="Times,serif" font-size="14.00">infocar:hasReceiver</text>
</g>
<!-- Rhttp://www.w3.org/2002/07/owl#ph:Place -->
<g id="node13" class="node"><title>Rhttp://www.w3.org/2002/07/owl#ph:Place</title>
<g id="a_node13"><a xlink:href="http://www.w3.org/2002/07/owl#ph:Place" xlink:title="physical:Place">
<ellipse fill="none" stroke="blue" cx="1492.29" cy="-192" rx="69.5877" ry="18"/>
<text text-anchor="middle" x="1492.29" y="-188.3" font-family="Times,serif" font-size="14.00">physical:Place</text>
</a>
</g>
</g>
<!-- Rhttp://www.w3.org/2002/07/owl#i:Letter&#45;&gt;Rhttp://www.w3.org/2002/07/owl#ph:Place -->
<g id="edge17" class="edge"><title>Rhttp://www.w3.org/2002/07/owl#i:Letter&#45;&gt;Rhttp://www.w3.org/2002/07/owl#ph:Place</title>
<path fill="none" stroke="blue" d="M1026.68,-266.302C1035.79,-264.3 1045.3,-262.414 1054.29,-261 1145.95,-246.577 1174.57,-273.253 1262.29,-243 1273.83,-239.021 1273.86,-232.279 1285.29,-228 1339.5,-207.701 1357.3,-220.171 1414.29,-210 1420.06,-208.97 1426.05,-207.817 1432.03,-206.609"/>
<polygon fill="blue" stroke="blue" points="1432.97,-209.99 1442.05,-204.537 1431.55,-203.135 1432.97,-209.99"/>
<text text-anchor="middle" x="1377.29" y="-231.8" font-family="Times,serif" font-size="14.00">infocar:hasSendingLocation</text>
</g>
<!-- Rhttp://www.w3.org/2002/07/owl#i:Letter&#45;&gt;Rhttp://www.w3.org/2002/07/owl#ph:Place -->
<g id="edge18" class="edge"><title>Rhttp://www.w3.org/2002/07/owl#i:Letter&#45;&gt;Rhttp://www.w3.org/2002/07/owl#ph:Place</title>
<path fill="none" stroke="blue" d="M1026.24,-266.079C1035.47,-264.07 1045.15,-262.238 1054.29,-261 1100.03,-254.807 1430.98,-268.736 1469.29,-243 1477.24,-237.658 1482.49,-228.83 1485.94,-220.067"/>
<polygon fill="blue" stroke="blue" points="1489.32,-220.983 1489.11,-210.39 1482.67,-218.803 1489.32,-220.983"/>
<text text-anchor="middle" x="1579.29" y="-231.8" font-family="Times,serif" font-size="14.00">infocar:hasReceivingLocation</text>
</g>
<!-- Rhttp://www.w3.org/2002/07/owl#t:HandwrittenText -->
<g id="node14" class="node"><title>Rhttp://www.w3.org/2002/07/owl#t:HandwrittenText</title>
<g id="a_node14"><a xlink:href="http://www.w3.org/2002/07/owl#t:HandwrittenText" xlink:title="text:HandwrittenText">
<ellipse fill="none" stroke="blue" cx="223.29" cy="-279" rx="116.18" ry="18"/>
<text text-anchor="middle" x="223.29" y="-275.3" font-family="Times,serif" font-size="14.00">text:HandwrittenText</text>
</a>
</g>
</g>
<!-- Rhttp://www.w3.org/2002/07/owl#t:HandwrittenText&#45;&gt;Rhttp://www.w3.org/2002/07/owl#i:Manuscript -->
<g id="edge19" class="edge"><title>Rhttp://www.w3.org/2002/07/owl#t:HandwrittenText&#45;&gt;Rhttp://www.w3.org/2002/07/owl#i:Manuscript</title>
<path fill="none" stroke="blue" d="M218.681,-260.848C216.919,-250.22 216.844,-236.94 224.29,-228 235.145,-214.966 269.207,-206.639 304.103,-201.394"/>
<polygon fill="blue" stroke="blue" points="305.03,-204.798 314.44,-199.929 304.048,-197.867 305.03,-204.798"/>
<text text-anchor="middle" x="298.79" y="-231.8" font-family="Times,serif" font-size="14.00">infocar:isInManuscript</text>
</g>
<!-- Rhttp://www.w3.org/2002/07/owl#t:LetterExpression -->
<g id="node15" class="node"><title>Rhttp://www.w3.org/2002/07/owl#t:LetterExpression</title>
<g id="a_node15"><a xlink:href="http://www.w3.org/2002/07/owl#t:LetterExpression" xlink:title="text:LetterExpression">
<ellipse fill="none" stroke="blue" cx="1076.29" cy="-366" rx="117.779" ry="18"/>
<text text-anchor="middle" x="1076.29" y="-362.3" font-family="Times,serif" font-size="14.00">text:LetterExpression</text>
</a>
</g>
</g>
<!-- Rhttp://www.w3.org/2002/07/owl#t:LetterExpression&#45;&gt;Rhttp://www.w3.org/2002/07/owl#i:Letter -->
<g id="edge20" class="edge"><title>Rhttp://www.w3.org/2002/07/owl#t:LetterExpression&#45;&gt;Rhttp://www.w3.org/2002/07/owl#i:Letter</title>
<path fill="none" stroke="blue" d="M1028.08,-349.487C1017.94,-344.506 1007.99,-338.109 1000.29,-330 994.154,-323.543 989.816,-314.968 986.786,-306.745"/>
<polygon fill="blue" stroke="blue" points="990.071,-305.526 983.707,-297.056 983.4,-307.646 990.071,-305.526"/>
<text text-anchor="middle" x="1055.79" y="-318.8" font-family="Times,serif" font-size="14.00">infocar:isInLetter</text>
</g>
<!-- Rhttp://www.w3.org/2002/07/owl#tstruc:Letter -->
<g id="node16" class="node"><title>Rhttp://www.w3.org/2002/07/owl#tstruc:Letter</title>
<g id="a_node16"><a xlink:href="http://www.w3.org/2002/07/owl#tstruc:Letter" xlink:title="textstruct:Letter">
<ellipse fill="none" stroke="blue" cx="1153.29" cy="-279" rx="90.1842" ry="18"/>
<text text-anchor="middle" x="1153.29" y="-275.3" font-family="Times,serif" font-size="14.00">textstruct:Letter</text>
</a>
</g>
</g>
<!-- Rhttp://www.w3.org/2002/07/owl#t:LetterExpression&#45;&gt;Rhttp://www.w3.org/2002/07/owl#tstruc:Letter -->
<g id="edge21" class="edge"><title>Rhttp://www.w3.org/2002/07/owl#t:LetterExpression&#45;&gt;Rhttp://www.w3.org/2002/07/owl#tstruc:Letter</title>
<path fill="none" stroke="blue" d="M1096.41,-348.246C1102.7,-342.678 1109.49,-336.288 1115.29,-330 1122.31,-322.384 1129.35,-313.534 1135.43,-305.416"/>
<polygon fill="blue" stroke="blue" points="1138.29,-307.437 1141.38,-297.303 1132.65,-303.298 1138.29,-307.437"/>
<text text-anchor="middle" x="1236.79" y="-318.8" font-family="Times,serif" font-size="14.00">textstruct:hasLetterStructure</text>
</g>
</g>
</svg>