<?xml version="1.0" encoding="UTF-8" standalone="no"?>
<!DOCTYPE svg PUBLIC "-//W3C//DTD SVG 1.1//EN"
 "http://www.w3.org/Graphics/SVG/1.1/DTD/svg11.dtd">
<!-- Generated by graphviz version 2.38.0 (20140413.2041)
 -->
<!-- Title: %3 Pages: 1 -->
<svg width="4291pt" height="566pt"
 viewBox="0.00 0.00 4290.58 566.00" xmlns="http://www.w3.org/2000/svg" xmlns:xlink="http://www.w3.org/1999/xlink">
<g id="graph0" class="graph" transform="scale(1 1) rotate(0) translate(4 562)">
<title>%3</title>
<polygon fill="white" stroke="none" points="-4,4 -4,-562 4286.58,-562 4286.58,4 -4,4"/>
<!-- Rhttp://www.w3.org/2002/07/owl#l:Literature -->
<g id="node1" class="node"><title>Rhttp://www.w3.org/2002/07/owl#l:Literature</title>
<g id="a_node1"><a xlink:href="http://www.w3.org/2002/07/owl#l:Literature" xlink:title="literature:Literature">
<ellipse fill="none" stroke="blue" cx="1609.34" cy="-105" rx="83.3857" ry="18"/>
<text text-anchor="middle" x="1609.34" y="-101.3" font-family="Times,serif" font-size="14.00">literature:Literature</text>
</a>
</g>
</g>
<!-- Rhttp://www.w3.org/2002/07/owl#t:WrittenText -->
<g id="node2" class="node"><title>Rhttp://www.w3.org/2002/07/owl#t:WrittenText</title>
<g id="a_node2"><a xlink:href="http://www.w3.org/2002/07/owl#t:WrittenText" xlink:title="text::WrittenText">
<ellipse fill="none" stroke="blue" cx="1609.34" cy="-18" rx="92.0841" ry="18"/>
<text text-anchor="middle" x="1609.34" y="-14.3" font-family="Times,serif" font-size="14.00">text::WrittenText</text>
</a>
</g>
</g>
<!-- Rhttp://www.w3.org/2002/07/owl#l:Literature&#45;&gt;Rhttp://www.w3.org/2002/07/owl#t:WrittenText -->
<g id="edge1" class="edge"><title>Rhttp://www.w3.org/2002/07/owl#l:Literature&#45;&gt;Rhttp://www.w3.org/2002/07/owl#t:WrittenText</title>
<path fill="none" stroke="green" d="M1609.34,-86.799C1609.34,-75.1626 1609.34,-59.5479 1609.34,-46.2368"/>
<polygon fill="green" stroke="green" points="1612.84,-46.1754 1609.34,-36.1754 1605.84,-46.1755 1612.84,-46.1754"/>
<text text-anchor="middle" x="1666.84" y="-57.8" font-family="Times,serif" font-size="14.00">rdfs:subClassOf</text>
</g>
<!-- Rhttp://www.w3.org/2002/07/owl#l:Fiction -->
<g id="node3" class="node"><title>Rhttp://www.w3.org/2002/07/owl#l:Fiction</title>
<g id="a_node3"><a xlink:href="http://www.w3.org/2002/07/owl#l:Fiction" xlink:title="literature:Fiction">
<ellipse fill="none" stroke="blue" cx="3060.34" cy="-192" rx="68.4888" ry="18"/>
<text text-anchor="middle" x="3060.34" y="-188.3" font-family="Times,serif" font-size="14.00">literature:Fiction</text>
</a>
</g>
</g>
<!-- Rhttp://www.w3.org/2002/07/owl#l:Fiction&#45;&gt;Rhttp://www.w3.org/2002/07/owl#l:Literature -->
<g id="edge2" class="edge"><title>Rhttp://www.w3.org/2002/07/owl#l:Fiction&#45;&gt;Rhttp://www.w3.org/2002/07/owl#l:Literature</title>
<path fill="none" stroke="green" d="M2994.89,-186.785C2857.39,-177.965 2528.4,-157.054 2252.34,-141 2055.18,-129.534 1823.93,-117.225 1699.53,-110.698"/>
<polygon fill="green" stroke="green" points="1699.47,-107.189 1689.3,-110.161 1699.1,-114.18 1699.47,-107.189"/>
<text text-anchor="middle" x="2554.84" y="-144.8" font-family="Times,serif" font-size="14.00">rdfs:subClassOf</text>
</g>
<!-- Rhttp://www.w3.org/2002/07/owl#c:Fiction -->
<g id="node4" class="node"><title>Rhttp://www.w3.org/2002/07/owl#c:Fiction</title>
<g id="a_node4"><a xlink:href="http://www.w3.org/2002/07/owl#c:Fiction" xlink:title="concept:Fiction">
<ellipse fill="none" stroke="blue" cx="3060.34" cy="-105" rx="70.6878" ry="18"/>
<text text-anchor="middle" x="3060.34" y="-101.3" font-family="Times,serif" font-size="14.00">concept:Fiction</text>
</a>
</g>
</g>
<!-- Rhttp://www.w3.org/2002/07/owl#l:Fiction&#45;&gt;Rhttp://www.w3.org/2002/07/owl#c:Fiction -->
<g id="edge3" class="edge"><title>Rhttp://www.w3.org/2002/07/owl#l:Fiction&#45;&gt;Rhttp://www.w3.org/2002/07/owl#c:Fiction</title>
<path fill="none" stroke="green" d="M3060.34,-173.799C3060.34,-162.163 3060.34,-146.548 3060.34,-133.237"/>
<polygon fill="green" stroke="green" points="3063.84,-133.175 3060.34,-123.175 3056.84,-133.175 3063.84,-133.175"/>
<text text-anchor="middle" x="3117.84" y="-144.8" font-family="Times,serif" font-size="14.00">rdfs:subClassOf</text>
</g>
<!-- Rhttp://www.w3.org/2002/07/owl#l:Nonfiction -->
<g id="node5" class="node"><title>Rhttp://www.w3.org/2002/07/owl#l:Nonfiction</title>
<g id="a_node5"><a xlink:href="http://www.w3.org/2002/07/owl#l:Nonfiction" xlink:title="literature:Nonfiction">
<ellipse fill="none" stroke="blue" cx="1288.34" cy="-192" rx="84.485" ry="18"/>
<text text-anchor="middle" x="1288.34" y="-188.3" font-family="Times,serif" font-size="14.00">literature:Nonfiction</text>
</a>
</g>
</g>
<!-- Rhttp://www.w3.org/2002/07/owl#l:Nonfiction&#45;&gt;Rhttp://www.w3.org/2002/07/owl#l:Literature -->
<g id="edge4" class="edge"><title>Rhttp://www.w3.org/2002/07/owl#l:Nonfiction&#45;&gt;Rhttp://www.w3.org/2002/07/owl#l:Literature</title>
<path fill="none" stroke="green" d="M1353.09,-180.361C1382.84,-174.604 1418.32,-166.495 1449.34,-156 1464.22,-150.967 1466.6,-146.425 1481.34,-141 1501.69,-133.513 1524.37,-126.801 1544.92,-121.306"/>
<polygon fill="green" stroke="green" points="1546.04,-124.632 1554.82,-118.708 1544.26,-117.861 1546.04,-124.632"/>
<text text-anchor="middle" x="1538.84" y="-144.8" font-family="Times,serif" font-size="14.00">rdfs:subClassOf</text>
</g>
<!-- Rhttp://www.w3.org/2002/07/owl#c:Nonfiction -->
<g id="node6" class="node"><title>Rhttp://www.w3.org/2002/07/owl#c:Nonfiction</title>
<g id="a_node6"><a xlink:href="http://www.w3.org/2002/07/owl#c:Nonfiction" xlink:title="concept:Nonfiction">
<ellipse fill="none" stroke="blue" cx="1057.34" cy="-105" rx="87.1846" ry="18"/>
<text text-anchor="middle" x="1057.34" y="-101.3" font-family="Times,serif" font-size="14.00">concept:Nonfiction</text>
</a>
</g>
</g>
<!-- Rhttp://www.w3.org/2002/07/owl#l:Nonfiction&#45;&gt;Rhttp://www.w3.org/2002/07/owl#c:Nonfiction -->
<g id="edge5" class="edge"><title>Rhttp://www.w3.org/2002/07/owl#l:Nonfiction&#45;&gt;Rhttp://www.w3.org/2002/07/owl#c:Nonfiction</title>
<path fill="none" stroke="green" d="M1204.59,-189.254C1146.92,-186.09 1077.38,-177.714 1058.34,-156 1052.95,-149.849 1051.39,-141.453 1051.57,-133.298"/>
<polygon fill="green" stroke="green" points="1055.06,-133.584 1052.58,-123.283 1048.1,-132.883 1055.06,-133.584"/>
<text text-anchor="middle" x="1115.84" y="-144.8" font-family="Times,serif" font-size="14.00">rdfs:subClassOf</text>
</g>
<!-- Rhttp://www.w3.org/2002/07/owl#l:Poetry -->
<g id="node7" class="node"><title>Rhttp://www.w3.org/2002/07/owl#l:Poetry</title>
<g id="a_node7"><a xlink:href="http://www.w3.org/2002/07/owl#l:Poetry" xlink:title="literature:Poetry">
<ellipse fill="none" stroke="blue" cx="716.342" cy="-192" rx="65.7887" ry="18"/>
<text text-anchor="middle" x="716.342" y="-188.3" font-family="Times,serif" font-size="14.00">literature:Poetry</text>
</a>
</g>
</g>
<!-- Rhttp://www.w3.org/2002/07/owl#l:Poetry&#45;&gt;Rhttp://www.w3.org/2002/07/owl#l:Literature -->
<g id="edge6" class="edge"><title>Rhttp://www.w3.org/2002/07/owl#l:Poetry&#45;&gt;Rhttp://www.w3.org/2002/07/owl#l:Literature</title>
<path fill="none" stroke="green" d="M781.547,-189.371C925.766,-185.452 1262.89,-174.431 1311.34,-156 1321.4,-152.174 1320.42,-145.155 1330.34,-141 1363.75,-127.011 1452.16,-117.48 1520.59,-111.939"/>
<polygon fill="green" stroke="green" points="1521.27,-115.396 1530.96,-111.117 1520.72,-108.418 1521.27,-115.396"/>
<text text-anchor="middle" x="1387.84" y="-144.8" font-family="Times,serif" font-size="14.00">rdfs:subClassOf</text>
</g>
<!-- Rhttp://www.w3.org/2002/07/owl#l:LyricPoetry -->
<g id="node8" class="node"><title>Rhttp://www.w3.org/2002/07/owl#l:LyricPoetry</title>
<g id="a_node8"><a xlink:href="http://www.w3.org/2002/07/owl#l:LyricPoetry" xlink:title="literature:LyricPoetry">
<ellipse fill="none" stroke="blue" cx="90.342" cy="-279" rx="90.1842" ry="18"/>
<text text-anchor="middle" x="90.342" y="-275.3" font-family="Times,serif" font-size="14.00">literature:LyricPoetry</text>
</a>
</g>
</g>
<!-- Rhttp://www.w3.org/2002/07/owl#l:LyricPoetry&#45;&gt;Rhttp://www.w3.org/2002/07/owl#l:Poetry -->
<g id="edge7" class="edge"><title>Rhttp://www.w3.org/2002/07/owl#l:LyricPoetry&#45;&gt;Rhttp://www.w3.org/2002/07/owl#l:Poetry</title>
<path fill="none" stroke="green" d="M115.477,-261.681C135.023,-249.943 163.281,-234.997 190.342,-228 281.646,-204.391 520.542,-219.77 614.342,-210 627.29,-208.651 641.087,-206.703 654.213,-204.602"/>
<polygon fill="green" stroke="green" points="654.797,-208.053 664.095,-202.974 653.659,-201.146 654.797,-208.053"/>
<text text-anchor="middle" x="247.842" y="-231.8" font-family="Times,serif" font-size="14.00">rdfs:subClassOf</text>
</g>
<!-- Rhttp://www.w3.org/2002/07/owl#l:NarrativePoetry -->
<g id="node9" class="node"><title>Rhttp://www.w3.org/2002/07/owl#l:NarrativePoetry</title>
<g id="a_node9"><a xlink:href="http://www.w3.org/2002/07/owl#l:NarrativePoetry" xlink:title="literature:NarrativePoetry">
<ellipse fill="none" stroke="blue" cx="1470.34" cy="-279" rx="111.28" ry="18"/>
<text text-anchor="middle" x="1470.34" y="-275.3" font-family="Times,serif" font-size="14.00">literature:NarrativePoetry</text>
</a>
</g>
</g>
<!-- Rhttp://www.w3.org/2002/07/owl#l:NarrativePoetry&#45;&gt;Rhttp://www.w3.org/2002/07/owl#l:Poetry -->
<g id="edge8" class="edge"><title>Rhttp://www.w3.org/2002/07/owl#l:NarrativePoetry&#45;&gt;Rhttp://www.w3.org/2002/07/owl#l:Poetry</title>
<path fill="none" stroke="green" d="M1366.04,-272.614C1282.73,-267.316 1173.24,-257.84 1131.34,-243 1119.84,-238.926 1119.87,-231.995 1108.34,-228 1051.68,-208.37 888.412,-199.204 791.38,-195.382"/>
<polygon fill="green" stroke="green" points="791.462,-191.882 781.335,-194.996 791.193,-198.877 791.462,-191.882"/>
<text text-anchor="middle" x="1188.84" y="-231.8" font-family="Times,serif" font-size="14.00">rdfs:subClassOf</text>
</g>
<!-- Rhttp://www.w3.org/2002/07/owl#l:Narrative -->
<g id="node10" class="node"><title>Rhttp://www.w3.org/2002/07/owl#l:Narrative</title>
<g id="a_node10"><a xlink:href="http://www.w3.org/2002/07/owl#l:Narrative" xlink:title="literature:Narrative">
<ellipse fill="none" stroke="blue" cx="1906.34" cy="-192" rx="81.4863" ry="18"/>
<text text-anchor="middle" x="1906.34" y="-188.3" font-family="Times,serif" font-size="14.00">literature:Narrative</text>
</a>
</g>
</g>
<!-- Rhttp://www.w3.org/2002/07/owl#l:NarrativePoetry&#45;&gt;Rhttp://www.w3.org/2002/07/owl#l:Narrative -->
<g id="edge9" class="edge"><title>Rhttp://www.w3.org/2002/07/owl#l:NarrativePoetry&#45;&gt;Rhttp://www.w3.org/2002/07/owl#l:Narrative</title>
<path fill="none" stroke="green" d="M1503.59,-261.788C1532.08,-248.011 1569.69,-230.131 1577.34,-228 1621.43,-215.724 1738.11,-205.169 1819.93,-198.95"/>
<polygon fill="green" stroke="green" points="1820.26,-202.434 1829.97,-198.194 1819.74,-195.454 1820.26,-202.434"/>
<text text-anchor="middle" x="1634.84" y="-231.8" font-family="Times,serif" font-size="14.00">rdfs:subClassOf</text>
</g>
<!-- Rhttp://www.w3.org/2002/07/owl#l:Narrative&#45;&gt;Rhttp://www.w3.org/2002/07/owl#l:Literature -->
<g id="edge19" class="edge"><title>Rhttp://www.w3.org/2002/07/owl#l:Narrative&#45;&gt;Rhttp://www.w3.org/2002/07/owl#l:Literature</title>
<path fill="none" stroke="green" d="M1858.62,-177.343C1806.49,-162.424 1722.99,-138.526 1667.18,-122.552"/>
<polygon fill="green" stroke="green" points="1668.01,-119.15 1657.43,-119.764 1666.09,-125.88 1668.01,-119.15"/>
<text text-anchor="middle" x="1833.84" y="-144.8" font-family="Times,serif" font-size="14.00">rdfs:subClassOf</text>
</g>
<!-- Rhttp://www.w3.org/2002/07/owl#l:EpicPoetry -->
<g id="node11" class="node"><title>Rhttp://www.w3.org/2002/07/owl#l:EpicPoetry</title>
<g id="a_node11"><a xlink:href="http://www.w3.org/2002/07/owl#l:EpicPoetry" xlink:title="literature:EpicPoetry">
<ellipse fill="none" stroke="blue" cx="1586.34" cy="-366" rx="87.1846" ry="18"/>
<text text-anchor="middle" x="1586.34" y="-362.3" font-family="Times,serif" font-size="14.00">literature:EpicPoetry</text>
</a>
</g>
</g>
<!-- Rhttp://www.w3.org/2002/07/owl#l:EpicPoetry&#45;&gt;Rhttp://www.w3.org/2002/07/owl#l:NarrativePoetry -->
<g id="edge10" class="edge"><title>Rhttp://www.w3.org/2002/07/owl#l:EpicPoetry&#45;&gt;Rhttp://www.w3.org/2002/07/owl#l:NarrativePoetry</title>
<path fill="none" stroke="green" d="M1550.79,-349.477C1539.92,-344.017 1528.24,-337.38 1518.34,-330 1508.59,-322.732 1499.06,-313.41 1491.09,-304.789"/>
<polygon fill="green" stroke="green" points="1493.53,-302.265 1484.25,-297.147 1488.31,-306.933 1493.53,-302.265"/>
<text text-anchor="middle" x="1575.84" y="-318.8" font-family="Times,serif" font-size="14.00">rdfs:subClassOf</text>
</g>
<!-- Rhttp://www.w3.org/2002/07/owl#l:EpicNarrative -->
<g id="node12" class="node"><title>Rhttp://www.w3.org/2002/07/owl#l:EpicNarrative</title>
<g id="a_node12"><a xlink:href="http://www.w3.org/2002/07/owl#l:EpicNarrative" xlink:title="literature:EpicNarrative">
<ellipse fill="none" stroke="blue" cx="1701.34" cy="-279" rx="102.082" ry="18"/>
<text text-anchor="middle" x="1701.34" y="-275.3" font-family="Times,serif" font-size="14.00">literature:EpicNarrative</text>
</a>
</g>
</g>
<!-- Rhttp://www.w3.org/2002/07/owl#l:EpicPoetry&#45;&gt;Rhttp://www.w3.org/2002/07/owl#l:EpicNarrative -->
<g id="edge11" class="edge"><title>Rhttp://www.w3.org/2002/07/owl#l:EpicPoetry&#45;&gt;Rhttp://www.w3.org/2002/07/owl#l:EpicNarrative</title>
<path fill="none" stroke="green" d="M1608.79,-348.409C1626.33,-335.447 1650.9,-317.285 1670.32,-302.932"/>
<polygon fill="green" stroke="green" points="1672.6,-305.598 1678.56,-296.839 1668.44,-299.969 1672.6,-305.598"/>
<text text-anchor="middle" x="1708.84" y="-318.8" font-family="Times,serif" font-size="14.00">rdfs:subClassOf</text>
</g>
<!-- Rhttp://www.w3.org/2002/07/owl#l:EpicNarrative&#45;&gt;Rhttp://www.w3.org/2002/07/owl#l:Narrative -->
<g id="edge20" class="edge"><title>Rhttp://www.w3.org/2002/07/owl#l:EpicNarrative&#45;&gt;Rhttp://www.w3.org/2002/07/owl#l:Narrative</title>
<path fill="none" stroke="green" d="M1696.64,-260.766C1694.84,-250.106 1694.75,-236.82 1702.34,-228 1717.52,-210.357 1769.57,-201.607 1817.29,-197.268"/>
<polygon fill="green" stroke="green" points="1817.73,-200.744 1827.39,-196.408 1817.13,-193.769 1817.73,-200.744"/>
<text text-anchor="middle" x="1759.84" y="-231.8" font-family="Times,serif" font-size="14.00">rdfs:subClassOf</text>
</g>
<!-- Rhttp://www.w3.org/2002/07/owl#l:DramaticPoetry -->
<g id="node13" class="node"><title>Rhttp://www.w3.org/2002/07/owl#l:DramaticPoetry</title>
<g id="a_node13"><a xlink:href="http://www.w3.org/2002/07/owl#l:DramaticPoetry" xlink:title="literature:DramaticPoetry">
<ellipse fill="none" stroke="blue" cx="909.342" cy="-279" rx="109.381" ry="18"/>
<text text-anchor="middle" x="909.342" y="-275.3" font-family="Times,serif" font-size="14.00">literature:DramaticPoetry</text>
</a>
</g>
</g>
<!-- Rhttp://www.w3.org/2002/07/owl#l:DramaticPoetry&#45;&gt;Rhttp://www.w3.org/2002/07/owl#l:Poetry -->
<g id="edge12" class="edge"><title>Rhttp://www.w3.org/2002/07/owl#l:DramaticPoetry&#45;&gt;Rhttp://www.w3.org/2002/07/owl#l:Poetry</title>
<path fill="none" stroke="green" d="M810.261,-271.344C769.999,-266.405 729.971,-257.835 717.342,-243 712.039,-236.771 710.504,-228.354 710.682,-220.204"/>
<polygon fill="green" stroke="green" points="714.17,-220.503 711.669,-210.208 707.203,-219.815 714.17,-220.503"/>
<text text-anchor="middle" x="774.842" y="-231.8" font-family="Times,serif" font-size="14.00">rdfs:subClassOf</text>
</g>
<!-- Rhttp://www.w3.org/2002/07/owl#l:Drama -->
<g id="node14" class="node"><title>Rhttp://www.w3.org/2002/07/owl#l:Drama</title>
<g id="a_node14"><a xlink:href="http://www.w3.org/2002/07/owl#l:Drama" xlink:title="literature:Drama">
<ellipse fill="none" stroke="blue" cx="1592.34" cy="-192" rx="66.8882" ry="18"/>
<text text-anchor="middle" x="1592.34" y="-188.3" font-family="Times,serif" font-size="14.00">literature:Drama</text>
</a>
</g>
</g>
<!-- Rhttp://www.w3.org/2002/07/owl#l:DramaticPoetry&#45;&gt;Rhttp://www.w3.org/2002/07/owl#l:Drama -->
<g id="edge13" class="edge"><title>Rhttp://www.w3.org/2002/07/owl#l:DramaticPoetry&#45;&gt;Rhttp://www.w3.org/2002/07/owl#l:Drama</title>
<path fill="none" stroke="green" d="M938.707,-261.6C948.806,-255.842 960.137,-249.248 970.342,-243 980.75,-236.627 981.728,-231.748 993.342,-228 1075.49,-201.494 1295.2,-215.467 1381.34,-210 1427.33,-207.082 1478.88,-202.944 1519.51,-199.482"/>
<polygon fill="green" stroke="green" points="1519.94,-202.959 1529.6,-198.618 1519.34,-195.984 1519.94,-202.959"/>
<text text-anchor="middle" x="1050.84" y="-231.8" font-family="Times,serif" font-size="14.00">rdfs:subClassOf</text>
</g>
<!-- Rhttp://www.w3.org/2002/07/owl#l:Drama&#45;&gt;Rhttp://www.w3.org/2002/07/owl#l:Literature -->
<g id="edge21" class="edge"><title>Rhttp://www.w3.org/2002/07/owl#l:Drama&#45;&gt;Rhttp://www.w3.org/2002/07/owl#l:Literature</title>
<path fill="none" stroke="green" d="M1595.78,-173.799C1598.11,-162.163 1601.23,-146.548 1603.89,-133.237"/>
<polygon fill="green" stroke="green" points="1607.38,-133.668 1605.91,-123.175 1600.51,-132.295 1607.38,-133.668"/>
<text text-anchor="middle" x="1659.84" y="-144.8" font-family="Times,serif" font-size="14.00">rdfs:subClassOf</text>
</g>
<!-- Rhttp://www.w3.org/2002/07/owl#l:DescriptivePoetry -->
<g id="node15" class="node"><title>Rhttp://www.w3.org/2002/07/owl#l:DescriptivePoetry</title>
<g id="a_node15"><a xlink:href="http://www.w3.org/2002/07/owl#l:DescriptivePoetry" xlink:title="literature:DescriptivePoetry">
<ellipse fill="none" stroke="blue" cx="578.342" cy="-279" rx="119.679" ry="18"/>
<text text-anchor="middle" x="578.342" y="-275.3" font-family="Times,serif" font-size="14.00">literature:DescriptivePoetry</text>
</a>
</g>
</g>
<!-- Rhttp://www.w3.org/2002/07/owl#l:DescriptivePoetry&#45;&gt;Rhttp://www.w3.org/2002/07/owl#l:Nonfiction -->
<g id="edge15" class="edge"><title>Rhttp://www.w3.org/2002/07/owl#l:DescriptivePoetry&#45;&gt;Rhttp://www.w3.org/2002/07/owl#l:Nonfiction</title>
<path fill="none" stroke="green" d="M694.957,-274.885C739.363,-270.405 789.544,-261.226 832.342,-243 842.241,-238.784 841.327,-231.932 851.342,-228 911.628,-204.332 1084.89,-196.664 1194.27,-194.183"/>
<polygon fill="green" stroke="green" points="1194.4,-197.681 1204.33,-193.966 1194.25,-190.683 1194.4,-197.681"/>
<text text-anchor="middle" x="908.842" y="-231.8" font-family="Times,serif" font-size="14.00">rdfs:subClassOf</text>
</g>
<!-- Rhttp://www.w3.org/2002/07/owl#l:DescriptivePoetry&#45;&gt;Rhttp://www.w3.org/2002/07/owl#l:Poetry -->
<g id="edge14" class="edge"><title>Rhttp://www.w3.org/2002/07/owl#l:DescriptivePoetry&#45;&gt;Rhttp://www.w3.org/2002/07/owl#l:Poetry</title>
<path fill="none" stroke="green" d="M573.882,-260.968C572.179,-250.389 572.114,-237.117 579.342,-228 588.419,-216.55 618.679,-208.181 648.458,-202.503"/>
<polygon fill="green" stroke="green" points="649.292,-205.908 658.507,-200.68 648.043,-199.021 649.292,-205.908"/>
<text text-anchor="middle" x="636.842" y="-231.8" font-family="Times,serif" font-size="14.00">rdfs:subClassOf</text>
</g>
<!-- Rhttp://www.w3.org/2002/07/owl#l:DescriptiveLiterature -->
<g id="node16" class="node"><title>Rhttp://www.w3.org/2002/07/owl#l:DescriptiveLiterature</title>
<g id="a_node16"><a xlink:href="http://www.w3.org/2002/07/owl#l:DescriptiveLiterature" xlink:title="literature:DescriptiveLiterature">
<ellipse fill="none" stroke="blue" cx="468.342" cy="-192" rx="137.276" ry="18"/>
<text text-anchor="middle" x="468.342" y="-188.3" font-family="Times,serif" font-size="14.00">literature:DescriptiveLiterature</text>
</a>
</g>
</g>
<!-- Rhttp://www.w3.org/2002/07/owl#l:DescriptivePoetry&#45;&gt;Rhttp://www.w3.org/2002/07/owl#l:DescriptiveLiterature -->
<g id="edge16" class="edge"><title>Rhttp://www.w3.org/2002/07/owl#l:DescriptivePoetry&#45;&gt;Rhttp://www.w3.org/2002/07/owl#l:DescriptiveLiterature</title>
<path fill="none" stroke="green" d="M496.852,-265.813C471.875,-260.304 448.946,-252.791 441.342,-243 435.442,-235.403 437.953,-226.34 443.323,-218.03"/>
<polygon fill="green" stroke="green" points="446.133,-220.118 449.441,-210.053 440.578,-215.858 446.133,-220.118"/>
<text text-anchor="middle" x="498.842" y="-231.8" font-family="Times,serif" font-size="14.00">rdfs:subClassOf</text>
</g>
<!-- Rhttp://www.w3.org/2002/07/owl#l:DescriptiveLiterature&#45;&gt;Rhttp://www.w3.org/2002/07/owl#l:Literature -->
<g id="edge22" class="edge"><title>Rhttp://www.w3.org/2002/07/owl#l:DescriptiveLiterature&#45;&gt;Rhttp://www.w3.org/2002/07/owl#l:Literature</title>
<path fill="none" stroke="green" d="M570.251,-179.889C593.587,-177.65 618.305,-175.52 641.342,-174 700.359,-170.106 1117.8,-176.339 1173.34,-156 1183.44,-152.3 1182.33,-144.951 1192.34,-141 1249.24,-118.538 1411.71,-110.482 1516.25,-107.6"/>
<polygon fill="green" stroke="green" points="1516.59,-111.092 1526.49,-107.328 1516.4,-104.094 1516.59,-111.092"/>
<text text-anchor="middle" x="1249.84" y="-144.8" font-family="Times,serif" font-size="14.00">rdfs:subClassOf</text>
</g>
<!-- Rhttp://www.w3.org/2002/07/owl#l:ScientificPoetry -->
<g id="node17" class="node"><title>Rhttp://www.w3.org/2002/07/owl#l:ScientificPoetry</title>
<g id="a_node17"><a xlink:href="http://www.w3.org/2002/07/owl#l:ScientificPoetry" xlink:title="literature:ScientificPoetry">
<ellipse fill="none" stroke="blue" cx="578.342" cy="-366" rx="109.381" ry="18"/>
<text text-anchor="middle" x="578.342" y="-362.3" font-family="Times,serif" font-size="14.00">literature:ScientificPoetry</text>
</a>
</g>
</g>
<!-- Rhttp://www.w3.org/2002/07/owl#l:ScientificPoetry&#45;&gt;Rhttp://www.w3.org/2002/07/owl#l:DescriptivePoetry -->
<g id="edge17" class="edge"><title>Rhttp://www.w3.org/2002/07/owl#l:ScientificPoetry&#45;&gt;Rhttp://www.w3.org/2002/07/owl#l:DescriptivePoetry</title>
<path fill="none" stroke="green" d="M578.342,-347.799C578.342,-336.163 578.342,-320.548 578.342,-307.237"/>
<polygon fill="green" stroke="green" points="581.842,-307.175 578.342,-297.175 574.842,-307.175 581.842,-307.175"/>
<text text-anchor="middle" x="635.842" y="-318.8" font-family="Times,serif" font-size="14.00">rdfs:subClassOf</text>
</g>
<!-- Rhttp://www.w3.org/2002/07/owl#l:PoesieFugitive -->
<g id="node18" class="node"><title>Rhttp://www.w3.org/2002/07/owl#l:PoesieFugitive</title>
<g id="a_node18"><a xlink:href="http://www.w3.org/2002/07/owl#l:PoesieFugitive" xlink:title="literature:PoesieFugitive">
<ellipse fill="none" stroke="blue" cx="302.342" cy="-279" rx="103.982" ry="18"/>
<text text-anchor="middle" x="302.342" y="-275.3" font-family="Times,serif" font-size="14.00">literature:PoesieFugitive</text>
</a>
</g>
</g>
<!-- Rhttp://www.w3.org/2002/07/owl#l:PoesieFugitive&#45;&gt;Rhttp://www.w3.org/2002/07/owl#l:Poetry -->
<g id="edge18" class="edge"><title>Rhttp://www.w3.org/2002/07/owl#l:PoesieFugitive&#45;&gt;Rhttp://www.w3.org/2002/07/owl#l:Poetry</title>
<path fill="none" stroke="green" d="M303.438,-260.817C305.13,-249.607 309.285,-235.677 319.342,-228 345.445,-208.074 581.713,-213.704 614.342,-210 627.08,-208.554 640.648,-206.592 653.593,-204.514"/>
<polygon fill="green" stroke="green" points="654.514,-207.909 663.812,-202.831 653.376,-201.003 654.514,-207.909"/>
<text text-anchor="middle" x="376.842" y="-231.8" font-family="Times,serif" font-size="14.00">rdfs:subClassOf</text>
</g>
<!-- Rhttp://www.w3.org/2002/07/owl#l:Expression -->
<g id="node19" class="node"><title>Rhttp://www.w3.org/2002/07/owl#l:Expression</title>
<g id="a_node19"><a xlink:href="http://www.w3.org/2002/07/owl#l:Expression" xlink:title="literature:Expression">
<ellipse fill="none" stroke="blue" cx="2133.34" cy="-192" rx="87.1846" ry="18"/>
<text text-anchor="middle" x="2133.34" y="-188.3" font-family="Times,serif" font-size="14.00">literature:Expression</text>
</a>
</g>
</g>
<!-- Rhttp://www.w3.org/2002/07/owl#l:Expression&#45;&gt;Rhttp://www.w3.org/2002/07/owl#l:Literature -->
<g id="edge24" class="edge"><title>Rhttp://www.w3.org/2002/07/owl#l:Expression&#45;&gt;Rhttp://www.w3.org/2002/07/owl#l:Literature</title>
<path fill="none" stroke="blue" d="M2078.29,-178.041C2030.21,-167.059 1958.44,-151.47 1895.34,-141 1827.72,-129.781 1750.55,-120.544 1693.43,-114.383"/>
<polygon fill="blue" stroke="blue" points="1693.68,-110.889 1683.36,-113.306 1692.94,-117.85 1693.68,-110.889"/>
<text text-anchor="middle" x="2027.84" y="-144.8" font-family="Times,serif" font-size="14.00">literature:hasGenre</text>
</g>
<!-- Rhttp://www.w3.org/2002/07/owl#t:Expression -->
<g id="node20" class="node"><title>Rhttp://www.w3.org/2002/07/owl#t:Expression</title>
<g id="a_node20"><a xlink:href="http://www.w3.org/2002/07/owl#t:Expression" xlink:title="text::Expression">
<ellipse fill="none" stroke="blue" cx="2133.34" cy="-105" rx="88.2844" ry="18"/>
<text text-anchor="middle" x="2133.34" y="-101.3" font-family="Times,serif" font-size="14.00">text::Expression</text>
</a>
</g>
</g>
<!-- Rhttp://www.w3.org/2002/07/owl#l:Expression&#45;&gt;Rhttp://www.w3.org/2002/07/owl#t:Expression -->
<g id="edge23" class="edge"><title>Rhttp://www.w3.org/2002/07/owl#l:Expression&#45;&gt;Rhttp://www.w3.org/2002/07/owl#t:Expression</title>
<path fill="none" stroke="green" d="M2133.34,-173.799C2133.34,-162.163 2133.34,-146.548 2133.34,-133.237"/>
<polygon fill="green" stroke="green" points="2136.84,-133.175 2133.34,-123.175 2129.84,-133.175 2136.84,-133.175"/>
<text text-anchor="middle" x="2190.84" y="-144.8" font-family="Times,serif" font-size="14.00">rdfs:subClassOf</text>
</g>
<!-- Rhttp://www.w3.org/2002/07/owl#l:Poem -->
<g id="node21" class="node"><title>Rhttp://www.w3.org/2002/07/owl#l:Poem</title>
<g id="a_node21"><a xlink:href="http://www.w3.org/2002/07/owl#l:Poem" xlink:title="literature:Poem">
<ellipse fill="none" stroke="blue" cx="1897.34" cy="-279" rx="61.1893" ry="18"/>
<text text-anchor="middle" x="1897.34" y="-275.3" font-family="Times,serif" font-size="14.00">literature:Poem</text>
</a>
</g>
</g>
<!-- Rhttp://www.w3.org/2002/07/owl#l:Poem&#45;&gt;Rhttp://www.w3.org/2002/07/owl#l:Poetry -->
<g id="edge26" class="edge"><title>Rhttp://www.w3.org/2002/07/owl#l:Poem&#45;&gt;Rhttp://www.w3.org/2002/07/owl#l:Poetry</title>
<path fill="none" stroke="blue" d="M1850.8,-267.257C1838.37,-264.782 1824.9,-262.452 1812.34,-261 1751.93,-254.013 1322.45,-263.886 1265.34,-243 1255.24,-239.305 1256.38,-231.862 1246.34,-228 1165.66,-196.974 918.9,-192.62 792.585,-192.512"/>
<polygon fill="blue" stroke="blue" points="792.224,-189.012 782.224,-192.512 792.224,-196.012 792.224,-189.012"/>
<text text-anchor="middle" x="1320.34" y="-231.8" font-family="Times,serif" font-size="14.00">literature:hasPoetry</text>
</g>
<!-- Rhttp://www.w3.org/2002/07/owl#l:Poem&#45;&gt;Rhttp://www.w3.org/2002/07/owl#l:Expression -->
<g id="edge25" class="edge"><title>Rhttp://www.w3.org/2002/07/owl#l:Poem&#45;&gt;Rhttp://www.w3.org/2002/07/owl#l:Expression</title>
<path fill="none" stroke="green" d="M1862.17,-264.112C1843.34,-254.688 1826.27,-241.523 1838.34,-228 1861.87,-201.636 1961.25,-214.176 1996.34,-210 2014.11,-207.885 2033.17,-205.558 2051.26,-203.322"/>
<polygon fill="green" stroke="green" points="2051.7,-206.794 2061.19,-202.091 2050.84,-199.847 2051.7,-206.794"/>
<text text-anchor="middle" x="1895.84" y="-231.8" font-family="Times,serif" font-size="14.00">rdfs:subClassOf</text>
</g>
<!-- Rhttp://www.w3.org/2002/07/owl#l:VersePoem -->
<g id="node22" class="node"><title>Rhttp://www.w3.org/2002/07/owl#l:VersePoem</title>
<g id="a_node22"><a xlink:href="http://www.w3.org/2002/07/owl#l:VersePoem" xlink:title="literature:VersePoem">
<ellipse fill="none" stroke="blue" cx="3878.34" cy="-366" rx="87.1846" ry="18"/>
<text text-anchor="middle" x="3878.34" y="-362.3" font-family="Times,serif" font-size="14.00">literature:VersePoem</text>
</a>
</g>
</g>
<!-- Rhttp://www.w3.org/2002/07/owl#l:VersePoem&#45;&gt;Rhttp://www.w3.org/2002/07/owl#l:Poem -->
<g id="edge27" class="edge"><title>Rhttp://www.w3.org/2002/07/owl#l:VersePoem&#45;&gt;Rhttp://www.w3.org/2002/07/owl#l:Poem</title>
<path fill="none" stroke="green" d="M3793,-362.127C3429.64,-349.869 2027.89,-302.336 1982.34,-297 1973.12,-295.92 1963.41,-294.373 1953.98,-292.647"/>
<polygon fill="green" stroke="green" points="1954.37,-289.159 1943.89,-290.718 1953.05,-296.034 1954.37,-289.159"/>
<text text-anchor="middle" x="2895.84" y="-318.8" font-family="Times,serif" font-size="14.00">rdfs:subClassOf</text>
</g>
<!-- Rhttp://www.w3.org/2002/07/owl#t&#45;structure:Verse -->
<g id="node23" class="node"><title>Rhttp://www.w3.org/2002/07/owl#t&#45;structure:Verse</title>
<g id="a_node23"><a xlink:href="http://www.w3.org/2002/07/owl#t-structure:Verse" xlink:title="textstruct:Verse">
<ellipse fill="none" stroke="blue" cx="3724.34" cy="-192" rx="109.381" ry="18"/>
<text text-anchor="middle" x="3724.34" y="-188.3" font-family="Times,serif" font-size="14.00">textstruct:Verse</text>
</a>
</g>
</g>
<!-- Rhttp://www.w3.org/2002/07/owl#l:VersePoem&#45;&gt;Rhttp://www.w3.org/2002/07/owl#t&#45;structure:Verse -->
<g id="edge28" class="edge"><title>Rhttp://www.w3.org/2002/07/owl#l:VersePoem&#45;&gt;Rhttp://www.w3.org/2002/07/owl#t&#45;structure:Verse</title>
<path fill="none" stroke="blue" d="M3876.96,-347.689C3874.37,-325.414 3867.02,-286.551 3846.34,-261 3828.83,-239.368 3802.51,-223.465 3778.78,-212.502"/>
<polygon fill="blue" stroke="blue" points="3780.06,-209.24 3769.5,-208.395 3777.23,-215.642 3780.06,-209.24"/>
<text text-anchor="middle" x="3938.34" y="-275.3" font-family="Times,serif" font-size="14.00">literature:poemHasVerse</text>
</g>
<!-- Rhttp://www.w3.org/2002/07/owl#t&#45;structure:Strophe -->
<g id="node24" class="node"><title>Rhttp://www.w3.org/2002/07/owl#t&#45;structure:Strophe</title>
<g id="a_node24"><a xlink:href="http://www.w3.org/2002/07/owl#t-structure:Strophe" xlink:title="textstruct:Strophe">
<ellipse fill="none" stroke="blue" cx="4162.34" cy="-279" rx="120.479" ry="18"/>
<text text-anchor="middle" x="4162.34" y="-275.3" font-family="Times,serif" font-size="14.00">textstruct:Strophe</text>
</a>
</g>
</g>
<!-- Rhttp://www.w3.org/2002/07/owl#l:VersePoem&#45;&gt;Rhttp://www.w3.org/2002/07/owl#t&#45;structure:Strophe -->
<g id="edge29" class="edge"><title>Rhttp://www.w3.org/2002/07/owl#l:VersePoem&#45;&gt;Rhttp://www.w3.org/2002/07/owl#t&#45;structure:Strophe</title>
<path fill="none" stroke="blue" d="M3925.56,-350.869C3973.72,-336.455 4048.64,-314.03 4101.28,-298.275"/>
<polygon fill="blue" stroke="blue" points="4102.59,-301.536 4111.17,-295.315 4100.59,-294.83 4102.59,-301.536"/>
<text text-anchor="middle" x="4118.84" y="-318.8" font-family="Times,serif" font-size="14.00">literature:poemHasStrophe</text>
</g>
<!-- Rhttp://www.w3.org/2002/07/owl#l:ProsePoem -->
<g id="node25" class="node"><title>Rhttp://www.w3.org/2002/07/owl#l:ProsePoem</title>
<g id="a_node25"><a xlink:href="http://www.w3.org/2002/07/owl#l:ProsePoem" xlink:title="literature:ProsePoem">
<ellipse fill="none" stroke="blue" cx="2983.34" cy="-366" rx="87.1846" ry="18"/>
<text text-anchor="middle" x="2983.34" y="-362.3" font-family="Times,serif" font-size="14.00">literature:ProsePoem</text>
</a>
</g>
</g>
<!-- Rhttp://www.w3.org/2002/07/owl#l:ProsePoem&#45;&gt;Rhttp://www.w3.org/2002/07/owl#l:Poem -->
<g id="edge30" class="edge"><title>Rhttp://www.w3.org/2002/07/owl#l:ProsePoem&#45;&gt;Rhttp://www.w3.org/2002/07/owl#l:Poem</title>
<path fill="none" stroke="green" d="M2897.27,-362.907C2723.59,-357.858 2319.02,-341.911 1982.34,-297 1973.25,-295.787 1963.67,-294.188 1954.35,-292.455"/>
<polygon fill="green" stroke="green" points="1954.85,-288.988 1944.37,-290.535 1953.53,-295.862 1954.85,-288.988"/>
<text text-anchor="middle" x="2341.84" y="-318.8" font-family="Times,serif" font-size="14.00">rdfs:subClassOf</text>
</g>
<!-- Rhttp://www.w3.org/2002/07/owl#t&#45;structure:Prose -->
<g id="node26" class="node"><title>Rhttp://www.w3.org/2002/07/owl#t&#45;structure:Prose</title>
<g id="a_node26"><a xlink:href="http://www.w3.org/2002/07/owl#t-structure:Prose" xlink:title="textstruct:Prose">
<ellipse fill="none" stroke="blue" cx="3334.34" cy="-192" rx="109.681" ry="18"/>
<text text-anchor="middle" x="3334.34" y="-188.3" font-family="Times,serif" font-size="14.00">textstruct:Prose</text>
</a>
</g>
</g>
<!-- Rhttp://www.w3.org/2002/07/owl#l:ProsePoem&#45;&gt;Rhttp://www.w3.org/2002/07/owl#t&#45;structure:Prose -->
<g id="edge31" class="edge"><title>Rhttp://www.w3.org/2002/07/owl#l:ProsePoem&#45;&gt;Rhttp://www.w3.org/2002/07/owl#t&#45;structure:Prose</title>
<path fill="none" stroke="blue" d="M3069.55,-363.183C3238.64,-357.604 3604.08,-334.941 3681.34,-243 3685.63,-237.896 3685.81,-232.945 3681.34,-228 3673.31,-219.112 3542.51,-207.832 3443.85,-200.517"/>
<polygon fill="blue" stroke="blue" points="3444.04,-197.022 3433.81,-199.778 3443.52,-204.003 3444.04,-197.022"/>
<text text-anchor="middle" x="3732.84" y="-275.3" font-family="Times,serif" font-size="14.00">literature:poemHasProse</text>
</g>
<!-- Rhttp://www.w3.org/2002/07/owl#l:VerseSong -->
<g id="node27" class="node"><title>Rhttp://www.w3.org/2002/07/owl#l:VerseSong</title>
<g id="a_node27"><a xlink:href="http://www.w3.org/2002/07/owl#l:VerseSong" xlink:title="literature:VerseSong">
<ellipse fill="none" stroke="blue" cx="3878.34" cy="-453" rx="84.485" ry="18"/>
<text text-anchor="middle" x="3878.34" y="-449.3" font-family="Times,serif" font-size="14.00">literature:VerseSong</text>
</a>
</g>
</g>
<!-- Rhttp://www.w3.org/2002/07/owl#l:VerseSong&#45;&gt;Rhttp://www.w3.org/2002/07/owl#l:VersePoem -->
<g id="edge32" class="edge"><title>Rhttp://www.w3.org/2002/07/owl#l:VerseSong&#45;&gt;Rhttp://www.w3.org/2002/07/owl#l:VersePoem</title>
<path fill="none" stroke="green" d="M3878.34,-434.799C3878.34,-423.163 3878.34,-407.548 3878.34,-394.237"/>
<polygon fill="green" stroke="green" points="3881.84,-394.175 3878.34,-384.175 3874.84,-394.175 3881.84,-394.175"/>
<text text-anchor="middle" x="3935.84" y="-405.8" font-family="Times,serif" font-size="14.00">rdfs:subClassOf</text>
</g>
<!-- Rhttp://www.w3.org/2002/07/owl#l:Hymn -->
<g id="node28" class="node"><title>Rhttp://www.w3.org/2002/07/owl#l:Hymn</title>
<g id="a_node28"><a xlink:href="http://www.w3.org/2002/07/owl#l:Hymn" xlink:title="literature:Hymn">
<ellipse fill="none" stroke="blue" cx="3878.34" cy="-540" rx="63.8893" ry="18"/>
<text text-anchor="middle" x="3878.34" y="-536.3" font-family="Times,serif" font-size="14.00">literature:Hymn</text>
</a>
</g>
</g>
<!-- Rhttp://www.w3.org/2002/07/owl#l:Hymn&#45;&gt;Rhttp://www.w3.org/2002/07/owl#l:VerseSong -->
<g id="edge33" class="edge"><title>Rhttp://www.w3.org/2002/07/owl#l:Hymn&#45;&gt;Rhttp://www.w3.org/2002/07/owl#l:VerseSong</title>
<path fill="none" stroke="green" d="M3878.34,-521.799C3878.34,-510.163 3878.34,-494.548 3878.34,-481.237"/>
<polygon fill="green" stroke="green" points="3881.84,-481.175 3878.34,-471.175 3874.84,-481.175 3881.84,-481.175"/>
<text text-anchor="middle" x="3935.84" y="-492.8" font-family="Times,serif" font-size="14.00">rdfs:subClassOf</text>
</g>
<!-- Rhttp://www.w3.org/2002/07/owl#l:VerseNovel -->
<g id="node29" class="node"><title>Rhttp://www.w3.org/2002/07/owl#l:VerseNovel</title>
<g id="a_node29"><a xlink:href="http://www.w3.org/2002/07/owl#l:VerseNovel" xlink:title="literature:VerseNovel">
<ellipse fill="none" stroke="blue" cx="2694.34" cy="-279" rx="89.0842" ry="18"/>
<text text-anchor="middle" x="2694.34" y="-275.3" font-family="Times,serif" font-size="14.00">literature:VerseNovel</text>
</a>
</g>
</g>
<!-- Rhttp://www.w3.org/2002/07/owl#l:VerseNovel&#45;&gt;Rhttp://www.w3.org/2002/07/owl#l:Fiction -->
<g id="edge37" class="edge"><title>Rhttp://www.w3.org/2002/07/owl#l:VerseNovel&#45;&gt;Rhttp://www.w3.org/2002/07/owl#l:Fiction</title>
<path fill="none" stroke="blue" d="M2783.52,-278.877C2871.71,-278.02 2999.02,-271.602 3038.34,-243 3046.03,-237.407 3051.07,-228.525 3054.36,-219.788"/>
<polygon fill="blue" stroke="blue" points="3057.72,-220.759 3057.37,-210.17 3051.04,-218.665 3057.72,-220.759"/>
<text text-anchor="middle" x="3107.34" y="-231.8" font-family="Times,serif" font-size="14.00">literature:hasFiction</text>
</g>
<!-- Rhttp://www.w3.org/2002/07/owl#l:VerseNovel&#45;&gt;Rhttp://www.w3.org/2002/07/owl#l:Narrative -->
<g id="edge36" class="edge"><title>Rhttp://www.w3.org/2002/07/owl#l:VerseNovel&#45;&gt;Rhttp://www.w3.org/2002/07/owl#l:Narrative</title>
<path fill="none" stroke="blue" d="M2608.07,-274.335C2503.48,-269.283 2333.61,-258.952 2272.34,-243 2256.75,-238.941 2254.92,-232.107 2239.34,-228 2152.19,-205.024 2126.94,-219.802 2037.34,-210 2019.9,-208.092 2001.19,-205.807 1983.52,-203.54"/>
<polygon fill="blue" stroke="blue" points="1983.63,-200.024 1973.26,-202.21 1982.73,-206.966 1983.63,-200.024"/>
<text text-anchor="middle" x="2338.84" y="-231.8" font-family="Times,serif" font-size="14.00">literature:hasNarrative</text>
</g>
<!-- Rhttp://www.w3.org/2002/07/owl#l:VerseNovel&#45;&gt;Rhttp://www.w3.org/2002/07/owl#l:Expression -->
<g id="edge34" class="edge"><title>Rhttp://www.w3.org/2002/07/owl#l:VerseNovel&#45;&gt;Rhttp://www.w3.org/2002/07/owl#l:Expression</title>
<path fill="none" stroke="green" d="M2641.75,-264.419C2623.19,-258.81 2602.45,-251.59 2584.34,-243 2573.32,-237.769 2572.89,-231.952 2561.34,-228 2502.15,-207.742 2336.61,-199.003 2229.6,-195.386"/>
<polygon fill="green" stroke="green" points="2229.55,-191.882 2219.44,-195.052 2229.32,-198.879 2229.55,-191.882"/>
<text text-anchor="middle" x="2641.84" y="-231.8" font-family="Times,serif" font-size="14.00">rdfs:subClassOf</text>
</g>
<!-- Rhttp://www.w3.org/2002/07/owl#l:VerseNovel&#45;&gt;Rhttp://www.w3.org/2002/07/owl#t&#45;structure:Verse -->
<g id="edge35" class="edge"><title>Rhttp://www.w3.org/2002/07/owl#l:VerseNovel&#45;&gt;Rhttp://www.w3.org/2002/07/owl#t&#45;structure:Verse</title>
<path fill="none" stroke="blue" d="M2778.88,-273.147C2843.38,-269.532 2934.45,-264.617 3014.34,-261 3228.05,-251.325 3283.12,-269.923 3495.34,-243 3551.76,-235.843 3614.82,-221.6 3660.46,-210.141"/>
<polygon fill="blue" stroke="blue" points="3661.38,-213.518 3670.22,-207.667 3659.66,-206.732 3661.38,-213.518"/>
<text text-anchor="middle" x="3649.84" y="-231.8" font-family="Times,serif" font-size="14.00">literature:novelHasVerse</text>
</g>
<!-- Rhttp://www.w3.org/2002/07/owl#l:Novel -->
<g id="node30" class="node"><title>Rhttp://www.w3.org/2002/07/owl#l:Novel</title>
<g id="a_node30"><a xlink:href="http://www.w3.org/2002/07/owl#l:Novel" xlink:title="literature:Novel">
<ellipse fill="none" stroke="blue" cx="3086.34" cy="-279" rx="63.0888" ry="18"/>
<text text-anchor="middle" x="3086.34" y="-275.3" font-family="Times,serif" font-size="14.00">literature:Novel</text>
</a>
</g>
</g>
<!-- Rhttp://www.w3.org/2002/07/owl#l:Novel&#45;&gt;Rhttp://www.w3.org/2002/07/owl#l:Fiction -->
<g id="edge41" class="edge"><title>Rhttp://www.w3.org/2002/07/owl#l:Novel&#45;&gt;Rhttp://www.w3.org/2002/07/owl#l:Fiction</title>
<path fill="none" stroke="blue" d="M3136.44,-268.02C3163.87,-260.172 3189.64,-247.295 3175.34,-228 3165.46,-214.669 3150.63,-206.243 3134.87,-200.96"/>
<polygon fill="blue" stroke="blue" points="3135.56,-197.514 3124.98,-198.062 3133.59,-204.232 3135.56,-197.514"/>
<text text-anchor="middle" x="3236.34" y="-231.8" font-family="Times,serif" font-size="14.00">literature:hasFiction</text>
</g>
<!-- Rhttp://www.w3.org/2002/07/owl#l:Novel&#45;&gt;Rhttp://www.w3.org/2002/07/owl#l:Narrative -->
<g id="edge40" class="edge"><title>Rhttp://www.w3.org/2002/07/owl#l:Novel&#45;&gt;Rhttp://www.w3.org/2002/07/owl#l:Narrative</title>
<path fill="none" stroke="blue" d="M3025.26,-274.309C2965.8,-270.754 2872.88,-265.298 2792.34,-261 2751.46,-258.818 2462.68,-257.367 2424.34,-243 2414.27,-239.224 2415.42,-231.776 2405.34,-228 2328.67,-199.266 2118.89,-217.274 2037.34,-210 2019.5,-208.409 2000.35,-206.206 1982.35,-203.913"/>
<polygon fill="blue" stroke="blue" points="1982.57,-200.411 1972.2,-202.595 1981.67,-207.353 1982.57,-200.411"/>
<text text-anchor="middle" x="2490.84" y="-231.8" font-family="Times,serif" font-size="14.00">literature:hasNarrative</text>
</g>
<!-- Rhttp://www.w3.org/2002/07/owl#l:Novel&#45;&gt;Rhttp://www.w3.org/2002/07/owl#l:Expression -->
<g id="edge38" class="edge"><title>Rhttp://www.w3.org/2002/07/owl#l:Novel&#45;&gt;Rhttp://www.w3.org/2002/07/owl#l:Expression</title>
<path fill="none" stroke="green" d="M3024.15,-275.605C2935.2,-271.571 2776.42,-261.939 2722.34,-243 2710.82,-238.966 2710.93,-231.837 2699.34,-228 2615.12,-200.105 2368.92,-194.14 2230.58,-193.052"/>
<polygon fill="green" stroke="green" points="2230.43,-189.551 2220.41,-192.98 2230.38,-196.551 2230.43,-189.551"/>
<text text-anchor="middle" x="2779.84" y="-231.8" font-family="Times,serif" font-size="14.00">rdfs:subClassOf</text>
</g>
<!-- Rhttp://www.w3.org/2002/07/owl#l:Novel&#45;&gt;Rhttp://www.w3.org/2002/07/owl#t&#45;structure:Prose -->
<g id="edge39" class="edge"><title>Rhttp://www.w3.org/2002/07/owl#l:Novel&#45;&gt;Rhttp://www.w3.org/2002/07/owl#t&#45;structure:Prose</title>
<path fill="none" stroke="blue" d="M3145.96,-273.12C3199.22,-267.868 3272.56,-258.164 3297.34,-243 3306.88,-237.167 3314.75,-227.878 3320.75,-218.88"/>
<polygon fill="blue" stroke="blue" points="3323.87,-220.475 3326.11,-210.119 3317.9,-216.821 3323.87,-220.475"/>
<text text-anchor="middle" x="3402.34" y="-231.8" font-family="Times,serif" font-size="14.00">textstruct:hasProse</text>
</g>
<!-- Rhttp://www.w3.org/2002/07/owl#l:NonfictionNovel -->
<g id="node31" class="node"><title>Rhttp://www.w3.org/2002/07/owl#l:NonfictionNovel</title>
<g id="a_node31"><a xlink:href="http://www.w3.org/2002/07/owl#l:NonfictionNovel" xlink:title="literature:NonfictionNovel">
<ellipse fill="none" stroke="blue" cx="2103.34" cy="-279" rx="111.581" ry="18"/>
<text text-anchor="middle" x="2103.34" y="-275.3" font-family="Times,serif" font-size="14.00">literature:NonfictionNovel</text>
</a>
</g>
</g>
<!-- Rhttp://www.w3.org/2002/07/owl#l:NonfictionNovel&#45;&gt;Rhttp://www.w3.org/2002/07/owl#l:Nonfiction -->
<g id="edge45" class="edge"><title>Rhttp://www.w3.org/2002/07/owl#l:NonfictionNovel&#45;&gt;Rhttp://www.w3.org/2002/07/owl#l:Nonfiction</title>
<path fill="none" stroke="blue" d="M2022.2,-266.609C2004.17,-264.427 1985.13,-262.391 1967.34,-261 1904.5,-256.086 1460.05,-263.186 1400.34,-243 1389.48,-239.327 1389.44,-233.435 1379.34,-228 1367.58,-221.672 1354.43,-215.92 1341.86,-210.99"/>
<polygon fill="blue" stroke="blue" points="1342.98,-207.673 1332.39,-207.385 1340.49,-214.215 1342.98,-207.673"/>
<text text-anchor="middle" x="1469.84" y="-231.8" font-family="Times,serif" font-size="14.00">literature:hasNonfiction</text>
</g>
<!-- Rhttp://www.w3.org/2002/07/owl#l:NonfictionNovel&#45;&gt;Rhttp://www.w3.org/2002/07/owl#l:Narrative -->
<g id="edge44" class="edge"><title>Rhttp://www.w3.org/2002/07/owl#l:NonfictionNovel&#45;&gt;Rhttp://www.w3.org/2002/07/owl#l:Narrative</title>
<path fill="none" stroke="blue" d="M2040.01,-264.1C2020.41,-258.717 1999.06,-251.715 1980.34,-243 1971.42,-238.848 1953.17,-226.529 1937.02,-215.159"/>
<polygon fill="blue" stroke="blue" points="1939.01,-212.279 1928.83,-209.348 1934.96,-217.989 1939.01,-212.279"/>
<text text-anchor="middle" x="2046.84" y="-231.8" font-family="Times,serif" font-size="14.00">literature:hasNarrative</text>
</g>
<!-- Rhttp://www.w3.org/2002/07/owl#l:NonfictionNovel&#45;&gt;Rhttp://www.w3.org/2002/07/owl#l:Expression -->
<g id="edge42" class="edge"><title>Rhttp://www.w3.org/2002/07/owl#l:NonfictionNovel&#45;&gt;Rhttp://www.w3.org/2002/07/owl#l:Expression</title>
<path fill="none" stroke="green" d="M2109.41,-260.799C2113.56,-249.047 2119.14,-233.238 2123.87,-219.842"/>
<polygon fill="green" stroke="green" points="2127.25,-220.77 2127.28,-210.175 2120.65,-218.44 2127.25,-220.77"/>
<text text-anchor="middle" x="2177.84" y="-231.8" font-family="Times,serif" font-size="14.00">rdfs:subClassOf</text>
</g>
<!-- Rhttp://www.w3.org/2002/07/owl#l:NonfictionNovel&#45;&gt;Rhttp://www.w3.org/2002/07/owl#t&#45;structure:Prose -->
<g id="edge43" class="edge"><title>Rhttp://www.w3.org/2002/07/owl#l:NonfictionNovel&#45;&gt;Rhttp://www.w3.org/2002/07/owl#t&#45;structure:Prose</title>
<path fill="none" stroke="blue" d="M2211.88,-274.568C2409.09,-268.089 2808.63,-253.742 2837.34,-243 2847.42,-239.23 2846.3,-231.852 2856.34,-228 2914.77,-205.599 3074.95,-214.69 3137.34,-210 3167.64,-207.723 3200.53,-204.989 3230.6,-202.385"/>
<polygon fill="blue" stroke="blue" points="3231.02,-205.862 3240.68,-201.508 3230.42,-198.888 3231.02,-205.862"/>
<text text-anchor="middle" x="2945.34" y="-231.8" font-family="Times,serif" font-size="14.00">textstruct:hasProse</text>
</g>
</g>
</svg>