<?xml version="1.0" encoding="UTF-8" standalone="no"?>
<!DOCTYPE svg PUBLIC "-//W3C//DTD SVG 1.1//EN"
 "http://www.w3.org/Graphics/SVG/1.1/DTD/svg11.dtd">
<!-- Generated by graphviz version 2.38.0 (20140413.2041)
 -->
<!-- Title: %3 Pages: 1 -->
<svg width="2883pt" height="392pt"
 viewBox="0.00 0.00 2883.32 392.00" xmlns="http://www.w3.org/2000/svg" xmlns:xlink="http://www.w3.org/1999/xlink">
<g id="graph0" class="graph" transform="scale(1 1) rotate(0) translate(4 388)">
<title>%3</title>
<polygon fill="white" stroke="none" points="-4,4 -4,-388 2879.32,-388 2879.32,4 -4,4"/>
<!-- Rhttp://www.w3.org/2002/07/owl#l:HumanLanguage -->
<g id="node1" class="node"><title>Rhttp://www.w3.org/2002/07/owl#l:HumanLanguage</title>
<g id="a_node1"><a xlink:href="http://www.w3.org/2002/07/owl#l:HumanLanguage" xlink:title="language:HumanLanguage">
<ellipse fill="none" stroke="blue" cx="925.928" cy="-192" rx="115.88" ry="18"/>
<text text-anchor="middle" x="925.928" y="-188.3" font-family="Times,serif" font-size="14.00">language:HumanLanguage</text>
</a>
</g>
</g>
<!-- Rhttp://www.w3.org/2002/07/owl#l:Language -->
<g id="node2" class="node"><title>Rhttp://www.w3.org/2002/07/owl#l:Language</title>
<g id="a_node2"><a xlink:href="http://www.w3.org/2002/07/owl#l:Language" xlink:title="language:Language">
<ellipse fill="none" stroke="blue" cx="925.928" cy="-105" rx="81.4863" ry="18"/>
<text text-anchor="middle" x="925.928" y="-101.3" font-family="Times,serif" font-size="14.00">language:Language</text>
</a>
</g>
</g>
<!-- Rhttp://www.w3.org/2002/07/owl#l:HumanLanguage&#45;&gt;Rhttp://www.w3.org/2002/07/owl#l:Language -->
<g id="edge1" class="edge"><title>Rhttp://www.w3.org/2002/07/owl#l:HumanLanguage&#45;&gt;Rhttp://www.w3.org/2002/07/owl#l:Language</title>
<path fill="none" stroke="green" d="M925.928,-173.799C925.928,-162.163 925.928,-146.548 925.928,-133.237"/>
<polygon fill="green" stroke="green" points="929.428,-133.175 925.928,-123.175 922.428,-133.175 929.428,-133.175"/>
<text text-anchor="middle" x="983.428" y="-144.8" font-family="Times,serif" font-size="14.00">rdfs:subClassOf</text>
</g>
<!-- Rhttp://www.w3.org/2002/07/owl#l:HumanNaturalLanguage -->
<g id="node3" class="node"><title>Rhttp://www.w3.org/2002/07/owl#l:HumanNaturalLanguage</title>
<g id="a_node3"><a xlink:href="http://www.w3.org/2002/07/owl#l:HumanNaturalLanguage" xlink:title="language:HumanNaturalLanguage">
<ellipse fill="none" stroke="blue" cx="717.928" cy="-279" rx="151.373" ry="18"/>
<text text-anchor="middle" x="717.928" y="-275.3" font-family="Times,serif" font-size="14.00">language:HumanNaturalLanguage</text>
</a>
</g>
</g>
<!-- Rhttp://www.w3.org/2002/07/owl#l:HumanNaturalLanguage&#45;&gt;Rhttp://www.w3.org/2002/07/owl#l:HumanLanguage -->
<g id="edge2" class="edge"><title>Rhttp://www.w3.org/2002/07/owl#l:HumanNaturalLanguage&#45;&gt;Rhttp://www.w3.org/2002/07/owl#l:HumanLanguage</title>
<path fill="none" stroke="green" d="M764.567,-261.741C780.333,-256.047 797.978,-249.458 813.928,-243 836.419,-233.893 861.079,-222.986 881.521,-213.687"/>
<polygon fill="green" stroke="green" points="883.251,-216.744 890.89,-209.403 880.34,-210.378 883.251,-216.744"/>
<text text-anchor="middle" x="906.428" y="-231.8" font-family="Times,serif" font-size="14.00">rdfs:subClassOf</text>
</g>
<!-- Rhttp://www.w3.org/2002/07/owl#skos:Concept -->
<g id="node4" class="node"><title>Rhttp://www.w3.org/2002/07/owl#skos:Concept</title>
<g id="a_node4"><a xlink:href="http://www.w3.org/2002/07/owl#skos:Concept" xlink:title="skos:Concept">
<ellipse fill="none" stroke="purple" cx="698.928" cy="-192" rx="92.8835" ry="18"/>
<text text-anchor="middle" x="698.928" y="-188.3" font-family="Times,serif" font-size="14.00">skos:Concept</text>
</a>
</g>
</g>
<!-- Rhttp://www.w3.org/2002/07/owl#l:HumanNaturalLanguage&#45;&gt;Rhttp://www.w3.org/2002/07/owl#skos:Concept -->
<g id="edge3" class="edge"><title>Rhttp://www.w3.org/2002/07/owl#l:HumanNaturalLanguage&#45;&gt;Rhttp://www.w3.org/2002/07/owl#skos:Concept</title>
<path fill="none" stroke="blue" d="M714.083,-260.799C711.482,-249.163 707.992,-233.548 705.016,-220.237"/>
<polygon fill="blue" stroke="blue" points="708.364,-219.171 702.767,-210.175 701.533,-220.698 708.364,-219.171"/>
<text text-anchor="middle" x="759.928" y="-231.8" font-family="Times,serif" font-size="14.00">language:hasCode</text>
</g>
<!-- Rhttp://www.w3.org/2002/07/owl#l:Dialect -->
<g id="node5" class="node"><title>Rhttp://www.w3.org/2002/07/owl#l:Dialect</title>
<g id="a_node5"><a xlink:href="http://www.w3.org/2002/07/owl#l:Dialect" xlink:title="language:Dialect">
<ellipse fill="none" stroke="blue" cx="389.928" cy="-192" rx="68.7879" ry="18"/>
<text text-anchor="middle" x="389.928" y="-188.3" font-family="Times,serif" font-size="14.00">language:Dialect</text>
</a>
</g>
</g>
<!-- Rhttp://www.w3.org/2002/07/owl#l:HumanNaturalLanguage&#45;&gt;Rhttp://www.w3.org/2002/07/owl#l:Dialect -->
<g id="edge4" class="edge"><title>Rhttp://www.w3.org/2002/07/owl#l:HumanNaturalLanguage&#45;&gt;Rhttp://www.w3.org/2002/07/owl#l:Dialect</title>
<path fill="none" stroke="blue" d="M609.117,-266.396C525.314,-257.281 423.031,-245.693 418.928,-243 410.426,-237.419 404.111,-228.421 399.583,-219.586"/>
<polygon fill="blue" stroke="blue" points="402.663,-217.902 395.353,-210.233 396.285,-220.786 402.663,-217.902"/>
<text text-anchor="middle" x="476.428" y="-231.8" font-family="Times,serif" font-size="14.00">language:hasDialect</text>
</g>
<!-- Rhttp://www.w3.org/2002/07/owl#l:Dialect&#45;&gt;Rhttp://www.w3.org/2002/07/owl#l:HumanNaturalLanguage -->
<g id="edge20" class="edge"><title>Rhttp://www.w3.org/2002/07/owl#l:Dialect&#45;&gt;Rhttp://www.w3.org/2002/07/owl#l:HumanNaturalLanguage</title>
<path fill="none" stroke="green" d="M439.331,-204.649C467.163,-211.301 502.538,-219.906 533.928,-228 558.463,-234.326 564.479,-236.349 588.928,-243 608.85,-248.419 630.505,-254.299 650.283,-259.665"/>
<polygon fill="green" stroke="green" points="649.562,-263.095 660.129,-262.336 651.394,-256.34 649.562,-263.095"/>
<text text-anchor="middle" x="646.428" y="-231.8" font-family="Times,serif" font-size="14.00">rdfs:subClassOf</text>
</g>
<!-- Rhttp://www.w3.org/2002/07/owl#l:SwissGerman -->
<g id="node6" class="node"><title>Rhttp://www.w3.org/2002/07/owl#l:SwissGerman</title>
<g id="a_node6"><a xlink:href="http://www.w3.org/2002/07/owl#l:SwissGerman" xlink:title="language:SwissGerman">
<ellipse fill="none" stroke="blue" cx="121.928" cy="-366" rx="98.5829" ry="18"/>
<text text-anchor="middle" x="121.928" y="-362.3" font-family="Times,serif" font-size="14.00">language:SwissGerman</text>
</a>
</g>
</g>
<!-- Rhttp://www.w3.org/2002/07/owl#l:SwissGerman&#45;&gt;Rhttp://www.w3.org/2002/07/owl#l:HumanNaturalLanguage -->
<g id="edge5" class="edge"><title>Rhttp://www.w3.org/2002/07/owl#l:SwissGerman&#45;&gt;Rhttp://www.w3.org/2002/07/owl#l:HumanNaturalLanguage</title>
<path fill="none" stroke="green" d="M178.826,-351.278C227.253,-340.05 298.8,-324.52 361.928,-315 446.24,-302.285 468.075,-305.369 552.928,-297 567.621,-295.551 583.047,-294 598.323,-292.447"/>
<polygon fill="green" stroke="green" points="598.736,-295.923 608.33,-291.427 598.027,-288.959 598.736,-295.923"/>
<text text-anchor="middle" x="419.428" y="-318.8" font-family="Times,serif" font-size="14.00">rdfs:subClassOf</text>
</g>
<!-- Rhttp://www.w3.org/2002/07/owl#l:BaselGerman -->
<g id="node7" class="node"><title>Rhttp://www.w3.org/2002/07/owl#l:BaselGerman</title>
<g id="a_node7"><a xlink:href="http://www.w3.org/2002/07/owl#l:BaselGerman" xlink:title="language:BaselGerman">
<ellipse fill="none" stroke="blue" cx="120.928" cy="-279" rx="98.2828" ry="18"/>
<text text-anchor="middle" x="120.928" y="-275.3" font-family="Times,serif" font-size="14.00">language:BaselGerman</text>
</a>
</g>
</g>
<!-- Rhttp://www.w3.org/2002/07/owl#l:SwissGerman&#45;&gt;Rhttp://www.w3.org/2002/07/owl#l:BaselGerman -->
<g id="edge6" class="edge"><title>Rhttp://www.w3.org/2002/07/owl#l:SwissGerman&#45;&gt;Rhttp://www.w3.org/2002/07/owl#l:BaselGerman</title>
<path fill="none" stroke="blue" d="M41.0203,-355.499C26.9217,-350.142 13.9186,-342.074 4.92803,-330 -8.7183,-311.674 7.95755,-299.983 32.5343,-292.562"/>
<polygon fill="blue" stroke="blue" points="33.5547,-295.911 42.2937,-289.921 31.7267,-289.154 33.5547,-295.911"/>
<text text-anchor="middle" x="111.928" y="-318.8" font-family="Times,serif" font-size="14.00">language:swissGermanHasDialect</text>
</g>
<!-- Rhttp://www.w3.org/2002/07/owl#l:BaselGerman&#45;&gt;Rhttp://www.w3.org/2002/07/owl#l:Dialect -->
<g id="edge21" class="edge"><title>Rhttp://www.w3.org/2002/07/owl#l:BaselGerman&#45;&gt;Rhttp://www.w3.org/2002/07/owl#l:Dialect</title>
<path fill="none" stroke="green" d="M155.325,-262.062C179.247,-251.407 212.076,-237.63 241.928,-228 269.334,-219.159 300.252,-211.499 326.714,-205.617"/>
<polygon fill="green" stroke="green" points="327.6,-209.007 336.621,-203.452 326.105,-202.168 327.6,-209.007"/>
<text text-anchor="middle" x="299.428" y="-231.8" font-family="Times,serif" font-size="14.00">rdfs:subClassOf</text>
</g>
<!-- Rhttp://www.w3.org/2002/07/owl#l:HumanNaturalLanguageExpression -->
<g id="node8" class="node"><title>Rhttp://www.w3.org/2002/07/owl#l:HumanNaturalLanguageExpression</title>
<g id="a_node8"><a xlink:href="http://www.w3.org/2002/07/owl#l:HumanNaturalLanguageExpression" xlink:title="language:HumanNaturalLanguageExpression">
<ellipse fill="none" stroke="blue" cx="1398.93" cy="-366" rx="203.364" ry="18"/>
<text text-anchor="middle" x="1398.93" y="-362.3" font-family="Times,serif" font-size="14.00">language:HumanNaturalLanguageExpression</text>
</a>
</g>
</g>
<!-- Rhttp://www.w3.org/2002/07/owl#l:HumanNaturalLanguageExpression&#45;&gt;Rhttp://www.w3.org/2002/07/owl#l:HumanNaturalLanguage -->
<g id="edge10" class="edge"><title>Rhttp://www.w3.org/2002/07/owl#l:HumanNaturalLanguageExpression&#45;&gt;Rhttp://www.w3.org/2002/07/owl#l:HumanNaturalLanguage</title>
<path fill="none" stroke="blue" d="M1196.57,-364.131C938.848,-362.006 523.724,-354.74 499.928,-330 495.307,-325.195 495.604,-320.074 499.928,-315 507.022,-306.676 551.121,-298.817 597.819,-292.664"/>
<polygon fill="blue" stroke="blue" points="598.34,-296.126 607.811,-291.377 597.446,-289.183 598.34,-296.126"/>
<text text-anchor="middle" x="626.428" y="-318.8" font-family="Times,serif" font-size="14.00">language:expressedInNaturalLanguage</text>
</g>
<!-- Rhttp://www.w3.org/2002/07/owl#l:HumanNaturalLanguageExpression&#45;&gt;Rhttp://www.w3.org/2002/07/owl#l:HumanNaturalLanguage -->
<g id="edge15" class="edge"><title>Rhttp://www.w3.org/2002/07/owl#l:HumanNaturalLanguageExpression&#45;&gt;Rhttp://www.w3.org/2002/07/owl#l:HumanNaturalLanguage</title>
<path fill="none" stroke="blue" d="M1195.67,-365.25C1047.92,-363.196 861.61,-355.338 788.928,-330 772.462,-324.26 756.382,-313.5 743.7,-303.428"/>
<polygon fill="blue" stroke="blue" points="745.824,-300.643 735.887,-296.968 741.363,-306.038 745.824,-300.643"/>
<text text-anchor="middle" x="915.428" y="-318.8" font-family="Times,serif" font-size="14.00">language:translatedInNaturalLanguage</text>
</g>
<!-- Rhttp://www.w3.org/2002/07/owl#l:HumanNaturalLanguageExpression&#45;&gt;Rhttp://www.w3.org/2002/07/owl#l:Dialect -->
<g id="edge11" class="edge"><title>Rhttp://www.w3.org/2002/07/owl#l:HumanNaturalLanguageExpression&#45;&gt;Rhttp://www.w3.org/2002/07/owl#l:Dialect</title>
<path fill="none" stroke="blue" d="M1198.37,-362.978C973.612,-359.698 623.579,-351.269 492.928,-330 441.288,-321.594 411.313,-338.861 379.928,-297 363.341,-274.876 370.054,-242.223 378.2,-219.426"/>
<polygon fill="blue" stroke="blue" points="381.495,-220.608 381.839,-210.019 374.967,-218.082 381.495,-220.608"/>
<text text-anchor="middle" x="468.928" y="-275.3" font-family="Times,serif" font-size="14.00">language:expressedInDialect</text>
</g>
<!-- Rhttp://www.w3.org/2002/07/owl#c:Information -->
<g id="node9" class="node"><title>Rhttp://www.w3.org/2002/07/owl#c:Information</title>
<g id="a_node9"><a xlink:href="http://www.w3.org/2002/07/owl#c:Information" xlink:title="concept:Information">
<ellipse fill="none" stroke="blue" cx="979.928" cy="-279" rx="92.8835" ry="18"/>
<text text-anchor="middle" x="979.928" y="-275.3" font-family="Times,serif" font-size="14.00">concept:Information</text>
</a>
</g>
</g>
<!-- Rhttp://www.w3.org/2002/07/owl#l:HumanNaturalLanguageExpression&#45;&gt;Rhttp://www.w3.org/2002/07/owl#c:Information -->
<g id="edge7" class="edge"><title>Rhttp://www.w3.org/2002/07/owl#l:HumanNaturalLanguageExpression&#45;&gt;Rhttp://www.w3.org/2002/07/owl#c:Information</title>
<path fill="none" stroke="green" d="M1226.46,-356.415C1179.59,-351.234 1129.28,-343.012 1083.93,-330 1060.32,-323.227 1035.48,-311.476 1015.99,-301.067"/>
<polygon fill="green" stroke="green" points="1017.62,-297.967 1007.16,-296.247 1014.26,-304.111 1017.62,-297.967"/>
<text text-anchor="middle" x="1141.43" y="-318.8" font-family="Times,serif" font-size="14.00">rdfs:subClassOf</text>
</g>
<!-- Rhttp://www.w3.org/2000/01/rdf&#45;schema#ci:E33_Linguistic_Object -->
<g id="node10" class="node"><title>Rhttp://www.w3.org/2000/01/rdf&#45;schema#ci:E33_Linguistic_Object</title>
<g id="a_node10"><a xlink:href="http://www.w3.org/2000/01/rdf-schema#ci:E33_Linguistic_Object" xlink:title="cidoc:E33_Linguistic_Object">
<ellipse fill="none" stroke="purple" cx="1239.93" cy="-279" rx="149.473" ry="18"/>
<text text-anchor="middle" x="1239.93" y="-275.3" font-family="Times,serif" font-size="14.00">cidoc:E33_Linguistic_Object</text>
</a>
</g>
</g>
<!-- Rhttp://www.w3.org/2002/07/owl#l:HumanNaturalLanguageExpression&#45;&gt;Rhttp://www.w3.org/2000/01/rdf&#45;schema#ci:E33_Linguistic_Object -->
<g id="edge8" class="edge"><title>Rhttp://www.w3.org/2002/07/owl#l:HumanNaturalLanguageExpression&#45;&gt;Rhttp://www.w3.org/2000/01/rdf&#45;schema#ci:E33_Linguistic_Object</title>
<path fill="none" stroke="green" d="M1261.6,-352.652C1235.95,-347.518 1214.49,-340.26 1205.93,-330 1199.23,-321.98 1202.88,-312.638 1209.85,-304.215"/>
<polygon fill="green" stroke="green" points="1212.56,-306.437 1216.97,-296.801 1207.52,-301.586 1212.56,-306.437"/>
<text text-anchor="middle" x="1263.43" y="-318.8" font-family="Times,serif" font-size="14.00">rdfs:subClassOf</text>
</g>
<!-- Rhttp://www.w3.org/2000/01/rdf&#45;schema#Literal -->
<g id="node11" class="node"><title>Rhttp://www.w3.org/2000/01/rdf&#45;schema#Literal</title>
<g id="a_node11"><a xlink:href="http://www.w3.org/2000/01/rdf-schema#Literal" xlink:title="rdfs:Literal">
<ellipse fill="none" stroke="brown" cx="1470.93" cy="-279" rx="63.8893" ry="18"/>
<text text-anchor="middle" x="1470.93" y="-275.3" font-family="Times,serif" font-size="14.00">rdfs:Literal</text>
</a>
</g>
</g>
<!-- Rhttp://www.w3.org/2002/07/owl#l:HumanNaturalLanguageExpression&#45;&gt;Rhttp://www.w3.org/2000/01/rdf&#45;schema#Literal -->
<g id="edge9" class="edge"><title>Rhttp://www.w3.org/2002/07/owl#l:HumanNaturalLanguageExpression&#45;&gt;Rhttp://www.w3.org/2000/01/rdf&#45;schema#Literal</title>
<path fill="none" stroke="blue" d="M1347.83,-348.395C1330.24,-339.915 1317.32,-328.521 1327.93,-315 1328.64,-314.091 1374.26,-303.022 1413.77,-293.572"/>
<polygon fill="blue" stroke="blue" points="1414.74,-296.939 1423.66,-291.212 1413.12,-290.13 1414.74,-296.939"/>
<text text-anchor="middle" x="1388.43" y="-318.8" font-family="Times,serif" font-size="14.00">language:hasContent</text>
</g>
<!-- Rhttp://www.w3.org/2002/07/owl#l:HumanNaturalLanguageExpression&#45;&gt;Rhttp://www.w3.org/2000/01/rdf&#45;schema#Literal -->
<g id="edge17" class="edge"><title>Rhttp://www.w3.org/2002/07/owl#l:HumanNaturalLanguageExpression&#45;&gt;Rhttp://www.w3.org/2000/01/rdf&#45;schema#Literal</title>
<path fill="none" stroke="blue" d="M1428.66,-348.149C1435.96,-343.013 1443.28,-336.88 1448.93,-330 1454.57,-323.121 1459.04,-314.566 1462.43,-306.489"/>
<polygon fill="blue" stroke="blue" points="1465.74,-307.609 1466.03,-297.018 1459.2,-305.117 1465.74,-307.609"/>
<text text-anchor="middle" x="1560.43" y="-318.8" font-family="Times,serif" font-size="14.00">language:hasLinguisticComment</text>
</g>
<!-- Rhttp://www.w3.org/2002/07/owl#a:Agent -->
<g id="node12" class="node"><title>Rhttp://www.w3.org/2002/07/owl#a:Agent</title>
<g id="a_node12"><a xlink:href="http://www.w3.org/2002/07/owl#a:Agent" xlink:title="agent:Agent">
<ellipse fill="none" stroke="blue" cx="1937.93" cy="-192" rx="65.7887" ry="18"/>
<text text-anchor="middle" x="1937.93" y="-188.3" font-family="Times,serif" font-size="14.00">agent:Agent</text>
</a>
</g>
</g>
<!-- Rhttp://www.w3.org/2002/07/owl#l:HumanNaturalLanguageExpression&#45;&gt;Rhttp://www.w3.org/2002/07/owl#a:Agent -->
<g id="edge12" class="edge"><title>Rhttp://www.w3.org/2002/07/owl#l:HumanNaturalLanguageExpression&#45;&gt;Rhttp://www.w3.org/2002/07/owl#a:Agent</title>
<path fill="none" stroke="blue" d="M1590.63,-359.907C1711.56,-355.134 1849.27,-346.208 1872.93,-330 1882.77,-323.255 1911.27,-257.352 1927.07,-219.465"/>
<polygon fill="blue" stroke="blue" points="1930.38,-220.619 1930.98,-210.041 1923.91,-217.938 1930.38,-220.619"/>
<text text-anchor="middle" x="1977.93" y="-275.3" font-family="Times,serif" font-size="14.00">language:hasTranslator</text>
</g>
<!-- Rhttp://www.w3.org/2002/07/owl#h:Person -->
<g id="node13" class="node"><title>Rhttp://www.w3.org/2002/07/owl#h:Person</title>
<g id="a_node13"><a xlink:href="http://www.w3.org/2002/07/owl#h:Person" xlink:title="human:Person">
<ellipse fill="none" stroke="blue" cx="1698.93" cy="-279" rx="70.3881" ry="18"/>
<text text-anchor="middle" x="1698.93" y="-275.3" font-family="Times,serif" font-size="14.00">human:Person</text>
</a>
</g>
</g>
<!-- Rhttp://www.w3.org/2002/07/owl#l:HumanNaturalLanguageExpression&#45;&gt;Rhttp://www.w3.org/2002/07/owl#h:Person -->
<g id="edge13" class="edge"><title>Rhttp://www.w3.org/2002/07/owl#l:HumanNaturalLanguageExpression&#45;&gt;Rhttp://www.w3.org/2002/07/owl#h:Person</title>
<path fill="none" stroke="blue" d="M1560.92,-355.098C1606.13,-349.888 1648.06,-341.978 1666.93,-330 1675.84,-324.342 1682.74,-315.208 1687.82,-306.285"/>
<polygon fill="blue" stroke="blue" points="1691.02,-307.715 1692.45,-297.217 1684.78,-304.529 1691.02,-307.715"/>
<text text-anchor="middle" x="1775.43" y="-318.8" font-family="Times,serif" font-size="14.00">language:hasPersonTranslator</text>
</g>
<!-- Rhttp://www.w3.org/2002/07/owl#d:DigitalElectronicComputer -->
<g id="node14" class="node"><title>Rhttp://www.w3.org/2002/07/owl#d:DigitalElectronicComputer</title>
<g id="a_node14"><a xlink:href="http://www.w3.org/2002/07/owl#d:DigitalElectronicComputer" xlink:title="device:DigitalElectronicComputer">
<ellipse fill="none" stroke="blue" cx="2221.93" cy="-279" rx="165.171" ry="18"/>
<text text-anchor="middle" x="2221.93" y="-275.3" font-family="Times,serif" font-size="14.00">device:DigitalElectronicComputer</text>
</a>
</g>
</g>
<!-- Rhttp://www.w3.org/2002/07/owl#l:HumanNaturalLanguageExpression&#45;&gt;Rhttp://www.w3.org/2002/07/owl#d:DigitalElectronicComputer -->
<g id="edge14" class="edge"><title>Rhttp://www.w3.org/2002/07/owl#l:HumanNaturalLanguageExpression&#45;&gt;Rhttp://www.w3.org/2002/07/owl#d:DigitalElectronicComputer</title>
<path fill="none" stroke="blue" d="M1599.87,-363.192C1695.97,-359.328 1812.19,-350.264 1914.93,-330 1935.61,-325.92 1939.39,-319.75 1959.93,-315 2002.15,-305.236 2048.87,-297.913 2091.03,-292.559"/>
<polygon fill="blue" stroke="blue" points="2091.58,-296.017 2101.07,-291.309 2090.72,-289.07 2091.58,-296.017"/>
<text text-anchor="middle" x="2059.93" y="-318.8" font-family="Times,serif" font-size="14.00">language:hasMachineTranslator</text>
</g>
<!-- Rhttp://www.w3.org/2002/07/owl#l:Translation -->
<g id="node15" class="node"><title>Rhttp://www.w3.org/2002/07/owl#l:Translation</title>
<g id="a_node15"><a xlink:href="http://www.w3.org/2002/07/owl#l:Translation" xlink:title="language:Translation">
<ellipse fill="none" stroke="blue" cx="2492.93" cy="-279" rx="88.2844" ry="18"/>
<text text-anchor="middle" x="2492.93" y="-275.3" font-family="Times,serif" font-size="14.00">language:Translation</text>
</a>
</g>
</g>
<!-- Rhttp://www.w3.org/2002/07/owl#l:HumanNaturalLanguageExpression&#45;&gt;Rhttp://www.w3.org/2002/07/owl#l:Translation -->
<g id="edge16" class="edge"><title>Rhttp://www.w3.org/2002/07/owl#l:HumanNaturalLanguageExpression&#45;&gt;Rhttp://www.w3.org/2002/07/owl#l:Translation</title>
<path fill="none" stroke="blue" d="M1595.07,-361.134C1802.65,-356.22 2107.49,-346.352 2159.93,-330 2171.94,-326.255 2171.99,-318.977 2183.93,-315 2273.64,-285.106 2302.15,-309.174 2395.93,-297 2403.88,-295.967 2412.18,-294.742 2420.43,-293.429"/>
<polygon fill="blue" stroke="blue" points="2421.13,-296.861 2430.44,-291.792 2420,-289.952 2421.13,-296.861"/>
<text text-anchor="middle" x="2247.43" y="-318.8" font-family="Times,serif" font-size="14.00">language:translatedIn</text>
</g>
<!-- Rhttp://www.w3.org/2002/07/owl#l:Translator -->
<g id="node16" class="node"><title>Rhttp://www.w3.org/2002/07/owl#l:Translator</title>
<g id="a_node16"><a xlink:href="http://www.w3.org/2002/07/owl#l:Translator" xlink:title="language:Translator">
<ellipse fill="none" stroke="blue" cx="1887.93" cy="-105" rx="83.6854" ry="18"/>
<text text-anchor="middle" x="1887.93" y="-101.3" font-family="Times,serif" font-size="14.00">language:Translator</text>
</a>
</g>
</g>
<!-- Rhttp://www.w3.org/2002/07/owl#a:Agent&#45;&gt;Rhttp://www.w3.org/2002/07/owl#l:Translator -->
<g id="edge18" class="edge"><title>Rhttp://www.w3.org/2002/07/owl#a:Agent&#45;&gt;Rhttp://www.w3.org/2002/07/owl#l:Translator</title>
<path fill="none" stroke="blue" d="M1931.64,-173.787C1927.72,-163.883 1922.22,-151.383 1915.93,-141 1913.86,-137.579 1911.49,-134.12 1909.02,-130.777"/>
<polygon fill="blue" stroke="blue" points="1911.72,-128.544 1902.82,-122.792 1906.19,-132.837 1911.72,-128.544"/>
<text text-anchor="middle" x="1973.43" y="-144.8" font-family="Times,serif" font-size="14.00">agent:hasRole</text>
</g>
<!-- Rhttp://www.w3.org/2002/07/owl#l:PersonTranslator -->
<g id="node17" class="node"><title>Rhttp://www.w3.org/2002/07/owl#l:PersonTranslator</title>
<g id="a_node17"><a xlink:href="http://www.w3.org/2002/07/owl#l:PersonTranslator" xlink:title="language:PersonTranslator">
<ellipse fill="none" stroke="blue" cx="1698.93" cy="-192" rx="115.88" ry="18"/>
<text text-anchor="middle" x="1698.93" y="-188.3" font-family="Times,serif" font-size="14.00">language:PersonTranslator</text>
</a>
</g>
</g>
<!-- Rhttp://www.w3.org/2002/07/owl#h:Person&#45;&gt;Rhttp://www.w3.org/2002/07/owl#l:PersonTranslator -->
<g id="edge19" class="edge"><title>Rhttp://www.w3.org/2002/07/owl#h:Person&#45;&gt;Rhttp://www.w3.org/2002/07/owl#l:PersonTranslator</title>
<path fill="none" stroke="blue" d="M1698.93,-260.799C1698.93,-249.163 1698.93,-233.548 1698.93,-220.237"/>
<polygon fill="blue" stroke="blue" points="1702.43,-220.175 1698.93,-210.175 1695.43,-220.175 1702.43,-220.175"/>
<text text-anchor="middle" x="1748.93" y="-231.8" font-family="Times,serif" font-size="14.00">human:hasRole</text>
</g>
<!-- Rhttp://www.w3.org/2002/07/owl#d:DigitalElectronicComputer&#45;&gt;Rhttp://www.w3.org/2002/07/owl#a:Agent -->
<g id="edge31" class="edge"><title>Rhttp://www.w3.org/2002/07/owl#d:DigitalElectronicComputer&#45;&gt;Rhttp://www.w3.org/2002/07/owl#a:Agent</title>
<path fill="none" stroke="green" d="M2154.16,-262.533C2130.83,-256.849 2104.61,-250.064 2080.93,-243 2048.35,-233.284 2012.21,-220.633 1984.42,-210.487"/>
<polygon fill="green" stroke="green" points="1985.55,-207.173 1974.95,-207.012 1983.13,-213.744 1985.55,-207.173"/>
<text text-anchor="middle" x="2138.43" y="-231.8" font-family="Times,serif" font-size="14.00">rdfs:subClassOf</text>
</g>
<!-- Rhttp://www.w3.org/2002/07/owl#i:ElectronicCarrier -->
<g id="node23" class="node"><title>Rhttp://www.w3.org/2002/07/owl#i:ElectronicCarrier</title>
<g id="a_node23"><a xlink:href="http://www.w3.org/2002/07/owl#i:ElectronicCarrier" xlink:title="infocar:ElectronicCarrier">
<ellipse fill="none" stroke="blue" cx="2180.93" cy="-192" rx="118.079" ry="18"/>
<text text-anchor="middle" x="2180.93" y="-188.3" font-family="Times,serif" font-size="14.00">infocar:ElectronicCarrier</text>
</a>
</g>
</g>
<!-- Rhttp://www.w3.org/2002/07/owl#d:DigitalElectronicComputer&#45;&gt;Rhttp://www.w3.org/2002/07/owl#i:ElectronicCarrier -->
<g id="edge29" class="edge"><title>Rhttp://www.w3.org/2002/07/owl#d:DigitalElectronicComputer&#45;&gt;Rhttp://www.w3.org/2002/07/owl#i:ElectronicCarrier</title>
<path fill="none" stroke="green" d="M2213.63,-260.799C2207.91,-248.932 2200.19,-232.928 2193.69,-219.449"/>
<polygon fill="green" stroke="green" points="2196.71,-217.662 2189.21,-210.175 2190.4,-220.703 2196.71,-217.662"/>
<text text-anchor="middle" x="2261.43" y="-231.8" font-family="Times,serif" font-size="14.00">rdfs:subClassOf</text>
</g>
<!-- Rhttp://www.w3.org/2002/07/owl#d:Device -->
<g id="node24" class="node"><title>Rhttp://www.w3.org/2002/07/owl#d:Device</title>
<g id="a_node24"><a xlink:href="http://www.w3.org/2002/07/owl#d:Device" xlink:title="device:Device">
<ellipse fill="none" stroke="blue" cx="2386.93" cy="-192" rx="70.3881" ry="18"/>
<text text-anchor="middle" x="2386.93" y="-188.3" font-family="Times,serif" font-size="14.00">device:Device</text>
</a>
</g>
</g>
<!-- Rhttp://www.w3.org/2002/07/owl#d:DigitalElectronicComputer&#45;&gt;Rhttp://www.w3.org/2002/07/owl#d:Device -->
<g id="edge30" class="edge"><title>Rhttp://www.w3.org/2002/07/owl#d:DigitalElectronicComputer&#45;&gt;Rhttp://www.w3.org/2002/07/owl#d:Device</title>
<path fill="none" stroke="green" d="M2278.64,-262.015C2293.47,-256.857 2309.15,-250.496 2322.93,-243 2336.48,-235.624 2350.14,-225.417 2361.34,-216.147"/>
<polygon fill="green" stroke="green" points="2363.67,-218.76 2369.03,-209.617 2359.14,-213.426 2363.67,-218.76"/>
<text text-anchor="middle" x="2403.43" y="-231.8" font-family="Times,serif" font-size="14.00">rdfs:subClassOf</text>
</g>
<!-- Rhttp://www.w3.org/2002/07/owl#l:Translation&#45;&gt;Rhttp://www.w3.org/2002/07/owl#l:HumanNaturalLanguageExpression -->
<g id="edge25" class="edge"><title>Rhttp://www.w3.org/2002/07/owl#l:Translation&#45;&gt;Rhttp://www.w3.org/2002/07/owl#l:HumanNaturalLanguageExpression</title>
<path fill="none" stroke="green" d="M2435.6,-292.754C2409.85,-298.862 2379.18,-306.659 2351.93,-315 2333.37,-320.679 2329.97,-326.249 2310.93,-330 2182.25,-355.353 1838.65,-362.553 1611.88,-364.475"/>
<polygon fill="green" stroke="green" points="1611.81,-360.975 1601.84,-364.557 1611.87,-367.975 1611.81,-360.975"/>
<text text-anchor="middle" x="2409.43" y="-318.8" font-family="Times,serif" font-size="14.00">rdfs:subClassOf</text>
</g>
<!-- Rhttp://www.w3.org/2002/07/owl#a:Role -->
<g id="node18" class="node"><title>Rhttp://www.w3.org/2002/07/owl#a:Role</title>
<g id="a_node18"><a xlink:href="http://www.w3.org/2002/07/owl#a:Role" xlink:title="agent:Role">
<ellipse fill="none" stroke="blue" cx="1887.93" cy="-18" rx="58.4896" ry="18"/>
<text text-anchor="middle" x="1887.93" y="-14.3" font-family="Times,serif" font-size="14.00">agent:Role</text>
</a>
</g>
</g>
<!-- Rhttp://www.w3.org/2002/07/owl#l:Translator&#45;&gt;Rhttp://www.w3.org/2002/07/owl#a:Role -->
<g id="edge22" class="edge"><title>Rhttp://www.w3.org/2002/07/owl#l:Translator&#45;&gt;Rhttp://www.w3.org/2002/07/owl#a:Role</title>
<path fill="none" stroke="green" d="M1887.93,-86.799C1887.93,-75.1626 1887.93,-59.5479 1887.93,-46.2368"/>
<polygon fill="green" stroke="green" points="1891.43,-46.1754 1887.93,-36.1754 1884.43,-46.1755 1891.43,-46.1754"/>
<text text-anchor="middle" x="1945.43" y="-57.8" font-family="Times,serif" font-size="14.00">rdfs:subClassOf</text>
</g>
<!-- Rhttp://www.w3.org/2002/07/owl#l:PersonTranslator&#45;&gt;Rhttp://www.w3.org/2002/07/owl#l:Translator -->
<g id="edge23" class="edge"><title>Rhttp://www.w3.org/2002/07/owl#l:PersonTranslator&#45;&gt;Rhttp://www.w3.org/2002/07/owl#l:Translator</title>
<path fill="none" stroke="green" d="M1740.1,-175.087C1752.58,-169.652 1766.11,-163.127 1777.93,-156 1787.14,-150.444 1787.58,-146.325 1796.93,-141 1808.19,-134.588 1820.85,-128.882 1833.06,-124.032"/>
<polygon fill="green" stroke="green" points="1834.65,-127.174 1842.73,-120.329 1832.14,-120.637 1834.65,-127.174"/>
<text text-anchor="middle" x="1854.43" y="-144.8" font-family="Times,serif" font-size="14.00">rdfs:subClassOf</text>
</g>
<!-- Rhttp://www.w3.org/2002/07/owl#h:Creator -->
<g id="node19" class="node"><title>Rhttp://www.w3.org/2002/07/owl#h:Creator</title>
<g id="a_node19"><a xlink:href="http://www.w3.org/2002/07/owl#h:Creator" xlink:title="human:Creator">
<ellipse fill="none" stroke="blue" cx="1661.93" cy="-105" rx="74.9875" ry="18"/>
<text text-anchor="middle" x="1661.93" y="-101.3" font-family="Times,serif" font-size="14.00">human:Creator</text>
</a>
</g>
</g>
<!-- Rhttp://www.w3.org/2002/07/owl#l:PersonTranslator&#45;&gt;Rhttp://www.w3.org/2002/07/owl#h:Creator -->
<g id="edge24" class="edge"><title>Rhttp://www.w3.org/2002/07/owl#l:PersonTranslator&#45;&gt;Rhttp://www.w3.org/2002/07/owl#h:Creator</title>
<path fill="none" stroke="green" d="M1676.34,-174.292C1670.96,-169.082 1665.91,-162.876 1662.93,-156 1659.92,-149.072 1658.84,-141.078 1658.73,-133.543"/>
<polygon fill="green" stroke="green" points="1662.23,-133.479 1659.11,-123.355 1655.24,-133.217 1662.23,-133.479"/>
<text text-anchor="middle" x="1720.43" y="-144.8" font-family="Times,serif" font-size="14.00">rdfs:subClassOf</text>
</g>
<!-- Rhttp://www.w3.org/2002/07/owl#l:PersonTranslation -->
<g id="node20" class="node"><title>Rhttp://www.w3.org/2002/07/owl#l:PersonTranslation</title>
<g id="a_node20"><a xlink:href="http://www.w3.org/2002/07/owl#l:PersonTranslation" xlink:title="language:PersonTranslation">
<ellipse fill="none" stroke="blue" cx="2742.93" cy="-366" rx="120.479" ry="18"/>
<text text-anchor="middle" x="2742.93" y="-362.3" font-family="Times,serif" font-size="14.00">language:PersonTranslation</text>
</a>
</g>
</g>
<!-- Rhttp://www.w3.org/2002/07/owl#l:PersonTranslation&#45;&gt;Rhttp://www.w3.org/2002/07/owl#l:Translation -->
<g id="edge26" class="edge"><title>Rhttp://www.w3.org/2002/07/owl#l:PersonTranslation&#45;&gt;Rhttp://www.w3.org/2002/07/owl#l:Translation</title>
<path fill="none" stroke="green" d="M2689.54,-349.792C2669.76,-343.924 2647.23,-336.955 2626.93,-330 2609.36,-323.98 2605.31,-321.544 2587.93,-315 2573.63,-309.616 2558.08,-303.852 2543.79,-298.588"/>
<polygon fill="green" stroke="green" points="2544.72,-295.2 2534.13,-295.033 2542.3,-301.77 2544.72,-295.2"/>
<text text-anchor="middle" x="2684.43" y="-318.8" font-family="Times,serif" font-size="14.00">rdfs:subClassOf</text>
</g>
<!-- Rhttp://www.w3.org/2002/07/owl#h:CreationDerivative -->
<g id="node21" class="node"><title>Rhttp://www.w3.org/2002/07/owl#h:CreationDerivative</title>
<g id="a_node21"><a xlink:href="http://www.w3.org/2002/07/owl#h:CreationDerivative" xlink:title="human:CreationDerivative">
<ellipse fill="none" stroke="blue" cx="2747.93" cy="-279" rx="127.277" ry="18"/>
<text text-anchor="middle" x="2747.93" y="-275.3" font-family="Times,serif" font-size="14.00">human:CreationDerivative</text>
</a>
</g>
</g>
<!-- Rhttp://www.w3.org/2002/07/owl#l:PersonTranslation&#45;&gt;Rhttp://www.w3.org/2002/07/owl#h:CreationDerivative -->
<g id="edge27" class="edge"><title>Rhttp://www.w3.org/2002/07/owl#l:PersonTranslation&#45;&gt;Rhttp://www.w3.org/2002/07/owl#h:CreationDerivative</title>
<path fill="none" stroke="green" d="M2743.94,-347.799C2744.62,-336.163 2745.54,-320.548 2746.33,-307.237"/>
<polygon fill="green" stroke="green" points="2749.82,-307.364 2746.92,-297.175 2742.84,-306.953 2749.82,-307.364"/>
<text text-anchor="middle" x="2803.43" y="-318.8" font-family="Times,serif" font-size="14.00">rdfs:subClassOf</text>
</g>
<!-- Rhttp://www.w3.org/2002/07/owl#l:MachineTranslation -->
<g id="node22" class="node"><title>Rhttp://www.w3.org/2002/07/owl#l:MachineTranslation</title>
<g id="a_node22"><a xlink:href="http://www.w3.org/2002/07/owl#l:MachineTranslation" xlink:title="language:MachineTranslation">
<ellipse fill="none" stroke="blue" cx="2471.93" cy="-366" rx="128.877" ry="18"/>
<text text-anchor="middle" x="2471.93" y="-362.3" font-family="Times,serif" font-size="14.00">language:MachineTranslation</text>
</a>
</g>
</g>
<!-- Rhttp://www.w3.org/2002/07/owl#l:MachineTranslation&#45;&gt;Rhttp://www.w3.org/2002/07/owl#l:Translation -->
<g id="edge28" class="edge"><title>Rhttp://www.w3.org/2002/07/owl#l:MachineTranslation&#45;&gt;Rhttp://www.w3.org/2002/07/owl#l:Translation</title>
<path fill="none" stroke="green" d="M2470.19,-347.572C2469.73,-337.822 2470.01,-325.545 2472.93,-315 2473.76,-311.994 2474.91,-308.974 2476.23,-306.036"/>
<polygon fill="green" stroke="green" points="2479.4,-307.531 2480.93,-297.047 2473.2,-304.289 2479.4,-307.531"/>
<text text-anchor="middle" x="2530.43" y="-318.8" font-family="Times,serif" font-size="14.00">rdfs:subClassOf</text>
</g>
</g>
</svg>