<?xml version="1.0" encoding="UTF-8" standalone="no"?>
<!DOCTYPE svg PUBLIC "-//W3C//DTD SVG 1.1//EN"
 "http://www.w3.org/Graphics/SVG/1.1/DTD/svg11.dtd">
<!-- Generated by graphviz version 2.38.0 (20140413.2041)
 -->
<!-- Title: %3 Pages: 1 -->
<svg width="2039pt" height="1175pt"
 viewBox="0.00 0.00 2039.00 1175.00" xmlns="http://www.w3.org/2000/svg" xmlns:xlink="http://www.w3.org/1999/xlink">
<g id="graph0" class="graph" transform="scale(1 1) rotate(0) translate(4 1171)">
<title>%3</title>
<polygon fill="white" stroke="none" points="-4,4 -4,-1171 2035,-1171 2035,4 -4,4"/>
<!-- Rhttp://www.w3.org/2002/07/owl#textstruct:Structure -->
<g id="node1" class="node"><title>Rhttp://www.w3.org/2002/07/owl#textstruct:Structure</title>
<g id="a_node1"><a xlink:href="http://www.w3.org/2002/07/owl#textstruct:Structure" xlink:title="owl:textstruct:Structure">
<ellipse fill="none" stroke="blue" cx="940" cy="-105" rx="124.278" ry="18"/>
<text text-anchor="middle" x="940" y="-101.3" font-family="Times,serif" font-size="14.00">owl:textstruct:Structure</text>
</a>
</g>
</g>
<!-- Rhttp://www.w3.org/2002/07/owl#lang:HumanNaturalLanguageExpression -->
<g id="node2" class="node"><title>Rhttp://www.w3.org/2002/07/owl#lang:HumanNaturalLanguageExpression</title>
<g id="a_node2"><a xlink:href="http://www.w3.org/2002/07/owl#lang:HumanNaturalLanguageExpression" xlink:title="owl:lang:HumanNaturalLanguageExpression">
<ellipse fill="none" stroke="blue" cx="1147" cy="-18" rx="220.161" ry="18"/>
<text text-anchor="middle" x="1147" y="-14.3" font-family="Times,serif" font-size="14.00">owl:lang:HumanNaturalLanguageExpression</text>
</a>
</g>
</g>
<!-- Rhttp://www.w3.org/2002/07/owl#textstruct:Structure&#45;&gt;Rhttp://www.w3.org/2002/07/owl#lang:HumanNaturalLanguageExpression -->
<g id="edge1" class="edge"><title>Rhttp://www.w3.org/2002/07/owl#textstruct:Structure&#45;&gt;Rhttp://www.w3.org/2002/07/owl#lang:HumanNaturalLanguageExpression</title>
<path fill="none" stroke="black" d="M979.422,-87.8121C1012.8,-74.1049 1060.85,-54.3776 1096.94,-39.5565"/>
<polygon fill="black" stroke="black" points="1098.39,-42.7447 1106.31,-35.7085 1095.73,-36.2694 1098.39,-42.7447"/>
<text text-anchor="middle" x="1113.5" y="-57.8" font-family="Times,serif" font-size="14.00">rdfs:subClassOf</text>
</g>
<!-- Rhttp://www.w3.org/2002/07/owl#textstruct:SyntacticStructure -->
<g id="node3" class="node"><title>Rhttp://www.w3.org/2002/07/owl#textstruct:SyntacticStructure</title>
<g id="a_node3"><a xlink:href="http://www.w3.org/2002/07/owl#textstruct:SyntacticStructure" xlink:title="owl:textstruct:SyntacticStructure">
<ellipse fill="none" stroke="blue" cx="427" cy="-540" rx="168.17" ry="18"/>
<text text-anchor="middle" x="427" y="-536.3" font-family="Times,serif" font-size="14.00">owl:textstruct:SyntacticStructure</text>
</a>
</g>
</g>
<!-- Rhttp://www.w3.org/2002/07/owl#textstruct:SyntacticStructure&#45;&gt;Rhttp://www.w3.org/2002/07/owl#textstruct:Structure -->
<g id="edge2" class="edge"><title>Rhttp://www.w3.org/2002/07/owl#textstruct:SyntacticStructure&#45;&gt;Rhttp://www.w3.org/2002/07/owl#textstruct:Structure</title>
<path fill="none" stroke="black" d="M513.479,-524.469C550.772,-512.761 586,-491.718 586,-454 586,-454 586,-454 586,-191 586,-142.601 712.695,-121.689 814.496,-112.699"/>
<polygon fill="black" stroke="black" points="814.91,-116.176 824.577,-111.84 814.316,-109.202 814.91,-116.176"/>
<text text-anchor="middle" x="643.5" y="-318.8" font-family="Times,serif" font-size="14.00">rdfs:subClassOf</text>
</g>
<!-- Rhttp://www.w3.org/2002/07/owl#textstruct:CompositionalStructure -->
<g id="node4" class="node"><title>Rhttp://www.w3.org/2002/07/owl#textstruct:CompositionalStructure</title>
<g id="a_node4"><a xlink:href="http://www.w3.org/2002/07/owl#textstruct:CompositionalStructure" xlink:title="owl:textstruct:CompositionalStructure">
<ellipse fill="none" stroke="blue" cx="940" cy="-192" rx="191.166" ry="18"/>
<text text-anchor="middle" x="940" y="-188.3" font-family="Times,serif" font-size="14.00">owl:textstruct:CompositionalStructure</text>
</a>
</g>
</g>
<!-- Rhttp://www.w3.org/2002/07/owl#textstruct:CompositionalStructure&#45;&gt;Rhttp://www.w3.org/2002/07/owl#textstruct:Structure -->
<g id="edge3" class="edge"><title>Rhttp://www.w3.org/2002/07/owl#textstruct:CompositionalStructure&#45;&gt;Rhttp://www.w3.org/2002/07/owl#textstruct:Structure</title>
<path fill="none" stroke="black" d="M940,-173.799C940,-162.163 940,-146.548 940,-133.237"/>
<polygon fill="black" stroke="black" points="943.5,-133.175 940,-123.175 936.5,-133.175 943.5,-133.175"/>
<text text-anchor="middle" x="997.5" y="-144.8" font-family="Times,serif" font-size="14.00">rdfs:subClassOf</text>
</g>
<!-- Rhttp://www.w3.org/2002/07/owl#textstruct:ContentStructure -->
<g id="node5" class="node"><title>Rhttp://www.w3.org/2002/07/owl#textstruct:ContentStructure</title>
<g id="a_node5"><a xlink:href="http://www.w3.org/2002/07/owl#textstruct:ContentStructure" xlink:title="owl:textstruct:ContentStructure">
<ellipse fill="none" stroke="blue" cx="940" cy="-279" rx="161.671" ry="18"/>
<text text-anchor="middle" x="940" y="-275.3" font-family="Times,serif" font-size="14.00">owl:textstruct:ContentStructure</text>
</a>
</g>
</g>
<!-- Rhttp://www.w3.org/2002/07/owl#textstruct:ContentStructure&#45;&gt;Rhttp://www.w3.org/2002/07/owl#textstruct:CompositionalStructure -->
<g id="edge4" class="edge"><title>Rhttp://www.w3.org/2002/07/owl#textstruct:ContentStructure&#45;&gt;Rhttp://www.w3.org/2002/07/owl#textstruct:CompositionalStructure</title>
<path fill="none" stroke="black" d="M940,-260.799C940,-249.163 940,-233.548 940,-220.237"/>
<polygon fill="black" stroke="black" points="943.5,-220.175 940,-210.175 936.5,-220.175 943.5,-220.175"/>
<text text-anchor="middle" x="997.5" y="-231.8" font-family="Times,serif" font-size="14.00">rdfs:subClassOf</text>
</g>
<!-- Rhttp://www.w3.org/2002/07/owl#textstruct:ProsodicStructure -->
<g id="node6" class="node"><title>Rhttp://www.w3.org/2002/07/owl#textstruct:ProsodicStructure</title>
<g id="a_node6"><a xlink:href="http://www.w3.org/2002/07/owl#textstruct:ProsodicStructure" xlink:title="owl:textstruct:ProsodicStructure">
<ellipse fill="none" stroke="blue" cx="940" cy="-366" rx="165.171" ry="18"/>
<text text-anchor="middle" x="940" y="-362.3" font-family="Times,serif" font-size="14.00">owl:textstruct:ProsodicStructure</text>
</a>
</g>
</g>
<!-- Rhttp://www.w3.org/2002/07/owl#textstruct:ProsodicStructure&#45;&gt;Rhttp://www.w3.org/2002/07/owl#textstruct:ContentStructure -->
<g id="edge5" class="edge"><title>Rhttp://www.w3.org/2002/07/owl#textstruct:ProsodicStructure&#45;&gt;Rhttp://www.w3.org/2002/07/owl#textstruct:ContentStructure</title>
<path fill="none" stroke="black" d="M940,-347.799C940,-336.163 940,-320.548 940,-307.237"/>
<polygon fill="black" stroke="black" points="943.5,-307.175 940,-297.175 936.5,-307.175 943.5,-307.175"/>
<text text-anchor="middle" x="997.5" y="-318.8" font-family="Times,serif" font-size="14.00">rdfs:subClassOf</text>
</g>
<!-- Rhttp://www.w3.org/2002/07/owl#textstruct:Word -->
<g id="node7" class="node"><title>Rhttp://www.w3.org/2002/07/owl#textstruct:Word</title>
<g id="a_node7"><a xlink:href="http://www.w3.org/2002/07/owl#textstruct:Word" xlink:title="owl:textstruct:Word">
<ellipse fill="none" stroke="blue" cx="612" cy="-627" rx="104.782" ry="18"/>
<text text-anchor="middle" x="612" y="-623.3" font-family="Times,serif" font-size="14.00">owl:textstruct:Word</text>
</a>
</g>
</g>
<!-- Rhttp://www.w3.org/2002/07/owl#textstruct:Word&#45;&gt;Rhttp://www.w3.org/2002/07/owl#textstruct:SyntacticStructure -->
<g id="edge6" class="edge"><title>Rhttp://www.w3.org/2002/07/owl#textstruct:Word&#45;&gt;Rhttp://www.w3.org/2002/07/owl#textstruct:SyntacticStructure</title>
<path fill="none" stroke="black" d="M577.203,-610.012C547.576,-596.4 504.799,-576.745 472.467,-561.89"/>
<polygon fill="black" stroke="black" points="473.769,-558.637 463.221,-557.642 470.846,-564.997 473.769,-558.637"/>
<text text-anchor="middle" x="588.5" y="-579.8" font-family="Times,serif" font-size="14.00">rdfs:subClassOf</text>
</g>
<!-- Rhttp://www.w3.org/2002/07/owl#textstruct:Verse -->
<g id="node8" class="node"><title>Rhttp://www.w3.org/2002/07/owl#textstruct:Verse</title>
<g id="a_node8"><a xlink:href="http://www.w3.org/2002/07/owl#textstruct:Verse" xlink:title="owl:textstruct:Verse">
<ellipse fill="none" stroke="blue" cx="1145" cy="-540" rx="105.082" ry="18"/>
<text text-anchor="middle" x="1145" y="-536.3" font-family="Times,serif" font-size="14.00">owl:textstruct:Verse</text>
</a>
</g>
</g>
<!-- Rhttp://www.w3.org/2002/07/owl#textstruct:Word&#45;&gt;Rhttp://www.w3.org/2002/07/owl#textstruct:Verse -->
<g id="edge7" class="edge"><title>Rhttp://www.w3.org/2002/07/owl#textstruct:Word&#45;&gt;Rhttp://www.w3.org/2002/07/owl#textstruct:Verse</title>
<path fill="none" stroke="black" d="M685.509,-614.117C748.522,-603.947 841.721,-588.941 923,-576 968.298,-568.788 1018.81,-560.819 1060.19,-554.309"/>
<polygon fill="black" stroke="black" points="1060.9,-557.741 1070.23,-552.73 1059.81,-550.826 1060.9,-557.741"/>
<text text-anchor="middle" x="1025.5" y="-579.8" font-family="Times,serif" font-size="14.00">owl:textstruct:isPartOfVerse</text>
</g>
<!-- Rhttp://www.w3.org/2002/07/owl#textstruct:Verse&#45;&gt;Rhttp://www.w3.org/2002/07/owl#textstruct:ProsodicStructure -->
<g id="edge18" class="edge"><title>Rhttp://www.w3.org/2002/07/owl#textstruct:Verse&#45;&gt;Rhttp://www.w3.org/2002/07/owl#textstruct:ProsodicStructure</title>
<path fill="none" stroke="black" d="M1073.24,-526.735C1014.92,-515.132 939.397,-495.811 921,-471 904.356,-448.553 914.229,-416.021 924.966,-393.339"/>
<polygon fill="black" stroke="black" points="928.158,-394.783 929.546,-384.279 921.911,-391.625 928.158,-394.783"/>
<text text-anchor="middle" x="978.5" y="-449.3" font-family="Times,serif" font-size="14.00">rdfs:subClassOf</text>
</g>
<!-- Rhttp://www.w3.org/2002/07/owl#textstruct:Line -->
<g id="node14" class="node"><title>Rhttp://www.w3.org/2002/07/owl#textstruct:Line</title>
<g id="a_node14"><a xlink:href="http://www.w3.org/2002/07/owl#textstruct:Line" xlink:title="owl:textstruct:Line">
<ellipse fill="none" stroke="blue" cx="1145" cy="-453" rx="100.182" ry="18"/>
<text text-anchor="middle" x="1145" y="-449.3" font-family="Times,serif" font-size="14.00">owl:textstruct:Line</text>
</a>
</g>
</g>
<!-- Rhttp://www.w3.org/2002/07/owl#textstruct:Verse&#45;&gt;Rhttp://www.w3.org/2002/07/owl#textstruct:Line -->
<g id="edge19" class="edge"><title>Rhttp://www.w3.org/2002/07/owl#textstruct:Verse&#45;&gt;Rhttp://www.w3.org/2002/07/owl#textstruct:Line</title>
<path fill="none" stroke="black" d="M1145,-521.799C1145,-510.163 1145,-494.548 1145,-481.237"/>
<polygon fill="black" stroke="black" points="1148.5,-481.175 1145,-471.175 1141.5,-481.175 1148.5,-481.175"/>
<text text-anchor="middle" x="1202.5" y="-492.8" font-family="Times,serif" font-size="14.00">rdfs:subClassOf</text>
</g>
<!-- Rhttp://www.w3.org/2002/07/owl#textstruct:Strophe -->
<g id="node15" class="node"><title>Rhttp://www.w3.org/2002/07/owl#textstruct:Strophe</title>
<g id="a_node15"><a xlink:href="http://www.w3.org/2002/07/owl#textstruct:Strophe" xlink:title="owl:textstruct:Strophe">
<ellipse fill="none" stroke="blue" cx="1379" cy="-453" rx="116.18" ry="18"/>
<text text-anchor="middle" x="1379" y="-449.3" font-family="Times,serif" font-size="14.00">owl:textstruct:Strophe</text>
</a>
</g>
</g>
<!-- Rhttp://www.w3.org/2002/07/owl#textstruct:Verse&#45;&gt;Rhttp://www.w3.org/2002/07/owl#textstruct:Strophe -->
<g id="edge20" class="edge"><title>Rhttp://www.w3.org/2002/07/owl#textstruct:Verse&#45;&gt;Rhttp://www.w3.org/2002/07/owl#textstruct:Strophe</title>
<path fill="none" stroke="black" d="M1199.37,-524.546C1219.81,-518.709 1243.15,-511.566 1264,-504 1288.07,-495.267 1314.29,-484.007 1335.61,-474.383"/>
<polygon fill="black" stroke="black" points="1337.08,-477.561 1344.73,-470.232 1334.18,-471.19 1337.08,-477.561"/>
<text text-anchor="middle" x="1409.5" y="-492.8" font-family="Times,serif" font-size="14.00">owl:textstruct:isPartOfStrophe</text>
</g>
<!-- Rhttp://www.w3.org/2002/07/owl#textstruct:Sentence -->
<g id="node9" class="node"><title>Rhttp://www.w3.org/2002/07/owl#textstruct:Sentence</title>
<g id="a_node9"><a xlink:href="http://www.w3.org/2002/07/owl#textstruct:Sentence" xlink:title="owl:textstruct:Sentence">
<ellipse fill="none" stroke="blue" cx="358" cy="-714" rx="122.379" ry="18"/>
<text text-anchor="middle" x="358" y="-710.3" font-family="Times,serif" font-size="14.00">owl:textstruct:Sentence</text>
</a>
</g>
</g>
<!-- Rhttp://www.w3.org/2002/07/owl#textstruct:Sentence&#45;&gt;Rhttp://www.w3.org/2002/07/owl#textstruct:SyntacticStructure -->
<g id="edge8" class="edge"><title>Rhttp://www.w3.org/2002/07/owl#textstruct:Sentence&#45;&gt;Rhttp://www.w3.org/2002/07/owl#textstruct:SyntacticStructure</title>
<path fill="none" stroke="black" d="M360.299,-695.87C363.535,-674.783 370.485,-638.184 383,-609 389.422,-594.025 399.045,-578.675 407.655,-566.357"/>
<polygon fill="black" stroke="black" points="410.688,-568.134 413.686,-557.972 405.005,-564.047 410.688,-568.134"/>
<text text-anchor="middle" x="440.5" y="-623.3" font-family="Times,serif" font-size="14.00">rdfs:subClassOf</text>
</g>
<!-- Rhttp://www.w3.org/2002/07/owl#textstruct:Prose -->
<g id="node10" class="node"><title>Rhttp://www.w3.org/2002/07/owl#textstruct:Prose</title>
<g id="a_node10"><a xlink:href="http://www.w3.org/2002/07/owl#textstruct:Prose" xlink:title="owl:textstruct:Prose">
<ellipse fill="none" stroke="blue" cx="162" cy="-627" rx="105.881" ry="18"/>
<text text-anchor="middle" x="162" y="-623.3" font-family="Times,serif" font-size="14.00">owl:textstruct:Prose</text>
</a>
</g>
</g>
<!-- Rhttp://www.w3.org/2002/07/owl#textstruct:Sentence&#45;&gt;Rhttp://www.w3.org/2002/07/owl#textstruct:Prose -->
<g id="edge9" class="edge"><title>Rhttp://www.w3.org/2002/07/owl#textstruct:Sentence&#45;&gt;Rhttp://www.w3.org/2002/07/owl#textstruct:Prose</title>
<path fill="none" stroke="black" d="M273.504,-700.946C219.581,-692.841 159.039,-682.795 155,-678 149.62,-671.614 149.214,-663.056 150.824,-654.828"/>
<polygon fill="black" stroke="black" points="154.215,-655.699 153.59,-645.123 147.484,-653.781 154.215,-655.699"/>
<text text-anchor="middle" x="257.5" y="-666.8" font-family="Times,serif" font-size="14.00">owl:textstruct:isPartOfProse</text>
</g>
<!-- Rhttp://www.w3.org/2002/07/owl#textstruct:Prose&#45;&gt;Rhttp://www.w3.org/2002/07/owl#lang:HumanNaturalLanguageExpression -->
<g id="edge11" class="edge"><title>Rhttp://www.w3.org/2002/07/owl#textstruct:Prose&#45;&gt;Rhttp://www.w3.org/2002/07/owl#lang:HumanNaturalLanguageExpression</title>
<path fill="none" stroke="black" d="M171.168,-608.96C179.334,-592.173 190,-565.548 190,-541 190,-541 190,-541 190,-104 190,-66.5034 662.286,-39.7415 943.296,-27.1368"/>
<polygon fill="black" stroke="black" points="943.791,-30.6183 953.625,-26.676 943.479,-23.6253 943.791,-30.6183"/>
<text text-anchor="middle" x="308.5" y="-318.8" font-family="Times,serif" font-size="14.00">owl:textstruct:proseIsPartOfText</text>
</g>
<!-- Rhttp://www.w3.org/2002/07/owl#textstruct:Prose&#45;&gt;Rhttp://www.w3.org/2002/07/owl#textstruct:SyntacticStructure -->
<g id="edge10" class="edge"><title>Rhttp://www.w3.org/2002/07/owl#textstruct:Prose&#45;&gt;Rhttp://www.w3.org/2002/07/owl#textstruct:SyntacticStructure</title>
<path fill="none" stroke="black" d="M184.83,-609.221C200.898,-598.19 223.323,-584.31 245,-576 266.819,-567.635 290.906,-561.199 314.218,-556.272"/>
<polygon fill="black" stroke="black" points="315.051,-559.674 324.153,-554.251 313.656,-552.814 315.051,-559.674"/>
<text text-anchor="middle" x="302.5" y="-579.8" font-family="Times,serif" font-size="14.00">rdfs:subClassOf</text>
</g>
<!-- Rhttp://www.w3.org/2002/07/owl#t:Expression -->
<g id="node11" class="node"><title>Rhttp://www.w3.org/2002/07/owl#t:Expression</title>
<g id="a_node11"><a xlink:href="http://www.w3.org/2002/07/owl#t:Expression" xlink:title="owl:t:Expression">
<ellipse fill="none" stroke="blue" cx="906" cy="-714" rx="88.2844" ry="18"/>
<text text-anchor="middle" x="906" y="-710.3" font-family="Times,serif" font-size="14.00">owl:t:Expression</text>
</a>
</g>
</g>
<!-- Rhttp://www.w3.org/2002/07/owl#t:Expression&#45;&gt;Rhttp://www.w3.org/2002/07/owl#lang:HumanNaturalLanguageExpression -->
<g id="edge13" class="edge"><title>Rhttp://www.w3.org/2002/07/owl#t:Expression&#45;&gt;Rhttp://www.w3.org/2002/07/owl#lang:HumanNaturalLanguageExpression</title>
<path fill="none" stroke="black" d="M993.544,-711.046C1177.84,-705.765 1589,-687.335 1589,-628 1589,-628 1589,-628 1589,-104 1589,-53.9845 1478.48,-32.7352 1367.97,-23.9894"/>
<polygon fill="black" stroke="black" points="1368.2,-20.4971 1357.97,-23.2313 1367.67,-27.4771 1368.2,-20.4971"/>
<text text-anchor="middle" x="1646.5" y="-362.3" font-family="Times,serif" font-size="14.00">rdfs:subClassOf</text>
</g>
<!-- Rhttp://www.w3.org/2002/07/owl#t:Expression&#45;&gt;Rhttp://www.w3.org/2002/07/owl#textstruct:Word -->
<g id="edge14" class="edge"><title>Rhttp://www.w3.org/2002/07/owl#t:Expression&#45;&gt;Rhttp://www.w3.org/2002/07/owl#textstruct:Word</title>
<path fill="none" stroke="black" d="M841.302,-701.657C830.515,-699.767 819.441,-697.827 809,-696 763.224,-687.989 749.95,-693.1 706,-678 700.058,-675.959 673.916,-661.984 650.706,-649.326"/>
<polygon fill="black" stroke="black" points="652.124,-646.113 641.671,-644.386 648.766,-652.255 652.124,-646.113"/>
<text text-anchor="middle" x="790.5" y="-666.8" font-family="Times,serif" font-size="14.00">owl:textstruct:hasWord</text>
</g>
<!-- Rhttp://www.w3.org/2002/07/owl#concept:Expression -->
<g id="node12" class="node"><title>Rhttp://www.w3.org/2002/07/owl#concept:Expression</title>
<g id="a_node12"><a xlink:href="http://www.w3.org/2002/07/owl#concept:Expression" xlink:title="owl:concept:Expression">
<ellipse fill="none" stroke="blue" cx="856" cy="-627" rx="121.578" ry="18"/>
<text text-anchor="middle" x="856" y="-623.3" font-family="Times,serif" font-size="14.00">owl:concept:Expression</text>
</a>
</g>
</g>
<!-- Rhttp://www.w3.org/2002/07/owl#t:Expression&#45;&gt;Rhttp://www.w3.org/2002/07/owl#concept:Expression -->
<g id="edge12" class="edge"><title>Rhttp://www.w3.org/2002/07/owl#t:Expression&#45;&gt;Rhttp://www.w3.org/2002/07/owl#concept:Expression</title>
<path fill="none" stroke="black" d="M895.882,-695.799C888.833,-683.817 879.304,-667.617 871.328,-654.057"/>
<polygon fill="black" stroke="black" points="874.19,-652.02 866.103,-645.175 868.157,-655.569 874.19,-652.02"/>
<text text-anchor="middle" x="941.5" y="-666.8" font-family="Times,serif" font-size="14.00">rdfs:subClassOf</text>
</g>
<!-- Rhttp://www.w3.org/2002/07/owl#t:SentenceExpression -->
<g id="node13" class="node"><title>Rhttp://www.w3.org/2002/07/owl#t:SentenceExpression</title>
<g id="a_node13"><a xlink:href="http://www.w3.org/2002/07/owl#t:SentenceExpression" xlink:title="owl:t:SentenceExpression">
<ellipse fill="none" stroke="blue" cx="358" cy="-801" rx="131.077" ry="18"/>
<text text-anchor="middle" x="358" y="-797.3" font-family="Times,serif" font-size="14.00">owl:t:SentenceExpression</text>
</a>
</g>
</g>
<!-- Rhttp://www.w3.org/2002/07/owl#t:SentenceExpression&#45;&gt;Rhttp://www.w3.org/2002/07/owl#textstruct:Sentence -->
<g id="edge16" class="edge"><title>Rhttp://www.w3.org/2002/07/owl#t:SentenceExpression&#45;&gt;Rhttp://www.w3.org/2002/07/owl#textstruct:Sentence</title>
<path fill="none" stroke="black" d="M358,-782.799C358,-771.163 358,-755.548 358,-742.237"/>
<polygon fill="black" stroke="black" points="361.5,-742.175 358,-732.175 354.5,-742.175 361.5,-742.175"/>
<text text-anchor="middle" x="456.5" y="-753.8" font-family="Times,serif" font-size="14.00">owl:textstruct:hasSentence</text>
</g>
<!-- Rhttp://www.w3.org/2002/07/owl#t:SentenceExpression&#45;&gt;Rhttp://www.w3.org/2002/07/owl#textstruct:Prose -->
<g id="edge17" class="edge"><title>Rhttp://www.w3.org/2002/07/owl#t:SentenceExpression&#45;&gt;Rhttp://www.w3.org/2002/07/owl#textstruct:Prose</title>
<path fill="none" stroke="black" d="M252.661,-790.242C175.34,-780.644 79.6783,-762.83 55,-732 29.597,-700.264 75.5397,-668.359 114.907,-648.415"/>
<polygon fill="black" stroke="black" points="116.77,-651.4 124.209,-643.856 113.689,-645.115 116.77,-651.4"/>
<text text-anchor="middle" x="141" y="-710.3" font-family="Times,serif" font-size="14.00">owl:textstruct:hasProse</text>
</g>
<!-- Rhttp://www.w3.org/2002/07/owl#t:SentenceExpression&#45;&gt;Rhttp://www.w3.org/2002/07/owl#t:Expression -->
<g id="edge15" class="edge"><title>Rhttp://www.w3.org/2002/07/owl#t:SentenceExpression&#45;&gt;Rhttp://www.w3.org/2002/07/owl#t:Expression</title>
<path fill="none" stroke="black" d="M444.977,-787.514C535.873,-774.318 682.589,-752.604 809,-732 816.392,-730.795 824.094,-729.505 831.784,-728.194"/>
<polygon fill="black" stroke="black" points="832.596,-731.606 841.859,-726.464 831.411,-724.707 832.596,-731.606"/>
<text text-anchor="middle" x="743.5" y="-753.8" font-family="Times,serif" font-size="14.00">rdfs:subClassOf</text>
</g>
<!-- Rhttp://www.w3.org/2002/07/owl#textstruct:Strophe&#45;&gt;Rhttp://www.w3.org/2002/07/owl#lang:HumanNaturalLanguageExpression -->
<g id="edge22" class="edge"><title>Rhttp://www.w3.org/2002/07/owl#textstruct:Strophe&#45;&gt;Rhttp://www.w3.org/2002/07/owl#lang:HumanNaturalLanguageExpression</title>
<path fill="none" stroke="black" d="M1326.46,-436.802C1294.58,-423.999 1260,-402.037 1260,-367 1260,-367 1260,-367 1260,-104 1260,-74.0046 1234.26,-53.2787 1207.35,-39.8069"/>
<polygon fill="black" stroke="black" points="1208.75,-36.5991 1198.21,-35.5133 1205.77,-42.9344 1208.75,-36.5991"/>
<text text-anchor="middle" x="1386" y="-231.8" font-family="Times,serif" font-size="14.00">owl:textstruct:stropheIsPartOfText</text>
</g>
<!-- Rhttp://www.w3.org/2002/07/owl#textstruct:Strophe&#45;&gt;Rhttp://www.w3.org/2002/07/owl#textstruct:ProsodicStructure -->
<g id="edge21" class="edge"><title>Rhttp://www.w3.org/2002/07/owl#textstruct:Strophe&#45;&gt;Rhttp://www.w3.org/2002/07/owl#textstruct:ProsodicStructure</title>
<path fill="none" stroke="black" d="M1295.5,-440.45C1226.71,-430.899 1139.18,-418.642 1131,-417 1088.27,-408.422 1040.88,-396.032 1003.99,-385.732"/>
<polygon fill="black" stroke="black" points="1004.93,-382.363 994.359,-383.025 1003.04,-389.102 1004.93,-382.363"/>
<text text-anchor="middle" x="1188.5" y="-405.8" font-family="Times,serif" font-size="14.00">rdfs:subClassOf</text>
</g>
<!-- Rhttp://www.w3.org/2002/07/owl#textstruct:Hemistich -->
<g id="node16" class="node"><title>Rhttp://www.w3.org/2002/07/owl#textstruct:Hemistich</title>
<g id="a_node16"><a xlink:href="http://www.w3.org/2002/07/owl#textstruct:Hemistich" xlink:title="owl:textstruct:Hemistich">
<ellipse fill="none" stroke="blue" cx="782" cy="-540" rx="128.077" ry="18"/>
<text text-anchor="middle" x="782" y="-536.3" font-family="Times,serif" font-size="14.00">owl:textstruct:Hemistich</text>
</a>
</g>
</g>
<!-- Rhttp://www.w3.org/2002/07/owl#textstruct:Hemistich&#45;&gt;Rhttp://www.w3.org/2002/07/owl#textstruct:Strophe -->
<g id="edge23" class="edge"><title>Rhttp://www.w3.org/2002/07/owl#textstruct:Hemistich&#45;&gt;Rhttp://www.w3.org/2002/07/owl#textstruct:Strophe</title>
<path fill="none" stroke="black" d="M843.559,-524.192C892.676,-512.909 963.382,-497.853 1026,-489 1126.65,-474.77 1152.93,-481.853 1254,-471 1264.67,-469.854 1275.84,-468.524 1286.91,-467.122"/>
<polygon fill="black" stroke="black" points="1287.58,-470.566 1297.05,-465.818 1286.68,-463.623 1287.58,-470.566"/>
<text text-anchor="middle" x="1083.5" y="-492.8" font-family="Times,serif" font-size="14.00">rdfs:subClassOf</text>
</g>
<!-- Rhttp://www.w3.org/2002/07/owl#textstruct:FreeVerse -->
<g id="node17" class="node"><title>Rhttp://www.w3.org/2002/07/owl#textstruct:FreeVerse</title>
<g id="a_node17"><a xlink:href="http://www.w3.org/2002/07/owl#textstruct:FreeVerse" xlink:title="owl:textstruct:FreeVerse">
<ellipse fill="none" stroke="blue" cx="1122" cy="-627" rx="126.978" ry="18"/>
<text text-anchor="middle" x="1122" y="-623.3" font-family="Times,serif" font-size="14.00">owl:textstruct:FreeVerse</text>
</a>
</g>
</g>
<!-- Rhttp://www.w3.org/2002/07/owl#textstruct:FreeVerse&#45;&gt;Rhttp://www.w3.org/2002/07/owl#textstruct:Verse -->
<g id="edge24" class="edge"><title>Rhttp://www.w3.org/2002/07/owl#textstruct:FreeVerse&#45;&gt;Rhttp://www.w3.org/2002/07/owl#textstruct:Verse</title>
<path fill="none" stroke="black" d="M1126.65,-608.799C1129.83,-597.047 1134.11,-581.238 1137.74,-567.842"/>
<polygon fill="black" stroke="black" points="1141.12,-568.743 1140.35,-558.175 1134.36,-566.914 1141.12,-568.743"/>
<text text-anchor="middle" x="1191.5" y="-579.8" font-family="Times,serif" font-size="14.00">rdfs:subClassOf</text>
</g>
<!-- Rhttp://www.w3.org/2002/07/owl#textstruct:RhymingVerse -->
<g id="node18" class="node"><title>Rhttp://www.w3.org/2002/07/owl#textstruct:RhymingVerse</title>
<g id="a_node18"><a xlink:href="http://www.w3.org/2002/07/owl#textstruct:RhymingVerse" xlink:title="owl:textstruct:RhymingVerse">
<ellipse fill="none" stroke="blue" cx="1414" cy="-627" rx="146.774" ry="18"/>
<text text-anchor="middle" x="1414" y="-623.3" font-family="Times,serif" font-size="14.00">owl:textstruct:RhymingVerse</text>
</a>
</g>
</g>
<!-- Rhttp://www.w3.org/2002/07/owl#textstruct:RhymingVerse&#45;&gt;Rhttp://www.w3.org/2002/07/owl#textstruct:Verse -->
<g id="edge25" class="edge"><title>Rhttp://www.w3.org/2002/07/owl#textstruct:RhymingVerse&#45;&gt;Rhttp://www.w3.org/2002/07/owl#textstruct:Verse</title>
<path fill="none" stroke="black" d="M1363.4,-610.012C1317.56,-595.525 1250.05,-574.195 1202.25,-559.089"/>
<polygon fill="black" stroke="black" points="1203.25,-555.736 1192.66,-556.06 1201.14,-562.411 1203.25,-555.736"/>
<text text-anchor="middle" x="1352.5" y="-579.8" font-family="Times,serif" font-size="14.00">rdfs:subClassOf</text>
</g>
<!-- Rhttp://www.w3.org/2002/07/owl#textstruct:RhythmicProse -->
<g id="node19" class="node"><title>Rhttp://www.w3.org/2002/07/owl#textstruct:RhythmicProse</title>
<g id="a_node19"><a xlink:href="http://www.w3.org/2002/07/owl#textstruct:RhythmicProse" xlink:title="owl:textstruct:RhythmicProse">
<ellipse fill="none" stroke="blue" cx="649" cy="-714" rx="150.574" ry="18"/>
<text text-anchor="middle" x="649" y="-710.3" font-family="Times,serif" font-size="14.00">owl:textstruct:RhythmicProse</text>
</a>
</g>
</g>
<!-- Rhttp://www.w3.org/2002/07/owl#textstruct:RhythmicProse&#45;&gt;Rhttp://www.w3.org/2002/07/owl#textstruct:Prose -->
<g id="edge26" class="edge"><title>Rhttp://www.w3.org/2002/07/owl#textstruct:RhythmicProse&#45;&gt;Rhttp://www.w3.org/2002/07/owl#textstruct:Prose</title>
<path fill="none" stroke="black" d="M568.237,-698.784C511.18,-688.753 432.912,-675.015 364,-663 324.419,-656.099 280.466,-648.478 243.695,-642.115"/>
<polygon fill="black" stroke="black" points="243.973,-638.611 233.523,-640.355 242.78,-645.509 243.973,-638.611"/>
<text text-anchor="middle" x="500.5" y="-666.8" font-family="Times,serif" font-size="14.00">rdfs:subClassOf</text>
</g>
<!-- Rhttp://www.w3.org/2002/07/owl#litera:Expression -->
<g id="node20" class="node"><title>Rhttp://www.w3.org/2002/07/owl#litera:Expression</title>
<g id="a_node20"><a xlink:href="http://www.w3.org/2002/07/owl#litera:Expression" xlink:title="owl:litera:Expression">
<ellipse fill="none" stroke="blue" cx="906" cy="-801" rx="109.381" ry="18"/>
<text text-anchor="middle" x="906" y="-797.3" font-family="Times,serif" font-size="14.00">owl:litera:Expression</text>
</a>
</g>
</g>
<!-- Rhttp://www.w3.org/2002/07/owl#litera:Expression&#45;&gt;Rhttp://www.w3.org/2002/07/owl#t:Expression -->
<g id="edge27" class="edge"><title>Rhttp://www.w3.org/2002/07/owl#litera:Expression&#45;&gt;Rhttp://www.w3.org/2002/07/owl#t:Expression</title>
<path fill="none" stroke="black" d="M906,-782.799C906,-771.163 906,-755.548 906,-742.237"/>
<polygon fill="black" stroke="black" points="909.5,-742.175 906,-732.175 902.5,-742.175 909.5,-742.175"/>
<text text-anchor="middle" x="963.5" y="-753.8" font-family="Times,serif" font-size="14.00">rdfs:subClassOf</text>
</g>
<!-- Rhttp://www.w3.org/2002/07/owl#litera:Poem -->
<g id="node21" class="node"><title>Rhttp://www.w3.org/2002/07/owl#litera:Poem</title>
<g id="a_node21"><a xlink:href="http://www.w3.org/2002/07/owl#litera:Poem" xlink:title="owl:litera:Poem">
<ellipse fill="none" stroke="blue" cx="906" cy="-888" rx="83.3857" ry="18"/>
<text text-anchor="middle" x="906" y="-884.3" font-family="Times,serif" font-size="14.00">owl:litera:Poem</text>
</a>
</g>
</g>
<!-- Rhttp://www.w3.org/2002/07/owl#litera:Poem&#45;&gt;Rhttp://www.w3.org/2002/07/owl#litera:Expression -->
<g id="edge28" class="edge"><title>Rhttp://www.w3.org/2002/07/owl#litera:Poem&#45;&gt;Rhttp://www.w3.org/2002/07/owl#litera:Expression</title>
<path fill="none" stroke="black" d="M906,-869.799C906,-858.163 906,-842.548 906,-829.237"/>
<polygon fill="black" stroke="black" points="909.5,-829.175 906,-819.175 902.5,-829.175 909.5,-829.175"/>
<text text-anchor="middle" x="963.5" y="-840.8" font-family="Times,serif" font-size="14.00">rdfs:subClassOf</text>
</g>
<!-- Rhttp://www.w3.org/2002/07/owl#litera:VersePoem -->
<g id="node22" class="node"><title>Rhttp://www.w3.org/2002/07/owl#litera:VersePoem</title>
<g id="a_node22"><a xlink:href="http://www.w3.org/2002/07/owl#litera:VersePoem" xlink:title="owl:litera:VersePoem">
<ellipse fill="none" stroke="blue" cx="1627" cy="-975" rx="108.581" ry="18"/>
<text text-anchor="middle" x="1627" y="-971.3" font-family="Times,serif" font-size="14.00">owl:litera:VersePoem</text>
</a>
</g>
</g>
<!-- Rhttp://www.w3.org/2002/07/owl#litera:VersePoem&#45;&gt;Rhttp://www.w3.org/2002/07/owl#textstruct:Verse -->
<g id="edge30" class="edge"><title>Rhttp://www.w3.org/2002/07/owl#litera:VersePoem&#45;&gt;Rhttp://www.w3.org/2002/07/owl#textstruct:Verse</title>
<path fill="none" stroke="black" d="M1697.26,-961.274C1762.95,-947.315 1851,-922.38 1851,-889 1851,-889 1851,-889 1851,-626 1851,-567.148 1459.3,-548.809 1259.42,-543.283"/>
<polygon fill="black" stroke="black" points="1259.26,-539.777 1249.17,-543.006 1259.07,-546.775 1259.26,-539.777"/>
<text text-anchor="middle" x="1941" y="-753.8" font-family="Times,serif" font-size="14.00">owl:litera:poemHasVerse</text>
</g>
<!-- Rhttp://www.w3.org/2002/07/owl#litera:VersePoem&#45;&gt;Rhttp://www.w3.org/2002/07/owl#textstruct:Strophe -->
<g id="edge31" class="edge"><title>Rhttp://www.w3.org/2002/07/owl#litera:VersePoem&#45;&gt;Rhttp://www.w3.org/2002/07/owl#textstruct:Strophe</title>
<path fill="none" stroke="black" d="M1627,-956.744C1627,-939.57 1627,-912.464 1627,-889 1627,-889 1627,-889 1627,-539 1627,-504.605 1540.56,-481.195 1469.74,-467.788"/>
<polygon fill="black" stroke="black" points="1470.33,-464.338 1459.86,-465.963 1469.06,-471.222 1470.33,-464.338"/>
<text text-anchor="middle" x="1725" y="-710.3" font-family="Times,serif" font-size="14.00">owl:litera:poemHasStrophe</text>
</g>
<!-- Rhttp://www.w3.org/2002/07/owl#litera:VersePoem&#45;&gt;Rhttp://www.w3.org/2002/07/owl#litera:Poem -->
<g id="edge29" class="edge"><title>Rhttp://www.w3.org/2002/07/owl#litera:VersePoem&#45;&gt;Rhttp://www.w3.org/2002/07/owl#litera:Poem</title>
<path fill="none" stroke="black" d="M1541.46,-963.916C1401.26,-947.388 1124.47,-914.756 987.171,-898.569"/>
<polygon fill="black" stroke="black" points="987.471,-895.081 977.13,-897.386 986.651,-902.032 987.471,-895.081"/>
<text text-anchor="middle" x="1366.5" y="-927.8" font-family="Times,serif" font-size="14.00">rdfs:subClassOf</text>
</g>
<!-- Rhttp://www.w3.org/2002/07/owl#litera:VerseSong -->
<g id="node23" class="node"><title>Rhttp://www.w3.org/2002/07/owl#litera:VerseSong</title>
<g id="a_node23"><a xlink:href="http://www.w3.org/2002/07/owl#litera:VerseSong" xlink:title="owl:litera:VerseSong">
<ellipse fill="none" stroke="blue" cx="1627" cy="-1062" rx="106.681" ry="18"/>
<text text-anchor="middle" x="1627" y="-1058.3" font-family="Times,serif" font-size="14.00">owl:litera:VerseSong</text>
</a>
</g>
</g>
<!-- Rhttp://www.w3.org/2002/07/owl#litera:VerseSong&#45;&gt;Rhttp://www.w3.org/2002/07/owl#litera:VersePoem -->
<g id="edge32" class="edge"><title>Rhttp://www.w3.org/2002/07/owl#litera:VerseSong&#45;&gt;Rhttp://www.w3.org/2002/07/owl#litera:VersePoem</title>
<path fill="none" stroke="black" d="M1627,-1043.8C1627,-1032.16 1627,-1016.55 1627,-1003.24"/>
<polygon fill="black" stroke="black" points="1630.5,-1003.18 1627,-993.175 1623.5,-1003.18 1630.5,-1003.18"/>
<text text-anchor="middle" x="1684.5" y="-1014.8" font-family="Times,serif" font-size="14.00">rdfs:subClassOf</text>
</g>
<!-- Rhttp://www.w3.org/2002/07/owl#litera:Hymn -->
<g id="node24" class="node"><title>Rhttp://www.w3.org/2002/07/owl#litera:Hymn</title>
<g id="a_node24"><a xlink:href="http://www.w3.org/2002/07/owl#litera:Hymn" xlink:title="owl:litera:Hymn">
<ellipse fill="none" stroke="blue" cx="1627" cy="-1149" rx="85.5853" ry="18"/>
<text text-anchor="middle" x="1627" y="-1145.3" font-family="Times,serif" font-size="14.00">owl:litera:Hymn</text>
</a>
</g>
</g>
<!-- Rhttp://www.w3.org/2002/07/owl#litera:Hymn&#45;&gt;Rhttp://www.w3.org/2002/07/owl#litera:VerseSong -->
<g id="edge33" class="edge"><title>Rhttp://www.w3.org/2002/07/owl#litera:Hymn&#45;&gt;Rhttp://www.w3.org/2002/07/owl#litera:VerseSong</title>
<path fill="none" stroke="black" d="M1627,-1130.8C1627,-1119.16 1627,-1103.55 1627,-1090.24"/>
<polygon fill="black" stroke="black" points="1630.5,-1090.18 1627,-1080.18 1623.5,-1090.18 1630.5,-1090.18"/>
<text text-anchor="middle" x="1684.5" y="-1101.8" font-family="Times,serif" font-size="14.00">rdfs:subClassOf</text>
</g>
<!-- Rhttp://www.w3.org/2002/07/owl#litera:ProsePoem -->
<g id="node25" class="node"><title>Rhttp://www.w3.org/2002/07/owl#litera:ProsePoem</title>
<g id="a_node25"><a xlink:href="http://www.w3.org/2002/07/owl#litera:ProsePoem" xlink:title="owl:litera:ProsePoem">
<ellipse fill="none" stroke="blue" cx="358" cy="-975" rx="109.381" ry="18"/>
<text text-anchor="middle" x="358" y="-971.3" font-family="Times,serif" font-size="14.00">owl:litera:ProsePoem</text>
</a>
</g>
</g>
<!-- Rhttp://www.w3.org/2002/07/owl#litera:ProsePoem&#45;&gt;Rhttp://www.w3.org/2002/07/owl#textstruct:Prose -->
<g id="edge36" class="edge"><title>Rhttp://www.w3.org/2002/07/owl#litera:ProsePoem&#45;&gt;Rhttp://www.w3.org/2002/07/owl#textstruct:Prose</title>
<path fill="none" stroke="black" d="M253.971,-969.358C148.27,-961.717 0,-941.622 0,-889 0,-889 0,-889 0,-713 0,-674.643 36.0514,-653.56 74.1403,-641.988"/>
<polygon fill="black" stroke="black" points="75.175,-645.333 83.8471,-639.246 73.2723,-638.596 75.175,-645.333"/>
<text text-anchor="middle" x="90.5" y="-797.3" font-family="Times,serif" font-size="14.00">owl:litera:poemHasProse</text>
</g>
<!-- Rhttp://www.w3.org/2002/07/owl#litera:ProsePoem&#45;&gt;Rhttp://www.w3.org/2002/07/owl#t:SentenceExpression -->
<g id="edge35" class="edge"><title>Rhttp://www.w3.org/2002/07/owl#litera:ProsePoem&#45;&gt;Rhttp://www.w3.org/2002/07/owl#t:SentenceExpression</title>
<path fill="none" stroke="black" d="M358,-956.879C358,-927.001 358,-865.113 358,-829.274"/>
<polygon fill="black" stroke="black" points="361.5,-829.052 358,-819.052 354.5,-829.052 361.5,-829.052"/>
<text text-anchor="middle" x="415.5" y="-884.3" font-family="Times,serif" font-size="14.00">rdfs:subClassOf</text>
</g>
<!-- Rhttp://www.w3.org/2002/07/owl#litera:ProsePoem&#45;&gt;Rhttp://www.w3.org/2002/07/owl#litera:Poem -->
<g id="edge34" class="edge"><title>Rhttp://www.w3.org/2002/07/owl#litera:ProsePoem&#45;&gt;Rhttp://www.w3.org/2002/07/owl#litera:Poem</title>
<path fill="none" stroke="black" d="M434.485,-962.136C539.166,-945.899 725.934,-916.93 830.236,-900.752"/>
<polygon fill="black" stroke="black" points="831.03,-904.171 840.375,-899.179 829.957,-897.253 831.03,-904.171"/>
<text text-anchor="middle" x="722.5" y="-927.8" font-family="Times,serif" font-size="14.00">rdfs:subClassOf</text>
</g>
</g>
</svg>