<?xml version="1.0" encoding="UTF-8" standalone="no"?>
<!DOCTYPE svg PUBLIC "-//W3C//DTD SVG 1.1//EN"
 "http://www.w3.org/Graphics/SVG/1.1/DTD/svg11.dtd">
<!-- Generated by graphviz version 2.38.0 (20140413.2041)
 -->
<!-- Title: %3 Pages: 1 -->
<svg width="3133pt" height="566pt"
 viewBox="0.00 0.00 3133.39 566.00" xmlns="http://www.w3.org/2000/svg" xmlns:xlink="http://www.w3.org/1999/xlink">
<g id="graph0" class="graph" transform="scale(1 1) rotate(0) translate(4 562)">
<title>%3</title>
<polygon fill="white" stroke="none" points="-4,4 -4,-562 3129.39,-562 3129.39,4 -4,4"/>
<!-- Rhttp://www.w3.org/2002/07/owl#human:Creation -->
<g id="node1" class="node"><title>Rhttp://www.w3.org/2002/07/owl#human:Creation</title>
<g id="a_node1"><a xlink:href="http://www.w3.org/2002/07/owl#human:Creation" xlink:title="human:Creation">
<ellipse fill="none" stroke="blue" cx="1936.39" cy="-366" rx="104.782" ry="18"/>
<text text-anchor="middle" x="1936.39" y="-362.3" font-family="Times,serif" font-size="14.00">human:Creation</text>
</a>
</g>
</g>
<!-- Rhttp://www.w3.org/2002/07/owl#event:Output -->
<g id="node2" class="node"><title>Rhttp://www.w3.org/2002/07/owl#event:Output</title>
<g id="a_node2"><a xlink:href="http://www.w3.org/2002/07/owl#event:Output" xlink:title="event:Output">
<ellipse fill="none" stroke="blue" cx="1557.39" cy="-279" rx="90.9839" ry="18"/>
<text text-anchor="middle" x="1557.39" y="-275.3" font-family="Times,serif" font-size="14.00">event:Output</text>
</a>
</g>
</g>
<!-- Rhttp://www.w3.org/2002/07/owl#human:Creation&#45;&gt;Rhttp://www.w3.org/2002/07/owl#event:Output -->
<g id="edge1" class="edge"><title>Rhttp://www.w3.org/2002/07/owl#human:Creation&#45;&gt;Rhttp://www.w3.org/2002/07/owl#event:Output</title>
<path fill="none" stroke="green" d="M1863.31,-353.059C1840.82,-347.767 1816.45,-340.325 1795.39,-330 1785.73,-325.264 1786.26,-319.281 1776.39,-315 1727.32,-293.717 1710.2,-305.483 1657.39,-297 1649.69,-295.763 1641.66,-294.445 1633.64,-293.111"/>
<polygon fill="green" stroke="green" points="1633.96,-289.617 1623.52,-291.418 1632.81,-296.521 1633.96,-289.617"/>
<text text-anchor="middle" x="1852.89" y="-318.8" font-family="Times,serif" font-size="14.00">rdfs:subClassOf</text>
</g>
<!-- Rhttp://www.w3.org/2000/01/rdf&#45;schema#cidoc:E71_Man&#45;Made_Thing -->
<g id="node3" class="node"><title>Rhttp://www.w3.org/2000/01/rdf&#45;schema#cidoc:E71_Man&#45;Made_Thing</title>
<g id="a_node3"><a xlink:href="http://www.w3.org/2000/01/rdf-schema#cidoc:E71_Man-Made_Thing" xlink:title="cidoc:E71_Man&#45;Made_Thing">
<ellipse fill="none" stroke="purple" cx="1831.39" cy="-279" rx="165.171" ry="18"/>
<text text-anchor="middle" x="1831.39" y="-275.3" font-family="Times,serif" font-size="14.00">cidoc:E71_Man&#45;Made_Thing</text>
</a>
</g>
</g>
<!-- Rhttp://www.w3.org/2002/07/owl#human:Creation&#45;&gt;Rhttp://www.w3.org/2000/01/rdf&#45;schema#cidoc:E71_Man&#45;Made_Thing -->
<g id="edge2" class="edge"><title>Rhttp://www.w3.org/2002/07/owl#human:Creation&#45;&gt;Rhttp://www.w3.org/2000/01/rdf&#45;schema#cidoc:E71_Man&#45;Made_Thing</title>
<path fill="none" stroke="green" d="M1932.33,-347.832C1929.05,-337.198 1923.44,-323.916 1914.39,-315 1908.75,-309.445 1902.09,-304.719 1895.04,-300.71"/>
<polygon fill="green" stroke="green" points="1896.44,-297.493 1885.95,-296.008 1893.23,-303.711 1896.44,-297.493"/>
<text text-anchor="middle" x="1982.89" y="-318.8" font-family="Times,serif" font-size="14.00">rdfs:subClassOf</text>
</g>
<!-- Rhttp://www.w3.org/2000/01/rdf&#45;schema#Literal -->
<g id="node4" class="node"><title>Rhttp://www.w3.org/2000/01/rdf&#45;schema#Literal</title>
<g id="a_node4"><a xlink:href="http://www.w3.org/2000/01/rdf-schema#Literal" xlink:title="rdfs:Literal">
<ellipse fill="none" stroke="purple" cx="2533.39" cy="-192" rx="63.8893" ry="18"/>
<text text-anchor="middle" x="2533.39" y="-188.3" font-family="Times,serif" font-size="14.00">rdfs:Literal</text>
</a>
</g>
</g>
<!-- Rhttp://www.w3.org/2002/07/owl#human:Creation&#45;&gt;Rhttp://www.w3.org/2000/01/rdf&#45;schema#Literal -->
<g id="edge3" class="edge"><title>Rhttp://www.w3.org/2002/07/owl#human:Creation&#45;&gt;Rhttp://www.w3.org/2000/01/rdf&#45;schema#Literal</title>
<path fill="none" stroke="blue" d="M2033,-358.994C2153.95,-350.175 2353.18,-330.967 2418.39,-297 2438.68,-286.428 2482.74,-244.028 2510.05,-216.738"/>
<polygon fill="blue" stroke="blue" points="2512.7,-219.037 2517.28,-209.481 2507.74,-214.099 2512.7,-219.037"/>
<text text-anchor="middle" x="2529.39" y="-275.3" font-family="Times,serif" font-size="14.00">text:hasName</text>
</g>
<!-- Rhttp://www.w3.org/2002/07/owl#human:Creation&#45;&gt;Rhttp://www.w3.org/2000/01/rdf&#45;schema#Literal -->
<g id="edge4" class="edge"><title>Rhttp://www.w3.org/2002/07/owl#human:Creation&#45;&gt;Rhttp://www.w3.org/2000/01/rdf&#45;schema#Literal</title>
<path fill="none" stroke="blue" d="M2038.57,-361.931C2214.32,-355.576 2558.51,-337.994 2594.39,-297 2616.28,-271.986 2587.54,-237.983 2562.56,-215.771"/>
<polygon fill="blue" stroke="blue" points="2564.52,-212.844 2554.65,-209 2559.97,-218.162 2564.52,-212.844"/>
<text text-anchor="middle" x="2701.89" y="-275.3" font-family="Times,serif" font-size="14.00">text:hasPreferredName</text>
</g>
<!-- Rhttp://www.w3.org/2002/07/owl#human:Creation&#45;&gt;Rhttp://www.w3.org/2000/01/rdf&#45;schema#Literal -->
<g id="edge5" class="edge"><title>Rhttp://www.w3.org/2002/07/owl#human:Creation&#45;&gt;Rhttp://www.w3.org/2000/01/rdf&#45;schema#Literal</title>
<path fill="none" stroke="blue" d="M2034.26,-359.585C2118.8,-353.993 2229.79,-344.093 2245.39,-330 2268.68,-308.961 2238.53,-283.522 2260.39,-261 2288.6,-231.933 2394.83,-211.989 2466.16,-201.546"/>
<polygon fill="blue" stroke="blue" points="2467.01,-204.959 2476.41,-200.074 2466.02,-198.03 2467.01,-204.959"/>
<text text-anchor="middle" x="2337.39" y="-275.3" font-family="Times,serif" font-size="14.00">text:hasIdentifier</text>
</g>
<!-- Rhttp://www.w3.org/2002/07/owl#human:Creation&#45;&gt;Rhttp://www.w3.org/2000/01/rdf&#45;schema#Literal -->
<g id="edge6" class="edge"><title>Rhttp://www.w3.org/2002/07/owl#human:Creation&#45;&gt;Rhttp://www.w3.org/2000/01/rdf&#45;schema#Literal</title>
<path fill="none" stroke="blue" d="M2041.1,-364.753C2261.17,-363.121 2755.62,-353.173 2805.39,-297 2866,-228.588 2705.35,-204.934 2605.72,-196.941"/>
<polygon fill="blue" stroke="blue" points="2605.92,-193.446 2595.68,-196.171 2605.39,-200.425 2605.92,-193.446"/>
<text text-anchor="middle" x="2880.89" y="-275.3" font-family="Times,serif" font-size="14.00">text:hasAlias</text>
</g>
<!-- Rhttp://www.w3.org/2002/07/owl#human:Creation&#45;&gt;Rhttp://www.w3.org/2000/01/rdf&#45;schema#Literal -->
<g id="edge7" class="edge"><title>Rhttp://www.w3.org/2002/07/owl#human:Creation&#45;&gt;Rhttp://www.w3.org/2000/01/rdf&#45;schema#Literal</title>
<path fill="none" stroke="blue" d="M2041.04,-364.707C2196.6,-363.324 2497.87,-356.997 2752.39,-330 2839.36,-320.775 2889.97,-363.829 2946.39,-297 2956.71,-284.774 2956.34,-273.529 2946.39,-261 2905.34,-209.321 2714.62,-196.744 2607.29,-193.798"/>
<polygon fill="blue" stroke="blue" points="2607.26,-190.296 2597.17,-193.542 2607.08,-197.294 2607.26,-190.296"/>
<text text-anchor="middle" x="3039.89" y="-275.3" font-family="Times,serif" font-size="14.00">text:hasDescription</text>
</g>
<!-- Rhttp://www.w3.org/2002/07/owl#human:Creating -->
<g id="node5" class="node"><title>Rhttp://www.w3.org/2002/07/owl#human:Creating</title>
<g id="a_node5"><a xlink:href="http://www.w3.org/2002/07/owl#human:Creating" xlink:title="human:Creating">
<ellipse fill="none" stroke="blue" cx="2119.39" cy="-279" rx="105.082" ry="18"/>
<text text-anchor="middle" x="2119.39" y="-275.3" font-family="Times,serif" font-size="14.00">human:Creating</text>
</a>
</g>
</g>
<!-- Rhttp://www.w3.org/2002/07/owl#human:Creation&#45;&gt;Rhttp://www.w3.org/2002/07/owl#human:Creating -->
<g id="edge8" class="edge"><title>Rhttp://www.w3.org/2002/07/owl#human:Creation&#45;&gt;Rhttp://www.w3.org/2002/07/owl#human:Creating</title>
<path fill="none" stroke="blue" d="M1990.81,-350.56C2008.32,-345.079 2027.54,-338.156 2044.39,-330 2059.99,-322.451 2076.13,-312.077 2089.42,-302.734"/>
<polygon fill="blue" stroke="blue" points="2091.63,-305.459 2097.71,-296.784 2087.54,-299.772 2091.63,-305.459"/>
<text text-anchor="middle" x="2155.89" y="-318.8" font-family="Times,serif" font-size="14.00">human:hasCreating</text>
</g>
<!-- Rhttp://www.w3.org/2001/XMLSchema#date -->
<g id="node6" class="node"><title>Rhttp://www.w3.org/2001/XMLSchema#date</title>
<g id="a_node6"><a xlink:href="http://www.w3.org/2001/XMLSchema#date" xlink:title="xsd:date">
<ellipse fill="none" stroke="purple" cx="1194.39" cy="-279" rx="50.0912" ry="18"/>
<text text-anchor="middle" x="1194.39" y="-275.3" font-family="Times,serif" font-size="14.00">xsd:date</text>
</a>
</g>
</g>
<!-- Rhttp://www.w3.org/2002/07/owl#human:Creation&#45;&gt;Rhttp://www.w3.org/2001/XMLSchema#date -->
<g id="edge9" class="edge"><title>Rhttp://www.w3.org/2002/07/owl#human:Creation&#45;&gt;Rhttp://www.w3.org/2001/XMLSchema#date</title>
<path fill="none" stroke="blue" d="M1831.77,-365.296C1701.27,-364.409 1486.31,-358.458 1412.39,-330 1402.35,-326.135 1403.25,-319.3 1393.39,-315 1345.56,-294.15 1328.74,-306.237 1277.39,-297 1267.29,-295.184 1256.54,-293.095 1246.23,-291.017"/>
<polygon fill="blue" stroke="blue" points="1246.61,-287.523 1236.11,-288.954 1245.21,-294.382 1246.61,-287.523"/>
<text text-anchor="middle" x="1514.39" y="-318.8" font-family="Times,serif" font-size="14.00">human:hasCreationDate</text>
</g>
<!-- Rhttp://www.w3.org/2002/07/owl#human:Creation&#45;&gt;Rhttp://www.w3.org/2001/XMLSchema#date -->
<g id="edge10" class="edge"><title>Rhttp://www.w3.org/2002/07/owl#human:Creation&#45;&gt;Rhttp://www.w3.org/2001/XMLSchema#date</title>
<path fill="none" stroke="blue" d="M1832.25,-364.089C1625.34,-361.764 1180.33,-353.989 1157.39,-330 1149.18,-321.416 1154.85,-310.981 1164,-301.869"/>
<polygon fill="blue" stroke="blue" points="1166.34,-304.469 1171.49,-295.211 1161.69,-299.236 1166.34,-304.469"/>
<text text-anchor="middle" x="1273.39" y="-318.8" font-family="Times,serif" font-size="14.00">human:hasModificationDate</text>
</g>
<!-- Rhttp://www.w3.org/2002/07/owl#physical:Place -->
<g id="node7" class="node"><title>Rhttp://www.w3.org/2002/07/owl#physical:Place</title>
<g id="a_node7"><a xlink:href="http://www.w3.org/2002/07/owl#physical:Place" xlink:title="physical:Place">
<ellipse fill="none" stroke="blue" cx="1004.39" cy="-279" rx="96.6831" ry="18"/>
<text text-anchor="middle" x="1004.39" y="-275.3" font-family="Times,serif" font-size="14.00">physical:Place</text>
</a>
</g>
</g>
<!-- Rhttp://www.w3.org/2002/07/owl#human:Creation&#45;&gt;Rhttp://www.w3.org/2002/07/owl#physical:Place -->
<g id="edge11" class="edge"><title>Rhttp://www.w3.org/2002/07/owl#human:Creation&#45;&gt;Rhttp://www.w3.org/2002/07/owl#physical:Place</title>
<path fill="none" stroke="blue" d="M1831.66,-365.064C1587.51,-364.698 998.928,-360.626 969.39,-330 961.747,-322.075 966.074,-312.347 973.914,-303.584"/>
<polygon fill="blue" stroke="blue" points="976.441,-306.007 981.139,-296.511 971.545,-301.005 976.441,-306.007"/>
<text text-anchor="middle" x="1059.89" y="-318.8" font-family="Times,serif" font-size="14.00">physical:hasLocation</text>
</g>
<!-- Rhttp://www.w3.org/2002/07/owl#agent:Agent -->
<g id="node8" class="node"><title>Rhttp://www.w3.org/2002/07/owl#agent:Agent</title>
<g id="a_node8"><a xlink:href="http://www.w3.org/2002/07/owl#agent:Agent" xlink:title="agent:Agent">
<ellipse fill="none" stroke="blue" cx="1367.39" cy="-279" rx="81.4863" ry="18"/>
<text text-anchor="middle" x="1367.39" y="-275.3" font-family="Times,serif" font-size="14.00">agent:Agent</text>
</a>
</g>
</g>
<!-- Rhttp://www.w3.org/2002/07/owl#human:Creation&#45;&gt;Rhttp://www.w3.org/2002/07/owl#agent:Agent -->
<g id="edge12" class="edge"><title>Rhttp://www.w3.org/2002/07/owl#human:Creation&#45;&gt;Rhttp://www.w3.org/2002/07/owl#agent:Agent</title>
<path fill="none" stroke="blue" d="M1839.14,-359.258C1766.71,-353.915 1674.52,-344.557 1639.39,-330 1629.45,-325.882 1630.34,-319.082 1620.39,-315 1552.95,-287.348 1529.47,-307.772 1457.39,-297 1450.25,-295.934 1442.82,-294.711 1435.42,-293.422"/>
<polygon fill="blue" stroke="blue" points="1435.83,-289.941 1425.38,-291.63 1434.61,-296.832 1435.83,-289.941"/>
<text text-anchor="middle" x="1705.89" y="-318.8" font-family="Times,serif" font-size="14.00">agent:hasUser</text>
</g>
<!-- Rhttp://www.w3.org/2002/07/owl#human:Action -->
<g id="node9" class="node"><title>Rhttp://www.w3.org/2002/07/owl#human:Action</title>
<g id="a_node9"><a xlink:href="http://www.w3.org/2002/07/owl#human:Action" xlink:title="human:Action">
<ellipse fill="none" stroke="blue" cx="1913.39" cy="-192" rx="94.7833" ry="18"/>
<text text-anchor="middle" x="1913.39" y="-188.3" font-family="Times,serif" font-size="14.00">human:Action</text>
</a>
</g>
</g>
<!-- Rhttp://www.w3.org/2002/07/owl#human:Creating&#45;&gt;Rhttp://www.w3.org/2002/07/owl#human:Action -->
<g id="edge13" class="edge"><title>Rhttp://www.w3.org/2002/07/owl#human:Creating&#45;&gt;Rhttp://www.w3.org/2002/07/owl#human:Action</title>
<path fill="none" stroke="green" d="M2063.36,-263.721C2044.05,-258.112 2022.47,-251.07 2003.39,-243 1984.5,-235.011 1964.46,-224.138 1948.1,-214.572"/>
<polygon fill="green" stroke="green" points="1949.8,-211.514 1939.42,-209.418 1946.23,-217.533 1949.8,-211.514"/>
<text text-anchor="middle" x="2060.89" y="-231.8" font-family="Times,serif" font-size="14.00">rdfs:subClassOf</text>
</g>
<!-- Rhttp://www.w3.org/2002/07/owl#event:Creating -->
<g id="node10" class="node"><title>Rhttp://www.w3.org/2002/07/owl#event:Creating</title>
<g id="a_node10"><a xlink:href="http://www.w3.org/2002/07/owl#event:Creating" xlink:title="event:Creating">
<ellipse fill="none" stroke="blue" cx="2125.39" cy="-192" rx="99.3824" ry="18"/>
<text text-anchor="middle" x="2125.39" y="-188.3" font-family="Times,serif" font-size="14.00">event:Creating</text>
</a>
</g>
</g>
<!-- Rhttp://www.w3.org/2002/07/owl#human:Creating&#45;&gt;Rhttp://www.w3.org/2002/07/owl#event:Creating -->
<g id="edge14" class="edge"><title>Rhttp://www.w3.org/2002/07/owl#human:Creating&#45;&gt;Rhttp://www.w3.org/2002/07/owl#event:Creating</title>
<path fill="none" stroke="green" d="M2120.6,-260.799C2121.43,-249.163 2122.53,-233.548 2123.47,-220.237"/>
<polygon fill="green" stroke="green" points="2126.96,-220.397 2124.18,-210.175 2119.98,-219.904 2126.96,-220.397"/>
<text text-anchor="middle" x="2180.89" y="-231.8" font-family="Times,serif" font-size="14.00">rdfs:subClassOf</text>
</g>
<!-- Rhttp://www.w3.org/2002/07/owl#physical:Place&#45;&gt;Rhttp://www.w3.org/2000/01/rdf&#45;schema#Literal -->
<g id="edge28" class="edge"><title>Rhttp://www.w3.org/2002/07/owl#physical:Place&#45;&gt;Rhttp://www.w3.org/2000/01/rdf&#45;schema#Literal</title>
<path fill="none" stroke="blue" d="M1078.41,-267.386C1096.98,-265.001 1116.89,-262.682 1135.39,-261 1621.91,-216.776 1745.42,-233.228 2233.39,-210 2311.46,-206.284 2400.91,-201.094 2461.68,-197.429"/>
<polygon fill="blue" stroke="blue" points="2462.16,-200.906 2471.93,-196.809 2461.74,-193.919 2462.16,-200.906"/>
<text text-anchor="middle" x="1767.89" y="-231.8" font-family="Times,serif" font-size="14.00">physical:placeHasName</text>
</g>
<!-- Rhttp://www.w3.org/2002/07/owl#physical:Space -->
<g id="node13" class="node"><title>Rhttp://www.w3.org/2002/07/owl#physical:Space</title>
<g id="a_node13"><a xlink:href="http://www.w3.org/2002/07/owl#physical:Space" xlink:title="physical:Space">
<ellipse fill="none" stroke="blue" cx="335.39" cy="-192" rx="98.5829" ry="18"/>
<text text-anchor="middle" x="335.39" y="-188.3" font-family="Times,serif" font-size="14.00">physical:Space</text>
</a>
</g>
</g>
<!-- Rhttp://www.w3.org/2002/07/owl#physical:Place&#45;&gt;Rhttp://www.w3.org/2002/07/owl#physical:Space -->
<g id="edge26" class="edge"><title>Rhttp://www.w3.org/2002/07/owl#physical:Place&#45;&gt;Rhttp://www.w3.org/2002/07/owl#physical:Space</title>
<path fill="none" stroke="green" d="M936.154,-266.183C923.936,-264.286 911.303,-262.468 899.39,-261 805.538,-249.435 781.349,-253.653 687.39,-243 594.736,-232.495 488.855,-216.976 417.624,-206.019"/>
<polygon fill="green" stroke="green" points="417.789,-202.503 407.372,-204.437 416.721,-209.422 417.789,-202.503"/>
<text text-anchor="middle" x="744.89" y="-231.8" font-family="Times,serif" font-size="14.00">rdfs:subClassOf</text>
</g>
<!-- Rhttp://www.w3.org/2000/01/rdf&#45;schema#cidoc:E53_Place -->
<g id="node21" class="node"><title>Rhttp://www.w3.org/2000/01/rdf&#45;schema#cidoc:E53_Place</title>
<g id="a_node21"><a xlink:href="http://www.w3.org/2000/01/rdf-schema#cidoc:E53_Place" xlink:title="cidoc:E53_Place">
<ellipse fill="none" stroke="purple" cx="1211.39" cy="-192" rx="108.581" ry="18"/>
<text text-anchor="middle" x="1211.39" y="-188.3" font-family="Times,serif" font-size="14.00">cidoc:E53_Place</text>
</a>
</g>
</g>
<!-- Rhttp://www.w3.org/2002/07/owl#physical:Place&#45;&gt;Rhttp://www.w3.org/2000/01/rdf&#45;schema#cidoc:E53_Place -->
<g id="edge27" class="edge"><title>Rhttp://www.w3.org/2002/07/owl#physical:Place&#45;&gt;Rhttp://www.w3.org/2000/01/rdf&#45;schema#cidoc:E53_Place</title>
<path fill="none" stroke="green" d="M1083.89,-268.66C1123.14,-262.8 1165.44,-254.215 1181.39,-243 1189.66,-237.185 1196.04,-228.297 1200.75,-219.619"/>
<polygon fill="green" stroke="green" points="1203.99,-220.963 1205.22,-210.44 1197.7,-217.902 1203.99,-220.963"/>
<text text-anchor="middle" x="1253.89" y="-231.8" font-family="Times,serif" font-size="14.00">rdfs:subClassOf</text>
</g>
<!-- Rhttp://www.w3.org/2001/XMLSchema#decimal -->
<g id="node22" class="node"><title>Rhttp://www.w3.org/2001/XMLSchema#decimal</title>
<g id="a_node22"><a xlink:href="http://www.w3.org/2001/XMLSchema#decimal" xlink:title="xsd:decimal">
<ellipse fill="none" stroke="purple" cx="907.39" cy="-192" rx="66.0889" ry="18"/>
<text text-anchor="middle" x="907.39" y="-188.3" font-family="Times,serif" font-size="14.00">xsd:decimal</text>
</a>
</g>
</g>
<!-- Rhttp://www.w3.org/2002/07/owl#physical:Place&#45;&gt;Rhttp://www.w3.org/2001/XMLSchema#decimal -->
<g id="edge29" class="edge"><title>Rhttp://www.w3.org/2002/07/owl#physical:Place&#45;&gt;Rhttp://www.w3.org/2001/XMLSchema#decimal</title>
<path fill="none" stroke="blue" d="M934.57,-266.463C879.807,-257.249 812.465,-245.482 810.39,-243 795.566,-225.262 816.908,-213.074 843.309,-205.175"/>
<polygon fill="blue" stroke="blue" points="844.491,-208.481 853.207,-202.457 842.637,-201.73 844.491,-208.481"/>
<text text-anchor="middle" x="896.39" y="-231.8" font-family="Times,serif" font-size="14.00">phygeo:hasLatitude</text>
</g>
<!-- Rhttp://www.w3.org/2002/07/owl#physical:Place&#45;&gt;Rhttp://www.w3.org/2001/XMLSchema#decimal -->
<g id="edge30" class="edge"><title>Rhttp://www.w3.org/2002/07/owl#physical:Place&#45;&gt;Rhttp://www.w3.org/2001/XMLSchema#decimal</title>
<path fill="none" stroke="blue" d="M1000.22,-260.946C996.887,-250.358 991.276,-237.085 982.39,-228 975.529,-220.986 966.993,-215.224 958.163,-210.544"/>
<polygon fill="blue" stroke="blue" points="959.437,-207.272 948.912,-206.053 956.379,-213.569 959.437,-207.272"/>
<text text-anchor="middle" x="1085.39" y="-231.8" font-family="Times,serif" font-size="14.00">phygeo:hasLongitude</text>
</g>
<!-- Rhttp://www.w3.org/2002/07/owl#human:PhysicalCreation -->
<g id="node11" class="node"><title>Rhttp://www.w3.org/2002/07/owl#human:PhysicalCreation</title>
<g id="a_node11"><a xlink:href="http://www.w3.org/2002/07/owl#human:PhysicalCreation" xlink:title="human:PhysicalCreation">
<ellipse fill="none" stroke="blue" cx="1086.39" cy="-453" rx="143.775" ry="18"/>
<text text-anchor="middle" x="1086.39" y="-449.3" font-family="Times,serif" font-size="14.00">human:PhysicalCreation</text>
</a>
</g>
</g>
<!-- Rhttp://www.w3.org/2002/07/owl#human:PhysicalCreation&#45;&gt;Rhttp://www.w3.org/2002/07/owl#human:Creation -->
<g id="edge15" class="edge"><title>Rhttp://www.w3.org/2002/07/owl#human:PhysicalCreation&#45;&gt;Rhttp://www.w3.org/2002/07/owl#human:Creation</title>
<path fill="none" stroke="green" d="M1194.91,-441.148C1361.54,-424.485 1677.93,-392.846 1838.16,-376.823"/>
<polygon fill="green" stroke="green" points="1838.88,-380.269 1848.48,-375.791 1838.18,-373.304 1838.88,-380.269"/>
<text text-anchor="middle" x="1619.89" y="-405.8" font-family="Times,serif" font-size="14.00">rdfs:subClassOf</text>
</g>
<!-- Rhttp://www.w3.org/2002/07/owl#physical:Matter -->
<g id="node12" class="node"><title>Rhttp://www.w3.org/2002/07/owl#physical:Matter</title>
<g id="a_node12"><a xlink:href="http://www.w3.org/2002/07/owl#physical:Matter" xlink:title="physical:Matter">
<ellipse fill="none" stroke="blue" cx="572.39" cy="-366" rx="103.982" ry="18"/>
<text text-anchor="middle" x="572.39" y="-362.3" font-family="Times,serif" font-size="14.00">physical:Matter</text>
</a>
</g>
</g>
<!-- Rhttp://www.w3.org/2002/07/owl#human:PhysicalCreation&#45;&gt;Rhttp://www.w3.org/2002/07/owl#physical:Matter -->
<g id="edge16" class="edge"><title>Rhttp://www.w3.org/2002/07/owl#human:PhysicalCreation&#45;&gt;Rhttp://www.w3.org/2002/07/owl#physical:Matter</title>
<path fill="none" stroke="green" d="M1003.52,-438.296C907.534,-422.423 750.363,-396.431 654.64,-380.602"/>
<polygon fill="green" stroke="green" points="655.15,-377.139 644.713,-378.96 654.008,-384.045 655.15,-377.139"/>
<text text-anchor="middle" x="917.89" y="-405.8" font-family="Times,serif" font-size="14.00">rdfs:subClassOf</text>
</g>
<!-- Rhttp://www.w3.org/2002/07/owl#physical:Matter&#45;&gt;Rhttp://www.w3.org/2002/07/owl#physical:Space -->
<g id="edge17" class="edge"><title>Rhttp://www.w3.org/2002/07/owl#physical:Matter&#45;&gt;Rhttp://www.w3.org/2002/07/owl#physical:Space</title>
<path fill="none" stroke="green" d="M468.888,-364.244C350.92,-360.927 168.782,-347.492 125.39,-297 83.2634,-247.98 174.296,-219.75 249.441,-205.384"/>
<polygon fill="green" stroke="green" points="250.256,-208.792 259.453,-203.532 248.983,-201.909 250.256,-208.792"/>
<text text-anchor="middle" x="182.89" y="-275.3" font-family="Times,serif" font-size="14.00">rdfs:subClassOf</text>
</g>
<!-- Rhttp://purl.org/dc/terms/PhysicalResource -->
<g id="node14" class="node"><title>Rhttp://purl.org/dc/terms/PhysicalResource</title>
<g id="a_node14"><a xlink:href="http://purl.org/dc/terms/PhysicalResource" xlink:title="dc:PhysicalResource">
<ellipse fill="none" stroke="purple" cx="356.39" cy="-279" rx="107.482" ry="18"/>
<text text-anchor="middle" x="356.39" y="-275.3" font-family="Times,serif" font-size="14.00">dc:PhysicalResource</text>
</a>
</g>
</g>
<!-- Rhttp://www.w3.org/2002/07/owl#physical:Matter&#45;&gt;Rhttp://purl.org/dc/terms/PhysicalResource -->
<g id="edge18" class="edge"><title>Rhttp://www.w3.org/2002/07/owl#physical:Matter&#45;&gt;Rhttp://purl.org/dc/terms/PhysicalResource</title>
<path fill="none" stroke="green" d="M515.948,-350.77C495.911,-345.1 473.38,-338.008 453.39,-330 433.171,-321.901 411.551,-310.993 393.864,-301.432"/>
<polygon fill="green" stroke="green" points="395.454,-298.312 385.002,-296.577 392.091,-304.451 395.454,-298.312"/>
<text text-anchor="middle" x="510.89" y="-318.8" font-family="Times,serif" font-size="14.00">rdfs:subClassOf</text>
</g>
<!-- Rhttp://www.w3.org/2002/07/owl#physical:Size -->
<g id="node15" class="node"><title>Rhttp://www.w3.org/2002/07/owl#physical:Size</title>
<g id="a_node15"><a xlink:href="http://www.w3.org/2002/07/owl#physical:Size" xlink:title="physical:Size">
<ellipse fill="none" stroke="blue" cx="572.39" cy="-279" rx="90.1842" ry="18"/>
<text text-anchor="middle" x="572.39" y="-275.3" font-family="Times,serif" font-size="14.00">physical:Size</text>
</a>
</g>
</g>
<!-- Rhttp://www.w3.org/2002/07/owl#physical:Matter&#45;&gt;Rhttp://www.w3.org/2002/07/owl#physical:Size -->
<g id="edge19" class="edge"><title>Rhttp://www.w3.org/2002/07/owl#physical:Matter&#45;&gt;Rhttp://www.w3.org/2002/07/owl#physical:Size</title>
<path fill="none" stroke="blue" d="M572.39,-347.799C572.39,-336.163 572.39,-320.548 572.39,-307.237"/>
<polygon fill="blue" stroke="blue" points="575.89,-307.175 572.39,-297.175 568.89,-307.175 575.89,-307.175"/>
<text text-anchor="middle" x="646.39" y="-318.8" font-family="Times,serif" font-size="14.00">physical:hasSize</text>
</g>
<!-- Rhttp://www.w3.org/2002/07/owl#physical:Length -->
<g id="node16" class="node"><title>Rhttp://www.w3.org/2002/07/owl#physical:Length</title>
<g id="a_node16"><a xlink:href="http://www.w3.org/2002/07/owl#physical:Length" xlink:title="physical:Length">
<ellipse fill="none" stroke="blue" cx="785.39" cy="-279" rx="104.782" ry="18"/>
<text text-anchor="middle" x="785.39" y="-275.3" font-family="Times,serif" font-size="14.00">physical:Length</text>
</a>
</g>
</g>
<!-- Rhttp://www.w3.org/2002/07/owl#physical:Matter&#45;&gt;Rhttp://www.w3.org/2002/07/owl#physical:Length -->
<g id="edge20" class="edge"><title>Rhttp://www.w3.org/2002/07/owl#physical:Matter&#45;&gt;Rhttp://www.w3.org/2002/07/owl#physical:Length</title>
<path fill="none" stroke="blue" d="M650.9,-354.086C675.261,-348.837 701.663,-341.16 724.39,-330 737.711,-323.459 750.685,-313.495 761.219,-304.179"/>
<polygon fill="blue" stroke="blue" points="763.767,-306.591 768.764,-297.248 759.032,-301.435 763.767,-306.591"/>
<text text-anchor="middle" x="832.89" y="-318.8" font-family="Times,serif" font-size="14.00">physical:hasLength</text>
</g>
<!-- Rhttp://www.w3.org/2002/07/owl#physical:Space&#45;&gt;Rhttp://www.w3.org/2002/07/owl#physical:Space -->
<g id="edge25" class="edge"><title>Rhttp://www.w3.org/2002/07/owl#physical:Space&#45;&gt;Rhttp://www.w3.org/2002/07/owl#physical:Space</title>
<path fill="none" stroke="blue" d="M425.492,-199.383C441.232,-198.398 452.181,-195.938 452.181,-192 452.181,-188.985 445.763,-186.836 435.691,-185.553"/>
<polygon fill="blue" stroke="blue" points="435.77,-182.045 425.492,-184.617 435.131,-189.016 435.77,-182.045"/>
<text text-anchor="middle" x="528.181" y="-188.3" font-family="Times,serif" font-size="14.00">physical:isPartOf</text>
</g>
<!-- Rhttp://www.w3.org/2002/07/owl#physical:Resource -->
<g id="node17" class="node"><title>Rhttp://www.w3.org/2002/07/owl#physical:Resource</title>
<g id="a_node17"><a xlink:href="http://www.w3.org/2002/07/owl#physical:Resource" xlink:title="physical:Resource">
<ellipse fill="none" stroke="blue" cx="114.39" cy="-105" rx="114.28" ry="18"/>
<text text-anchor="middle" x="114.39" y="-101.3" font-family="Times,serif" font-size="14.00">physical:Resource</text>
</a>
</g>
</g>
<!-- Rhttp://www.w3.org/2002/07/owl#physical:Space&#45;&gt;Rhttp://www.w3.org/2002/07/owl#physical:Resource -->
<g id="edge22" class="edge"><title>Rhttp://www.w3.org/2002/07/owl#physical:Space&#45;&gt;Rhttp://www.w3.org/2002/07/owl#physical:Resource</title>
<path fill="none" stroke="green" d="M280.534,-176.969C260.138,-171.206 236.962,-164.001 216.39,-156 195.163,-147.744 172.329,-136.762 153.659,-127.193"/>
<polygon fill="green" stroke="green" points="155.069,-123.981 144.58,-122.484 151.845,-130.195 155.069,-123.981"/>
<text text-anchor="middle" x="273.89" y="-144.8" font-family="Times,serif" font-size="14.00">rdfs:subClassOf</text>
</g>
<!-- Rhttp://www.w3.org/2003/01/geo/wgs84_pos#SpatialThing -->
<g id="node19" class="node"><title>Rhttp://www.w3.org/2003/01/geo/wgs84_pos#SpatialThing</title>
<g id="a_node19"><a xlink:href="http://www.w3.org/2003/01/geo/wgs84_pos#SpatialThing" xlink:title="geo:SpatialThing">
<ellipse fill="none" stroke="purple" cx="335.39" cy="-105" rx="89.0842" ry="18"/>
<text text-anchor="middle" x="335.39" y="-101.3" font-family="Times,serif" font-size="14.00">geo:SpatialThing</text>
</a>
</g>
</g>
<!-- Rhttp://www.w3.org/2002/07/owl#physical:Space&#45;&gt;Rhttp://www.w3.org/2003/01/geo/wgs84_pos#SpatialThing -->
<g id="edge23" class="edge"><title>Rhttp://www.w3.org/2002/07/owl#physical:Space&#45;&gt;Rhttp://www.w3.org/2003/01/geo/wgs84_pos#SpatialThing</title>
<path fill="none" stroke="green" d="M335.39,-173.799C335.39,-162.163 335.39,-146.548 335.39,-133.237"/>
<polygon fill="green" stroke="green" points="338.89,-133.175 335.39,-123.175 331.89,-133.175 338.89,-133.175"/>
<text text-anchor="middle" x="392.89" y="-144.8" font-family="Times,serif" font-size="14.00">rdfs:subClassOf</text>
</g>
<!-- Rhttp://www.w3.org/2002/07/owl#narespa:Space -->
<g id="node20" class="node"><title>Rhttp://www.w3.org/2002/07/owl#narespa:Space</title>
<g id="a_node20"><a xlink:href="http://www.w3.org/2002/07/owl#narespa:Space" xlink:title="narespa:Space">
<ellipse fill="none" stroke="purple" cx="540.39" cy="-105" rx="97.4827" ry="18"/>
<text text-anchor="middle" x="540.39" y="-101.3" font-family="Times,serif" font-size="14.00">narespa:Space</text>
</a>
</g>
</g>
<!-- Rhttp://www.w3.org/2002/07/owl#physical:Space&#45;&gt;Rhttp://www.w3.org/2002/07/owl#narespa:Space -->
<g id="edge24" class="edge"><title>Rhttp://www.w3.org/2002/07/owl#physical:Space&#45;&gt;Rhttp://www.w3.org/2002/07/owl#narespa:Space</title>
<path fill="none" stroke="green" d="M392.366,-177.247C412.348,-171.642 434.707,-164.469 454.39,-156 472.426,-148.239 491.403,-137.511 506.929,-127.981"/>
<polygon fill="green" stroke="green" points="509.012,-130.807 515.638,-122.54 505.303,-124.87 509.012,-130.807"/>
<text text-anchor="middle" x="541.89" y="-144.8" font-family="Times,serif" font-size="14.00">rdfs:subClassOf</text>
</g>
<!-- Rhttp://www.w3.org/2002/07/owl#human:Use -->
<g id="node18" class="node"><title>Rhttp://www.w3.org/2002/07/owl#human:Use</title>
<g id="a_node18"><a xlink:href="http://www.w3.org/2002/07/owl#human:Use" xlink:title="human:Use">
<ellipse fill="none" stroke="blue" cx="114.39" cy="-18" rx="81.7856" ry="18"/>
<text text-anchor="middle" x="114.39" y="-14.3" font-family="Times,serif" font-size="14.00">human:Use</text>
</a>
</g>
</g>
<!-- Rhttp://www.w3.org/2002/07/owl#physical:Resource&#45;&gt;Rhttp://www.w3.org/2002/07/owl#human:Use -->
<g id="edge21" class="edge"><title>Rhttp://www.w3.org/2002/07/owl#physical:Resource&#45;&gt;Rhttp://www.w3.org/2002/07/owl#human:Use</title>
<path fill="none" stroke="blue" d="M114.39,-86.799C114.39,-75.1626 114.39,-59.5479 114.39,-46.2368"/>
<polygon fill="blue" stroke="blue" points="117.89,-46.1754 114.39,-36.1754 110.89,-46.1755 117.89,-46.1754"/>
<text text-anchor="middle" x="181.89" y="-57.8" font-family="Times,serif" font-size="14.00">human:hasUse</text>
</g>
<!-- Rhttp://www.w3.org/2002/07/owl#human:Building -->
<g id="node23" class="node"><title>Rhttp://www.w3.org/2002/07/owl#human:Building</title>
<g id="a_node23"><a xlink:href="http://www.w3.org/2002/07/owl#human:Building" xlink:title="human:Building">
<ellipse fill="none" stroke="blue" cx="981.39" cy="-540" rx="103.182" ry="18"/>
<text text-anchor="middle" x="981.39" y="-536.3" font-family="Times,serif" font-size="14.00">human:Building</text>
</a>
</g>
</g>
<!-- Rhttp://www.w3.org/2002/07/owl#human:Building&#45;&gt;Rhttp://www.w3.org/2002/07/owl#human:PhysicalCreation -->
<g id="edge31" class="edge"><title>Rhttp://www.w3.org/2002/07/owl#human:Building&#45;&gt;Rhttp://www.w3.org/2002/07/owl#human:PhysicalCreation</title>
<path fill="none" stroke="green" d="M1002.13,-522.207C1017.85,-509.484 1039.65,-491.837 1057.14,-477.681"/>
<polygon fill="green" stroke="green" points="1059.76,-480.062 1065.33,-471.049 1055.35,-474.621 1059.76,-480.062"/>
<text text-anchor="middle" x="1097.89" y="-492.8" font-family="Times,serif" font-size="14.00">rdfs:subClassOf</text>
</g>
<!-- Rhttp://www.w3.org/2002/07/owl#human:CreationDerivative -->
<g id="node24" class="node"><title>Rhttp://www.w3.org/2002/07/owl#human:CreationDerivative</title>
<g id="a_node24"><a xlink:href="http://www.w3.org/2002/07/owl#human:CreationDerivative" xlink:title="human:CreationDerivative">
<ellipse fill="none" stroke="blue" cx="1781.39" cy="-453" rx="153.273" ry="18"/>
<text text-anchor="middle" x="1781.39" y="-449.3" font-family="Times,serif" font-size="14.00">human:CreationDerivative</text>
</a>
</g>
</g>
<!-- Rhttp://www.w3.org/2002/07/owl#human:CreationDerivative&#45;&gt;Rhttp://www.w3.org/2002/07/owl#human:Creation -->
<g id="edge32" class="edge"><title>Rhttp://www.w3.org/2002/07/owl#human:CreationDerivative&#45;&gt;Rhttp://www.w3.org/2002/07/owl#human:Creation</title>
<path fill="none" stroke="green" d="M1812.01,-435.207C1836.56,-421.747 1871.15,-402.777 1897.62,-388.259"/>
<polygon fill="green" stroke="green" points="1899.54,-391.202 1906.62,-383.325 1896.17,-385.065 1899.54,-391.202"/>
<text text-anchor="middle" x="1925.89" y="-405.8" font-family="Times,serif" font-size="14.00">rdfs:subClassOf</text>
</g>
<!-- Rhttp://www.w3.org/2002/07/owl#human:CreationVersion -->
<g id="node25" class="node"><title>Rhttp://www.w3.org/2002/07/owl#human:CreationVersion</title>
<g id="a_node25"><a xlink:href="http://www.w3.org/2002/07/owl#human:CreationVersion" xlink:title="human:CreationVersion">
<ellipse fill="none" stroke="blue" cx="2092.39" cy="-453" rx="139.976" ry="18"/>
<text text-anchor="middle" x="2092.39" y="-449.3" font-family="Times,serif" font-size="14.00">human:CreationVersion</text>
</a>
</g>
</g>
<!-- Rhttp://www.w3.org/2002/07/owl#human:CreationVersion&#45;&gt;Rhttp://www.w3.org/2002/07/owl#human:Creation -->
<g id="edge33" class="edge"><title>Rhttp://www.w3.org/2002/07/owl#human:CreationVersion&#45;&gt;Rhttp://www.w3.org/2002/07/owl#human:Creation</title>
<path fill="none" stroke="green" d="M2061.94,-435.409C2037.19,-421.925 2002.12,-402.815 1975.33,-388.218"/>
<polygon fill="green" stroke="green" points="1976.69,-384.971 1966.23,-383.26 1973.34,-391.118 1976.69,-384.971"/>
<text text-anchor="middle" x="2081.89" y="-405.8" font-family="Times,serif" font-size="14.00">rdfs:subClassOf</text>
</g>
<!-- Rhttp://www.w3.org/2002/07/owl#human:Copy -->
<g id="node26" class="node"><title>Rhttp://www.w3.org/2002/07/owl#human:Copy</title>
<g id="a_node26"><a xlink:href="http://www.w3.org/2002/07/owl#human:Copy" xlink:title="human:Copy">
<ellipse fill="none" stroke="blue" cx="1191.39" cy="-540" rx="88.2844" ry="18"/>
<text text-anchor="middle" x="1191.39" y="-536.3" font-family="Times,serif" font-size="14.00">human:Copy</text>
</a>
</g>
</g>
<!-- Rhttp://www.w3.org/2002/07/owl#human:Copy&#45;&gt;Rhttp://www.w3.org/2002/07/owl#human:PhysicalCreation -->
<g id="edge34" class="edge"><title>Rhttp://www.w3.org/2002/07/owl#human:Copy&#45;&gt;Rhttp://www.w3.org/2002/07/owl#human:PhysicalCreation</title>
<path fill="none" stroke="green" d="M1183.56,-521.991C1178.02,-511.421 1169.73,-498.151 1159.39,-489 1153.47,-483.762 1146.62,-479.135 1139.55,-475.105"/>
<polygon fill="green" stroke="green" points="1140.99,-471.908 1130.52,-470.318 1137.71,-478.093 1140.99,-471.908"/>
<text text-anchor="middle" x="1229.89" y="-492.8" font-family="Times,serif" font-size="14.00">rdfs:subClassOf</text>
</g>
</g>
</svg>