<?xml version="1.0" encoding="UTF-8" standalone="no"?>
<!DOCTYPE svg PUBLIC "-//W3C//DTD SVG 1.1//EN"
 "http://www.w3.org/Graphics/SVG/1.1/DTD/svg11.dtd">
<!-- Generated by graphviz version 2.38.0 (20140413.2041)
 -->
<!-- Title: %3 Pages: 1 -->
<svg width="1625pt" height="413pt"
 viewBox="0.00 0.00 1625.31 413.00" xmlns="http://www.w3.org/2000/svg" xmlns:xlink="http://www.w3.org/1999/xlink">
<g id="graph0" class="graph" transform="scale(1 1) rotate(0) translate(4 409)">
<title>%3</title>
<polygon fill="white" stroke="none" points="-4,4 -4,-409 1621.31,-409 1621.31,4 -4,4"/>
<!-- Rhttp://www.w3.org/2002/07/owl#t:Expression -->
<g id="node1" class="node"><title>Rhttp://www.w3.org/2002/07/owl#t:Expression</title>
<g id="a_node1"><a xlink:href="http://www.w3.org/2002/07/owl#t:Expression" xlink:title="text:Expression">
<ellipse fill="none" stroke="blue" cx="604.308" cy="-387" rx="88.2844" ry="18"/>
<text text-anchor="middle" x="604.308" y="-383.3" font-family="Times,serif" font-size="14.00">text:Expression</text>
</a>
</g>
</g>
<!-- Rhttp://www.w3.org/2002/07/owl#t:Expression&#45;&gt;Rhttp://www.w3.org/2002/07/owl#t:Expression -->
<g id="edge6" class="edge"><title>Rhttp://www.w3.org/2002/07/owl#t:Expression&#45;&gt;Rhttp://www.w3.org/2002/07/owl#t:Expression</title>
<path fill="none" stroke="blue" d="M685.031,-394.471C700.093,-393.551 710.701,-391.061 710.701,-387 710.701,-383.923 704.609,-381.748 695.103,-380.474"/>
<polygon fill="blue" stroke="blue" points="695.315,-376.978 685.031,-379.529 694.661,-383.948 695.315,-376.978"/>
<text text-anchor="middle" x="801.701" y="-383.3" font-family="Times,serif" font-size="14.00">textedit:hasSameEditionAs</text>
</g>
<!-- Rhttp://www.w3.org/2002/07/owl#h:Person -->
<g id="node2" class="node"><title>Rhttp://www.w3.org/2002/07/owl#h:Person</title>
<g id="a_node2"><a xlink:href="http://www.w3.org/2002/07/owl#h:Person" xlink:title="human:Person">
<ellipse fill="none" stroke="blue" cx="275.308" cy="-300" rx="70.3881" ry="18"/>
<text text-anchor="middle" x="275.308" y="-296.3" font-family="Times,serif" font-size="14.00">human:Person</text>
</a>
</g>
</g>
<!-- Rhttp://www.w3.org/2002/07/owl#t:Expression&#45;&gt;Rhttp://www.w3.org/2002/07/owl#h:Person -->
<g id="edge1" class="edge"><title>Rhttp://www.w3.org/2002/07/owl#t:Expression&#45;&gt;Rhttp://www.w3.org/2002/07/owl#h:Person</title>
<path fill="none" stroke="blue" d="M517.088,-383.727C361.906,-379.253 52.4983,-368.218 36.3084,-351 31.7416,-346.143 31.9492,-341.044 36.3084,-336 56.6659,-312.444 133.812,-304.439 195.021,-301.87"/>
<polygon fill="blue" stroke="blue" points="195.223,-305.365 205.083,-301.49 194.958,-298.37 195.223,-305.365"/>
<text text-anchor="middle" x="95.3084" y="-339.8" font-family="Times,serif" font-size="14.00">textedit:hasEditor</text>
</g>
<!-- Rhttp://www.w3.org/2002/07/owl#t:Expression&#45;&gt;Rhttp://www.w3.org/2002/07/owl#h:Person -->
<g id="edge2" class="edge"><title>Rhttp://www.w3.org/2002/07/owl#t:Expression&#45;&gt;Rhttp://www.w3.org/2002/07/owl#h:Person</title>
<path fill="none" stroke="black" d="M516.288,-385.021C397.968,-382.775 199.768,-375.376 177.308,-351 161.505,-333.848 183.072,-321.683 209.955,-313.65"/>
<polygon fill="blue" stroke="blue" points="210.925,-317.013 219.633,-310.979 209.063,-310.266 210.925,-317.013"/>
<text text-anchor="middle" x="248.308" y="-339.8" font-family="Times,serif" font-size="14.00">textedit:hasGlossator</text>
</g>
<!-- Rhttp://www.w3.org/2002/07/owl#t:Expression&#45;&gt;Rhttp://www.w3.org/2002/07/owl#h:Person -->
<g id="edge3" class="edge"><title>Rhttp://www.w3.org/2002/07/owl#t:Expression&#45;&gt;Rhttp://www.w3.org/2002/07/owl#h:Person</title>
<path fill="none" stroke="blue" d="M516.227,-385.253C463.998,-382.153 397.448,-373.47 342.308,-351 337.873,-349.193 320.2,-335.957 304.119,-323.559"/>
<polygon fill="blue" stroke="blue" points="305.982,-320.574 295.934,-317.216 301.695,-326.108 305.982,-320.574"/>
<text text-anchor="middle" x="421.808" y="-339.8" font-family="Times,serif" font-size="14.00">textedit:hasAbbreviator</text>
</g>
<!-- Rhttp://www.w3.org/2002/07/owl#t:Expression&#45;&gt;Rhttp://www.w3.org/2002/07/owl#h:Person -->
<g id="edge4" class="edge"><title>Rhttp://www.w3.org/2002/07/owl#t:Expression&#45;&gt;Rhttp://www.w3.org/2002/07/owl#h:Person</title>
<path fill="none" stroke="blue" d="M565.848,-370.701C552.47,-364.982 537.514,-358.131 524.308,-351 513.57,-345.201 512.705,-340.365 501.308,-336 454.269,-317.984 398.348,-309.228 353.901,-304.98"/>
<polygon fill="blue" stroke="blue" points="354.006,-301.475 343.733,-304.067 353.38,-308.447 354.006,-301.475"/>
<text text-anchor="middle" x="593.808" y="-339.8" font-family="Times,serif" font-size="14.00">textedit:hasRedactor</text>
</g>
<!-- Rhttp://www.w3.org/2002/07/owl#te:Edition -->
<g id="node3" class="node"><title>Rhttp://www.w3.org/2002/07/owl#te:Edition</title>
<g id="a_node3"><a xlink:href="http://www.w3.org/2002/07/owl#te:Edition" xlink:title="textedit:Edition">
<ellipse fill="none" stroke="blue" cx="1151.31" cy="-192" rx="75.2868" ry="18"/>
<text text-anchor="middle" x="1151.31" y="-188.3" font-family="Times,serif" font-size="14.00">textedit:Edition</text>
</a>
</g>
</g>
<!-- Rhttp://www.w3.org/2002/07/owl#t:Expression&#45;&gt;Rhttp://www.w3.org/2002/07/owl#te:Edition -->
<g id="edge5" class="edge"><title>Rhttp://www.w3.org/2002/07/owl#t:Expression&#45;&gt;Rhttp://www.w3.org/2002/07/owl#te:Edition</title>
<path fill="none" stroke="blue" d="M688.916,-381.576C842.116,-372.787 1153.05,-351.073 1189.31,-318 1219.17,-290.765 1221.14,-263.76 1202.31,-228 1199.68,-223.012 1195.99,-218.597 1191.77,-214.731"/>
<polygon fill="blue" stroke="blue" points="1193.76,-211.835 1183.75,-208.359 1189.4,-217.318 1193.76,-211.835"/>
<text text-anchor="middle" x="1275.81" y="-296.3" font-family="Times,serif" font-size="14.00">textedit:hasEdition</text>
</g>
<!-- Rhttp://www.w3.org/2002/07/owl#te:DiplomaticTranscription -->
<g id="node4" class="node"><title>Rhttp://www.w3.org/2002/07/owl#te:DiplomaticTranscription</title>
<g id="a_node4"><a xlink:href="http://www.w3.org/2002/07/owl#te:DiplomaticTranscription" xlink:title="textedit:DiplomaticTranscription">
<ellipse fill="none" stroke="blue" cx="737.308" cy="-246" rx="155.173" ry="18"/>
<text text-anchor="middle" x="737.308" y="-242.3" font-family="Times,serif" font-size="14.00">textedit:DiplomaticTranscription</text>
</a>
</g>
</g>
<!-- Rhttp://www.w3.org/2002/07/owl#t:Expression&#45;&gt;Rhttp://www.w3.org/2002/07/owl#te:DiplomaticTranscription -->
<g id="edge7" class="edge"><title>Rhttp://www.w3.org/2002/07/owl#t:Expression&#45;&gt;Rhttp://www.w3.org/2002/07/owl#te:DiplomaticTranscription</title>
<path fill="none" stroke="blue" d="M636.61,-370.092C645.787,-364.739 655.421,-358.258 663.308,-351 688.245,-328.052 709.796,-295.407 723.108,-272.841"/>
<polygon fill="blue" stroke="blue" points="726.163,-274.55 728.128,-264.139 720.099,-271.052 726.163,-274.55"/>
<text text-anchor="middle" x="801.308" y="-339.8" font-family="Times,serif" font-size="14.00">textedit:hasDiplomaticTranscription</text>
</g>
<!-- Rhttp://www.w3.org/2002/07/owl#te:CriticalEdition -->
<g id="node5" class="node"><title>Rhttp://www.w3.org/2002/07/owl#te:CriticalEdition</title>
<g id="a_node5"><a xlink:href="http://www.w3.org/2002/07/owl#te:CriticalEdition" xlink:title="textedit:CriticalEdition">
<ellipse fill="none" stroke="blue" cx="1469.31" cy="-300" rx="110.48" ry="18"/>
<text text-anchor="middle" x="1469.31" y="-296.3" font-family="Times,serif" font-size="14.00">textedit:CriticalEdition</text>
</a>
</g>
</g>
<!-- Rhttp://www.w3.org/2002/07/owl#t:Expression&#45;&gt;Rhttp://www.w3.org/2002/07/owl#te:CriticalEdition -->
<g id="edge8" class="edge"><title>Rhttp://www.w3.org/2002/07/owl#t:Expression&#45;&gt;Rhttp://www.w3.org/2002/07/owl#te:CriticalEdition</title>
<path fill="none" stroke="blue" d="M692.782,-386.76C814.598,-386.512 1040.47,-381.399 1230.31,-351 1255.75,-346.926 1261.19,-341.757 1286.31,-336 1318.88,-328.533 1354.97,-321.392 1386.43,-315.53"/>
<polygon fill="blue" stroke="blue" points="1387.28,-318.933 1396.47,-313.673 1386,-312.05 1387.28,-318.933"/>
<text text-anchor="middle" x="1375.81" y="-339.8" font-family="Times,serif" font-size="14.00">textedit:hasCriticalEdition</text>
</g>
<!-- Rhttp://www.w3.org/2002/07/owl#te:Editor -->
<g id="node6" class="node"><title>Rhttp://www.w3.org/2002/07/owl#te:Editor</title>
<g id="a_node6"><a xlink:href="http://www.w3.org/2002/07/owl#te:Editor" xlink:title="textedit:Editor">
<ellipse fill="none" stroke="blue" cx="290.308" cy="-105" rx="71.4873" ry="18"/>
<text text-anchor="middle" x="290.308" y="-101.3" font-family="Times,serif" font-size="14.00">textedit:Editor</text>
</a>
</g>
</g>
<!-- Rhttp://www.w3.org/2002/07/owl#h:Person&#45;&gt;Rhttp://www.w3.org/2002/07/owl#te:Editor -->
<g id="edge9" class="edge"><title>Rhttp://www.w3.org/2002/07/owl#h:Person&#45;&gt;Rhttp://www.w3.org/2002/07/owl#te:Editor</title>
<path fill="none" stroke="blue" d="M211.358,-292.314C116.307,-279.824 -45.2017,-247.273 12.3084,-174 37.1394,-142.363 141.734,-123.546 215.284,-113.986"/>
<polygon fill="blue" stroke="blue" points="215.964,-117.428 225.444,-112.699 215.083,-110.484 215.964,-117.428"/>
<text text-anchor="middle" x="62.3084" y="-188.3" font-family="Times,serif" font-size="14.00">human:hasRole</text>
</g>
<!-- Rhttp://www.w3.org/2002/07/owl#te:Glossator -->
<g id="node7" class="node"><title>Rhttp://www.w3.org/2002/07/owl#te:Glossator</title>
<g id="a_node7"><a xlink:href="http://www.w3.org/2002/07/owl#te:Glossator" xlink:title="textedit:Glossator">
<ellipse fill="none" stroke="blue" cx="207.308" cy="-192" rx="86.3847" ry="18"/>
<text text-anchor="middle" x="207.308" y="-188.3" font-family="Times,serif" font-size="14.00">textedit:Glossator</text>
</a>
</g>
</g>
<!-- Rhttp://www.w3.org/2002/07/owl#h:Person&#45;&gt;Rhttp://www.w3.org/2002/07/owl#te:Glossator -->
<g id="edge10" class="edge"><title>Rhttp://www.w3.org/2002/07/owl#h:Person&#45;&gt;Rhttp://www.w3.org/2002/07/owl#te:Glossator</title>
<path fill="none" stroke="blue" d="M244.504,-283.775C236.55,-278.509 228.716,-271.904 223.308,-264 214.553,-251.202 210.515,-234.359 208.683,-220.289"/>
<polygon fill="blue" stroke="blue" points="212.151,-219.785 207.672,-210.184 205.185,-220.483 212.151,-219.785"/>
<text text-anchor="middle" x="273.308" y="-242.3" font-family="Times,serif" font-size="14.00">human:hasRole</text>
</g>
<!-- Rhttp://www.w3.org/2002/07/owl#te:Abbreviator -->
<g id="node8" class="node"><title>Rhttp://www.w3.org/2002/07/owl#te:Abbreviator</title>
<g id="a_node8"><a xlink:href="http://www.w3.org/2002/07/owl#te:Abbreviator" xlink:title="textedit:Abbreviator">
<ellipse fill="none" stroke="blue" cx="409.308" cy="-192" rx="97.4827" ry="18"/>
<text text-anchor="middle" x="409.308" y="-188.3" font-family="Times,serif" font-size="14.00">textedit:Abbreviator</text>
</a>
</g>
</g>
<!-- Rhttp://www.w3.org/2002/07/owl#h:Person&#45;&gt;Rhttp://www.w3.org/2002/07/owl#te:Abbreviator -->
<g id="edge11" class="edge"><title>Rhttp://www.w3.org/2002/07/owl#h:Person&#45;&gt;Rhttp://www.w3.org/2002/07/owl#te:Abbreviator</title>
<path fill="none" stroke="blue" d="M299.722,-283.079C307.599,-277.46 316.141,-270.831 323.308,-264 338.181,-249.825 336.885,-241.573 352.308,-228 357.762,-223.2 363.955,-218.656 370.199,-214.53"/>
<polygon fill="blue" stroke="blue" points="372.093,-217.473 378.682,-209.176 368.357,-211.553 372.093,-217.473"/>
<text text-anchor="middle" x="402.308" y="-242.3" font-family="Times,serif" font-size="14.00">human:hasRole</text>
</g>
<!-- Rhttp://www.w3.org/2002/07/owl#te:Redactor -->
<g id="node9" class="node"><title>Rhttp://www.w3.org/2002/07/owl#te:Redactor</title>
<g id="a_node9"><a xlink:href="http://www.w3.org/2002/07/owl#te:Redactor" xlink:title="textedit:Redactor">
<ellipse fill="none" stroke="blue" cx="609.308" cy="-192" rx="84.485" ry="18"/>
<text text-anchor="middle" x="609.308" y="-188.3" font-family="Times,serif" font-size="14.00">textedit:Redactor</text>
</a>
</g>
</g>
<!-- Rhttp://www.w3.org/2002/07/owl#h:Person&#45;&gt;Rhttp://www.w3.org/2002/07/owl#te:Redactor -->
<g id="edge12" class="edge"><title>Rhttp://www.w3.org/2002/07/owl#h:Person&#45;&gt;Rhttp://www.w3.org/2002/07/owl#te:Redactor</title>
<path fill="none" stroke="blue" d="M338.57,-292.036C381.716,-286.261 434.194,-276.904 452.308,-264 467.395,-253.253 458.532,-239.17 473.308,-228 483.961,-219.947 510.4,-212.377 537.165,-206.351"/>
<polygon fill="blue" stroke="blue" points="537.987,-209.754 547.011,-204.203 536.495,-202.915 537.987,-209.754"/>
<text text-anchor="middle" x="523.308" y="-242.3" font-family="Times,serif" font-size="14.00">human:hasRole</text>
</g>
<!-- Rhttp://www.w3.org/2002/07/owl#te:Derivative -->
<g id="node12" class="node"><title>Rhttp://www.w3.org/2002/07/owl#te:Derivative</title>
<g id="a_node12"><a xlink:href="http://www.w3.org/2002/07/owl#te:Derivative" xlink:title="textedit:Derivative">
<ellipse fill="none" stroke="blue" cx="948.308" cy="-105" rx="90.1842" ry="18"/>
<text text-anchor="middle" x="948.308" y="-101.3" font-family="Times,serif" font-size="14.00">textedit:Derivative</text>
</a>
</g>
</g>
<!-- Rhttp://www.w3.org/2002/07/owl#te:Edition&#45;&gt;Rhttp://www.w3.org/2002/07/owl#te:Derivative -->
<g id="edge24" class="edge"><title>Rhttp://www.w3.org/2002/07/owl#te:Edition&#45;&gt;Rhttp://www.w3.org/2002/07/owl#te:Derivative</title>
<path fill="none" stroke="green" d="M1115.48,-175.999C1081.94,-161.956 1031.64,-140.891 994.972,-125.539"/>
<polygon fill="green" stroke="green" points="996.067,-122.203 985.491,-121.569 993.363,-128.66 996.067,-122.203"/>
<text text-anchor="middle" x="1119.81" y="-144.8" font-family="Times,serif" font-size="14.00">rdfs:subClassOf</text>
</g>
<!-- Rhttp://www.w3.org/2002/07/owl#te:DiplomaticTranscription&#45;&gt;Rhttp://www.w3.org/2002/07/owl#te:Derivative -->
<g id="edge25" class="edge"><title>Rhttp://www.w3.org/2002/07/owl#te:DiplomaticTranscription&#45;&gt;Rhttp://www.w3.org/2002/07/owl#te:Derivative</title>
<path fill="none" stroke="green" d="M754.584,-227.959C770.553,-212.73 795.364,-190.359 819.308,-174 846.211,-155.62 878.666,-138.535 904.292,-126.087"/>
<polygon fill="green" stroke="green" points="905.899,-129.198 913.401,-121.717 902.871,-122.887 905.899,-129.198"/>
<text text-anchor="middle" x="876.808" y="-188.3" font-family="Times,serif" font-size="14.00">rdfs:subClassOf</text>
</g>
<!-- Rhttp://www.w3.org/2002/07/owl#te:CriticalEdition&#45;&gt;Rhttp://www.w3.org/2002/07/owl#te:Edition -->
<g id="edge26" class="edge"><title>Rhttp://www.w3.org/2002/07/owl#te:CriticalEdition&#45;&gt;Rhttp://www.w3.org/2002/07/owl#te:Edition</title>
<path fill="none" stroke="green" d="M1416.39,-284.132C1395.69,-278.136 1371.81,-270.992 1350.31,-264 1298.42,-247.129 1239.65,-225.895 1199.51,-211.063"/>
<polygon fill="green" stroke="green" points="1200.57,-207.723 1189.98,-207.531 1198.14,-214.287 1200.57,-207.723"/>
<text text-anchor="middle" x="1407.81" y="-242.3" font-family="Times,serif" font-size="14.00">rdfs:subClassOf</text>
</g>
<!-- Rhttp://www.w3.org/2002/07/owl#te:CriticalApparatus -->
<g id="node15" class="node"><title>Rhttp://www.w3.org/2002/07/owl#te:CriticalApparatus</title>
<g id="a_node15"><a xlink:href="http://www.w3.org/2002/07/owl#te:CriticalApparatus" xlink:title="textedit:CriticalApparatus">
<ellipse fill="none" stroke="blue" cx="1469.31" cy="-192" rx="125.378" ry="18"/>
<text text-anchor="middle" x="1469.31" y="-188.3" font-family="Times,serif" font-size="14.00">textedit:CriticalApparatus</text>
</a>
</g>
</g>
<!-- Rhttp://www.w3.org/2002/07/owl#te:CriticalEdition&#45;&gt;Rhttp://www.w3.org/2002/07/owl#te:CriticalApparatus -->
<g id="edge27" class="edge"><title>Rhttp://www.w3.org/2002/07/owl#te:CriticalEdition&#45;&gt;Rhttp://www.w3.org/2002/07/owl#te:CriticalApparatus</title>
<path fill="none" stroke="blue" d="M1469.31,-281.969C1469.31,-265.378 1469.31,-239.883 1469.31,-220.431"/>
<polygon fill="blue" stroke="blue" points="1472.81,-220.341 1469.31,-210.341 1465.81,-220.341 1472.81,-220.341"/>
<text text-anchor="middle" x="1543.31" y="-242.3" font-family="Times,serif" font-size="14.00">textedit:hasApparatus</text>
</g>
<!-- Rhttp://www.w3.org/2002/07/owl#h:Creator -->
<g id="node10" class="node"><title>Rhttp://www.w3.org/2002/07/owl#h:Creator</title>
<g id="a_node10"><a xlink:href="http://www.w3.org/2002/07/owl#h:Creator" xlink:title="human:Creator">
<ellipse fill="none" stroke="blue" cx="290.308" cy="-18" rx="74.9875" ry="18"/>
<text text-anchor="middle" x="290.308" y="-14.3" font-family="Times,serif" font-size="14.00">human:Creator</text>
</a>
</g>
</g>
<!-- Rhttp://www.w3.org/2002/07/owl#te:Editor&#45;&gt;Rhttp://www.w3.org/2002/07/owl#h:Creator -->
<g id="edge13" class="edge"><title>Rhttp://www.w3.org/2002/07/owl#te:Editor&#45;&gt;Rhttp://www.w3.org/2002/07/owl#h:Creator</title>
<path fill="none" stroke="green" d="M290.308,-86.799C290.308,-75.1626 290.308,-59.5479 290.308,-46.2368"/>
<polygon fill="green" stroke="green" points="293.808,-46.1754 290.308,-36.1754 286.808,-46.1755 293.808,-46.1754"/>
<text text-anchor="middle" x="347.808" y="-57.8" font-family="Times,serif" font-size="14.00">rdfs:subClassOf</text>
</g>
<!-- Rhttp://www.w3.org/2002/07/owl#te:Glossator&#45;&gt;Rhttp://www.w3.org/2002/07/owl#te:Editor -->
<g id="edge15" class="edge"><title>Rhttp://www.w3.org/2002/07/owl#te:Glossator&#45;&gt;Rhttp://www.w3.org/2002/07/owl#te:Editor</title>
<path fill="none" stroke="green" d="M223.706,-174.207C235.984,-161.633 252.956,-144.252 266.695,-130.182"/>
<polygon fill="green" stroke="green" points="269.462,-132.358 273.944,-122.758 264.454,-127.468 269.462,-132.358"/>
<text text-anchor="middle" x="311.808" y="-144.8" font-family="Times,serif" font-size="14.00">rdfs:subClassOf</text>
</g>
<!-- Rhttp://www.w3.org/2002/07/owl#te:Abbreviator&#45;&gt;Rhttp://www.w3.org/2002/07/owl#te:Editor -->
<g id="edge16" class="edge"><title>Rhttp://www.w3.org/2002/07/owl#te:Abbreviator&#45;&gt;Rhttp://www.w3.org/2002/07/owl#te:Editor</title>
<path fill="none" stroke="green" d="M399.48,-173.894C392.683,-163.285 382.811,-150.008 371.308,-141 362.628,-134.202 352.427,-128.46 342.246,-123.718"/>
<polygon fill="green" stroke="green" points="343.51,-120.45 332.946,-119.642 340.7,-126.862 343.51,-120.45"/>
<text text-anchor="middle" x="443.808" y="-144.8" font-family="Times,serif" font-size="14.00">rdfs:subClassOf</text>
</g>
<!-- Rhttp://www.w3.org/2002/07/owl#te:Redactor&#45;&gt;Rhttp://www.w3.org/2002/07/owl#te:Editor -->
<g id="edge14" class="edge"><title>Rhttp://www.w3.org/2002/07/owl#te:Redactor&#45;&gt;Rhttp://www.w3.org/2002/07/owl#te:Editor</title>
<path fill="none" stroke="green" d="M581.516,-174.927C561.067,-163.783 532.254,-149.476 505.308,-141 460.483,-126.9 408.521,-118.242 366.91,-113.065"/>
<polygon fill="green" stroke="green" points="367.185,-109.573 356.838,-111.854 366.349,-116.523 367.185,-109.573"/>
<text text-anchor="middle" x="601.808" y="-144.8" font-family="Times,serif" font-size="14.00">rdfs:subClassOf</text>
</g>
<!-- Rhttp://www.w3.org/2002/07/owl#te:Abbreviation -->
<g id="node11" class="node"><title>Rhttp://www.w3.org/2002/07/owl#te:Abbreviation</title>
<g id="a_node11"><a xlink:href="http://www.w3.org/2002/07/owl#te:Abbreviation" xlink:title="textedit:Abbreviation">
<ellipse fill="none" stroke="blue" cx="1078.31" cy="-300" rx="102.082" ry="18"/>
<text text-anchor="middle" x="1078.31" y="-296.3" font-family="Times,serif" font-size="14.00">textedit:Abbreviation</text>
</a>
</g>
</g>
<!-- Rhttp://www.w3.org/2002/07/owl#te:Abbreviation&#45;&gt;Rhttp://www.w3.org/2002/07/owl#te:Edition -->
<g id="edge17" class="edge"><title>Rhttp://www.w3.org/2002/07/owl#te:Abbreviation&#45;&gt;Rhttp://www.w3.org/2002/07/owl#te:Edition</title>
<path fill="none" stroke="green" d="M1076.34,-281.997C1075.45,-266.585 1076.46,-243.914 1087.31,-228 1091.29,-222.164 1096.57,-217.21 1102.4,-213.03"/>
<polygon fill="green" stroke="green" points="1104.65,-215.746 1111.24,-207.448 1100.91,-209.827 1104.65,-215.746"/>
<text text-anchor="middle" x="1144.81" y="-242.3" font-family="Times,serif" font-size="14.00">rdfs:subClassOf</text>
</g>
<!-- Rhttp://www.w3.org/2002/07/owl#te:Derivative&#45;&gt;Rhttp://www.w3.org/2002/07/owl#t:Expression -->
<g id="edge18" class="edge"><title>Rhttp://www.w3.org/2002/07/owl#te:Derivative&#45;&gt;Rhttp://www.w3.org/2002/07/owl#t:Expression</title>
<path fill="none" stroke="green" d="M949.659,-123.055C953.236,-173.208 960.655,-318.702 929.308,-351 913.491,-367.298 790.374,-376.899 700.335,-381.805"/>
<polygon fill="green" stroke="green" points="699.879,-378.324 690.08,-382.352 700.252,-385.315 699.879,-378.324"/>
<text text-anchor="middle" x="1010.81" y="-242.3" font-family="Times,serif" font-size="14.00">rdfs:subClassOf</text>
</g>
<!-- Rhttp://www.w3.org/2002/07/owl#h:CreationDerivative -->
<g id="node13" class="node"><title>Rhttp://www.w3.org/2002/07/owl#h:CreationDerivative</title>
<g id="a_node13"><a xlink:href="http://www.w3.org/2002/07/owl#h:CreationDerivative" xlink:title="human:CreationDerivative">
<ellipse fill="none" stroke="blue" cx="1369.31" cy="-18" rx="127.277" ry="18"/>
<text text-anchor="middle" x="1369.31" y="-14.3" font-family="Times,serif" font-size="14.00">human:CreationDerivative</text>
</a>
</g>
</g>
<!-- Rhttp://www.w3.org/2002/07/owl#te:Derivative&#45;&gt;Rhttp://www.w3.org/2002/07/owl#h:CreationDerivative -->
<g id="edge19" class="edge"><title>Rhttp://www.w3.org/2002/07/owl#te:Derivative&#45;&gt;Rhttp://www.w3.org/2002/07/owl#h:CreationDerivative</title>
<path fill="none" stroke="green" d="M1038.92,-104.169C1136.35,-102.887 1283.81,-96.2774 1332.31,-69 1342.05,-63.5212 1349.96,-54.2998 1355.93,-45.2574"/>
<polygon fill="green" stroke="green" points="1359.09,-46.793 1361.25,-36.4201 1353.1,-43.1835 1359.09,-46.793"/>
<text text-anchor="middle" x="1406.81" y="-57.8" font-family="Times,serif" font-size="14.00">rdfs:subClassOf</text>
</g>
<!-- Rhttp://www.w3.org/2000/01/rdf&#45;schema#Literal -->
<g id="node14" class="node"><title>Rhttp://www.w3.org/2000/01/rdf&#45;schema#Literal</title>
<g id="a_node14"><a xlink:href="http://www.w3.org/2000/01/rdf-schema#Literal" xlink:title="rdfs:Literal">
<ellipse fill="none" stroke="brown" cx="820.308" cy="-18" rx="63.8893" ry="18"/>
<text text-anchor="middle" x="820.308" y="-14.3" font-family="Times,serif" font-size="14.00">rdfs:Literal</text>
</a>
</g>
</g>
<!-- Rhttp://www.w3.org/2002/07/owl#te:Derivative&#45;&gt;Rhttp://www.w3.org/2000/01/rdf&#45;schema#Literal -->
<g id="edge20" class="edge"><title>Rhttp://www.w3.org/2002/07/owl#te:Derivative&#45;&gt;Rhttp://www.w3.org/2000/01/rdf&#45;schema#Literal</title>
<path fill="none" stroke="blue" d="M1034.33,-99.3525C1080.15,-94.8822 1129.97,-86.1278 1144.31,-69 1148.59,-63.8884 1148.76,-58.9607 1144.31,-54 1127.84,-35.6568 983.627,-26.0677 893.238,-21.8149"/>
<polygon fill="blue" stroke="blue" points="893.187,-18.309 883.037,-21.3468 892.866,-25.3016 893.187,-18.309"/>
<text text-anchor="middle" x="1238.31" y="-57.8" font-family="Times,serif" font-size="14.00">textedit:hasDiacriticalSign</text>
</g>
<!-- Rhttp://www.w3.org/2002/07/owl#te:Derivative&#45;&gt;Rhttp://www.w3.org/2000/01/rdf&#45;schema#Literal -->
<g id="edge21" class="edge"><title>Rhttp://www.w3.org/2002/07/owl#te:Derivative&#45;&gt;Rhttp://www.w3.org/2000/01/rdf&#45;schema#Literal</title>
<path fill="none" stroke="blue" d="M858.292,-103.443C733.462,-101.718 520.333,-94.9571 496.308,-69 461.056,-30.9124 640.451,-21.7162 746.565,-19.577"/>
<polygon fill="blue" stroke="blue" points="746.662,-23.0759 756.596,-19.3913 746.533,-16.0771 746.662,-23.0759"/>
<text text-anchor="middle" x="583.308" y="-57.8" font-family="Times,serif" font-size="14.00">textedit:hasPageIndicator</text>
</g>
<!-- Rhttp://www.w3.org/2002/07/owl#te:Derivative&#45;&gt;Rhttp://www.w3.org/2000/01/rdf&#45;schema#Literal -->
<g id="edge22" class="edge"><title>Rhttp://www.w3.org/2002/07/owl#te:Derivative&#45;&gt;Rhttp://www.w3.org/2000/01/rdf&#45;schema#Literal</title>
<path fill="none" stroke="blue" d="M858.069,-103.737C793.582,-101.402 714.602,-93.4162 693.308,-69 671.87,-44.4178 710.204,-31.8153 750.23,-25.4167"/>
<polygon fill="blue" stroke="blue" points="750.75,-28.878 760.133,-23.9572 749.729,-21.9528 750.75,-28.878"/>
<text text-anchor="middle" x="809.808" y="-57.8" font-family="Times,serif" font-size="14.00">textedit:hasPageNumberIndicator</text>
</g>
<!-- Rhttp://www.w3.org/2002/07/owl#te:Derivative&#45;&gt;Rhttp://www.w3.org/2000/01/rdf&#45;schema#Literal -->
<g id="edge23" class="edge"><title>Rhttp://www.w3.org/2002/07/owl#te:Derivative&#45;&gt;Rhttp://www.w3.org/2000/01/rdf&#45;schema#Literal</title>
<path fill="none" stroke="blue" d="M944.489,-86.5795C941.3,-75.8452 935.713,-62.5464 926.308,-54 914.543,-43.3086 899.433,-35.8752 884.331,-30.7097"/>
<polygon fill="blue" stroke="blue" points="885.032,-27.2621 874.444,-27.6312 882.951,-33.9457 885.032,-27.2621"/>
<text text-anchor="middle" x="1034.81" y="-57.8" font-family="Times,serif" font-size="14.00">textedit:hasColumnIndicator</text>
</g>
<!-- Rhttp://www.w3.org/2002/07/owl#ts:ContentStructure -->
<g id="node16" class="node"><title>Rhttp://www.w3.org/2002/07/owl#ts:ContentStructure</title>
<g id="a_node16"><a xlink:href="http://www.w3.org/2002/07/owl#ts:ContentStructure" xlink:title="textstruct:ContentStructure">
<ellipse fill="none" stroke="blue" cx="1469.31" cy="-105" rx="124.278" ry="18"/>
<text text-anchor="middle" x="1469.31" y="-101.3" font-family="Times,serif" font-size="14.00">textstruct:ContentStructure</text>
</a>
</g>
</g>
<!-- Rhttp://www.w3.org/2002/07/owl#te:CriticalApparatus&#45;&gt;Rhttp://www.w3.org/2002/07/owl#ts:ContentStructure -->
<g id="edge28" class="edge"><title>Rhttp://www.w3.org/2002/07/owl#te:CriticalApparatus&#45;&gt;Rhttp://www.w3.org/2002/07/owl#ts:ContentStructure</title>
<path fill="none" stroke="green" d="M1469.31,-173.799C1469.31,-162.163 1469.31,-146.548 1469.31,-133.237"/>
<polygon fill="green" stroke="green" points="1472.81,-133.175 1469.31,-123.175 1465.81,-133.175 1472.81,-133.175"/>
<text text-anchor="middle" x="1526.81" y="-144.8" font-family="Times,serif" font-size="14.00">rdfs:subClassOf</text>
</g>
<!-- Rhttp://www.w3.org/2002/07/owl#te:GeneticEdition -->
<g id="node17" class="node"><title>Rhttp://www.w3.org/2002/07/owl#te:GeneticEdition</title>
<g id="a_node17"><a xlink:href="http://www.w3.org/2002/07/owl#te:GeneticEdition" xlink:title="textedit:GeneticEdition">
<ellipse fill="none" stroke="blue" cx="1469.31" cy="-387" rx="111.581" ry="18"/>
<text text-anchor="middle" x="1469.31" y="-383.3" font-family="Times,serif" font-size="14.00">textedit:GeneticEdition</text>
</a>
</g>
</g>
<!-- Rhttp://www.w3.org/2002/07/owl#te:GeneticEdition&#45;&gt;Rhttp://www.w3.org/2002/07/owl#te:CriticalEdition -->
<g id="edge29" class="edge"><title>Rhttp://www.w3.org/2002/07/owl#te:GeneticEdition&#45;&gt;Rhttp://www.w3.org/2002/07/owl#te:CriticalEdition</title>
<path fill="none" stroke="green" d="M1469.31,-368.799C1469.31,-357.163 1469.31,-341.548 1469.31,-328.237"/>
<polygon fill="green" stroke="green" points="1472.81,-328.175 1469.31,-318.175 1465.81,-328.175 1472.81,-328.175"/>
<text text-anchor="middle" x="1526.81" y="-339.8" font-family="Times,serif" font-size="14.00">rdfs:subClassOf</text>
</g>
</g>
</svg>