<?xml version="1.0" encoding="UTF-8" standalone="no"?>
<!DOCTYPE svg PUBLIC "-//W3C//DTD SVG 1.1//EN"
 "http://www.w3.org/Graphics/SVG/1.1/DTD/svg11.dtd">
<!-- Generated by graphviz version 2.38.0 (20140413.2041)
 -->
<!-- Title: %3 Pages: 1 -->
<svg width="1384pt" height="392pt"
 viewBox="0.00 0.00 1384.09 392.00" xmlns="http://www.w3.org/2000/svg" xmlns:xlink="http://www.w3.org/1999/xlink">
<g id="graph0" class="graph" transform="scale(1 1) rotate(0) translate(4 388)">
<title>%3</title>
<polygon fill="white" stroke="none" points="-4,4 -4,-388 1380.09,-388 1380.09,4 -4,4"/>
<!-- Rhttp://www.w3.org/2002/07/owl#event:Event -->
<g id="node1" class="node"><title>Rhttp://www.w3.org/2002/07/owl#event:Event</title>
<g id="a_node1"><a xlink:href="http://www.w3.org/2002/07/owl#event:Event" xlink:title="event:Event">
<ellipse fill="none" stroke="blue" cx="655.092" cy="-105" rx="85.5853" ry="18"/>
<text text-anchor="middle" x="655.092" y="-101.3" font-family="Times,serif" font-size="14.00">event:Event</text>
</a>
</g>
</g>
<!-- Rhttp://www.w3.org/2002/07/owl#physical:Space -->
<g id="node2" class="node"><title>Rhttp://www.w3.org/2002/07/owl#physical:Space</title>
<g id="a_node2"><a xlink:href="http://www.w3.org/2002/07/owl#physical:Space" xlink:title="physical:Space">
<ellipse fill="none" stroke="blue" cx="837.092" cy="-18" rx="98.5829" ry="18"/>
<text text-anchor="middle" x="837.092" y="-14.3" font-family="Times,serif" font-size="14.00">physical:Space</text>
</a>
</g>
</g>
<!-- Rhttp://www.w3.org/2002/07/owl#event:Event&#45;&gt;Rhttp://www.w3.org/2002/07/owl#physical:Space -->
<g id="edge1" class="edge"><title>Rhttp://www.w3.org/2002/07/owl#event:Event&#45;&gt;Rhttp://www.w3.org/2002/07/owl#physical:Space</title>
<path fill="none" stroke="green" d="M734.353,-97.9814C759.429,-93.0229 786.061,-84.2808 807.092,-69 815.272,-63.0569 821.635,-54.1408 826.355,-45.4759"/>
<polygon fill="green" stroke="green" points="829.581,-46.8448 830.839,-36.3248 823.295,-43.7646 829.581,-46.8448"/>
<text text-anchor="middle" x="878.592" y="-57.8" font-family="Times,serif" font-size="14.00">rdfs:subClassOf</text>
</g>
<!-- Rhttp://www.w3.org/2002/07/owl#physical:Time -->
<g id="node3" class="node"><title>Rhttp://www.w3.org/2002/07/owl#physical:Time</title>
<g id="a_node3"><a xlink:href="http://www.w3.org/2002/07/owl#physical:Time" xlink:title="physical:Time">
<ellipse fill="none" stroke="blue" cx="323.092" cy="-18" rx="94.4839" ry="18"/>
<text text-anchor="middle" x="323.092" y="-14.3" font-family="Times,serif" font-size="14.00">physical:Time</text>
</a>
</g>
</g>
<!-- Rhttp://www.w3.org/2002/07/owl#event:Event&#45;&gt;Rhttp://www.w3.org/2002/07/owl#physical:Time -->
<g id="edge2" class="edge"><title>Rhttp://www.w3.org/2002/07/owl#event:Event&#45;&gt;Rhttp://www.w3.org/2002/07/owl#physical:Time</title>
<path fill="none" stroke="green" d="M576.863,-97.5266C485.975,-89.6855 347.198,-76.587 338.092,-69 331.36,-63.3909 327.574,-54.8865 325.468,-46.4738"/>
<polygon fill="green" stroke="green" points="328.88,-45.6717 323.648,-36.4586 321.992,-46.9232 328.88,-45.6717"/>
<text text-anchor="middle" x="395.592" y="-57.8" font-family="Times,serif" font-size="14.00">rdfs:subClassOf</text>
</g>
<!-- Rhttp://www.w3.org/2001/XMLSchema#date -->
<g id="node4" class="node"><title>Rhttp://www.w3.org/2001/XMLSchema#date</title>
<g id="a_node4"><a xlink:href="http://www.w3.org/2001/XMLSchema#date" xlink:title="xsd:date">
<ellipse fill="none" stroke="brown" cx="569.092" cy="-18" rx="50.0912" ry="18"/>
<text text-anchor="middle" x="569.092" y="-14.3" font-family="Times,serif" font-size="14.00">xsd:date</text>
</a>
</g>
</g>
<!-- Rhttp://www.w3.org/2002/07/owl#event:Event&#45;&gt;Rhttp://www.w3.org/2001/XMLSchema#date -->
<g id="edge3" class="edge"><title>Rhttp://www.w3.org/2002/07/owl#event:Event&#45;&gt;Rhttp://www.w3.org/2001/XMLSchema#date</title>
<path fill="none" stroke="blue" d="M573.253,-99.4631C527.36,-95.0184 476.497,-86.2522 462.092,-69 443.553,-46.7958 477.94,-33.8798 512.551,-26.7581"/>
<polygon fill="blue" stroke="blue" points="513.588,-30.1237 522.757,-24.8151 512.279,-23.2472 513.588,-30.1237"/>
<text text-anchor="middle" x="546.592" y="-57.8" font-family="Times,serif" font-size="14.00">event:hasStartDate</text>
</g>
<!-- Rhttp://www.w3.org/2002/07/owl#event:Event&#45;&gt;Rhttp://www.w3.org/2001/XMLSchema#date -->
<g id="edge4" class="edge"><title>Rhttp://www.w3.org/2002/07/owl#event:Event&#45;&gt;Rhttp://www.w3.org/2001/XMLSchema#date</title>
<path fill="none" stroke="blue" d="M649.767,-86.7038C645.886,-76.2841 639.776,-63.2807 631.092,-54 624.956,-47.4424 617.309,-41.7878 609.503,-37.0518"/>
<polygon fill="blue" stroke="blue" points="611.125,-33.9488 600.694,-32.096 607.693,-40.0496 611.125,-33.9488"/>
<text text-anchor="middle" x="722.592" y="-57.8" font-family="Times,serif" font-size="14.00">event:hasEndDate</text>
</g>
<!-- Rhttp://www.w3.org/2000/01/rdf&#45;schema#Literal -->
<g id="node5" class="node"><title>Rhttp://www.w3.org/2000/01/rdf&#45;schema#Literal</title>
<g id="a_node5"><a xlink:href="http://www.w3.org/2000/01/rdf-schema#Literal" xlink:title="rdfs:Literal">
<ellipse fill="none" stroke="brown" cx="1074.09" cy="-18" rx="63.8893" ry="18"/>
<text text-anchor="middle" x="1074.09" y="-14.3" font-family="Times,serif" font-size="14.00">rdfs:Literal</text>
</a>
</g>
</g>
<!-- Rhttp://www.w3.org/2002/07/owl#event:Event&#45;&gt;Rhttp://www.w3.org/2000/01/rdf&#45;schema#Literal -->
<g id="edge5" class="edge"><title>Rhttp://www.w3.org/2002/07/owl#event:Event&#45;&gt;Rhttp://www.w3.org/2000/01/rdf&#45;schema#Literal</title>
<path fill="none" stroke="blue" d="M737.601,-99.8263C795.118,-95.4775 873.222,-86.681 940.092,-69 956.85,-64.5692 959.925,-60.2503 976.092,-54 992.14,-47.7958 1009.81,-41.3639 1025.68,-35.7324"/>
<polygon fill="blue" stroke="blue" points="1027.02,-38.9678 1035.29,-32.3386 1024.69,-32.367 1027.02,-38.9678"/>
<text text-anchor="middle" x="1047.09" y="-57.8" font-family="Times,serif" font-size="14.00">event:hasName</text>
</g>
<!-- Rhttp://www.w3.org/2002/07/owl#event:Existence -->
<g id="node6" class="node"><title>Rhttp://www.w3.org/2002/07/owl#event:Existence</title>
<g id="a_node6"><a xlink:href="http://www.w3.org/2002/07/owl#event:Existence" xlink:title="event:Existence">
<ellipse fill="none" stroke="blue" cx="797.092" cy="-192" rx="104.782" ry="18"/>
<text text-anchor="middle" x="797.092" y="-188.3" font-family="Times,serif" font-size="14.00">event:Existence</text>
</a>
</g>
</g>
<!-- Rhttp://www.w3.org/2002/07/owl#event:Existence&#45;&gt;Rhttp://www.w3.org/2002/07/owl#event:Event -->
<g id="edge6" class="edge"><title>Rhttp://www.w3.org/2002/07/owl#event:Existence&#45;&gt;Rhttp://www.w3.org/2002/07/owl#event:Event</title>
<path fill="none" stroke="green" d="M789.565,-173.977C783.97,-163.127 775.361,-149.55 764.092,-141 752.816,-132.445 739.379,-125.941 725.855,-121.009"/>
<polygon fill="green" stroke="green" points="726.616,-117.572 716.022,-117.689 724.377,-124.204 726.616,-117.572"/>
<text text-anchor="middle" x="835.592" y="-144.8" font-family="Times,serif" font-size="14.00">rdfs:subClassOf</text>
</g>
<!-- Rhttp://www.w3.org/2002/07/owl#event:Process -->
<g id="node7" class="node"><title>Rhttp://www.w3.org/2002/07/owl#event:Process</title>
<g id="a_node7"><a xlink:href="http://www.w3.org/2002/07/owl#event:Process" xlink:title="event:Process">
<ellipse fill="none" stroke="blue" cx="337.092" cy="-192" rx="94.7833" ry="18"/>
<text text-anchor="middle" x="337.092" y="-188.3" font-family="Times,serif" font-size="14.00">event:Process</text>
</a>
</g>
</g>
<!-- Rhttp://www.w3.org/2002/07/owl#event:Process&#45;&gt;Rhttp://www.w3.org/2002/07/owl#event:Event -->
<g id="edge7" class="edge"><title>Rhttp://www.w3.org/2002/07/owl#event:Process&#45;&gt;Rhttp://www.w3.org/2002/07/owl#event:Event</title>
<path fill="none" stroke="green" d="M394.279,-177.533C420.49,-171.225 451.928,-163.467 480.092,-156 519.566,-145.534 563.786,-132.892 597.899,-122.938"/>
<polygon fill="green" stroke="green" points="599.077,-126.241 607.692,-120.074 597.111,-119.522 599.077,-126.241"/>
<text text-anchor="middle" x="591.592" y="-144.8" font-family="Times,serif" font-size="14.00">rdfs:subClassOf</text>
</g>
<!-- Rhttp://www.w3.org/2002/07/owl#event:Stage -->
<g id="node8" class="node"><title>Rhttp://www.w3.org/2002/07/owl#event:Stage</title>
<g id="a_node8"><a xlink:href="http://www.w3.org/2002/07/owl#event:Stage" xlink:title="event:Stage">
<ellipse fill="none" stroke="blue" cx="337.092" cy="-105" rx="85.2851" ry="18"/>
<text text-anchor="middle" x="337.092" y="-101.3" font-family="Times,serif" font-size="14.00">event:Stage</text>
</a>
</g>
</g>
<!-- Rhttp://www.w3.org/2002/07/owl#event:Process&#45;&gt;Rhttp://www.w3.org/2002/07/owl#event:Stage -->
<g id="edge8" class="edge"><title>Rhttp://www.w3.org/2002/07/owl#event:Process&#45;&gt;Rhttp://www.w3.org/2002/07/owl#event:Stage</title>
<path fill="none" stroke="blue" d="M337.092,-173.799C337.092,-162.163 337.092,-146.548 337.092,-133.237"/>
<polygon fill="blue" stroke="blue" points="340.592,-133.175 337.092,-123.175 333.592,-133.175 340.592,-133.175"/>
<text text-anchor="middle" x="406.592" y="-144.8" font-family="Times,serif" font-size="14.00">event:hasStage</text>
</g>
<!-- Rhttp://www.w3.org/2002/07/owl#event:Input -->
<g id="node9" class="node"><title>Rhttp://www.w3.org/2002/07/owl#event:Input</title>
<g id="a_node9"><a xlink:href="http://www.w3.org/2002/07/owl#event:Input" xlink:title="event:Input">
<ellipse fill="none" stroke="blue" cx="87.0923" cy="-279" rx="83.6854" ry="18"/>
<text text-anchor="middle" x="87.0923" y="-275.3" font-family="Times,serif" font-size="14.00">event:Input</text>
</a>
</g>
</g>
<!-- Rhttp://www.w3.org/2002/07/owl#event:Input&#45;&gt;Rhttp://www.w3.org/2002/07/owl#event:Process -->
<g id="edge9" class="edge"><title>Rhttp://www.w3.org/2002/07/owl#event:Input&#45;&gt;Rhttp://www.w3.org/2002/07/owl#event:Process</title>
<path fill="none" stroke="blue" d="M97.6365,-260.878C105.459,-249.694 117.156,-235.772 131.092,-228 162.091,-210.713 199.486,-201.527 233.859,-196.775"/>
<polygon fill="blue" stroke="blue" points="234.462,-200.227 243.941,-195.494 233.58,-193.283 234.462,-200.227"/>
<text text-anchor="middle" x="202.092" y="-231.8" font-family="Times,serif" font-size="14.00">event:isInputOf</text>
</g>
<!-- Rhttp://www.w3.org/2002/07/owl#event:Output -->
<g id="node10" class="node"><title>Rhttp://www.w3.org/2002/07/owl#event:Output</title>
<g id="a_node10"><a xlink:href="http://www.w3.org/2002/07/owl#event:Output" xlink:title="event:Output">
<ellipse fill="none" stroke="blue" cx="280.092" cy="-279" rx="90.9839" ry="18"/>
<text text-anchor="middle" x="280.092" y="-275.3" font-family="Times,serif" font-size="14.00">event:Output</text>
</a>
</g>
</g>
<!-- Rhttp://www.w3.org/2002/07/owl#event:Output&#45;&gt;Rhttp://www.w3.org/2002/07/owl#event:Process -->
<g id="edge10" class="edge"><title>Rhttp://www.w3.org/2002/07/owl#event:Output&#45;&gt;Rhttp://www.w3.org/2002/07/owl#event:Process</title>
<path fill="none" stroke="blue" d="M276.533,-260.72C275.351,-250.557 275.522,-237.817 281.092,-228 283.886,-223.077 287.685,-218.75 291.998,-214.974"/>
<polygon fill="blue" stroke="blue" points="294.347,-217.586 300.21,-208.76 290.123,-212.003 294.347,-217.586"/>
<text text-anchor="middle" x="357.592" y="-231.8" font-family="Times,serif" font-size="14.00">event:isOutputOf</text>
</g>
<!-- Rhttp://www.w3.org/2002/07/owl#event:Action -->
<g id="node11" class="node"><title>Rhttp://www.w3.org/2002/07/owl#event:Action</title>
<g id="a_node11"><a xlink:href="http://www.w3.org/2002/07/owl#event:Action" xlink:title="event:Action">
<ellipse fill="none" stroke="blue" cx="485.092" cy="-279" rx="89.0842" ry="18"/>
<text text-anchor="middle" x="485.092" y="-275.3" font-family="Times,serif" font-size="14.00">event:Action</text>
</a>
</g>
</g>
<!-- Rhttp://www.w3.org/2002/07/owl#event:Action&#45;&gt;Rhttp://www.w3.org/2002/07/owl#event:Process -->
<g id="edge11" class="edge"><title>Rhttp://www.w3.org/2002/07/owl#event:Action&#45;&gt;Rhttp://www.w3.org/2002/07/owl#event:Process</title>
<path fill="none" stroke="green" d="M470.97,-260.778C461.476,-250.123 448.162,-236.838 434.092,-228 423.267,-221.199 410.933,-215.469 398.775,-210.742"/>
<polygon fill="green" stroke="green" points="399.687,-207.348 389.094,-207.164 397.26,-213.914 399.687,-207.348"/>
<text text-anchor="middle" x="510.592" y="-231.8" font-family="Times,serif" font-size="14.00">rdfs:subClassOf</text>
</g>
<!-- Rhttp://www.w3.org/2002/07/owl#event:Procedure -->
<g id="node12" class="node"><title>Rhttp://www.w3.org/2002/07/owl#event:Procedure</title>
<g id="a_node12"><a xlink:href="http://www.w3.org/2002/07/owl#event:Procedure" xlink:title="event:Procedure">
<ellipse fill="none" stroke="blue" cx="491.092" cy="-366" rx="106.681" ry="18"/>
<text text-anchor="middle" x="491.092" y="-362.3" font-family="Times,serif" font-size="14.00">event:Procedure</text>
</a>
</g>
</g>
<!-- Rhttp://www.w3.org/2002/07/owl#event:Procedure&#45;&gt;Rhttp://www.w3.org/2002/07/owl#event:Action -->
<g id="edge12" class="edge"><title>Rhttp://www.w3.org/2002/07/owl#event:Procedure&#45;&gt;Rhttp://www.w3.org/2002/07/owl#event:Action</title>
<path fill="none" stroke="green" d="M489.878,-347.799C489.057,-336.163 487.954,-320.548 487.015,-307.237"/>
<polygon fill="green" stroke="green" points="490.5,-306.904 486.305,-297.175 483.518,-307.397 490.5,-306.904"/>
<text text-anchor="middle" x="546.592" y="-318.8" font-family="Times,serif" font-size="14.00">rdfs:subClassOf</text>
</g>
<!-- Rhttp://www.w3.org/2002/07/owl#event:Cause -->
<g id="node13" class="node"><title>Rhttp://www.w3.org/2002/07/owl#event:Cause</title>
<g id="a_node13"><a xlink:href="http://www.w3.org/2002/07/owl#event:Cause" xlink:title="event:Cause">
<ellipse fill="none" stroke="blue" cx="87.0923" cy="-366" rx="87.1846" ry="18"/>
<text text-anchor="middle" x="87.0923" y="-362.3" font-family="Times,serif" font-size="14.00">event:Cause</text>
</a>
</g>
</g>
<!-- Rhttp://www.w3.org/2002/07/owl#event:Cause&#45;&gt;Rhttp://www.w3.org/2002/07/owl#event:Input -->
<g id="edge13" class="edge"><title>Rhttp://www.w3.org/2002/07/owl#event:Cause&#45;&gt;Rhttp://www.w3.org/2002/07/owl#event:Input</title>
<path fill="none" stroke="green" d="M87.0923,-347.799C87.0923,-336.163 87.0923,-320.548 87.0923,-307.237"/>
<polygon fill="green" stroke="green" points="90.5924,-307.175 87.0923,-297.175 83.5924,-307.175 90.5924,-307.175"/>
<text text-anchor="middle" x="144.592" y="-318.8" font-family="Times,serif" font-size="14.00">rdfs:subClassOf</text>
</g>
<!-- Rhttp://www.w3.org/2002/07/owl#event:Effect -->
<g id="node14" class="node"><title>Rhttp://www.w3.org/2002/07/owl#event:Effect</title>
<g id="a_node14"><a xlink:href="http://www.w3.org/2002/07/owl#event:Effect" xlink:title="event:Effect">
<ellipse fill="none" stroke="blue" cx="279.092" cy="-366" rx="87.1846" ry="18"/>
<text text-anchor="middle" x="279.092" y="-362.3" font-family="Times,serif" font-size="14.00">event:Effect</text>
</a>
</g>
</g>
<!-- Rhttp://www.w3.org/2002/07/owl#event:Effect&#45;&gt;Rhttp://www.w3.org/2002/07/owl#event:Output -->
<g id="edge14" class="edge"><title>Rhttp://www.w3.org/2002/07/owl#event:Effect&#45;&gt;Rhttp://www.w3.org/2002/07/owl#event:Output</title>
<path fill="none" stroke="green" d="M279.295,-347.799C279.432,-336.163 279.615,-320.548 279.772,-307.237"/>
<polygon fill="green" stroke="green" points="283.272,-307.216 279.89,-297.175 276.273,-307.134 283.272,-307.216"/>
<text text-anchor="middle" x="337.592" y="-318.8" font-family="Times,serif" font-size="14.00">rdfs:subClassOf</text>
</g>
<!-- Rhttp://www.w3.org/2000/01/rdf&#45;schema#Resource -->
<g id="node15" class="node"><title>Rhttp://www.w3.org/2000/01/rdf&#45;schema#Resource</title>
<g id="a_node15"><a xlink:href="http://www.w3.org/2000/01/rdf-schema#Resource" xlink:title="rdfs:Resource">
<ellipse fill="none" stroke="brown" cx="862.092" cy="-279" rx="75.2868" ry="18"/>
<text text-anchor="middle" x="862.092" y="-275.3" font-family="Times,serif" font-size="14.00">rdfs:Resource</text>
</a>
</g>
</g>
<!-- Rhttp://www.w3.org/2000/01/rdf&#45;schema#Resource&#45;&gt;Rhttp://www.w3.org/2002/07/owl#event:Event -->
<g id="edge15" class="edge"><title>Rhttp://www.w3.org/2000/01/rdf&#45;schema#Resource&#45;&gt;Rhttp://www.w3.org/2002/07/owl#event:Event</title>
<path fill="none" stroke="blue" d="M912.448,-265.443C923.351,-260.302 933.559,-253.092 940.092,-243 962.573,-208.272 982.25,-202.79 897.092,-141 873.552,-123.92 805.882,-115.097 748.066,-110.585"/>
<polygon fill="blue" stroke="blue" points="748.002,-107.07 737.77,-109.818 747.482,-114.051 748.002,-107.07"/>
<text text-anchor="middle" x="1029.59" y="-188.3" font-family="Times,serif" font-size="14.00">event:hasEvent</text>
</g>
<!-- Rhttp://www.w3.org/2000/01/rdf&#45;schema#Resource&#45;&gt;Rhttp://www.w3.org/2000/01/rdf&#45;schema#Literal -->
<g id="edge18" class="edge"><title>Rhttp://www.w3.org/2000/01/rdf&#45;schema#Resource&#45;&gt;Rhttp://www.w3.org/2000/01/rdf&#45;schema#Literal</title>
<path fill="none" stroke="blue" d="M923.899,-268.689C987.68,-257.737 1081.03,-237.502 1104.09,-210 1148.83,-156.665 1148.33,-116.7 1118.09,-54 1115.82,-49.2855 1112.57,-45.0103 1108.85,-41.1973"/>
<polygon fill="blue" stroke="blue" points="1111.05,-38.4704 1101.25,-34.4404 1106.39,-43.7012 1111.05,-38.4704"/>
<text text-anchor="middle" x="1257.09" y="-144.8" font-family="Times,serif" font-size="14.00">event:hasGenesisDescription</text>
</g>
<!-- Rhttp://www.w3.org/2000/01/rdf&#45;schema#Resource&#45;&gt;Rhttp://www.w3.org/2002/07/owl#event:Existence -->
<g id="edge16" class="edge"><title>Rhttp://www.w3.org/2000/01/rdf&#45;schema#Resource&#45;&gt;Rhttp://www.w3.org/2002/07/owl#event:Existence</title>
<path fill="none" stroke="blue" d="M804.011,-267.33C791.111,-262.144 778.95,-254.441 771.092,-243 765.748,-235.218 768.125,-226.2 773.163,-217.983"/>
<polygon fill="blue" stroke="blue" points="776.076,-219.929 779.164,-209.794 770.43,-215.791 776.076,-219.929"/>
<text text-anchor="middle" x="855.592" y="-231.8" font-family="Times,serif" font-size="14.00">event:hasExistence</text>
</g>
<!-- Rhttp://www.w3.org/2002/07/owl#event:State -->
<g id="node16" class="node"><title>Rhttp://www.w3.org/2002/07/owl#event:State</title>
<g id="a_node16"><a xlink:href="http://www.w3.org/2002/07/owl#event:State" xlink:title="event:State">
<ellipse fill="none" stroke="blue" cx="591.092" cy="-192" rx="83.3857" ry="18"/>
<text text-anchor="middle" x="591.092" y="-188.3" font-family="Times,serif" font-size="14.00">event:State</text>
</a>
</g>
</g>
<!-- Rhttp://www.w3.org/2000/01/rdf&#45;schema#Resource&#45;&gt;Rhttp://www.w3.org/2002/07/owl#event:State -->
<g id="edge17" class="edge"><title>Rhttp://www.w3.org/2000/01/rdf&#45;schema#Resource&#45;&gt;Rhttp://www.w3.org/2002/07/owl#event:State</title>
<path fill="none" stroke="blue" d="M790.573,-273.301C732.073,-268.373 654.807,-259.054 628.092,-243 618.512,-237.243 610.631,-227.968 604.64,-218.961"/>
<polygon fill="blue" stroke="blue" points="607.482,-216.899 599.287,-210.184 601.506,-220.544 607.482,-216.899"/>
<text text-anchor="middle" x="696.092" y="-231.8" font-family="Times,serif" font-size="14.00">event:hasState</text>
</g>
</g>
</svg>