<?xml version="1.0" encoding="UTF-8" standalone="no"?>
<!DOCTYPE svg PUBLIC "-//W3C//DTD SVG 1.1//EN"
 "http://www.w3.org/Graphics/SVG/1.1/DTD/svg11.dtd">
<!-- Generated by graphviz version 2.38.0 (20140413.2041)
 -->
<!-- Title: %3 Pages: 1 -->
<svg width="2874pt" height="827pt"
 viewBox="0.00 0.00 2874.24 827.00" xmlns="http://www.w3.org/2000/svg" xmlns:xlink="http://www.w3.org/1999/xlink">
<g id="graph0" class="graph" transform="scale(1 1) rotate(0) translate(4 823)">
<title>%3</title>
<polygon fill="white" stroke="none" points="-4,4 -4,-823 2870.24,-823 2870.24,4 -4,4"/>
<!-- Rhttp://www.w3.org/2002/07/owl#text&#45;structure:Structure -->
<g id="node1" class="node"><title>Rhttp://www.w3.org/2002/07/owl#text&#45;structure:Structure</title>
<g id="a_node1"><a xlink:href="http://www.w3.org/2002/07/owl#text-structure:Structure" xlink:title="owl:text&#45;structure:Structure">
<ellipse fill="none" stroke="blue" cx="1553.24" cy="-105" rx="142.975" ry="18"/>
<text text-anchor="middle" x="1553.24" y="-101.3" font-family="Times,serif" font-size="14.00">owl:text&#45;structure:Structure</text>
</a>
</g>
</g>
<!-- Rhttp://www.w3.org/2002/07/owl#language:HumanNaturalLanguageExpression -->
<g id="node2" class="node"><title>Rhttp://www.w3.org/2002/07/owl#language:HumanNaturalLanguageExpression</title>
<g id="a_node2"><a xlink:href="http://www.w3.org/2002/07/owl#language:HumanNaturalLanguageExpression" xlink:title="owl:language:HumanNaturalLanguageExpression">
<ellipse fill="none" stroke="blue" cx="1364.24" cy="-18" rx="243.157" ry="18"/>
<text text-anchor="middle" x="1364.24" y="-14.3" font-family="Times,serif" font-size="14.00">owl:language:HumanNaturalLanguageExpression</text>
</a>
</g>
</g>
<!-- Rhttp://www.w3.org/2002/07/owl#text&#45;structure:Structure&#45;&gt;Rhttp://www.w3.org/2002/07/owl#language:HumanNaturalLanguageExpression -->
<g id="edge1" class="edge"><title>Rhttp://www.w3.org/2002/07/owl#text&#45;structure:Structure&#45;&gt;Rhttp://www.w3.org/2002/07/owl#language:HumanNaturalLanguageExpression</title>
<path fill="none" stroke="black" d="M1516.35,-87.4094C1486.23,-73.8657 1443.5,-54.6455 1410.99,-40.0247"/>
<polygon fill="black" stroke="black" points="1412.24,-36.7489 1401.68,-35.8393 1409.37,-43.133 1412.24,-36.7489"/>
<text text-anchor="middle" x="1527.74" y="-57.8" font-family="Times,serif" font-size="14.00">rdfs:subClassOf</text>
</g>
<!-- Rhttp://www.w3.org/2002/07/owl#text&#45;structure:SyntacticStructure -->
<g id="node3" class="node"><title>Rhttp://www.w3.org/2002/07/owl#text&#45;structure:SyntacticStructure</title>
<g id="a_node3"><a xlink:href="http://www.w3.org/2002/07/owl#text-structure:SyntacticStructure" xlink:title="owl:text&#45;structure:SyntacticStructure">
<ellipse fill="none" stroke="blue" cx="2078.24" cy="-366" rx="186.567" ry="18"/>
<text text-anchor="middle" x="2078.24" y="-362.3" font-family="Times,serif" font-size="14.00">owl:text&#45;structure:SyntacticStructure</text>
</a>
</g>
</g>
<!-- Rhttp://www.w3.org/2002/07/owl#text&#45;structure:SyntacticStructure&#45;&gt;Rhttp://www.w3.org/2002/07/owl#text&#45;structure:Structure -->
<g id="edge2" class="edge"><title>Rhttp://www.w3.org/2002/07/owl#text&#45;structure:SyntacticStructure&#45;&gt;Rhttp://www.w3.org/2002/07/owl#text&#45;structure:Structure</title>
<path fill="none" stroke="black" d="M1922.81,-355.985C1882,-350.831 1844.98,-342.731 1829.24,-330 1771.84,-283.581 1825.25,-225.366 1772.24,-174 1743.57,-146.217 1703.75,-129.766 1665.92,-120.033"/>
<polygon fill="black" stroke="black" points="1666.38,-116.542 1655.83,-117.581 1664.72,-123.344 1666.38,-116.542"/>
<text text-anchor="middle" x="1856.74" y="-231.8" font-family="Times,serif" font-size="14.00">rdfs:subClassOf</text>
</g>
<!-- Rhttp://www.w3.org/2002/07/owl#text&#45;structure:CompositionalStructure -->
<g id="node4" class="node"><title>Rhttp://www.w3.org/2002/07/owl#text&#45;structure:CompositionalStructure</title>
<g id="a_node4"><a xlink:href="http://www.w3.org/2002/07/owl#text-structure:CompositionalStructure" xlink:title="owl:text&#45;structure:CompositionalStructure">
<ellipse fill="none" stroke="blue" cx="1553.24" cy="-192" rx="209.863" ry="18"/>
<text text-anchor="middle" x="1553.24" y="-188.3" font-family="Times,serif" font-size="14.00">owl:text&#45;structure:CompositionalStructure</text>
</a>
</g>
</g>
<!-- Rhttp://www.w3.org/2002/07/owl#text&#45;structure:CompositionalStructure&#45;&gt;Rhttp://www.w3.org/2002/07/owl#text&#45;structure:Structure -->
<g id="edge3" class="edge"><title>Rhttp://www.w3.org/2002/07/owl#text&#45;structure:CompositionalStructure&#45;&gt;Rhttp://www.w3.org/2002/07/owl#text&#45;structure:Structure</title>
<path fill="none" stroke="black" d="M1553.24,-173.799C1553.24,-162.163 1553.24,-146.548 1553.24,-133.237"/>
<polygon fill="black" stroke="black" points="1556.74,-133.175 1553.24,-123.175 1549.74,-133.175 1556.74,-133.175"/>
<text text-anchor="middle" x="1610.74" y="-144.8" font-family="Times,serif" font-size="14.00">rdfs:subClassOf</text>
</g>
<!-- Rhttp://www.w3.org/2002/07/owl#text&#45;structure:ContentStructure -->
<g id="node5" class="node"><title>Rhttp://www.w3.org/2002/07/owl#text&#45;structure:ContentStructure</title>
<g id="a_node5"><a xlink:href="http://www.w3.org/2002/07/owl#text-structure:ContentStructure" xlink:title="owl:text&#45;structure:ContentStructure">
<ellipse fill="none" stroke="blue" cx="1578.24" cy="-279" rx="180.868" ry="18"/>
<text text-anchor="middle" x="1578.24" y="-275.3" font-family="Times,serif" font-size="14.00">owl:text&#45;structure:ContentStructure</text>
</a>
</g>
</g>
<!-- Rhttp://www.w3.org/2002/07/owl#text&#45;structure:ContentStructure&#45;&gt;Rhttp://www.w3.org/2002/07/owl#text&#45;structure:CompositionalStructure -->
<g id="edge4" class="edge"><title>Rhttp://www.w3.org/2002/07/owl#text&#45;structure:ContentStructure&#45;&gt;Rhttp://www.w3.org/2002/07/owl#text&#45;structure:CompositionalStructure</title>
<path fill="none" stroke="black" d="M1573.18,-260.799C1569.72,-249.047 1565.07,-233.238 1561.13,-219.842"/>
<polygon fill="black" stroke="black" points="1564.47,-218.781 1558.29,-210.175 1557.75,-220.757 1564.47,-218.781"/>
<text text-anchor="middle" x="1624.74" y="-231.8" font-family="Times,serif" font-size="14.00">rdfs:subClassOf</text>
</g>
<!-- Rhttp://www.w3.org/2002/07/owl#text&#45;structure:ReadabilityStructure -->
<g id="node6" class="node"><title>Rhttp://www.w3.org/2002/07/owl#text&#45;structure:ReadabilityStructure</title>
<g id="a_node6"><a xlink:href="http://www.w3.org/2002/07/owl#text-structure:ReadabilityStructure" xlink:title="owl:text&#45;structure:ReadabilityStructure">
<ellipse fill="none" stroke="blue" cx="440.239" cy="-279" rx="195.765" ry="18"/>
<text text-anchor="middle" x="440.239" y="-275.3" font-family="Times,serif" font-size="14.00">owl:text&#45;structure:ReadabilityStructure</text>
</a>
</g>
</g>
<!-- Rhttp://www.w3.org/2002/07/owl#text&#45;structure:ReadabilityStructure&#45;&gt;Rhttp://www.w3.org/2002/07/owl#text&#45;structure:CompositionalStructure -->
<g id="edge5" class="edge"><title>Rhttp://www.w3.org/2002/07/owl#text&#45;structure:ReadabilityStructure&#45;&gt;Rhttp://www.w3.org/2002/07/owl#text&#45;structure:CompositionalStructure</title>
<path fill="none" stroke="black" d="M585.459,-266.91C793.599,-251.014 1175.46,-221.851 1392.08,-205.308"/>
<polygon fill="black" stroke="black" points="1392.57,-208.781 1402.27,-204.529 1392.03,-201.801 1392.57,-208.781"/>
<text text-anchor="middle" x="1121.74" y="-231.8" font-family="Times,serif" font-size="14.00">rdfs:subClassOf</text>
</g>
<!-- Rhttp://www.w3.org/2002/07/owl#text&#45;structure:ProsodicStructure -->
<g id="node7" class="node"><title>Rhttp://www.w3.org/2002/07/owl#text&#45;structure:ProsodicStructure</title>
<g id="a_node7"><a xlink:href="http://www.w3.org/2002/07/owl#text-structure:ProsodicStructure" xlink:title="owl:text&#45;structure:ProsodicStructure">
<ellipse fill="none" stroke="blue" cx="1652.24" cy="-366" rx="183.068" ry="18"/>
<text text-anchor="middle" x="1652.24" y="-362.3" font-family="Times,serif" font-size="14.00">owl:text&#45;structure:ProsodicStructure</text>
</a>
</g>
</g>
<!-- Rhttp://www.w3.org/2002/07/owl#text&#45;structure:ProsodicStructure&#45;&gt;Rhttp://www.w3.org/2002/07/owl#text&#45;structure:ContentStructure -->
<g id="edge6" class="edge"><title>Rhttp://www.w3.org/2002/07/owl#text&#45;structure:ProsodicStructure&#45;&gt;Rhttp://www.w3.org/2002/07/owl#text&#45;structure:ContentStructure</title>
<path fill="none" stroke="black" d="M1637.26,-347.799C1626.53,-335.471 1611.91,-318.679 1599.91,-304.89"/>
<polygon fill="black" stroke="black" points="1602.4,-302.42 1593.19,-297.175 1597.12,-307.016 1602.4,-302.42"/>
<text text-anchor="middle" x="1677.74" y="-318.8" font-family="Times,serif" font-size="14.00">rdfs:subClassOf</text>
</g>
<!-- Rhttp://www.w3.org/2002/07/owl#text&#45;structure:Word -->
<g id="node8" class="node"><title>Rhttp://www.w3.org/2002/07/owl#text&#45;structure:Word</title>
<g id="a_node8"><a xlink:href="http://www.w3.org/2002/07/owl#text-structure:Word" xlink:title="owl:text&#45;structure:Word">
<ellipse fill="none" stroke="blue" cx="1595.24" cy="-627" rx="122.678" ry="18"/>
<text text-anchor="middle" x="1595.24" y="-623.3" font-family="Times,serif" font-size="14.00">owl:text&#45;structure:Word</text>
</a>
</g>
</g>
<!-- Rhttp://www.w3.org/2002/07/owl#text&#45;structure:Word&#45;&gt;Rhttp://www.w3.org/2002/07/owl#text&#45;structure:SyntacticStructure -->
<g id="edge7" class="edge"><title>Rhttp://www.w3.org/2002/07/owl#text&#45;structure:Word&#45;&gt;Rhttp://www.w3.org/2002/07/owl#text&#45;structure:SyntacticStructure</title>
<path fill="none" stroke="black" d="M1713.1,-621.818C1751.53,-616.989 1793.48,-607.859 1829.24,-591 1881.63,-566.304 2003.25,-444.41 2054.64,-391.539"/>
<polygon fill="black" stroke="black" points="2057.25,-393.875 2061.7,-384.258 2052.23,-389.003 2057.25,-393.875"/>
<text text-anchor="middle" x="2011.74" y="-492.8" font-family="Times,serif" font-size="14.00">rdfs:subClassOf</text>
</g>
<!-- Rhttp://www.w3.org/2002/07/owl#text&#45;structure:Sentence -->
<g id="node9" class="node"><title>Rhttp://www.w3.org/2002/07/owl#text&#45;structure:Sentence</title>
<g id="a_node9"><a xlink:href="http://www.w3.org/2002/07/owl#text-structure:Sentence" xlink:title="owl:text&#45;structure:Sentence">
<ellipse fill="none" stroke="blue" cx="2075.24" cy="-540" rx="141.075" ry="18"/>
<text text-anchor="middle" x="2075.24" y="-536.3" font-family="Times,serif" font-size="14.00">owl:text&#45;structure:Sentence</text>
</a>
</g>
</g>
<!-- Rhttp://www.w3.org/2002/07/owl#text&#45;structure:Word&#45;&gt;Rhttp://www.w3.org/2002/07/owl#text&#45;structure:Sentence -->
<g id="edge8" class="edge"><title>Rhttp://www.w3.org/2002/07/owl#text&#45;structure:Word&#45;&gt;Rhttp://www.w3.org/2002/07/owl#text&#45;structure:Sentence</title>
<path fill="none" stroke="black" d="M1711.69,-621.27C1757.25,-616.609 1809.27,-607.728 1854.24,-591 1865.68,-586.745 1865.89,-580.486 1877.24,-576 1902.76,-565.914 1931.27,-558.722 1958.53,-553.598"/>
<polygon fill="black" stroke="black" points="1959.29,-557.018 1968.51,-551.802 1958.05,-550.129 1959.29,-557.018"/>
<text text-anchor="middle" x="2006.74" y="-579.8" font-family="Times,serif" font-size="14.00">owl:text&#45;structure:isPartOfSentence</text>
</g>
<!-- Rhttp://www.w3.org/2002/07/owl#text&#45;structure:Line -->
<g id="node10" class="node"><title>Rhttp://www.w3.org/2002/07/owl#text&#45;structure:Line</title>
<g id="a_node10"><a xlink:href="http://www.w3.org/2002/07/owl#text-structure:Line" xlink:title="owl:text&#45;structure:Line">
<ellipse fill="none" stroke="blue" cx="544.239" cy="-540" rx="118.079" ry="18"/>
<text text-anchor="middle" x="544.239" y="-536.3" font-family="Times,serif" font-size="14.00">owl:text&#45;structure:Line</text>
</a>
</g>
</g>
<!-- Rhttp://www.w3.org/2002/07/owl#text&#45;structure:Word&#45;&gt;Rhttp://www.w3.org/2002/07/owl#text&#45;structure:Line -->
<g id="edge9" class="edge"><title>Rhttp://www.w3.org/2002/07/owl#text&#45;structure:Word&#45;&gt;Rhttp://www.w3.org/2002/07/owl#text&#45;structure:Line</title>
<path fill="none" stroke="black" d="M1497.63,-616.015C1472.43,-613.575 1445.34,-611.073 1420.24,-609 1087.71,-581.533 1003.21,-591.485 671.239,-558 660.198,-556.886 648.637,-555.561 637.178,-554.149"/>
<polygon fill="black" stroke="black" points="637.509,-550.663 627.151,-552.889 636.636,-557.609 637.509,-550.663"/>
<text text-anchor="middle" x="1260.74" y="-579.8" font-family="Times,serif" font-size="14.00">owl:text&#45;structure:isPartOfLine</text>
</g>
<!-- Rhttp://www.w3.org/2002/07/owl#text&#45;structure:Verse -->
<g id="node11" class="node"><title>Rhttp://www.w3.org/2002/07/owl#text&#45;structure:Verse</title>
<g id="a_node11"><a xlink:href="http://www.w3.org/2002/07/owl#text-structure:Verse" xlink:title="owl:text&#45;structure:Verse">
<ellipse fill="none" stroke="blue" cx="1595.24" cy="-540" rx="124.278" ry="18"/>
<text text-anchor="middle" x="1595.24" y="-536.3" font-family="Times,serif" font-size="14.00">owl:text&#45;structure:Verse</text>
</a>
</g>
</g>
<!-- Rhttp://www.w3.org/2002/07/owl#text&#45;structure:Word&#45;&gt;Rhttp://www.w3.org/2002/07/owl#text&#45;structure:Verse -->
<g id="edge10" class="edge"><title>Rhttp://www.w3.org/2002/07/owl#text&#45;structure:Word&#45;&gt;Rhttp://www.w3.org/2002/07/owl#text&#45;structure:Verse</title>
<path fill="none" stroke="black" d="M1595.24,-608.799C1595.24,-597.163 1595.24,-581.548 1595.24,-568.237"/>
<polygon fill="black" stroke="black" points="1598.74,-568.175 1595.24,-558.175 1591.74,-568.175 1598.74,-568.175"/>
<text text-anchor="middle" x="1711.74" y="-579.8" font-family="Times,serif" font-size="14.00">owl:text&#45;structure:isPartOfVerse</text>
</g>
<!-- Rhttp://www.w3.org/2002/07/owl#text&#45;structure:Sentence&#45;&gt;Rhttp://www.w3.org/2002/07/owl#text&#45;structure:SyntacticStructure -->
<g id="edge11" class="edge"><title>Rhttp://www.w3.org/2002/07/owl#text&#45;structure:Sentence&#45;&gt;Rhttp://www.w3.org/2002/07/owl#text&#45;structure:SyntacticStructure</title>
<path fill="none" stroke="black" d="M2075.54,-521.879C2076.06,-492.001 2077.14,-430.113 2077.76,-394.274"/>
<polygon fill="black" stroke="black" points="2081.27,-394.111 2077.94,-384.052 2074.27,-393.989 2081.27,-394.111"/>
<text text-anchor="middle" x="2134.74" y="-449.3" font-family="Times,serif" font-size="14.00">rdfs:subClassOf</text>
</g>
<!-- Rhttp://www.w3.org/2002/07/owl#text&#45;structure:Paragraph -->
<g id="node12" class="node"><title>Rhttp://www.w3.org/2002/07/owl#text&#45;structure:Paragraph</title>
<g id="a_node12"><a xlink:href="http://www.w3.org/2002/07/owl#text-structure:Paragraph" xlink:title="owl:text&#45;structure:Paragraph">
<ellipse fill="none" stroke="blue" cx="2373.24" cy="-453" rx="146.474" ry="18"/>
<text text-anchor="middle" x="2373.24" y="-449.3" font-family="Times,serif" font-size="14.00">owl:text&#45;structure:Paragraph</text>
</a>
</g>
</g>
<!-- Rhttp://www.w3.org/2002/07/owl#text&#45;structure:Sentence&#45;&gt;Rhttp://www.w3.org/2002/07/owl#text&#45;structure:Paragraph -->
<g id="edge12" class="edge"><title>Rhttp://www.w3.org/2002/07/owl#text&#45;structure:Sentence&#45;&gt;Rhttp://www.w3.org/2002/07/owl#text&#45;structure:Paragraph</title>
<path fill="none" stroke="black" d="M2082.39,-521.771C2087.99,-510.541 2096.91,-496.605 2109.24,-489 2121.85,-481.224 2187.98,-472.463 2250.9,-465.651"/>
<polygon fill="black" stroke="black" points="2251.39,-469.119 2260.96,-464.575 2250.64,-462.159 2251.39,-469.119"/>
<text text-anchor="middle" x="2243.24" y="-492.8" font-family="Times,serif" font-size="14.00">owl:text&#45;structure:isPartOfParagraph</text>
</g>
<!-- Rhttp://www.w3.org/2002/07/owl#text&#45;structure:Prose -->
<g id="node13" class="node"><title>Rhttp://www.w3.org/2002/07/owl#text&#45;structure:Prose</title>
<g id="a_node13"><a xlink:href="http://www.w3.org/2002/07/owl#text-structure:Prose" xlink:title="owl:text&#45;structure:Prose">
<ellipse fill="none" stroke="blue" cx="1636.24" cy="-453" rx="124.278" ry="18"/>
<text text-anchor="middle" x="1636.24" y="-449.3" font-family="Times,serif" font-size="14.00">owl:text&#45;structure:Prose</text>
</a>
</g>
</g>
<!-- Rhttp://www.w3.org/2002/07/owl#text&#45;structure:Sentence&#45;&gt;Rhttp://www.w3.org/2002/07/owl#text&#45;structure:Prose -->
<g id="edge13" class="edge"><title>Rhttp://www.w3.org/2002/07/owl#text&#45;structure:Sentence&#45;&gt;Rhttp://www.w3.org/2002/07/owl#text&#45;structure:Prose</title>
<path fill="none" stroke="black" d="M1936.98,-536.439C1843.55,-532.847 1729.62,-524.292 1686.24,-504 1674.08,-498.31 1663.18,-488.356 1654.69,-478.819"/>
<polygon fill="black" stroke="black" points="1657.25,-476.426 1648.15,-471.009 1651.88,-480.922 1657.25,-476.426"/>
<text text-anchor="middle" x="1803.24" y="-492.8" font-family="Times,serif" font-size="14.00">owl:text&#45;structure:isPartOfProse</text>
</g>
<!-- Rhttp://www.w3.org/2002/07/owl#text&#45;structure:Line&#45;&gt;Rhttp://www.w3.org/2002/07/owl#text&#45;structure:ReadabilityStructure -->
<g id="edge22" class="edge"><title>Rhttp://www.w3.org/2002/07/owl#text&#45;structure:Line&#45;&gt;Rhttp://www.w3.org/2002/07/owl#text&#45;structure:ReadabilityStructure</title>
<path fill="none" stroke="black" d="M540.851,-521.864C538.555,-511.986 535.055,-499.486 530.239,-489 526.227,-480.263 522.303,-479.714 518.239,-471 494.165,-419.378 505.414,-400.032 482.239,-348 475.698,-333.312 466.473,-317.989 458.334,-305.615"/>
<polygon fill="black" stroke="black" points="461.142,-303.518 452.654,-297.177 455.335,-307.427 461.142,-303.518"/>
<text text-anchor="middle" x="558.739" y="-405.8" font-family="Times,serif" font-size="14.00">rdfs:subClassOf</text>
</g>
<!-- Rhttp://www.w3.org/2002/07/owl#text&#45;structure:Column -->
<g id="node17" class="node"><title>Rhttp://www.w3.org/2002/07/owl#text&#45;structure:Column</title>
<g id="a_node17"><a xlink:href="http://www.w3.org/2002/07/owl#text-structure:Column" xlink:title="owl:text&#45;structure:Column">
<ellipse fill="none" stroke="blue" cx="264.239" cy="-453" rx="133.776" ry="18"/>
<text text-anchor="middle" x="264.239" y="-449.3" font-family="Times,serif" font-size="14.00">owl:text&#45;structure:Column</text>
</a>
</g>
</g>
<!-- Rhttp://www.w3.org/2002/07/owl#text&#45;structure:Line&#45;&gt;Rhttp://www.w3.org/2002/07/owl#text&#45;structure:Column -->
<g id="edge23" class="edge"><title>Rhttp://www.w3.org/2002/07/owl#text&#45;structure:Line&#45;&gt;Rhttp://www.w3.org/2002/07/owl#text&#45;structure:Column</title>
<path fill="none" stroke="black" d="M429.472,-535.51C369.512,-531.428 303.975,-522.676 281.239,-504 274.389,-498.373 270.289,-489.864 267.838,-481.453"/>
<polygon fill="black" stroke="black" points="271.196,-480.434 265.592,-471.442 264.366,-481.966 271.196,-480.434"/>
<text text-anchor="middle" x="405.739" y="-492.8" font-family="Times,serif" font-size="14.00">owl:text&#45;structure:isPartOfColumn</text>
</g>
<!-- Rhttp://www.w3.org/2002/07/owl#text&#45;structure:Paragraph&#45;&gt;Rhttp://www.w3.org/2002/07/owl#text&#45;structure:ContentStructure -->
<g id="edge16" class="edge"><title>Rhttp://www.w3.org/2002/07/owl#text&#45;structure:Paragraph&#45;&gt;Rhttp://www.w3.org/2002/07/owl#text&#45;structure:ContentStructure</title>
<path fill="none" stroke="black" d="M2264.24,-440.911C2241.77,-438.799 2218.25,-436.716 2196.24,-435 2193.29,-434.77 1347.27,-386.155 1345.24,-384 1301.19,-337.227 1381.85,-310.07 1460.05,-295.315"/>
<polygon fill="black" stroke="black" points="1460.85,-298.727 1470.06,-293.49 1459.59,-291.841 1460.85,-298.727"/>
<text text-anchor="middle" x="1402.74" y="-362.3" font-family="Times,serif" font-size="14.00">rdfs:subClassOf</text>
</g>
<!-- Rhttp://www.w3.org/2002/07/owl#text&#45;structure:Section -->
<g id="node14" class="node"><title>Rhttp://www.w3.org/2002/07/owl#text&#45;structure:Section</title>
<g id="a_node14"><a xlink:href="http://www.w3.org/2002/07/owl#text-structure:Section" xlink:title="owl:text&#45;structure:Section">
<ellipse fill="none" stroke="blue" cx="2415.24" cy="-366" rx="132.677" ry="18"/>
<text text-anchor="middle" x="2415.24" y="-362.3" font-family="Times,serif" font-size="14.00">owl:text&#45;structure:Section</text>
</a>
</g>
</g>
<!-- Rhttp://www.w3.org/2002/07/owl#text&#45;structure:Paragraph&#45;&gt;Rhttp://www.w3.org/2002/07/owl#text&#45;structure:Section -->
<g id="edge17" class="edge"><title>Rhttp://www.w3.org/2002/07/owl#text&#45;structure:Paragraph&#45;&gt;Rhttp://www.w3.org/2002/07/owl#text&#45;structure:Section</title>
<path fill="none" stroke="black" d="M2378.68,-434.939C2382.08,-425.085 2386.83,-412.585 2392.24,-402 2393.84,-398.862 2395.66,-395.657 2397.56,-392.524"/>
<polygon fill="black" stroke="black" points="2400.57,-394.31 2403,-383.997 2394.67,-390.545 2400.57,-394.31"/>
<text text-anchor="middle" x="2515.74" y="-405.8" font-family="Times,serif" font-size="14.00">owl:text&#45;structure:isPartOfSection</text>
</g>
<!-- Rhttp://www.w3.org/2002/07/owl#text&#45;structure:Prose&#45;&gt;Rhttp://www.w3.org/2002/07/owl#language:HumanNaturalLanguageExpression -->
<g id="edge15" class="edge"><title>Rhttp://www.w3.org/2002/07/owl#text&#45;structure:Prose&#45;&gt;Rhttp://www.w3.org/2002/07/owl#language:HumanNaturalLanguageExpression</title>
<path fill="none" stroke="black" d="M1577.42,-437.045C1535.65,-426.64 1478.16,-412.76 1427.24,-402 1383.91,-392.845 1366.04,-408.635 1329.24,-384 1302.65,-366.203 1290.24,-355.492 1290.24,-323.5 1290.24,-323.5 1290.24,-323.5 1290.24,-104 1290.24,-78.7755 1309.01,-57.3999 1327.64,-42.394"/>
<polygon fill="black" stroke="black" points="1330,-44.9971 1335.84,-36.1588 1325.76,-39.4246 1330,-44.9971"/>
<text text-anchor="middle" x="1422.74" y="-231.8" font-family="Times,serif" font-size="14.00">owl:text&#45;structure:proseIsPartOfText</text>
</g>
<!-- Rhttp://www.w3.org/2002/07/owl#text&#45;structure:Prose&#45;&gt;Rhttp://www.w3.org/2002/07/owl#text&#45;structure:SyntacticStructure -->
<g id="edge14" class="edge"><title>Rhttp://www.w3.org/2002/07/owl#text&#45;structure:Prose&#45;&gt;Rhttp://www.w3.org/2002/07/owl#text&#45;structure:SyntacticStructure</title>
<path fill="none" stroke="black" d="M1684.61,-436.299C1719.93,-425.336 1769.14,-411.091 1813.24,-402 1855.74,-393.238 1902.54,-386.208 1944.84,-380.813"/>
<polygon fill="black" stroke="black" points="1945.44,-384.266 1954.92,-379.547 1944.56,-377.32 1945.44,-384.266"/>
<text text-anchor="middle" x="1870.74" y="-405.8" font-family="Times,serif" font-size="14.00">rdfs:subClassOf</text>
</g>
<!-- Rhttp://www.w3.org/2002/07/owl#text&#45;structure:Section&#45;&gt;Rhttp://www.w3.org/2002/07/owl#language:HumanNaturalLanguageExpression -->
<g id="edge19" class="edge"><title>Rhttp://www.w3.org/2002/07/owl#text&#45;structure:Section&#45;&gt;Rhttp://www.w3.org/2002/07/owl#language:HumanNaturalLanguageExpression</title>
<path fill="none" stroke="black" d="M2361.66,-349.382C2330.07,-336.52 2296.24,-314.656 2296.24,-280 2296.24,-280 2296.24,-280 2296.24,-104 2296.24,-68.2024 1854.42,-41.4048 1579.19,-28.1838"/>
<polygon fill="black" stroke="black" points="1579.21,-24.6812 1569.06,-27.6998 1578.88,-31.6733 1579.21,-24.6812"/>
<text text-anchor="middle" x="2434.74" y="-188.3" font-family="Times,serif" font-size="14.00">owl:text&#45;structure:sectionIsPartOfText</text>
</g>
<!-- Rhttp://www.w3.org/2002/07/owl#text&#45;structure:Section&#45;&gt;Rhttp://www.w3.org/2002/07/owl#text&#45;structure:ContentStructure -->
<g id="edge18" class="edge"><title>Rhttp://www.w3.org/2002/07/owl#text&#45;structure:Section&#45;&gt;Rhttp://www.w3.org/2002/07/owl#text&#45;structure:ContentStructure</title>
<path fill="none" stroke="black" d="M2323.56,-352.968C2307.16,-351.094 2290.21,-349.339 2274.24,-348 2105.75,-333.871 2062.44,-347.238 1894.24,-330 1817.66,-322.152 1731.39,-308.148 1668.36,-296.953"/>
<polygon fill="black" stroke="black" points="1668.91,-293.496 1658.45,-295.182 1667.68,-300.387 1668.91,-293.496"/>
<text text-anchor="middle" x="1951.74" y="-318.8" font-family="Times,serif" font-size="14.00">rdfs:subClassOf</text>
</g>
<!-- Rhttp://www.w3.org/2000/01/rdf&#45;schema#Literal -->
<g id="node15" class="node"><title>Rhttp://www.w3.org/2000/01/rdf&#45;schema#Literal</title>
<g id="a_node15"><a xlink:href="http://www.w3.org/2000/01/rdf-schema#Literal" xlink:title="rdfs:Literal">
<ellipse fill="none" stroke="blue" cx="1959.24" cy="-279" rx="63.8893" ry="18"/>
<text text-anchor="middle" x="1959.24" y="-275.3" font-family="Times,serif" font-size="14.00">rdfs:Literal</text>
</a>
</g>
</g>
<!-- Rhttp://www.w3.org/2002/07/owl#text&#45;structure:Section&#45;&gt;Rhttp://www.w3.org/2000/01/rdf&#45;schema#Literal -->
<g id="edge20" class="edge"><title>Rhttp://www.w3.org/2002/07/owl#text&#45;structure:Section&#45;&gt;Rhttp://www.w3.org/2000/01/rdf&#45;schema#Literal</title>
<path fill="none" stroke="black" d="M2322.01,-353.162C2306.09,-351.311 2289.7,-349.513 2274.24,-348 2221.23,-342.811 2085.65,-347.185 2035.24,-330 2034.91,-329.889 2012.21,-314.945 1991.71,-301.426"/>
<polygon fill="black" stroke="black" points="1993.4,-298.35 1983.13,-295.767 1989.55,-304.194 1993.4,-298.35"/>
<text text-anchor="middle" x="2158.74" y="-318.8" font-family="Times,serif" font-size="14.00">owl:text&#45;structure:sectionHasTitle</text>
</g>
<!-- Rhttp://www.w3.org/2001/XMLSchema#nonNegativeInteger -->
<g id="node16" class="node"><title>Rhttp://www.w3.org/2001/XMLSchema#nonNegativeInteger</title>
<g id="a_node16"><a xlink:href="http://www.w3.org/2001/XMLSchema#nonNegativeInteger" xlink:title="xsd:nonNegativeInteger">
<ellipse fill="none" stroke="blue" cx="2448.24" cy="-279" rx="124.278" ry="18"/>
<text text-anchor="middle" x="2448.24" y="-275.3" font-family="Times,serif" font-size="14.00">xsd:nonNegativeInteger</text>
</a>
</g>
</g>
<!-- Rhttp://www.w3.org/2002/07/owl#text&#45;structure:Section&#45;&gt;Rhttp://www.w3.org/2001/XMLSchema#nonNegativeInteger -->
<g id="edge21" class="edge"><title>Rhttp://www.w3.org/2002/07/owl#text&#45;structure:Section&#45;&gt;Rhttp://www.w3.org/2001/XMLSchema#nonNegativeInteger</title>
<path fill="none" stroke="black" d="M2421.92,-347.799C2426.48,-336.047 2432.62,-320.238 2437.82,-306.842"/>
<polygon fill="black" stroke="black" points="2441.21,-307.764 2441.57,-297.175 2434.69,-305.231 2441.21,-307.764"/>
<text text-anchor="middle" x="2571.24" y="-318.8" font-family="Times,serif" font-size="14.00">owl:text&#45;structure:sectionHasNumber</text>
</g>
<!-- Rhttp://www.w3.org/2002/07/owl#text&#45;structure:Column&#45;&gt;Rhttp://www.w3.org/2002/07/owl#text&#45;structure:ReadabilityStructure -->
<g id="edge24" class="edge"><title>Rhttp://www.w3.org/2002/07/owl#text&#45;structure:Column&#45;&gt;Rhttp://www.w3.org/2002/07/owl#text&#45;structure:ReadabilityStructure</title>
<path fill="none" stroke="black" d="M312.178,-436.164C322.052,-431.218 331.717,-424.917 339.239,-417 362.035,-393.007 348.466,-375.255 367.239,-348 378.738,-331.307 394.979,-315.665 409.224,-303.602"/>
<polygon fill="black" stroke="black" points="411.832,-305.989 417.33,-296.932 407.384,-300.584 411.832,-305.989"/>
<text text-anchor="middle" x="424.739" y="-362.3" font-family="Times,serif" font-size="14.00">rdfs:subClassOf</text>
</g>
<!-- Rhttp://www.w3.org/2002/07/owl#text&#45;structure:Page -->
<g id="node18" class="node"><title>Rhttp://www.w3.org/2002/07/owl#text&#45;structure:Page</title>
<g id="a_node18"><a xlink:href="http://www.w3.org/2002/07/owl#text-structure:Page" xlink:title="owl:text&#45;structure:Page">
<ellipse fill="none" stroke="blue" cx="120.239" cy="-366" rx="120.479" ry="18"/>
<text text-anchor="middle" x="120.239" y="-362.3" font-family="Times,serif" font-size="14.00">owl:text&#45;structure:Page</text>
</a>
</g>
</g>
<!-- Rhttp://www.w3.org/2002/07/owl#text&#45;structure:Column&#45;&gt;Rhttp://www.w3.org/2002/07/owl#text&#45;structure:Page -->
<g id="edge25" class="edge"><title>Rhttp://www.w3.org/2002/07/owl#text&#45;structure:Column&#45;&gt;Rhttp://www.w3.org/2002/07/owl#text&#45;structure:Page</title>
<path fill="none" stroke="black" d="M169.614,-440.143C143.191,-434.785 119.434,-427.281 111.239,-417 106.08,-410.527 105.913,-402.081 107.771,-393.978"/>
<polygon fill="black" stroke="black" points="111.115,-395.012 110.842,-384.42 104.451,-392.87 111.115,-395.012"/>
<text text-anchor="middle" x="225.239" y="-405.8" font-family="Times,serif" font-size="14.00">owl:text&#45;structure:isPartOfPage</text>
</g>
<!-- Rhttp://www.w3.org/2002/07/owl#text&#45;structure:Page&#45;&gt;Rhttp://www.w3.org/2002/07/owl#language:HumanNaturalLanguageExpression -->
<g id="edge27" class="edge"><title>Rhttp://www.w3.org/2002/07/owl#text&#45;structure:Page&#45;&gt;Rhttp://www.w3.org/2002/07/owl#language:HumanNaturalLanguageExpression</title>
<path fill="none" stroke="black" d="M133.782,-347.87C145.386,-331.441 160.239,-305.442 160.239,-280 160.239,-280 160.239,-280 160.239,-104 160.239,-56.1656 772.929,-33.3225 1124.18,-24.1572"/>
<polygon fill="black" stroke="black" points="1124.33,-27.6546 1134.23,-23.8967 1124.14,-20.6569 1124.33,-27.6546"/>
<text text-anchor="middle" x="290.239" y="-188.3" font-family="Times,serif" font-size="14.00">owl:text&#45;structure:pageIsPartOfText</text>
</g>
<!-- Rhttp://www.w3.org/2002/07/owl#text&#45;structure:Page&#45;&gt;Rhttp://www.w3.org/2002/07/owl#text&#45;structure:ReadabilityStructure -->
<g id="edge26" class="edge"><title>Rhttp://www.w3.org/2002/07/owl#text&#45;structure:Page&#45;&gt;Rhttp://www.w3.org/2002/07/owl#text&#45;structure:ReadabilityStructure</title>
<path fill="none" stroke="black" d="M148.905,-348.445C169.295,-337.37 197.672,-323.346 224.239,-315 251.472,-306.445 281.328,-299.896 309.92,-294.914"/>
<polygon fill="black" stroke="black" points="310.696,-298.332 319.974,-293.216 309.531,-291.43 310.696,-298.332"/>
<text text-anchor="middle" x="281.739" y="-318.8" font-family="Times,serif" font-size="14.00">rdfs:subClassOf</text>
</g>
<!-- Rhttp://www.w3.org/2002/07/owl#text&#45;structure:Note -->
<g id="node19" class="node"><title>Rhttp://www.w3.org/2002/07/owl#text&#45;structure:Note</title>
<g id="a_node19"><a xlink:href="http://www.w3.org/2002/07/owl#text-structure:Note" xlink:title="owl:text&#45;structure:Note">
<ellipse fill="none" stroke="blue" cx="910.239" cy="-366" rx="120.779" ry="18"/>
<text text-anchor="middle" x="910.239" y="-362.3" font-family="Times,serif" font-size="14.00">owl:text&#45;structure:Note</text>
</a>
</g>
</g>
<!-- Rhttp://www.w3.org/2002/07/owl#text&#45;structure:Note&#45;&gt;Rhttp://www.w3.org/2002/07/owl#text&#45;structure:ContentStructure -->
<g id="edge28" class="edge"><title>Rhttp://www.w3.org/2002/07/owl#text&#45;structure:Note&#45;&gt;Rhttp://www.w3.org/2002/07/owl#text&#45;structure:ContentStructure</title>
<path fill="none" stroke="black" d="M981.735,-351.463C1041.76,-340.459 1129.86,-325.149 1207.24,-315 1280.3,-305.416 1361.8,-297.432 1429.75,-291.521"/>
<polygon fill="black" stroke="black" points="1430.45,-294.974 1440.11,-290.627 1429.84,-288 1430.45,-294.974"/>
<text text-anchor="middle" x="1264.74" y="-318.8" font-family="Times,serif" font-size="14.00">rdfs:subClassOf</text>
</g>
<!-- Rhttp://www.w3.org/2002/07/owl#text&#45;structure:Marginalia -->
<g id="node20" class="node"><title>Rhttp://www.w3.org/2002/07/owl#text&#45;structure:Marginalia</title>
<g id="a_node20"><a xlink:href="http://www.w3.org/2002/07/owl#text-structure:Marginalia" xlink:title="owl:text&#45;structure:Marginalia">
<ellipse fill="none" stroke="blue" cx="1300.24" cy="-453" rx="148.674" ry="18"/>
<text text-anchor="middle" x="1300.24" y="-449.3" font-family="Times,serif" font-size="14.00">owl:text&#45;structure:Marginalia</text>
</a>
</g>
</g>
<!-- Rhttp://www.w3.org/2002/07/owl#text&#45;structure:Marginalia&#45;&gt;Rhttp://www.w3.org/2002/07/owl#text&#45;structure:Note -->
<g id="edge30" class="edge"><title>Rhttp://www.w3.org/2002/07/owl#text&#45;structure:Marginalia&#45;&gt;Rhttp://www.w3.org/2002/07/owl#text&#45;structure:Note</title>
<path fill="none" stroke="black" d="M1195.29,-440.228C1131.36,-432.595 1059.32,-422.993 1045.24,-417 1035.34,-412.787 1035.78,-406.975 1026.24,-402 1012.77,-394.979 997.68,-389.134 982.945,-384.361"/>
<polygon fill="black" stroke="black" points="983.923,-381 973.335,-381.378 981.848,-387.685 983.923,-381"/>
<text text-anchor="middle" x="1102.74" y="-405.8" font-family="Times,serif" font-size="14.00">rdfs:subClassOf</text>
</g>
<!-- Rhttp://www.w3.org/2002/07/owl#text:WrittenText -->
<g id="node21" class="node"><title>Rhttp://www.w3.org/2002/07/owl#text:WrittenText</title>
<g id="a_node21"><a xlink:href="http://www.w3.org/2002/07/owl#text:WrittenText" xlink:title="owl:text:WrittenText">
<ellipse fill="none" stroke="blue" cx="1155.24" cy="-366" rx="106.681" ry="18"/>
<text text-anchor="middle" x="1155.24" y="-362.3" font-family="Times,serif" font-size="14.00">owl:text:WrittenText</text>
</a>
</g>
</g>
<!-- Rhttp://www.w3.org/2002/07/owl#text&#45;structure:Marginalia&#45;&gt;Rhttp://www.w3.org/2002/07/owl#text:WrittenText -->
<g id="edge29" class="edge"><title>Rhttp://www.w3.org/2002/07/owl#text&#45;structure:Marginalia&#45;&gt;Rhttp://www.w3.org/2002/07/owl#text:WrittenText</title>
<path fill="none" stroke="black" d="M1306.09,-434.981C1308.57,-424.406 1309.45,-411.135 1302.24,-402 1294.52,-392.231 1272.33,-384.895 1247.45,-379.531"/>
<polygon fill="black" stroke="black" points="1247.92,-376.056 1237.42,-377.498 1246.53,-382.916 1247.92,-376.056"/>
<text text-anchor="middle" x="1365.74" y="-405.8" font-family="Times,serif" font-size="14.00">rdfs:subClassOf</text>
</g>
<!-- Rhttp://www.w3.org/2002/07/owl#text&#45;structure:InterlinearNote -->
<g id="node22" class="node"><title>Rhttp://www.w3.org/2002/07/owl#text&#45;structure:InterlinearNote</title>
<g id="a_node22"><a xlink:href="http://www.w3.org/2002/07/owl#text-structure:InterlinearNote" xlink:title="owl:text&#45;structure:InterlinearNote">
<ellipse fill="none" stroke="blue" cx="698.239" cy="-453" rx="170.87" ry="18"/>
<text text-anchor="middle" x="698.239" y="-449.3" font-family="Times,serif" font-size="14.00">owl:text&#45;structure:InterlinearNote</text>
</a>
</g>
</g>
<!-- Rhttp://www.w3.org/2002/07/owl#text&#45;structure:InterlinearNote&#45;&gt;Rhttp://www.w3.org/2002/07/owl#text&#45;structure:Note -->
<g id="edge32" class="edge"><title>Rhttp://www.w3.org/2002/07/owl#text&#45;structure:InterlinearNote&#45;&gt;Rhttp://www.w3.org/2002/07/owl#text&#45;structure:Note</title>
<path fill="none" stroke="black" d="M654.841,-435.529C637.535,-426.543 624.072,-414.679 635.239,-402 646.003,-389.78 722.25,-380.698 791.732,-374.852"/>
<polygon fill="black" stroke="black" points="792.247,-378.321 801.926,-374.013 791.673,-371.345 792.247,-378.321"/>
<text text-anchor="middle" x="692.739" y="-405.8" font-family="Times,serif" font-size="14.00">rdfs:subClassOf</text>
</g>
<!-- Rhttp://www.w3.org/2002/07/owl#text&#45;structure:InterlinearNote&#45;&gt;Rhttp://www.w3.org/2002/07/owl#text:WrittenText -->
<g id="edge31" class="edge"><title>Rhttp://www.w3.org/2002/07/owl#text&#45;structure:InterlinearNote&#45;&gt;Rhttp://www.w3.org/2002/07/owl#text:WrittenText</title>
<path fill="none" stroke="black" d="M721.493,-435.142C738.736,-423.619 763.304,-409.18 787.239,-402 895.214,-369.609 928.178,-396.251 1040.24,-384 1050.02,-382.931 1060.25,-381.652 1070.39,-380.283"/>
<polygon fill="black" stroke="black" points="1071.07,-383.723 1080.49,-378.888 1070.11,-376.789 1071.07,-383.723"/>
<text text-anchor="middle" x="844.739" y="-405.8" font-family="Times,serif" font-size="14.00">rdfs:subClassOf</text>
</g>
<!-- Rhttp://www.w3.org/2002/07/owl#text&#45;structure:Gloss -->
<g id="node23" class="node"><title>Rhttp://www.w3.org/2002/07/owl#text&#45;structure:Gloss</title>
<g id="a_node23"><a xlink:href="http://www.w3.org/2002/07/owl#text-structure:Gloss" xlink:title="owl:text&#45;structure:Gloss">
<ellipse fill="none" stroke="blue" cx="1010.24" cy="-453" rx="123.478" ry="18"/>
<text text-anchor="middle" x="1010.24" y="-449.3" font-family="Times,serif" font-size="14.00">owl:text&#45;structure:Gloss</text>
</a>
</g>
</g>
<!-- Rhttp://www.w3.org/2002/07/owl#text&#45;structure:Gloss&#45;&gt;Rhttp://www.w3.org/2002/07/owl#text&#45;structure:Note -->
<g id="edge34" class="edge"><title>Rhttp://www.w3.org/2002/07/owl#text&#45;structure:Gloss&#45;&gt;Rhttp://www.w3.org/2002/07/owl#text&#45;structure:Note</title>
<path fill="none" stroke="black" d="M937.741,-438.191C927.374,-433.158 917.964,-426.311 911.239,-417 906.574,-410.54 905.125,-402.285 905.186,-394.353"/>
<polygon fill="black" stroke="black" points="908.683,-394.537 905.993,-384.289 901.705,-393.977 908.683,-394.537"/>
<text text-anchor="middle" x="968.739" y="-405.8" font-family="Times,serif" font-size="14.00">rdfs:subClassOf</text>
</g>
<!-- Rhttp://www.w3.org/2002/07/owl#text&#45;structure:Gloss&#45;&gt;Rhttp://www.w3.org/2002/07/owl#text:WrittenText -->
<g id="edge33" class="edge"><title>Rhttp://www.w3.org/2002/07/owl#text&#45;structure:Gloss&#45;&gt;Rhttp://www.w3.org/2002/07/owl#text:WrittenText</title>
<path fill="none" stroke="black" d="M1102.16,-440.866C1130.06,-435.475 1155.64,-427.768 1164.24,-417 1169.48,-410.433 1169.58,-401.83 1167.63,-393.615"/>
<polygon fill="black" stroke="black" points="1170.9,-392.355 1164.45,-383.95 1164.25,-394.543 1170.9,-392.355"/>
<text text-anchor="middle" x="1226.74" y="-405.8" font-family="Times,serif" font-size="14.00">rdfs:subClassOf</text>
</g>
<!-- Rhttp://www.w3.org/2002/07/owl#text&#45;structure:MarginalGloss -->
<g id="node24" class="node"><title>Rhttp://www.w3.org/2002/07/owl#text&#45;structure:MarginalGloss</title>
<g id="a_node24"><a xlink:href="http://www.w3.org/2002/07/owl#text-structure:MarginalGloss" xlink:title="owl:text&#45;structure:MarginalGloss">
<ellipse fill="none" stroke="blue" cx="1211.24" cy="-540" rx="165.971" ry="18"/>
<text text-anchor="middle" x="1211.24" y="-536.3" font-family="Times,serif" font-size="14.00">owl:text&#45;structure:MarginalGloss</text>
</a>
</g>
</g>
<!-- Rhttp://www.w3.org/2002/07/owl#text&#45;structure:MarginalGloss&#45;&gt;Rhttp://www.w3.org/2002/07/owl#text&#45;structure:Marginalia -->
<g id="edge36" class="edge"><title>Rhttp://www.w3.org/2002/07/owl#text&#45;structure:MarginalGloss&#45;&gt;Rhttp://www.w3.org/2002/07/owl#text&#45;structure:Marginalia</title>
<path fill="none" stroke="black" d="M1222.74,-521.748C1229.97,-511.595 1239.86,-498.855 1250.24,-489 1254.67,-484.793 1259.64,-480.706 1264.68,-476.898"/>
<polygon fill="black" stroke="black" points="1267.1,-479.472 1273.16,-470.781 1263,-473.796 1267.1,-479.472"/>
<text text-anchor="middle" x="1307.74" y="-492.8" font-family="Times,serif" font-size="14.00">rdfs:subClassOf</text>
</g>
<!-- Rhttp://www.w3.org/2002/07/owl#text&#45;structure:MarginalGloss&#45;&gt;Rhttp://www.w3.org/2002/07/owl#text&#45;structure:Gloss -->
<g id="edge35" class="edge"><title>Rhttp://www.w3.org/2002/07/owl#text&#45;structure:MarginalGloss&#45;&gt;Rhttp://www.w3.org/2002/07/owl#text&#45;structure:Gloss</title>
<path fill="none" stroke="black" d="M1165.57,-522.574C1150.41,-516.922 1133.51,-510.4 1118.24,-504 1096.62,-494.943 1072.96,-484.095 1053.3,-474.821"/>
<polygon fill="black" stroke="black" points="1054.54,-471.534 1044,-470.41 1051.54,-477.858 1054.54,-471.534"/>
<text text-anchor="middle" x="1175.74" y="-492.8" font-family="Times,serif" font-size="14.00">rdfs:subClassOf</text>
</g>
<!-- Rhttp://www.w3.org/2002/07/owl#text&#45;structure:InterlinearGloss -->
<g id="node25" class="node"><title>Rhttp://www.w3.org/2002/07/owl#text&#45;structure:InterlinearGloss</title>
<g id="a_node25"><a xlink:href="http://www.w3.org/2002/07/owl#text-structure:InterlinearGloss" xlink:title="owl:text&#45;structure:InterlinearGloss">
<ellipse fill="none" stroke="blue" cx="854.239" cy="-540" rx="173.569" ry="18"/>
<text text-anchor="middle" x="854.239" y="-536.3" font-family="Times,serif" font-size="14.00">owl:text&#45;structure:InterlinearGloss</text>
</a>
</g>
</g>
<!-- Rhttp://www.w3.org/2002/07/owl#text&#45;structure:InterlinearGloss&#45;&gt;Rhttp://www.w3.org/2002/07/owl#text&#45;structure:InterlinearNote -->
<g id="edge38" class="edge"><title>Rhttp://www.w3.org/2002/07/owl#text&#45;structure:InterlinearGloss&#45;&gt;Rhttp://www.w3.org/2002/07/owl#text&#45;structure:InterlinearNote</title>
<path fill="none" stroke="black" d="M811.932,-522.421C799.262,-517.005 785.487,-510.658 773.239,-504 758.352,-495.907 742.64,-485.715 729.466,-476.647"/>
<polygon fill="black" stroke="black" points="731.412,-473.737 721.208,-470.884 727.405,-479.478 731.412,-473.737"/>
<text text-anchor="middle" x="830.739" y="-492.8" font-family="Times,serif" font-size="14.00">rdfs:subClassOf</text>
</g>
<!-- Rhttp://www.w3.org/2002/07/owl#text&#45;structure:InterlinearGloss&#45;&gt;Rhttp://www.w3.org/2002/07/owl#text&#45;structure:Gloss -->
<g id="edge37" class="edge"><title>Rhttp://www.w3.org/2002/07/owl#text&#45;structure:InterlinearGloss&#45;&gt;Rhttp://www.w3.org/2002/07/owl#text&#45;structure:Gloss</title>
<path fill="none" stroke="black" d="M870.712,-521.864C881.674,-511.243 896.844,-497.964 912.239,-489 922.957,-482.76 934.974,-477.349 946.823,-472.773"/>
<polygon fill="black" stroke="black" points="948.096,-476.033 956.261,-469.281 945.667,-469.468 948.096,-476.033"/>
<text text-anchor="middle" x="969.739" y="-492.8" font-family="Times,serif" font-size="14.00">rdfs:subClassOf</text>
</g>
<!-- Rhttp://www.w3.org/2002/07/owl#text:Expression -->
<g id="node26" class="node"><title>Rhttp://www.w3.org/2002/07/owl#text:Expression</title>
<g id="a_node26"><a xlink:href="http://www.w3.org/2002/07/owl#text:Expression" xlink:title="owl:text:Expression">
<ellipse fill="none" stroke="blue" cx="911.239" cy="-714" rx="102.882" ry="18"/>
<text text-anchor="middle" x="911.239" y="-710.3" font-family="Times,serif" font-size="14.00">owl:text:Expression</text>
</a>
</g>
</g>
<!-- Rhttp://www.w3.org/2002/07/owl#text:Expression&#45;&gt;Rhttp://www.w3.org/2002/07/owl#text&#45;structure:Word -->
<g id="edge39" class="edge"><title>Rhttp://www.w3.org/2002/07/owl#text:Expression&#45;&gt;Rhttp://www.w3.org/2002/07/owl#text&#45;structure:Word</title>
<path fill="none" stroke="black" d="M1011.53,-710.011C1145.56,-705.424 1375.76,-695.314 1458.24,-678 1489.8,-671.375 1523.86,-658.967 1550.13,-648.169"/>
<polygon fill="black" stroke="black" points="1551.56,-651.365 1559.44,-644.278 1548.86,-644.907 1551.56,-651.365"/>
<text text-anchor="middle" x="1608.24" y="-666.8" font-family="Times,serif" font-size="14.00">owl:text&#45;structure:hasWord</text>
</g>
<!-- Rhttp://www.w3.org/2002/07/owl#text:Expression&#45;&gt;Rhttp://www.w3.org/2002/07/owl#text&#45;structure:Line -->
<g id="edge40" class="edge"><title>Rhttp://www.w3.org/2002/07/owl#text:Expression&#45;&gt;Rhttp://www.w3.org/2002/07/owl#text&#45;structure:Line</title>
<path fill="none" stroke="black" d="M877.042,-696.973C810.149,-665.623 662.077,-596.226 588.093,-561.553"/>
<polygon fill="black" stroke="black" points="589.559,-558.375 579.019,-557.3 586.589,-564.713 589.559,-558.375"/>
<text text-anchor="middle" x="859.739" y="-623.3" font-family="Times,serif" font-size="14.00">owl:text&#45;structure:hasLine</text>
</g>
<!-- Rhttp://www.w3.org/2002/07/owl#text:Expression&#45;&gt;Rhttp://www.w3.org/2000/01/rdf&#45;schema#Literal -->
<g id="edge41" class="edge"><title>Rhttp://www.w3.org/2002/07/owl#text:Expression&#45;&gt;Rhttp://www.w3.org/2000/01/rdf&#45;schema#Literal</title>
<path fill="none" stroke="black" d="M1006.51,-707.228C1148.7,-697.628 1402.78,-676.292 1430.24,-645 1476.27,-592.541 1372.89,-546.646 1412.24,-489 1424.62,-470.867 1439.23,-481.982 1458.24,-471 1480.42,-458.188 1479.77,-445.247 1503.24,-435 1520.79,-427.336 1828.84,-395.387 1844.24,-384 1871.57,-363.793 1852.69,-338.519 1877.24,-315 1885.45,-307.131 1895.7,-300.896 1906.15,-296.005"/>
<polygon fill="black" stroke="black" points="1907.54,-299.219 1915.33,-292.046 1904.76,-292.791 1907.54,-299.219"/>
<text text-anchor="middle" x="1537.24" y="-492.8" font-family="Times,serif" font-size="14.00">owl:text&#45;structure:hasLineNumber</text>
</g>
<!-- Rhttp://www.w3.org/2002/07/owl#text:Expression&#45;&gt;Rhttp://www.w3.org/2002/07/owl#text&#45;structure:Column -->
<g id="edge42" class="edge"><title>Rhttp://www.w3.org/2002/07/owl#text:Expression&#45;&gt;Rhttp://www.w3.org/2002/07/owl#text&#45;structure:Column</title>
<path fill="none" stroke="black" d="M832.898,-702.225C731.271,-686.445 549.881,-652.076 405.239,-591 338.445,-562.796 304.15,-566.406 267.239,-504 263.283,-497.31 261.723,-489.197 261.369,-481.47"/>
<polygon fill="black" stroke="black" points="264.87,-481.394 261.522,-471.343 257.871,-481.289 264.87,-481.394"/>
<text text-anchor="middle" x="512.739" y="-579.8" font-family="Times,serif" font-size="14.00">owl:text&#45;structure:hasColumn</text>
</g>
<!-- Rhttp://www.w3.org/2002/07/owl#text:Expression&#45;&gt;Rhttp://www.w3.org/2002/07/owl#text&#45;structure:Page -->
<g id="edge43" class="edge"><title>Rhttp://www.w3.org/2002/07/owl#text:Expression&#45;&gt;Rhttp://www.w3.org/2002/07/owl#text&#45;structure:Page</title>
<path fill="none" stroke="black" d="M808.304,-713.667C574.834,-713.815 25.2393,-705.891 25.2393,-628 25.2393,-628 25.2393,-628 25.2393,-452 25.2393,-423.518 49.2481,-402.191 73.1264,-388.024"/>
<polygon fill="black" stroke="black" points="74.8564,-391.066 81.873,-383.128 71.4374,-384.958 74.8564,-391.066"/>
<text text-anchor="middle" x="122.239" y="-536.3" font-family="Times,serif" font-size="14.00">owl:text&#45;structure:hasPage</text>
</g>
<!-- Rhttp://www.w3.org/2002/07/owl#text:SentenceExpression -->
<g id="node27" class="node"><title>Rhttp://www.w3.org/2002/07/owl#text:SentenceExpression</title>
<g id="a_node27"><a xlink:href="http://www.w3.org/2002/07/owl#text:SentenceExpression" xlink:title="owl:text:SentenceExpression">
<ellipse fill="none" stroke="blue" cx="2150.24" cy="-801" rx="145.674" ry="18"/>
<text text-anchor="middle" x="2150.24" y="-797.3" font-family="Times,serif" font-size="14.00">owl:text:SentenceExpression</text>
</a>
</g>
</g>
<!-- Rhttp://www.w3.org/2002/07/owl#text:SentenceExpression&#45;&gt;Rhttp://www.w3.org/2002/07/owl#text&#45;structure:Sentence -->
<g id="edge45" class="edge"><title>Rhttp://www.w3.org/2002/07/owl#text:SentenceExpression&#45;&gt;Rhttp://www.w3.org/2002/07/owl#text&#45;structure:Sentence</title>
<path fill="none" stroke="black" d="M2150.1,-782.938C2149.55,-733.642 2147.06,-593.415 2136.24,-576 2133.26,-571.204 2129.36,-566.999 2124.98,-563.327"/>
<polygon fill="black" stroke="black" points="2126.81,-560.329 2116.66,-557.282 2122.69,-565.992 2126.81,-560.329"/>
<text text-anchor="middle" x="2261.24" y="-666.8" font-family="Times,serif" font-size="14.00">owl:text&#45;structure:hasSentence</text>
</g>
<!-- Rhttp://www.w3.org/2002/07/owl#text:SentenceExpression&#45;&gt;Rhttp://www.w3.org/2002/07/owl#text&#45;structure:Paragraph -->
<g id="edge46" class="edge"><title>Rhttp://www.w3.org/2002/07/owl#text:SentenceExpression&#45;&gt;Rhttp://www.w3.org/2002/07/owl#text&#45;structure:Paragraph</title>
<path fill="none" stroke="black" d="M2235.55,-786.342C2304.87,-772.75 2391.24,-748.996 2391.24,-715 2391.24,-715 2391.24,-715 2391.24,-539 2391.24,-519.326 2386.57,-497.635 2381.98,-481.089"/>
<polygon fill="black" stroke="black" points="2385.21,-479.643 2379.03,-471.032 2378.49,-481.613 2385.21,-479.643"/>
<text text-anchor="middle" x="2508.24" y="-623.3" font-family="Times,serif" font-size="14.00">owl:text&#45;structure:hasParagraph</text>
</g>
<!-- Rhttp://www.w3.org/2002/07/owl#text:SentenceExpression&#45;&gt;Rhttp://www.w3.org/2002/07/owl#text&#45;structure:Prose -->
<g id="edge48" class="edge"><title>Rhttp://www.w3.org/2002/07/owl#text:SentenceExpression&#45;&gt;Rhttp://www.w3.org/2002/07/owl#text&#45;structure:Prose</title>
<path fill="none" stroke="black" d="M2008.99,-796.553C1783.21,-787.732 1356.84,-756.373 1263.24,-645 1252.95,-632.751 1254.35,-622.305 1263.24,-609 1271.46,-596.697 1372.72,-564.002 1386.24,-558 1420.4,-542.838 1426.24,-532.047 1462.24,-522 1500.11,-511.432 1611.89,-533.18 1638.24,-504 1643.72,-497.925 1644.9,-489.549 1644.2,-481.388"/>
<polygon fill="black" stroke="black" points="1647.62,-480.624 1642.48,-471.357 1640.72,-481.803 1647.62,-480.624"/>
<text text-anchor="middle" x="1363.24" y="-623.3" font-family="Times,serif" font-size="14.00">owl:text&#45;structure:hasProse</text>
</g>
<!-- Rhttp://www.w3.org/2002/07/owl#text:SentenceExpression&#45;&gt;Rhttp://www.w3.org/2002/07/owl#text&#45;structure:Section -->
<g id="edge47" class="edge"><title>Rhttp://www.w3.org/2002/07/owl#text:SentenceExpression&#45;&gt;Rhttp://www.w3.org/2002/07/owl#text&#45;structure:Section</title>
<path fill="none" stroke="black" d="M2272.64,-791.229C2421.53,-778.875 2653.24,-753.47 2653.24,-715 2653.24,-715 2653.24,-715 2653.24,-452 2653.24,-428.923 2656.49,-417.327 2639.24,-402 2624.15,-388.598 2585.22,-380.317 2543.96,-375.205"/>
<polygon fill="black" stroke="black" points="2544.35,-371.726 2534.01,-374.035 2543.53,-378.678 2544.35,-371.726"/>
<text text-anchor="middle" x="2759.74" y="-579.8" font-family="Times,serif" font-size="14.00">owl:text&#45;structure:hasSection</text>
</g>
<!-- Rhttp://www.w3.org/2002/07/owl#text:SentenceExpression&#45;&gt;Rhttp://www.w3.org/2002/07/owl#text:Expression -->
<g id="edge44" class="edge"><title>Rhttp://www.w3.org/2002/07/owl#text:SentenceExpression&#45;&gt;Rhttp://www.w3.org/2002/07/owl#text:Expression</title>
<path fill="none" stroke="black" d="M2004.85,-799.59C1756.22,-798.156 1259.53,-791.896 1087.24,-765 1045.11,-758.423 998.762,-744.994 964.211,-733.708"/>
<polygon fill="black" stroke="black" points="964.932,-730.26 954.339,-730.437 962.731,-736.905 964.932,-730.26"/>
<text text-anchor="middle" x="1144.74" y="-753.8" font-family="Times,serif" font-size="14.00">rdfs:subClassOf</text>
</g>
</g>
</svg>