<?xml version="1.0" encoding="UTF-8" standalone="no"?>
<!DOCTYPE svg PUBLIC "-//W3C//DTD SVG 1.1//EN"
 "http://www.w3.org/Graphics/SVG/1.1/DTD/svg11.dtd">
<!-- Generated by graphviz version 2.38.0 (20140413.2041)
 -->
<!-- Title: %3 Pages: 1 -->
<svg width="4144pt" height="587pt"
 viewBox="0.00 0.00 4144.00 587.00" xmlns="http://www.w3.org/2000/svg" xmlns:xlink="http://www.w3.org/1999/xlink">
<g id="graph0" class="graph" transform="scale(1 1) rotate(0) translate(4 583)">
<title>%3</title>
<polygon fill="white" stroke="none" points="-4,4 -4,-583 4140,-583 4140,4 -4,4"/>
<!-- Rhttp://www.w3.org/2002/07/owl#concept:Expression -->
<g id="node1" class="node"><title>Rhttp://www.w3.org/2002/07/owl#concept:Expression</title>
<g id="a_node1"><a xlink:href="http://www.w3.org/2002/07/owl#concept:Expression" xlink:title="concept:Expression">
<ellipse fill="none" stroke="blue" cx="1560" cy="-474" rx="121.578" ry="18"/>
<text text-anchor="middle" x="1560" y="-470.3" font-family="Times,serif" font-size="14.00">concept:Expression</text>
</a>
</g>
</g>
<!-- Rhttp://www.w3.org/2000/01/rdf&#45;schema#Literal -->
<g id="node2" class="node"><title>Rhttp://www.w3.org/2000/01/rdf&#45;schema#Literal</title>
<g id="a_node2"><a xlink:href="http://www.w3.org/2000/01/rdf-schema#Literal" xlink:title="rdfs:Literal">
<ellipse fill="none" stroke="brown" cx="2628" cy="-105" rx="63.8893" ry="18"/>
<text text-anchor="middle" x="2628" y="-101.3" font-family="Times,serif" font-size="14.00">rdfs:Literal</text>
</a>
</g>
</g>
<!-- Rhttp://www.w3.org/2002/07/owl#concept:Expression&#45;&gt;Rhttp://www.w3.org/2000/01/rdf&#45;schema#Literal -->
<g id="edge1" class="edge"><title>Rhttp://www.w3.org/2002/07/owl#concept:Expression&#45;&gt;Rhttp://www.w3.org/2000/01/rdf&#45;schema#Literal</title>
<path fill="none" stroke="blue" d="M1643.02,-460.79C1658.91,-458.86 1675.45,-457.13 1691,-456 2188.42,-419.851 2316.25,-482.46 2813,-438 2881.41,-431.877 3118,-456.682 3118,-388 3118,-388 3118,-388 3118,-191 3118,-149.031 2835.34,-121.781 2699.39,-111.102"/>
<polygon fill="blue" stroke="blue" points="2699.31,-107.585 2689.07,-110.301 2698.77,-114.564 2699.31,-107.585"/>
<text text-anchor="middle" x="3178" y="-275.3" font-family="Times,serif" font-size="14.00">text:hasTitle</text>
</g>
<!-- Rhttp://www.w3.org/2002/07/owl#concept:Expression&#45;&gt;Rhttp://www.w3.org/2000/01/rdf&#45;schema#Literal -->
<g id="edge6" class="edge"><title>Rhttp://www.w3.org/2002/07/owl#concept:Expression&#45;&gt;Rhttp://www.w3.org/2000/01/rdf&#45;schema#Literal</title>
<path fill="none" stroke="blue" d="M1643.01,-460.766C1658.91,-458.838 1675.45,-457.116 1691,-456 2254.5,-415.581 2399.17,-486.826 2962,-438 3031.96,-431.931 3274,-458.218 3274,-388 3274,-388 3274,-388 3274,-191 3274,-133.771 2870.33,-113.906 2701.18,-108.094"/>
<polygon fill="blue" stroke="blue" points="2701.23,-104.593 2691.12,-107.755 2700.99,-111.589 2701.23,-104.593"/>
<text text-anchor="middle" x="3400" y="-275.3" font-family="Times,serif" font-size="14.00">publish:hasPublicationNumber</text>
</g>
<!-- Rhttp://www.w3.org/2002/07/owl#concept:Expression&#45;&gt;Rhttp://www.w3.org/2000/01/rdf&#45;schema#Literal -->
<g id="edge14" class="edge"><title>Rhttp://www.w3.org/2002/07/owl#concept:Expression&#45;&gt;Rhttp://www.w3.org/2000/01/rdf&#45;schema#Literal</title>
<path fill="none" stroke="blue" d="M1642.66,-460.79C1658.67,-458.846 1675.33,-457.112 1691,-456 2321.91,-411.226 2482.72,-477.125 3114,-438 3213.98,-431.803 3562,-488.174 3562,-388 3562,-388 3562,-388 3562,-191 3562,-147.825 2920.67,-117.838 2700.88,-108.829"/>
<polygon fill="blue" stroke="blue" points="2700.87,-105.326 2690.73,-108.416 2700.58,-112.32 2700.87,-105.326"/>
<text text-anchor="middle" x="3733" y="-275.3" font-family="Times,serif" font-size="14.00">publish:hasNachlassPublicationDescription</text>
</g>
<!-- Rhttp://www.w3.org/2002/07/owl#infocar:Carrier -->
<g id="node3" class="node"><title>Rhttp://www.w3.org/2002/07/owl#infocar:Carrier</title>
<g id="a_node3"><a xlink:href="http://www.w3.org/2002/07/owl#infocar:Carrier" xlink:title="infocar:Carrier">
<ellipse fill="none" stroke="blue" cx="281" cy="-105" rx="99.3824" ry="18"/>
<text text-anchor="middle" x="281" y="-101.3" font-family="Times,serif" font-size="14.00">infocar:Carrier</text>
</a>
</g>
</g>
<!-- Rhttp://www.w3.org/2002/07/owl#concept:Expression&#45;&gt;Rhttp://www.w3.org/2002/07/owl#infocar:Carrier -->
<g id="edge2" class="edge"><title>Rhttp://www.w3.org/2002/07/owl#concept:Expression&#45;&gt;Rhttp://www.w3.org/2002/07/owl#infocar:Carrier</title>
<path fill="none" stroke="blue" d="M1438.56,-472.705C1071.73,-471.02 0,-459.941 0,-388 0,-388 0,-388 0,-191 0,-150.982 105.733,-128.075 187.484,-116.346"/>
<polygon fill="blue" stroke="blue" points="188.411,-119.75 197.831,-114.902 187.443,-112.817 188.411,-119.75"/>
<text text-anchor="middle" x="84.5" y="-275.3" font-family="Times,serif" font-size="14.00">infocar:isOnCarrier</text>
</g>
<!-- Rhttp://www.w3.org/2002/07/owl#infocar:Page -->
<g id="node4" class="node"><title>Rhttp://www.w3.org/2002/07/owl#infocar:Page</title>
<g id="a_node4"><a xlink:href="http://www.w3.org/2002/07/owl#infocar:Page" xlink:title="infocar:Page">
<ellipse fill="none" stroke="blue" cx="300" cy="-333" rx="87.9851" ry="18"/>
<text text-anchor="middle" x="300" y="-329.3" font-family="Times,serif" font-size="14.00">infocar:Page</text>
</a>
</g>
</g>
<!-- Rhttp://www.w3.org/2002/07/owl#concept:Expression&#45;&gt;Rhttp://www.w3.org/2002/07/owl#infocar:Page -->
<g id="edge3" class="edge"><title>Rhttp://www.w3.org/2002/07/owl#concept:Expression&#45;&gt;Rhttp://www.w3.org/2002/07/owl#infocar:Page</title>
<path fill="none" stroke="blue" d="M1438.61,-472.945C1151.41,-472.327 451.088,-467.758 410,-438 383.583,-418.868 407.563,-392.555 385,-369 378.363,-362.072 370.156,-356.467 361.482,-351.947"/>
<polygon fill="blue" stroke="blue" points="362.857,-348.726 352.32,-347.619 359.867,-355.055 362.857,-348.726"/>
<text text-anchor="middle" x="485.5" y="-426.8" font-family="Times,serif" font-size="14.00">infocar:isOnPage</text>
</g>
<!-- Rhttp://www.w3.org/2002/07/owl#publish:PublishingState -->
<g id="node5" class="node"><title>Rhttp://www.w3.org/2002/07/owl#publish:PublishingState</title>
<g id="a_node5"><a xlink:href="http://www.w3.org/2002/07/owl#publish:PublishingState" xlink:title="publish:PublishingState">
<ellipse fill="none" stroke="blue" cx="2673" cy="-387" rx="140.275" ry="18"/>
<text text-anchor="middle" x="2673" y="-383.3" font-family="Times,serif" font-size="14.00">publish:PublishingState</text>
</a>
</g>
</g>
<!-- Rhttp://www.w3.org/2002/07/owl#concept:Expression&#45;&gt;Rhttp://www.w3.org/2002/07/owl#publish:PublishingState -->
<g id="edge4" class="edge"><title>Rhttp://www.w3.org/2002/07/owl#concept:Expression&#45;&gt;Rhttp://www.w3.org/2002/07/owl#publish:PublishingState</title>
<path fill="none" stroke="blue" d="M1643.37,-460.817C1659.16,-458.897 1675.56,-457.165 1691,-456 1876.07,-442.037 2343.23,-470.261 2526,-438 2560.2,-431.964 2597.2,-419.343 2625.52,-408.293"/>
<polygon fill="blue" stroke="blue" points="2627.16,-411.408 2635.16,-404.463 2624.57,-404.903 2627.16,-411.408"/>
<text text-anchor="middle" x="2696.5" y="-426.8" font-family="Times,serif" font-size="14.00">publish:hasPublishingState</text>
</g>
<!-- Rhttp://www.w3.org/2002/07/owl#publish:Publication -->
<g id="node6" class="node"><title>Rhttp://www.w3.org/2002/07/owl#publish:Publication</title>
<g id="a_node6"><a xlink:href="http://www.w3.org/2002/07/owl#publish:Publication" xlink:title="publish:Publication">
<ellipse fill="none" stroke="blue" cx="1487" cy="-192" rx="119.679" ry="18"/>
<text text-anchor="middle" x="1487" y="-188.3" font-family="Times,serif" font-size="14.00">publish:Publication</text>
</a>
</g>
</g>
<!-- Rhttp://www.w3.org/2002/07/owl#concept:Expression&#45;&gt;Rhttp://www.w3.org/2002/07/owl#publish:Publication -->
<g id="edge5" class="edge"><title>Rhttp://www.w3.org/2002/07/owl#concept:Expression&#45;&gt;Rhttp://www.w3.org/2002/07/owl#publish:Publication</title>
<path fill="none" stroke="blue" d="M1439.92,-471.044C1203.01,-466.821 691.474,-455.772 613,-438 589.265,-432.625 425.36,-371.34 412,-351 334.409,-232.869 423.628,-271.194 613,-228 750.567,-196.622 1148.96,-192.356 1357.01,-192.375"/>
<polygon fill="blue" stroke="blue" points="1357.08,-195.875 1367.08,-192.379 1357.08,-188.875 1357.08,-195.875"/>
<text text-anchor="middle" x="508.5" y="-329.3" font-family="Times,serif" font-size="14.00">publish:hasPublication</text>
</g>
<!-- Rhttp://www.w3.org/2002/07/owl#concept:Expression&#45;&gt;Rhttp://www.w3.org/2002/07/owl#publish:Publication -->
<g id="edge7" class="edge"><title>Rhttp://www.w3.org/2002/07/owl#concept:Expression&#45;&gt;Rhttp://www.w3.org/2002/07/owl#publish:Publication</title>
<path fill="none" stroke="blue" d="M1439.55,-471.448C1269.32,-468.488 967.158,-460.209 860,-438 752.169,-415.651 690.725,-441.513 628,-351 582.527,-285.382 709.179,-259.716 860,-228 951.936,-208.667 1204.25,-199.502 1359.34,-195.576"/>
<polygon fill="blue" stroke="blue" points="1359.5,-199.074 1369.41,-195.325 1359.33,-192.076 1359.5,-199.074"/>
<text text-anchor="middle" x="740" y="-329.3" font-family="Times,serif" font-size="14.00">publish:hasLastPublication</text>
</g>
<!-- Rhttp://www.w3.org/2002/07/owl#concept:Expression&#45;&gt;Rhttp://www.w3.org/2002/07/owl#publish:Publication -->
<g id="edge8" class="edge"><title>Rhttp://www.w3.org/2002/07/owl#concept:Expression&#45;&gt;Rhttp://www.w3.org/2002/07/owl#publish:Publication</title>
<path fill="none" stroke="blue" d="M1440.6,-470.363C1262.7,-463.528 941.757,-438.995 875,-351 811.838,-267.744 1181.44,-220.914 1374.8,-202.393"/>
<polygon fill="blue" stroke="blue" points="1375.38,-205.854 1385.01,-201.426 1374.72,-198.885 1375.38,-205.854"/>
<text text-anchor="middle" x="1026.5" y="-329.3" font-family="Times,serif" font-size="14.00">publish:hasLastAuthorizedPublication</text>
</g>
<!-- Rhttp://www.w3.org/2002/07/owl#concept:Expression&#45;&gt;Rhttp://www.w3.org/2002/07/owl#publish:Publication -->
<g id="edge9" class="edge"><title>Rhttp://www.w3.org/2002/07/owl#concept:Expression&#45;&gt;Rhttp://www.w3.org/2002/07/owl#publish:Publication</title>
<path fill="none" stroke="blue" d="M1446.11,-467.682C1363.26,-457.129 1256.3,-428.194 1201,-351 1160.63,-294.639 1259.31,-237.873 1277,-228 1295.23,-217.829 1338.25,-209.82 1380.64,-204.045"/>
<polygon fill="blue" stroke="blue" points="1381.35,-207.481 1390.81,-202.699 1380.43,-200.542 1381.35,-207.481"/>
<text text-anchor="middle" x="1345.5" y="-329.3" font-family="Times,serif" font-size="14.00">publish:hasUnauthorizedPublication</text>
</g>
<!-- Rhttp://www.w3.org/2002/07/owl#concept:Expression&#45;&gt;Rhttp://www.w3.org/2002/07/owl#publish:Publication -->
<g id="edge10" class="edge"><title>Rhttp://www.w3.org/2002/07/owl#concept:Expression&#45;&gt;Rhttp://www.w3.org/2002/07/owl#publish:Publication</title>
<path fill="none" stroke="blue" d="M1552.91,-455.766C1536.37,-415.723 1496.15,-319.454 1490,-315 1457.44,-291.424 1336.97,-326.806 1310,-297 1272.83,-255.925 1346.05,-226.389 1409.31,-209.522"/>
<polygon fill="blue" stroke="blue" points="1410.55,-212.816 1419.36,-206.924 1408.8,-206.038 1410.55,-212.816"/>
<text text-anchor="middle" x="1661.5" y="-329.3" font-family="Times,serif" font-size="14.00">publish:hasUnauthorizedRepublication</text>
</g>
<!-- Rhttp://www.w3.org/2002/07/owl#publish:Webpage -->
<g id="node7" class="node"><title>Rhttp://www.w3.org/2002/07/owl#publish:Webpage</title>
<g id="a_node7"><a xlink:href="http://www.w3.org/2002/07/owl#publish:Webpage" xlink:title="publish:Webpage">
<ellipse fill="none" stroke="blue" cx="1780" cy="-387" rx="109.381" ry="18"/>
<text text-anchor="middle" x="1780" y="-383.3" font-family="Times,serif" font-size="14.00">publish:Webpage</text>
</a>
</g>
</g>
<!-- Rhttp://www.w3.org/2002/07/owl#concept:Expression&#45;&gt;Rhttp://www.w3.org/2002/07/owl#publish:Webpage -->
<g id="edge11" class="edge"><title>Rhttp://www.w3.org/2002/07/owl#concept:Expression&#45;&gt;Rhttp://www.w3.org/2002/07/owl#publish:Webpage</title>
<path fill="none" stroke="blue" d="M1601.38,-457.012C1637.75,-442.958 1690.8,-422.465 1729.63,-407.461"/>
<polygon fill="blue" stroke="blue" points="1731.11,-410.641 1739.18,-403.772 1728.59,-404.112 1731.11,-410.641"/>
<text text-anchor="middle" x="1792" y="-426.8" font-family="Times,serif" font-size="14.00">publish:isPublishedOnline</text>
</g>
<!-- Rhttp://www.w3.org/2002/07/owl#publish:PolyAuthorPublication -->
<g id="node8" class="node"><title>Rhttp://www.w3.org/2002/07/owl#publish:PolyAuthorPublication</title>
<g id="a_node8"><a xlink:href="http://www.w3.org/2002/07/owl#publish:PolyAuthorPublication" xlink:title="publish:PolyAuthorPublication">
<ellipse fill="none" stroke="blue" cx="2133" cy="-333" rx="170.87" ry="18"/>
<text text-anchor="middle" x="2133" y="-329.3" font-family="Times,serif" font-size="14.00">publish:PolyAuthorPublication</text>
</a>
</g>
</g>
<!-- Rhttp://www.w3.org/2002/07/owl#concept:Expression&#45;&gt;Rhttp://www.w3.org/2002/07/owl#publish:PolyAuthorPublication -->
<g id="edge12" class="edge"><title>Rhttp://www.w3.org/2002/07/owl#concept:Expression&#45;&gt;Rhttp://www.w3.org/2002/07/owl#publish:PolyAuthorPublication</title>
<path fill="none" stroke="blue" d="M1646.26,-461.249C1661.16,-459.378 1676.52,-457.551 1691,-456 1785.46,-445.884 1812.08,-461.992 1904,-438 1922.94,-433.057 2027.68,-384.023 2088.74,-355.084"/>
<polygon fill="blue" stroke="blue" points="2090.25,-358.243 2097.79,-350.794 2087.25,-351.918 2090.25,-358.243"/>
<text text-anchor="middle" x="2075" y="-426.8" font-family="Times,serif" font-size="14.00">publish:hasPolyAuthorPublication</text>
</g>
<!-- Rhttp://www.w3.org/2002/07/owl#publish:NachlassPublication -->
<g id="node9" class="node"><title>Rhttp://www.w3.org/2002/07/owl#publish:NachlassPublication</title>
<g id="a_node9"><a xlink:href="http://www.w3.org/2002/07/owl#publish:NachlassPublication" xlink:title="publish:NachlassPublication">
<ellipse fill="none" stroke="blue" cx="2327" cy="-387" rx="162.471" ry="18"/>
<text text-anchor="middle" x="2327" y="-383.3" font-family="Times,serif" font-size="14.00">publish:NachlassPublication</text>
</a>
</g>
</g>
<!-- Rhttp://www.w3.org/2002/07/owl#concept:Expression&#45;&gt;Rhttp://www.w3.org/2002/07/owl#publish:NachlassPublication -->
<g id="edge13" class="edge"><title>Rhttp://www.w3.org/2002/07/owl#concept:Expression&#45;&gt;Rhttp://www.w3.org/2002/07/owl#publish:NachlassPublication</title>
<path fill="none" stroke="blue" d="M1643.74,-460.931C1659.41,-459.013 1675.69,-457.252 1691,-456 1808.01,-446.435 2104.79,-465.202 2219,-438 2243.75,-432.105 2269.68,-420.312 2289.93,-409.659"/>
<polygon fill="blue" stroke="blue" points="2291.66,-412.698 2298.8,-404.87 2288.34,-406.538 2291.66,-412.698"/>
<text text-anchor="middle" x="2392.5" y="-426.8" font-family="Times,serif" font-size="14.00">publish:hasNachlassPublication</text>
</g>
<!-- Rhttp://www.w3.org/2002/07/owl#infocar:Page&#45;&gt;Rhttp://www.w3.org/2002/07/owl#infocar:Carrier -->
<g id="edge17" class="edge"><title>Rhttp://www.w3.org/2002/07/owl#infocar:Page&#45;&gt;Rhttp://www.w3.org/2002/07/owl#infocar:Carrier</title>
<path fill="none" stroke="green" d="M295.486,-314.757C291.064,-296.938 284.62,-268.245 282,-243 278.076,-205.197 278.661,-161.211 279.655,-133.488"/>
<polygon fill="green" stroke="green" points="283.157,-133.493 280.063,-123.36 276.163,-133.211 283.157,-133.493"/>
<text text-anchor="middle" x="339.5" y="-231.8" font-family="Times,serif" font-size="14.00">rdfs:subClassOf</text>
</g>
<!-- Rhttp://www.w3.org/2002/07/owl#event:State -->
<g id="node10" class="node"><title>Rhttp://www.w3.org/2002/07/owl#event:State</title>
<g id="a_node10"><a xlink:href="http://www.w3.org/2002/07/owl#event:State" xlink:title="event:State">
<ellipse fill="none" stroke="blue" cx="2673" cy="-279" rx="83.3857" ry="18"/>
<text text-anchor="middle" x="2673" y="-275.3" font-family="Times,serif" font-size="14.00">event:State</text>
</a>
</g>
</g>
<!-- Rhttp://www.w3.org/2002/07/owl#publish:PublishingState&#45;&gt;Rhttp://www.w3.org/2002/07/owl#event:State -->
<g id="edge15" class="edge"><title>Rhttp://www.w3.org/2002/07/owl#publish:PublishingState&#45;&gt;Rhttp://www.w3.org/2002/07/owl#event:State</title>
<path fill="none" stroke="green" d="M2673,-368.969C2673,-352.378 2673,-326.883 2673,-307.431"/>
<polygon fill="green" stroke="green" points="2676.5,-307.341 2673,-297.341 2669.5,-307.341 2676.5,-307.341"/>
<text text-anchor="middle" x="2730.5" y="-329.3" font-family="Times,serif" font-size="14.00">rdfs:subClassOf</text>
</g>
<!-- Rhttp://www.w3.org/2002/07/owl#publish:Publication&#45;&gt;Rhttp://www.w3.org/2000/01/rdf&#45;schema#Literal -->
<g id="edge20" class="edge"><title>Rhttp://www.w3.org/2002/07/owl#publish:Publication&#45;&gt;Rhttp://www.w3.org/2000/01/rdf&#45;schema#Literal</title>
<path fill="none" stroke="blue" d="M1605.55,-189.558C1818.64,-186.457 2258.29,-177.602 2410,-156 2437.21,-152.125 2443.25,-147.306 2470,-141 2502.68,-133.298 2539.27,-125.16 2569.01,-118.672"/>
<polygon fill="blue" stroke="blue" points="2569.79,-122.084 2578.81,-116.538 2568.3,-115.245 2569.79,-122.084"/>
<text text-anchor="middle" x="2542" y="-144.8" font-family="Times,serif" font-size="14.00">publish:hasTitle</text>
</g>
<!-- Rhttp://www.w3.org/2002/07/owl#publish:Publication&#45;&gt;Rhttp://www.w3.org/2000/01/rdf&#45;schema#Literal -->
<g id="edge22" class="edge"><title>Rhttp://www.w3.org/2002/07/owl#publish:Publication&#45;&gt;Rhttp://www.w3.org/2000/01/rdf&#45;schema#Literal</title>
<path fill="none" stroke="blue" d="M1587.12,-182.041C1655.15,-175.631 1747.13,-166.333 1828,-156 1871.71,-150.415 1882.16,-145.436 1926,-141 2154.43,-117.884 2426.29,-109.841 2554.35,-107.201"/>
<polygon fill="blue" stroke="blue" points="2554.51,-110.699 2564.43,-106.998 2554.36,-103.7 2554.51,-110.699"/>
<text text-anchor="middle" x="2023.5" y="-144.8" font-family="Times,serif" font-size="14.00">publish:hasDescription</text>
</g>
<!-- Rhttp://www.w3.org/2002/07/owl#publish:Publication&#45;&gt;Rhttp://www.w3.org/2000/01/rdf&#45;schema#Literal -->
<g id="edge24" class="edge"><title>Rhttp://www.w3.org/2002/07/owl#publish:Publication&#45;&gt;Rhttp://www.w3.org/2000/01/rdf&#45;schema#Literal</title>
<path fill="none" stroke="blue" d="M1603.74,-187.943C1773.51,-182.983 2073.53,-172.09 2121,-156 2132.21,-152.201 2131.82,-144.893 2143,-141 2216.81,-115.287 2437.57,-108.46 2554.1,-106.65"/>
<polygon fill="blue" stroke="blue" points="2554.41,-110.146 2564.36,-106.5 2554.31,-103.147 2554.41,-110.146"/>
<text text-anchor="middle" x="2274.5" y="-144.8" font-family="Times,serif" font-size="14.00">publish:hasPublisherDescription</text>
</g>
<!-- Rhttp://www.w3.org/2002/07/owl#publish:Publication&#45;&gt;Rhttp://www.w3.org/2002/07/owl#infocar:Carrier -->
<g id="edge18" class="edge"><title>Rhttp://www.w3.org/2002/07/owl#publish:Publication&#45;&gt;Rhttp://www.w3.org/2002/07/owl#infocar:Carrier</title>
<path fill="none" stroke="green" d="M1381.3,-183.55C1151.21,-167.334 607.608,-129.02 381.933,-113.114"/>
<polygon fill="green" stroke="green" points="381.976,-109.608 371.755,-112.397 381.484,-116.591 381.976,-109.608"/>
<text text-anchor="middle" x="1014.5" y="-144.8" font-family="Times,serif" font-size="14.00">rdfs:subClassOf</text>
</g>
<!-- Rhttp://www.w3.org/2000/01/rdf&#45;schema#frbroo:F5_Item -->
<g id="node12" class="node"><title>Rhttp://www.w3.org/2000/01/rdf&#45;schema#frbroo:F5_Item</title>
<g id="a_node12"><a xlink:href="http://www.w3.org/2000/01/rdf-schema#frbroo:F5_Item" xlink:title="frbroo:F5_Item">
<ellipse fill="none" stroke="purple" cx="1316" cy="-105" rx="102.882" ry="18"/>
<text text-anchor="middle" x="1316" y="-101.3" font-family="Times,serif" font-size="14.00">frbroo:F5_Item</text>
</a>
</g>
</g>
<!-- Rhttp://www.w3.org/2002/07/owl#publish:Publication&#45;&gt;Rhttp://www.w3.org/2000/01/rdf&#45;schema#frbroo:F5_Item -->
<g id="edge19" class="edge"><title>Rhttp://www.w3.org/2002/07/owl#publish:Publication&#45;&gt;Rhttp://www.w3.org/2000/01/rdf&#45;schema#frbroo:F5_Item</title>
<path fill="none" stroke="green" d="M1419.22,-177.13C1401.83,-171.971 1383.64,-165.081 1368,-156 1356.49,-149.32 1345.58,-139.572 1336.75,-130.453"/>
<polygon fill="green" stroke="green" points="1339.22,-127.973 1329.86,-123.023 1334.09,-132.734 1339.22,-127.973"/>
<text text-anchor="middle" x="1425.5" y="-144.8" font-family="Times,serif" font-size="14.00">rdfs:subClassOf</text>
</g>
<!-- Rhttp://www.w3.org/2001/XMLSchema#date -->
<g id="node13" class="node"><title>Rhttp://www.w3.org/2001/XMLSchema#date</title>
<g id="a_node13"><a xlink:href="http://www.w3.org/2001/XMLSchema#date" xlink:title="xsd:date">
<ellipse fill="none" stroke="purple" cx="1487" cy="-105" rx="50.0912" ry="18"/>
<text text-anchor="middle" x="1487" y="-101.3" font-family="Times,serif" font-size="14.00">xsd:date</text>
</a>
</g>
</g>
<!-- Rhttp://www.w3.org/2002/07/owl#publish:Publication&#45;&gt;Rhttp://www.w3.org/2001/XMLSchema#date -->
<g id="edge21" class="edge"><title>Rhttp://www.w3.org/2002/07/owl#publish:Publication&#45;&gt;Rhttp://www.w3.org/2001/XMLSchema#date</title>
<path fill="none" stroke="blue" d="M1487,-173.799C1487,-162.163 1487,-146.548 1487,-133.237"/>
<polygon fill="blue" stroke="blue" points="1490.5,-133.175 1487,-123.175 1483.5,-133.175 1490.5,-133.175"/>
<text text-anchor="middle" x="1559.5" y="-144.8" font-family="Times,serif" font-size="14.00">publish:hasDate</text>
</g>
<!-- Rhttp://www.w3.org/2002/07/owl#human:Agent -->
<g id="node14" class="node"><title>Rhttp://www.w3.org/2002/07/owl#human:Agent</title>
<g id="a_node14"><a xlink:href="http://www.w3.org/2002/07/owl#human:Agent" xlink:title="human:Agent">
<ellipse fill="none" stroke="blue" cx="1655" cy="-105" rx="87.1846" ry="18"/>
<text text-anchor="middle" x="1655" y="-101.3" font-family="Times,serif" font-size="14.00">human:Agent</text>
</a>
</g>
</g>
<!-- Rhttp://www.w3.org/2002/07/owl#publish:Publication&#45;&gt;Rhttp://www.w3.org/2002/07/owl#human:Agent -->
<g id="edge23" class="edge"><title>Rhttp://www.w3.org/2002/07/owl#publish:Publication&#45;&gt;Rhttp://www.w3.org/2002/07/owl#human:Agent</title>
<path fill="none" stroke="blue" d="M1583.28,-181.168C1601.24,-175.837 1618.8,-167.862 1633,-156 1640.12,-150.058 1645,-141.364 1648.33,-132.885"/>
<polygon fill="blue" stroke="blue" points="1651.71,-133.803 1651.56,-123.21 1645.07,-131.59 1651.71,-133.803"/>
<text text-anchor="middle" x="1734" y="-144.8" font-family="Times,serif" font-size="14.00">publish:hasPublisher</text>
</g>
<!-- Rhttp://www.w3.org/2002/07/owl#publish:ElectronicPublication -->
<g id="node16" class="node"><title>Rhttp://www.w3.org/2002/07/owl#publish:ElectronicPublication</title>
<g id="a_node16"><a xlink:href="http://www.w3.org/2002/07/owl#publish:ElectronicPublication" xlink:title="publish:ElectronicPublication">
<ellipse fill="none" stroke="blue" cx="1487" cy="-279" rx="167.87" ry="18"/>
<text text-anchor="middle" x="1487" y="-275.3" font-family="Times,serif" font-size="14.00">publish:ElectronicPublication</text>
</a>
</g>
</g>
<!-- Rhttp://www.w3.org/2002/07/owl#publish:Webpage&#45;&gt;Rhttp://www.w3.org/2002/07/owl#publish:ElectronicPublication -->
<g id="edge27" class="edge"><title>Rhttp://www.w3.org/2002/07/owl#publish:Webpage&#45;&gt;Rhttp://www.w3.org/2002/07/owl#publish:ElectronicPublication</title>
<path fill="none" stroke="green" d="M1805.57,-369.391C1811.39,-364.253 1816.8,-358.058 1820,-351 1826.61,-336.43 1830.71,-326.89 1820,-315 1818.22,-313.023 1709.55,-301.859 1616.84,-292.663"/>
<polygon fill="green" stroke="green" points="1617.07,-289.169 1606.77,-291.666 1616.38,-296.135 1617.07,-289.169"/>
<text text-anchor="middle" x="1884.5" y="-329.3" font-family="Times,serif" font-size="14.00">rdfs:subClassOf</text>
</g>
<!-- Rhttp://www.w3.org/2002/07/owl#publish:PolyAuthorPublication&#45;&gt;Rhttp://www.w3.org/2002/07/owl#publish:Publication -->
<g id="edge26" class="edge"><title>Rhttp://www.w3.org/2002/07/owl#publish:PolyAuthorPublication&#45;&gt;Rhttp://www.w3.org/2002/07/owl#publish:Publication</title>
<path fill="none" stroke="green" d="M2009.81,-320.49C1988.53,-318.591 1966.63,-316.692 1946,-315 1891.37,-310.519 1749.84,-319.811 1700,-297 1679.43,-287.583 1681.99,-274.718 1664,-261 1640.41,-243.02 1633.3,-239.595 1606,-228 1590.26,-221.314 1572.83,-215.408 1556.28,-210.442"/>
<polygon fill="green" stroke="green" points="1557.24,-207.075 1546.66,-207.627 1555.27,-213.793 1557.24,-207.075"/>
<text text-anchor="middle" x="1757.5" y="-275.3" font-family="Times,serif" font-size="14.00">rdfs:subClassOf</text>
</g>
<!-- Rhttp://www.w3.org/2002/07/owl#publish:NachlassPublication&#45;&gt;Rhttp://www.w3.org/2002/07/owl#publish:Publication -->
<g id="edge29" class="edge"><title>Rhttp://www.w3.org/2002/07/owl#publish:NachlassPublication&#45;&gt;Rhttp://www.w3.org/2002/07/owl#publish:Publication</title>
<path fill="none" stroke="green" d="M2413.71,-371.709C2423.57,-366.668 2432.42,-359.945 2439,-351 2449.29,-337.004 2431.02,-261.927 2430,-261 2371.21,-207.442 1860.93,-196.004 1616.49,-193.607"/>
<polygon fill="green" stroke="green" points="1616.52,-190.107 1606.48,-193.513 1616.45,-197.107 1616.52,-190.107"/>
<text text-anchor="middle" x="2496.5" y="-275.3" font-family="Times,serif" font-size="14.00">rdfs:subClassOf</text>
</g>
<!-- Rhttp://www.w3.org/2002/07/owl#infocar:NachlassElement -->
<g id="node17" class="node"><title>Rhttp://www.w3.org/2002/07/owl#infocar:NachlassElement</title>
<g id="a_node17"><a xlink:href="http://www.w3.org/2002/07/owl#infocar:NachlassElement" xlink:title="infocar:NachlassElement">
<ellipse fill="none" stroke="blue" cx="2273" cy="-279" rx="147.574" ry="18"/>
<text text-anchor="middle" x="2273" y="-275.3" font-family="Times,serif" font-size="14.00">infocar:NachlassElement</text>
</a>
</g>
</g>
<!-- Rhttp://www.w3.org/2002/07/owl#publish:NachlassPublication&#45;&gt;Rhttp://www.w3.org/2002/07/owl#infocar:NachlassElement -->
<g id="edge30" class="edge"><title>Rhttp://www.w3.org/2002/07/owl#publish:NachlassPublication&#45;&gt;Rhttp://www.w3.org/2002/07/owl#infocar:NachlassElement</title>
<path fill="none" stroke="green" d="M2323.89,-368.793C2320.68,-353.856 2314.76,-332.017 2305,-315 2302.98,-311.484 2300.56,-308.027 2297.96,-304.735"/>
<polygon fill="green" stroke="green" points="2300.44,-302.252 2291.27,-296.955 2295.14,-306.818 2300.44,-302.252"/>
<text text-anchor="middle" x="2377.5" y="-329.3" font-family="Times,serif" font-size="14.00">rdfs:subClassOf</text>
</g>
<!-- Rhttp://www.w3.org/2002/07/owl#publish:Unpublished -->
<g id="node11" class="node"><title>Rhttp://www.w3.org/2002/07/owl#publish:Unpublished</title>
<g id="a_node11"><a xlink:href="http://www.w3.org/2002/07/owl#publish:Unpublished" xlink:title="publish:Unpublished">
<ellipse fill="none" stroke="blue" cx="3595" cy="-474" rx="125.378" ry="18"/>
<text text-anchor="middle" x="3595" y="-470.3" font-family="Times,serif" font-size="14.00">publish:Unpublished</text>
</a>
</g>
</g>
<!-- Rhttp://www.w3.org/2002/07/owl#publish:Unpublished&#45;&gt;Rhttp://www.w3.org/2002/07/owl#publish:PublishingState -->
<g id="edge16" class="edge"><title>Rhttp://www.w3.org/2002/07/owl#publish:Unpublished&#45;&gt;Rhttp://www.w3.org/2002/07/owl#publish:PublishingState</title>
<path fill="none" stroke="green" d="M3492.36,-463.538C3320.76,-447.718 2976.47,-415.977 2793.59,-399.117"/>
<polygon fill="green" stroke="green" points="2793.67,-395.61 2783.39,-398.177 2793.03,-402.58 2793.67,-395.61"/>
<text text-anchor="middle" x="3247.5" y="-426.8" font-family="Times,serif" font-size="14.00">rdfs:subClassOf</text>
</g>
<!-- Rhttp://www.w3.org/2002/07/owl#publish:Publisher -->
<g id="node15" class="node"><title>Rhttp://www.w3.org/2002/07/owl#publish:Publisher</title>
<g id="a_node15"><a xlink:href="http://www.w3.org/2002/07/owl#publish:Publisher" xlink:title="publish:Publisher">
<ellipse fill="none" stroke="blue" cx="1655" cy="-18" rx="111.28" ry="18"/>
<text text-anchor="middle" x="1655" y="-14.3" font-family="Times,serif" font-size="14.00">publish:Publisher</text>
</a>
</g>
</g>
<!-- Rhttp://www.w3.org/2002/07/owl#human:Agent&#45;&gt;Rhttp://www.w3.org/2002/07/owl#publish:Publisher -->
<g id="edge25" class="edge"><title>Rhttp://www.w3.org/2002/07/owl#human:Agent&#45;&gt;Rhttp://www.w3.org/2002/07/owl#publish:Publisher</title>
<path fill="none" stroke="blue" d="M1655,-86.799C1655,-75.1626 1655,-59.5479 1655,-46.2368"/>
<polygon fill="blue" stroke="blue" points="1658.5,-46.1754 1655,-36.1754 1651.5,-46.1755 1658.5,-46.1754"/>
<text text-anchor="middle" x="1720.5" y="-57.8" font-family="Times,serif" font-size="14.00">human:agentHasRole</text>
</g>
<!-- Rhttp://www.w3.org/2002/07/owl#publish:ElectronicPublication&#45;&gt;Rhttp://www.w3.org/2002/07/owl#publish:Publication -->
<g id="edge28" class="edge"><title>Rhttp://www.w3.org/2002/07/owl#publish:ElectronicPublication&#45;&gt;Rhttp://www.w3.org/2002/07/owl#publish:Publication</title>
<path fill="none" stroke="green" d="M1487,-260.799C1487,-249.163 1487,-233.548 1487,-220.237"/>
<polygon fill="green" stroke="green" points="1490.5,-220.175 1487,-210.175 1483.5,-220.175 1490.5,-220.175"/>
<text text-anchor="middle" x="1544.5" y="-231.8" font-family="Times,serif" font-size="14.00">rdfs:subClassOf</text>
</g>
<!-- Rhttp://www.w3.org/2002/07/owl#publish:Expression -->
<g id="node18" class="node"><title>Rhttp://www.w3.org/2002/07/owl#publish:Expression</title>
<g id="a_node18"><a xlink:href="http://www.w3.org/2002/07/owl#publish:Expression" xlink:title="publish:Expression">
<ellipse fill="none" stroke="blue" cx="1777" cy="-561" rx="118.079" ry="18"/>
<text text-anchor="middle" x="1777" y="-557.3" font-family="Times,serif" font-size="14.00">publish:Expression</text>
</a>
</g>
</g>
<!-- Rhttp://www.w3.org/2002/07/owl#publish:Expression&#45;&gt;Rhttp://www.w3.org/2002/07/owl#concept:Expression -->
<g id="edge31" class="edge"><title>Rhttp://www.w3.org/2002/07/owl#publish:Expression&#45;&gt;Rhttp://www.w3.org/2002/07/owl#concept:Expression</title>
<path fill="none" stroke="green" d="M1736.18,-544.012C1700.53,-530.047 1648.65,-509.723 1610.41,-494.746"/>
<polygon fill="green" stroke="green" points="1611.59,-491.449 1601,-491.06 1609.04,-497.967 1611.59,-491.449"/>
<text text-anchor="middle" x="1739.5" y="-513.8" font-family="Times,serif" font-size="14.00">rdfs:subClassOf</text>
</g>
<!-- Rhttp://www.w3.org/2002/07/owl#publish:Expression&#45;&gt;Rhttp://www.w3.org/2002/07/owl#publish:Publication -->
<g id="edge33" class="edge"><title>Rhttp://www.w3.org/2002/07/owl#publish:Expression&#45;&gt;Rhttp://www.w3.org/2002/07/owl#publish:Publication</title>
<path fill="none" stroke="blue" d="M1658.89,-559.804C1292.08,-558.426 197,-548.182 197,-475 197,-475 197,-475 197,-278 197,-236.071 236.867,-240.141 277,-228 378.045,-197.433 1065.88,-193.288 1357.14,-192.919"/>
<polygon fill="blue" stroke="blue" points="1357.33,-196.418 1367.33,-192.907 1357.33,-189.418 1357.33,-196.418"/>
<text text-anchor="middle" x="289" y="-383.3" font-family="Times,serif" font-size="14.00">publish:isPublishedIn</text>
</g>
<!-- Rhttp://www.w3.org/2000/01/rdf&#45;schema#frbroo:F24_Publication_Expression -->
<g id="node19" class="node"><title>Rhttp://www.w3.org/2000/01/rdf&#45;schema#frbroo:F24_Publication_Expression</title>
<g id="a_node19"><a xlink:href="http://www.w3.org/2000/01/rdf-schema#frbroo:F24_Publication_Expression" xlink:title="frbroo:F24_Publication_Expression">
<ellipse fill="none" stroke="purple" cx="1896" cy="-474" rx="196.065" ry="18"/>
<text text-anchor="middle" x="1896" y="-470.3" font-family="Times,serif" font-size="14.00">frbroo:F24_Publication_Expression</text>
</a>
</g>
</g>
<!-- Rhttp://www.w3.org/2002/07/owl#publish:Expression&#45;&gt;Rhttp://www.w3.org/2000/01/rdf&#45;schema#frbroo:F24_Publication_Expression -->
<g id="edge32" class="edge"><title>Rhttp://www.w3.org/2002/07/owl#publish:Expression&#45;&gt;Rhttp://www.w3.org/2000/01/rdf&#45;schema#frbroo:F24_Publication_Expression</title>
<path fill="none" stroke="green" d="M1800.51,-543.207C1818.65,-530.252 1843.93,-512.194 1863.92,-497.913"/>
<polygon fill="green" stroke="green" points="1866.03,-500.71 1872.13,-492.049 1861.96,-495.014 1866.03,-500.71"/>
<text text-anchor="middle" x="1901.5" y="-513.8" font-family="Times,serif" font-size="14.00">rdfs:subClassOf</text>
</g>
<!-- Rhttp://www.w3.org/2002/07/owl#human:Person -->
<g id="node20" class="node"><title>Rhttp://www.w3.org/2002/07/owl#human:Person</title>
<g id="a_node20"><a xlink:href="http://www.w3.org/2002/07/owl#human:Person" xlink:title="human:Person">
<ellipse fill="none" stroke="blue" cx="3928" cy="-474" rx="96.3833" ry="18"/>
<text text-anchor="middle" x="3928" y="-470.3" font-family="Times,serif" font-size="14.00">human:Person</text>
</a>
</g>
</g>
<!-- Rhttp://www.w3.org/2002/07/owl#publish:Expression&#45;&gt;Rhttp://www.w3.org/2002/07/owl#human:Person -->
<g id="edge34" class="edge"><title>Rhttp://www.w3.org/2002/07/owl#publish:Expression&#45;&gt;Rhttp://www.w3.org/2002/07/owl#human:Person</title>
<path fill="none" stroke="blue" d="M1893.71,-557.985C2196.74,-552.309 3033.42,-533.8 3729,-492 3763.5,-489.927 3801.31,-486.89 3834.62,-483.955"/>
<polygon fill="blue" stroke="blue" points="3835.15,-487.422 3844.8,-483.049 3834.53,-480.449 3835.15,-487.422"/>
<text text-anchor="middle" x="3444.5" y="-513.8" font-family="Times,serif" font-size="14.00">publish:hasRedactor</text>
</g>
<!-- Rhttp://www.w3.org/2002/07/owl#publish:Redactor -->
<g id="node24" class="node"><title>Rhttp://www.w3.org/2002/07/owl#publish:Redactor</title>
<g id="a_node24"><a xlink:href="http://www.w3.org/2002/07/owl#publish:Redactor" xlink:title="publish:Redactor">
<ellipse fill="none" stroke="blue" cx="3986" cy="-387" rx="109.381" ry="18"/>
<text text-anchor="middle" x="3986" y="-383.3" font-family="Times,serif" font-size="14.00">publish:Redactor</text>
</a>
</g>
</g>
<!-- Rhttp://www.w3.org/2002/07/owl#human:Person&#45;&gt;Rhttp://www.w3.org/2002/07/owl#publish:Redactor -->
<g id="edge42" class="edge"><title>Rhttp://www.w3.org/2002/07/owl#human:Person&#45;&gt;Rhttp://www.w3.org/2002/07/owl#publish:Redactor</title>
<path fill="none" stroke="blue" d="M3939.74,-455.799C3947.99,-443.702 3959.18,-427.305 3968.49,-413.667"/>
<polygon fill="blue" stroke="blue" points="3971.53,-415.408 3974.28,-405.175 3965.75,-411.463 3971.53,-415.408"/>
<text text-anchor="middle" x="4030.5" y="-426.8" font-family="Times,serif" font-size="14.00">human:hasRole</text>
</g>
<!-- Rhttp://www.w3.org/2002/07/owl#publish:PrintedPublication -->
<g id="node21" class="node"><title>Rhttp://www.w3.org/2002/07/owl#publish:PrintedPublication</title>
<g id="a_node21"><a xlink:href="http://www.w3.org/2002/07/owl#publish:PrintedPublication" xlink:title="publish:PrintedPublication">
<ellipse fill="none" stroke="blue" cx="2928" cy="-279" rx="154.073" ry="18"/>
<text text-anchor="middle" x="2928" y="-275.3" font-family="Times,serif" font-size="14.00">publish:PrintedPublication</text>
</a>
</g>
</g>
<!-- Rhttp://www.w3.org/2002/07/owl#publish:PrintedPublication&#45;&gt;Rhttp://www.w3.org/2000/01/rdf&#45;schema#Literal -->
<g id="edge37" class="edge"><title>Rhttp://www.w3.org/2002/07/owl#publish:PrintedPublication&#45;&gt;Rhttp://www.w3.org/2000/01/rdf&#45;schema#Literal</title>
<path fill="none" stroke="blue" d="M2820.24,-266.066C2747.71,-255.658 2661.07,-237.795 2637,-210 2618.89,-189.092 2619.18,-156.148 2622.36,-132.951"/>
<polygon fill="blue" stroke="blue" points="2625.82,-133.49 2623.97,-123.058 2618.91,-132.365 2625.82,-133.49"/>
<text text-anchor="middle" x="2760" y="-188.3" font-family="Times,serif" font-size="14.00">publish:hasPrinterDescription</text>
</g>
<!-- Rhttp://www.w3.org/2002/07/owl#publish:PrintedPublication&#45;&gt;Rhttp://www.w3.org/2002/07/owl#publish:Publication -->
<g id="edge36" class="edge"><title>Rhttp://www.w3.org/2002/07/owl#publish:PrintedPublication&#45;&gt;Rhttp://www.w3.org/2002/07/owl#publish:Publication</title>
<path fill="none" stroke="green" d="M2819.77,-266.155C2801.5,-264.315 2782.72,-262.523 2765,-261 2646.94,-250.853 2612.89,-275.711 2499,-243 2485.43,-239.103 2484.63,-231.68 2471,-228 2390.73,-206.33 1864.15,-197.383 1615.98,-194.336"/>
<polygon fill="green" stroke="green" points="1615.87,-190.834 1605.83,-194.213 1615.78,-197.834 1615.87,-190.834"/>
<text text-anchor="middle" x="2556.5" y="-231.8" font-family="Times,serif" font-size="14.00">rdfs:subClassOf</text>
</g>
<!-- Rhttp://www.w3.org/2002/07/owl#infocar:Print -->
<g id="node22" class="node"><title>Rhttp://www.w3.org/2002/07/owl#infocar:Print</title>
<g id="a_node22"><a xlink:href="http://www.w3.org/2002/07/owl#infocar:Print" xlink:title="infocar:Print">
<ellipse fill="none" stroke="blue" cx="2981" cy="-192" rx="89.0842" ry="18"/>
<text text-anchor="middle" x="2981" y="-188.3" font-family="Times,serif" font-size="14.00">infocar:Print</text>
</a>
</g>
</g>
<!-- Rhttp://www.w3.org/2002/07/owl#publish:PrintedPublication&#45;&gt;Rhttp://www.w3.org/2002/07/owl#infocar:Print -->
<g id="edge35" class="edge"><title>Rhttp://www.w3.org/2002/07/owl#publish:PrintedPublication&#45;&gt;Rhttp://www.w3.org/2002/07/owl#infocar:Print</title>
<path fill="none" stroke="green" d="M2938.73,-260.799C2946.32,-248.622 2956.63,-232.089 2965.16,-218.398"/>
<polygon fill="green" stroke="green" points="2968.15,-220.223 2970.47,-209.885 2962.21,-216.519 2968.15,-220.223"/>
<text text-anchor="middle" x="3015.5" y="-231.8" font-family="Times,serif" font-size="14.00">rdfs:subClassOf</text>
</g>
<!-- Rhttp://www.w3.org/2002/07/owl#publish:FirstPublication -->
<g id="node23" class="node"><title>Rhttp://www.w3.org/2002/07/owl#publish:FirstPublication</title>
<g id="a_node23"><a xlink:href="http://www.w3.org/2002/07/owl#publish:FirstPublication" xlink:title="publish:FirstPublication">
<ellipse fill="none" stroke="blue" cx="1966" cy="-279" rx="141.875" ry="18"/>
<text text-anchor="middle" x="1966" y="-275.3" font-family="Times,serif" font-size="14.00">publish:FirstPublication</text>
</a>
</g>
</g>
<!-- Rhttp://www.w3.org/2002/07/owl#publish:FirstPublication&#45;&gt;Rhttp://www.w3.org/2002/07/owl#publish:Publication -->
<g id="edge38" class="edge"><title>Rhttp://www.w3.org/2002/07/owl#publish:FirstPublication&#45;&gt;Rhttp://www.w3.org/2002/07/owl#publish:Publication</title>
<path fill="none" stroke="green" d="M1893.54,-263.513C1841.22,-253.2 1768.84,-239.237 1705,-228 1663.24,-220.649 1616.86,-213.116 1577.66,-206.93"/>
<polygon fill="green" stroke="green" points="1578.01,-203.443 1567.59,-205.347 1576.93,-210.358 1578.01,-203.443"/>
<text text-anchor="middle" x="1842.5" y="-231.8" font-family="Times,serif" font-size="14.00">rdfs:subClassOf</text>
</g>
<!-- Rhttp://www.w3.org/2002/07/owl#textedit:Editor -->
<g id="node25" class="node"><title>Rhttp://www.w3.org/2002/07/owl#textedit:Editor</title>
<g id="a_node25"><a xlink:href="http://www.w3.org/2002/07/owl#textedit:Editor" xlink:title="textedit:Editor">
<ellipse fill="none" stroke="blue" cx="4021" cy="-279" rx="98.5829" ry="18"/>
<text text-anchor="middle" x="4021" y="-275.3" font-family="Times,serif" font-size="14.00">textedit:Editor</text>
</a>
</g>
</g>
<!-- Rhttp://www.w3.org/2002/07/owl#publish:Redactor&#45;&gt;Rhttp://www.w3.org/2002/07/owl#textedit:Editor -->
<g id="edge39" class="edge"><title>Rhttp://www.w3.org/2002/07/owl#publish:Redactor&#45;&gt;Rhttp://www.w3.org/2002/07/owl#textedit:Editor</title>
<path fill="none" stroke="green" d="M3991.62,-368.969C3997.19,-352.125 4005.78,-326.102 4012.24,-306.544"/>
<polygon fill="green" stroke="green" points="4015.58,-307.582 4015.39,-296.988 4008.93,-305.387 4015.58,-307.582"/>
<text text-anchor="middle" x="4066.5" y="-329.3" font-family="Times,serif" font-size="14.00">rdfs:subClassOf</text>
</g>
<!-- Rhttp://www.w3.org/2002/07/owl#human:Creator -->
<g id="node26" class="node"><title>Rhttp://www.w3.org/2002/07/owl#human:Creator</title>
<g id="a_node26"><a xlink:href="http://www.w3.org/2002/07/owl#human:Creator" xlink:title="human:Creator">
<ellipse fill="none" stroke="blue" cx="4021" cy="-192" rx="100.983" ry="18"/>
<text text-anchor="middle" x="4021" y="-188.3" font-family="Times,serif" font-size="14.00">human:Creator</text>
</a>
</g>
</g>
<!-- Rhttp://www.w3.org/2002/07/owl#textedit:Editor&#45;&gt;Rhttp://www.w3.org/2002/07/owl#human:Creator -->
<g id="edge40" class="edge"><title>Rhttp://www.w3.org/2002/07/owl#textedit:Editor&#45;&gt;Rhttp://www.w3.org/2002/07/owl#human:Creator</title>
<path fill="none" stroke="green" d="M4021,-260.799C4021,-249.163 4021,-233.548 4021,-220.237"/>
<polygon fill="green" stroke="green" points="4024.5,-220.175 4021,-210.175 4017.5,-220.175 4024.5,-220.175"/>
<text text-anchor="middle" x="4078.5" y="-231.8" font-family="Times,serif" font-size="14.00">rdfs:subClassOf</text>
</g>
<!-- Rhttp://www.w3.org/2002/07/owl#human:Role -->
<g id="node27" class="node"><title>Rhttp://www.w3.org/2002/07/owl#human:Role</title>
<g id="a_node27"><a xlink:href="http://www.w3.org/2002/07/owl#human:Role" xlink:title="human:Role">
<ellipse fill="none" stroke="blue" cx="4021" cy="-105" rx="85.2851" ry="18"/>
<text text-anchor="middle" x="4021" y="-101.3" font-family="Times,serif" font-size="14.00">human:Role</text>
</a>
</g>
</g>
<!-- Rhttp://www.w3.org/2002/07/owl#human:Creator&#45;&gt;Rhttp://www.w3.org/2002/07/owl#human:Role -->
<g id="edge41" class="edge"><title>Rhttp://www.w3.org/2002/07/owl#human:Creator&#45;&gt;Rhttp://www.w3.org/2002/07/owl#human:Role</title>
<path fill="none" stroke="green" d="M4021,-173.799C4021,-162.163 4021,-146.548 4021,-133.237"/>
<polygon fill="green" stroke="green" points="4024.5,-133.175 4021,-123.175 4017.5,-133.175 4024.5,-133.175"/>
<text text-anchor="middle" x="4078.5" y="-144.8" font-family="Times,serif" font-size="14.00">rdfs:subClassOf</text>
</g>
</g>
</svg>