<?xml version="1.0" encoding="UTF-8" standalone="no"?>
<!DOCTYPE svg PUBLIC "-//W3C//DTD SVG 1.1//EN"
 "http://www.w3.org/Graphics/SVG/1.1/DTD/svg11.dtd">
<!-- Generated by graphviz version 2.38.0 (20140413.2041)
 -->
<!-- Title: %3 Pages: 1 -->
<svg width="2287pt" height="479pt"
 viewBox="0.00 0.00 2286.79 479.00" xmlns="http://www.w3.org/2000/svg" xmlns:xlink="http://www.w3.org/1999/xlink">
<g id="graph0" class="graph" transform="scale(1 1) rotate(0) translate(4 475)">
<title>%3</title>
<polygon fill="white" stroke="none" points="-4,4 -4,-475 2282.79,-475 2282.79,4 -4,4"/>
<!-- Rhttp://www.w3.org/2002/07/owl#event:Event -->
<g id="node1" class="node"><title>Rhttp://www.w3.org/2002/07/owl#event:Event</title>
<g id="a_node1"><a xlink:href="http://www.w3.org/2002/07/owl#event:Event" xlink:title="event:Event">
<ellipse fill="none" stroke="blue" cx="979.791" cy="-192" rx="85.5853" ry="18"/>
<text text-anchor="middle" x="979.791" y="-188.3" font-family="Times,serif" font-size="14.00">event:Event</text>
</a>
</g>
</g>
<!-- Rhttp://www.w3.org/2002/07/owl#physical:Space -->
<g id="node2" class="node"><title>Rhttp://www.w3.org/2002/07/owl#physical:Space</title>
<g id="a_node2"><a xlink:href="http://www.w3.org/2002/07/owl#physical:Space" xlink:title="physical:Space">
<ellipse fill="none" stroke="blue" cx="98.7912" cy="-105" rx="98.5829" ry="18"/>
<text text-anchor="middle" x="98.7912" y="-101.3" font-family="Times,serif" font-size="14.00">physical:Space</text>
</a>
</g>
</g>
<!-- Rhttp://www.w3.org/2002/07/owl#event:Event&#45;&gt;Rhttp://www.w3.org/2002/07/owl#physical:Space -->
<g id="edge1" class="edge"><title>Rhttp://www.w3.org/2002/07/owl#event:Event&#45;&gt;Rhttp://www.w3.org/2002/07/owl#physical:Space</title>
<path fill="none" stroke="green" d="M909.326,-181.693C884.261,-178.733 855.808,-175.771 829.791,-174 808.141,-172.527 63.9578,-171.52 48.7912,-156 39.7286,-146.726 46.6563,-136.593 57.9219,-127.889"/>
<polygon fill="green" stroke="green" points="60.0341,-130.684 66.271,-122.119 56.0545,-124.925 60.0341,-130.684"/>
<text text-anchor="middle" x="106.291" y="-144.8" font-family="Times,serif" font-size="14.00">rdfs:subClassOf</text>
</g>
<!-- Rhttp://www.w3.org/2002/07/owl#event:Event&#45;&gt;Rhttp://www.w3.org/2002/07/owl#physical:Space -->
<g id="edge8" class="edge"><title>Rhttp://www.w3.org/2002/07/owl#event:Event&#45;&gt;Rhttp://www.w3.org/2002/07/owl#physical:Space</title>
<path fill="none" stroke="blue" d="M908.942,-181.736C883.969,-178.798 855.672,-175.839 829.791,-174 692.302,-164.23 344.118,-186.903 209.791,-156 183.954,-150.056 156.787,-137.932 135.796,-127.112"/>
<polygon fill="blue" stroke="blue" points="137.385,-123.993 126.908,-122.419 134.116,-130.183 137.385,-123.993"/>
<text text-anchor="middle" x="285.791" y="-144.8" font-family="Times,serif" font-size="14.00">physical:isPartOf</text>
</g>
<!-- Rhttp://www.w3.org/2002/07/owl#physical:Time -->
<g id="node3" class="node"><title>Rhttp://www.w3.org/2002/07/owl#physical:Time</title>
<g id="a_node3"><a xlink:href="http://www.w3.org/2002/07/owl#physical:Time" xlink:title="physical:Time">
<ellipse fill="none" stroke="blue" cx="360.791" cy="-105" rx="94.4839" ry="18"/>
<text text-anchor="middle" x="360.791" y="-101.3" font-family="Times,serif" font-size="14.00">physical:Time</text>
</a>
</g>
</g>
<!-- Rhttp://www.w3.org/2002/07/owl#event:Event&#45;&gt;Rhttp://www.w3.org/2002/07/owl#physical:Time -->
<g id="edge2" class="edge"><title>Rhttp://www.w3.org/2002/07/owl#event:Event&#45;&gt;Rhttp://www.w3.org/2002/07/owl#physical:Time</title>
<path fill="none" stroke="green" d="M908.552,-181.846C883.671,-178.936 855.531,-175.966 829.791,-174 804.623,-172.077 395.74,-171.466 375.791,-156 368.687,-150.492 364.836,-141.747 362.784,-133.099"/>
<polygon fill="green" stroke="green" points="366.228,-132.471 361.114,-123.192 359.325,-133.635 366.228,-132.471"/>
<text text-anchor="middle" x="433.291" y="-144.8" font-family="Times,serif" font-size="14.00">rdfs:subClassOf</text>
</g>
<!-- Rhttp://www.w3.org/2002/07/owl#event:Existence -->
<g id="node4" class="node"><title>Rhttp://www.w3.org/2002/07/owl#event:Existence</title>
<g id="a_node4"><a xlink:href="http://www.w3.org/2002/07/owl#event:Existence" xlink:title="event:Existence">
<ellipse fill="none" stroke="blue" cx="599.791" cy="-105" rx="104.782" ry="18"/>
<text text-anchor="middle" x="599.791" y="-101.3" font-family="Times,serif" font-size="14.00">event:Existence</text>
</a>
</g>
</g>
<!-- Rhttp://www.w3.org/2002/07/owl#event:Event&#45;&gt;Rhttp://www.w3.org/2002/07/owl#event:Existence -->
<g id="edge3" class="edge"><title>Rhttp://www.w3.org/2002/07/owl#event:Event&#45;&gt;Rhttp://www.w3.org/2002/07/owl#event:Existence</title>
<path fill="none" stroke="blue" d="M908.155,-182.019C883.366,-179.141 855.386,-176.147 829.791,-174 811.495,-172.466 512.416,-169.332 499.791,-156 485.598,-141.011 500.454,-129.847 522.674,-121.917"/>
<polygon fill="blue" stroke="blue" points="523.788,-125.235 532.221,-118.821 521.629,-118.576 523.788,-125.235"/>
<text text-anchor="middle" x="584.291" y="-144.8" font-family="Times,serif" font-size="14.00">event:hasExistence</text>
</g>
<!-- Rhttp://www.w3.org/2002/07/owl#event:State -->
<g id="node5" class="node"><title>Rhttp://www.w3.org/2002/07/owl#event:State</title>
<g id="a_node5"><a xlink:href="http://www.w3.org/2002/07/owl#event:State" xlink:title="event:State">
<ellipse fill="none" stroke="blue" cx="816.791" cy="-105" rx="83.3857" ry="18"/>
<text text-anchor="middle" x="816.791" y="-101.3" font-family="Times,serif" font-size="14.00">event:State</text>
</a>
</g>
</g>
<!-- Rhttp://www.w3.org/2002/07/owl#event:Event&#45;&gt;Rhttp://www.w3.org/2002/07/owl#event:State -->
<g id="edge4" class="edge"><title>Rhttp://www.w3.org/2002/07/owl#event:Event&#45;&gt;Rhttp://www.w3.org/2002/07/owl#event:State</title>
<path fill="none" stroke="blue" d="M909.121,-181.631C876.084,-175.871 841.47,-167.389 829.791,-156 823.583,-149.945 820.209,-141.332 818.415,-132.956"/>
<polygon fill="blue" stroke="blue" points="821.873,-132.414 816.926,-123.046 814.951,-133.455 821.873,-132.414"/>
<text text-anchor="middle" x="897.791" y="-144.8" font-family="Times,serif" font-size="14.00">event:hasState</text>
</g>
<!-- Rhttp://www.w3.org/2000/01/rdf&#45;schema#Literal -->
<g id="node6" class="node"><title>Rhttp://www.w3.org/2000/01/rdf&#45;schema#Literal</title>
<g id="a_node6"><a xlink:href="http://www.w3.org/2000/01/rdf-schema#Literal" xlink:title="rdfs:Literal">
<ellipse fill="none" stroke="brown" cx="1209.79" cy="-18" rx="63.8893" ry="18"/>
<text text-anchor="middle" x="1209.79" y="-14.3" font-family="Times,serif" font-size="14.00">rdfs:Literal</text>
</a>
</g>
</g>
<!-- Rhttp://www.w3.org/2002/07/owl#event:Event&#45;&gt;Rhttp://www.w3.org/2000/01/rdf&#45;schema#Literal -->
<g id="edge5" class="edge"><title>Rhttp://www.w3.org/2002/07/owl#event:Event&#45;&gt;Rhttp://www.w3.org/2000/01/rdf&#45;schema#Literal</title>
<path fill="none" stroke="blue" d="M976.939,-173.595C974.821,-163.627 971.321,-151.127 965.791,-141 960.661,-131.606 953.595,-133.005 949.791,-123 944.105,-108.044 940.013,-99.6644 949.791,-87 973.198,-56.6846 1073.52,-37.2854 1142.47,-27.2691"/>
<polygon fill="blue" stroke="blue" points="1142.99,-30.7299 1152.4,-25.8592 1142.01,-23.7993 1142.99,-30.7299"/>
<text text-anchor="middle" x="1068.79" y="-101.3" font-family="Times,serif" font-size="14.00">event:hasGenesisDescription</text>
</g>
<!-- Rhttp://www.w3.org/2002/07/owl#event:Event&#45;&gt;Rhttp://www.w3.org/2000/01/rdf&#45;schema#Literal -->
<g id="edge12" class="edge"><title>Rhttp://www.w3.org/2002/07/owl#event:Event&#45;&gt;Rhttp://www.w3.org/2000/01/rdf&#45;schema#Literal</title>
<path fill="none" stroke="blue" d="M1057.89,-184.414C1102.08,-176.58 1154.92,-159.608 1187.79,-123 1206.52,-102.136 1210.77,-69.4038 1211.13,-46.2406"/>
<polygon fill="blue" stroke="blue" points="1214.63,-46.0123 1211.05,-36.0405 1207.63,-46.0681 1214.63,-46.0123"/>
<text text-anchor="middle" x="1276.79" y="-101.3" font-family="Times,serif" font-size="14.00">event:hasName</text>
</g>
<!-- Rhttp://www.w3.org/2002/07/owl#human:Use -->
<g id="node7" class="node"><title>Rhttp://www.w3.org/2002/07/owl#human:Use</title>
<g id="a_node7"><a xlink:href="http://www.w3.org/2002/07/owl#human:Use" xlink:title="human:Use">
<ellipse fill="none" stroke="blue" cx="1451.79" cy="-105" rx="81.7856" ry="18"/>
<text text-anchor="middle" x="1451.79" y="-101.3" font-family="Times,serif" font-size="14.00">human:Use</text>
</a>
</g>
</g>
<!-- Rhttp://www.w3.org/2002/07/owl#event:Event&#45;&gt;Rhttp://www.w3.org/2002/07/owl#human:Use -->
<g id="edge6" class="edge"><title>Rhttp://www.w3.org/2002/07/owl#event:Event&#45;&gt;Rhttp://www.w3.org/2002/07/owl#human:Use</title>
<path fill="none" stroke="blue" d="M1051.55,-182.116C1100.28,-175.738 1166.1,-166.449 1223.79,-156 1279.89,-145.84 1343.18,-131.748 1388.82,-121.113"/>
<polygon fill="blue" stroke="blue" points="1389.64,-124.517 1398.57,-118.83 1388.04,-117.701 1389.64,-124.517"/>
<text text-anchor="middle" x="1367.29" y="-144.8" font-family="Times,serif" font-size="14.00">human:hasUse</text>
</g>
<!-- Rhttp://www.w3.org/2002/07/owl#physical:Place -->
<g id="node8" class="node"><title>Rhttp://www.w3.org/2002/07/owl#physical:Place</title>
<g id="a_node8"><a xlink:href="http://www.w3.org/2002/07/owl#physical:Place" xlink:title="physical:Place">
<ellipse fill="none" stroke="blue" cx="1648.79" cy="-105" rx="96.6831" ry="18"/>
<text text-anchor="middle" x="1648.79" y="-101.3" font-family="Times,serif" font-size="14.00">physical:Place</text>
</a>
</g>
</g>
<!-- Rhttp://www.w3.org/2002/07/owl#event:Event&#45;&gt;Rhttp://www.w3.org/2002/07/owl#physical:Place -->
<g id="edge7" class="edge"><title>Rhttp://www.w3.org/2002/07/owl#event:Event&#45;&gt;Rhttp://www.w3.org/2002/07/owl#physical:Place</title>
<path fill="none" stroke="blue" d="M1064.01,-188.557C1156.41,-184.953 1308.9,-176.286 1438.79,-156 1489.87,-148.023 1546.87,-134.125 1588.59,-123.004"/>
<polygon fill="blue" stroke="blue" points="1589.57,-126.365 1598.31,-120.387 1587.75,-119.605 1589.57,-126.365"/>
<text text-anchor="middle" x="1605.29" y="-144.8" font-family="Times,serif" font-size="14.00">physical:hasLocation</text>
</g>
<!-- Rhttp://www.w3.org/2002/07/owl#physical:Size -->
<g id="node9" class="node"><title>Rhttp://www.w3.org/2002/07/owl#physical:Size</title>
<g id="a_node9"><a xlink:href="http://www.w3.org/2002/07/owl#physical:Size" xlink:title="physical:Size">
<ellipse fill="none" stroke="blue" cx="1853.79" cy="-105" rx="90.1842" ry="18"/>
<text text-anchor="middle" x="1853.79" y="-101.3" font-family="Times,serif" font-size="14.00">physical:Size</text>
</a>
</g>
</g>
<!-- Rhttp://www.w3.org/2002/07/owl#event:Event&#45;&gt;Rhttp://www.w3.org/2002/07/owl#physical:Size -->
<g id="edge9" class="edge"><title>Rhttp://www.w3.org/2002/07/owl#event:Event&#45;&gt;Rhttp://www.w3.org/2002/07/owl#physical:Size</title>
<path fill="none" stroke="blue" d="M1065.02,-189.686C1228.47,-186.699 1580.39,-177.883 1699.79,-156 1736.47,-149.279 1776.48,-136.099 1806.53,-124.958"/>
<polygon fill="blue" stroke="blue" points="1807.79,-128.222 1815.92,-121.423 1805.32,-121.671 1807.79,-128.222"/>
<text text-anchor="middle" x="1830.79" y="-144.8" font-family="Times,serif" font-size="14.00">physical:hasSize</text>
</g>
<!-- Rhttp://www.w3.org/2001/XMLSchema#date -->
<g id="node10" class="node"><title>Rhttp://www.w3.org/2001/XMLSchema#date</title>
<g id="a_node10"><a xlink:href="http://www.w3.org/2001/XMLSchema#date" xlink:title="xsd:date">
<ellipse fill="none" stroke="brown" cx="2052.79" cy="-105" rx="50.0912" ry="18"/>
<text text-anchor="middle" x="2052.79" y="-101.3" font-family="Times,serif" font-size="14.00">xsd:date</text>
</a>
</g>
</g>
<!-- Rhttp://www.w3.org/2002/07/owl#event:Event&#45;&gt;Rhttp://www.w3.org/2001/XMLSchema#date -->
<g id="edge10" class="edge"><title>Rhttp://www.w3.org/2002/07/owl#event:Event&#45;&gt;Rhttp://www.w3.org/2001/XMLSchema#date</title>
<path fill="none" stroke="blue" d="M1064.93,-189.569C1278.91,-185.719 1827.94,-174.187 1908.79,-156 1925.3,-152.286 1927.94,-146.927 1943.79,-141 1963.85,-133.502 1986.32,-126.117 2005.63,-120.077"/>
<polygon fill="blue" stroke="blue" points="2006.9,-123.35 2015.41,-117.048 2004.82,-116.664 2006.9,-123.35"/>
<text text-anchor="middle" x="2028.29" y="-144.8" font-family="Times,serif" font-size="14.00">event:hasStartDate</text>
</g>
<!-- Rhttp://www.w3.org/2002/07/owl#event:Event&#45;&gt;Rhttp://www.w3.org/2001/XMLSchema#date -->
<g id="edge11" class="edge"><title>Rhttp://www.w3.org/2002/07/owl#event:Event&#45;&gt;Rhttp://www.w3.org/2001/XMLSchema#date</title>
<path fill="none" stroke="blue" d="M1065.94,-191.574C1324.2,-192.874 2076.51,-193.419 2112.79,-156 2124.2,-144.228 2111.45,-132.422 2094.81,-123.239"/>
<polygon fill="blue" stroke="blue" points="2096.36,-120.103 2085.86,-118.691 2093.19,-126.343 2096.36,-120.103"/>
<text text-anchor="middle" x="2198.29" y="-144.8" font-family="Times,serif" font-size="14.00">event:hasEndDate</text>
</g>
<!-- Rhttp://www.w3.org/2002/07/owl#event:Existence&#45;&gt;Rhttp://www.w3.org/2002/07/owl#event:Event -->
<g id="edge14" class="edge"><title>Rhttp://www.w3.org/2002/07/owl#event:Existence&#45;&gt;Rhttp://www.w3.org/2002/07/owl#event:Event</title>
<path fill="none" stroke="green" d="M631.79,-122.183C659.206,-135.939 695.408,-153.806 702.791,-156 712.102,-158.766 818.365,-171.792 896.51,-181.144"/>
<polygon fill="green" stroke="green" points="896.51,-184.668 906.855,-182.38 897.341,-177.718 896.51,-184.668"/>
<text text-anchor="middle" x="760.291" y="-144.8" font-family="Times,serif" font-size="14.00">rdfs:subClassOf</text>
</g>
<!-- Rhttp://www.w3.org/2002/07/owl#physical:Place&#45;&gt;Rhttp://www.w3.org/2000/01/rdf&#45;schema#Literal -->
<g id="edge13" class="edge"><title>Rhttp://www.w3.org/2002/07/owl#physical:Place&#45;&gt;Rhttp://www.w3.org/2000/01/rdf&#45;schema#Literal</title>
<path fill="none" stroke="blue" d="M1584.02,-91.458C1499.64,-75.122 1353.22,-46.7711 1270.77,-30.8059"/>
<polygon fill="blue" stroke="blue" points="1271.27,-27.3394 1260.79,-28.8746 1269.94,-34.2118 1271.27,-27.3394"/>
<text text-anchor="middle" x="1557.29" y="-57.8" font-family="Times,serif" font-size="14.00">physical:placeHasName</text>
</g>
<!-- Rhttp://www.w3.org/2002/07/owl#event:Process -->
<g id="node11" class="node"><title>Rhttp://www.w3.org/2002/07/owl#event:Process</title>
<g id="a_node11"><a xlink:href="http://www.w3.org/2002/07/owl#event:Process" xlink:title="event:Process">
<ellipse fill="none" stroke="blue" cx="791.791" cy="-279" rx="94.7833" ry="18"/>
<text text-anchor="middle" x="791.791" y="-275.3" font-family="Times,serif" font-size="14.00">event:Process</text>
</a>
</g>
</g>
<!-- Rhttp://www.w3.org/2002/07/owl#event:Process&#45;&gt;Rhttp://www.w3.org/2002/07/owl#event:Event -->
<g id="edge15" class="edge"><title>Rhttp://www.w3.org/2002/07/owl#event:Process&#45;&gt;Rhttp://www.w3.org/2002/07/owl#event:Event</title>
<path fill="none" stroke="green" d="M834.322,-262.909C847.95,-257.388 862.853,-250.607 875.791,-243 885.066,-237.547 885.505,-233.434 894.791,-228 905.229,-221.892 916.936,-216.333 928.246,-211.533"/>
<polygon fill="green" stroke="green" points="929.695,-214.722 937.616,-207.685 927.036,-208.247 929.695,-214.722"/>
<text text-anchor="middle" x="952.291" y="-231.8" font-family="Times,serif" font-size="14.00">rdfs:subClassOf</text>
</g>
<!-- Rhttp://www.w3.org/2002/07/owl#event:Stage -->
<g id="node12" class="node"><title>Rhttp://www.w3.org/2002/07/owl#event:Stage</title>
<g id="a_node12"><a xlink:href="http://www.w3.org/2002/07/owl#event:Stage" xlink:title="event:Stage">
<ellipse fill="none" stroke="blue" cx="735.791" cy="-192" rx="85.2851" ry="18"/>
<text text-anchor="middle" x="735.791" y="-188.3" font-family="Times,serif" font-size="14.00">event:Stage</text>
</a>
</g>
</g>
<!-- Rhttp://www.w3.org/2002/07/owl#event:Process&#45;&gt;Rhttp://www.w3.org/2002/07/owl#event:Stage -->
<g id="edge16" class="edge"><title>Rhttp://www.w3.org/2002/07/owl#event:Process&#45;&gt;Rhttp://www.w3.org/2002/07/owl#event:Stage</title>
<path fill="none" stroke="blue" d="M755.838,-262.31C748.262,-257.271 741.227,-250.893 736.791,-243 732.989,-236.235 731.72,-228.1 731.679,-220.375"/>
<polygon fill="blue" stroke="blue" points="735.18,-220.448 732.261,-210.263 728.192,-220.046 735.18,-220.448"/>
<text text-anchor="middle" x="806.291" y="-231.8" font-family="Times,serif" font-size="14.00">event:hasStage</text>
</g>
<!-- Rhttp://www.w3.org/2002/07/owl#event:Input -->
<g id="node13" class="node"><title>Rhttp://www.w3.org/2002/07/owl#event:Input</title>
<g id="a_node13"><a xlink:href="http://www.w3.org/2002/07/owl#event:Input" xlink:title="event:Input">
<ellipse fill="none" stroke="blue" cx="598.791" cy="-366" rx="83.6854" ry="18"/>
<text text-anchor="middle" x="598.791" y="-362.3" font-family="Times,serif" font-size="14.00">event:Input</text>
</a>
</g>
</g>
<!-- Rhttp://www.w3.org/2002/07/owl#event:Input&#45;&gt;Rhttp://www.w3.org/2002/07/owl#event:Process -->
<g id="edge17" class="edge"><title>Rhttp://www.w3.org/2002/07/owl#event:Input&#45;&gt;Rhttp://www.w3.org/2002/07/owl#event:Process</title>
<path fill="none" stroke="blue" d="M610.853,-347.701C619.389,-336.735 631.777,-323.132 645.791,-315 663.809,-304.544 684.807,-297.206 705.168,-292.057"/>
<polygon fill="blue" stroke="blue" points="706.174,-295.416 715.096,-289.701 704.558,-288.605 706.174,-295.416"/>
<text text-anchor="middle" x="716.791" y="-318.8" font-family="Times,serif" font-size="14.00">event:isInputOf</text>
</g>
<!-- Rhttp://www.w3.org/2002/07/owl#event:Output -->
<g id="node14" class="node"><title>Rhttp://www.w3.org/2002/07/owl#event:Output</title>
<g id="a_node14"><a xlink:href="http://www.w3.org/2002/07/owl#event:Output" xlink:title="event:Output">
<ellipse fill="none" stroke="blue" cx="791.791" cy="-366" rx="90.9839" ry="18"/>
<text text-anchor="middle" x="791.791" y="-362.3" font-family="Times,serif" font-size="14.00">event:Output</text>
</a>
</g>
</g>
<!-- Rhttp://www.w3.org/2002/07/owl#event:Output&#45;&gt;Rhttp://www.w3.org/2002/07/owl#event:Process -->
<g id="edge18" class="edge"><title>Rhttp://www.w3.org/2002/07/owl#event:Output&#45;&gt;Rhttp://www.w3.org/2002/07/owl#event:Process</title>
<path fill="none" stroke="blue" d="M791.791,-347.799C791.791,-336.163 791.791,-320.548 791.791,-307.237"/>
<polygon fill="blue" stroke="blue" points="795.291,-307.175 791.791,-297.175 788.291,-307.175 795.291,-307.175"/>
<text text-anchor="middle" x="868.291" y="-318.8" font-family="Times,serif" font-size="14.00">event:isOutputOf</text>
</g>
<!-- Rhttp://www.w3.org/2002/07/owl#event:Action -->
<g id="node15" class="node"><title>Rhttp://www.w3.org/2002/07/owl#event:Action</title>
<g id="a_node15"><a xlink:href="http://www.w3.org/2002/07/owl#event:Action" xlink:title="event:Action">
<ellipse fill="none" stroke="blue" cx="989.791" cy="-366" rx="89.0842" ry="18"/>
<text text-anchor="middle" x="989.791" y="-362.3" font-family="Times,serif" font-size="14.00">event:Action</text>
</a>
</g>
</g>
<!-- Rhttp://www.w3.org/2002/07/owl#event:Action&#45;&gt;Rhttp://www.w3.org/2002/07/owl#event:Process -->
<g id="edge19" class="edge"><title>Rhttp://www.w3.org/2002/07/owl#event:Action&#45;&gt;Rhttp://www.w3.org/2002/07/owl#event:Process</title>
<path fill="none" stroke="green" d="M980.098,-348.099C972.868,-337.014 961.985,-323.119 948.791,-315 929.524,-303.143 906.729,-295.285 884.568,-290.083"/>
<polygon fill="green" stroke="green" points="885.302,-286.661 874.785,-287.944 883.806,-293.5 885.302,-286.661"/>
<text text-anchor="middle" x="1024.29" y="-318.8" font-family="Times,serif" font-size="14.00">rdfs:subClassOf</text>
</g>
<!-- Rhttp://www.w3.org/2002/07/owl#event:Procedure -->
<g id="node16" class="node"><title>Rhttp://www.w3.org/2002/07/owl#event:Procedure</title>
<g id="a_node16"><a xlink:href="http://www.w3.org/2002/07/owl#event:Procedure" xlink:title="event:Procedure">
<ellipse fill="none" stroke="blue" cx="989.791" cy="-453" rx="106.681" ry="18"/>
<text text-anchor="middle" x="989.791" y="-449.3" font-family="Times,serif" font-size="14.00">event:Procedure</text>
</a>
</g>
</g>
<!-- Rhttp://www.w3.org/2002/07/owl#event:Procedure&#45;&gt;Rhttp://www.w3.org/2002/07/owl#event:Action -->
<g id="edge20" class="edge"><title>Rhttp://www.w3.org/2002/07/owl#event:Procedure&#45;&gt;Rhttp://www.w3.org/2002/07/owl#event:Action</title>
<path fill="none" stroke="green" d="M989.791,-434.799C989.791,-423.163 989.791,-407.548 989.791,-394.237"/>
<polygon fill="green" stroke="green" points="993.291,-394.175 989.791,-384.175 986.291,-394.175 993.291,-394.175"/>
<text text-anchor="middle" x="1047.29" y="-405.8" font-family="Times,serif" font-size="14.00">rdfs:subClassOf</text>
</g>
<!-- Rhttp://www.w3.org/2000/01/rdf&#45;schema#Resource -->
<g id="node17" class="node"><title>Rhttp://www.w3.org/2000/01/rdf&#45;schema#Resource</title>
<g id="a_node17"><a xlink:href="http://www.w3.org/2000/01/rdf-schema#Resource" xlink:title="rdfs:Resource">
<ellipse fill="none" stroke="brown" cx="1035.79" cy="-279" rx="75.2868" ry="18"/>
<text text-anchor="middle" x="1035.79" y="-275.3" font-family="Times,serif" font-size="14.00">rdfs:Resource</text>
</a>
</g>
</g>
<!-- Rhttp://www.w3.org/2000/01/rdf&#45;schema#Resource&#45;&gt;Rhttp://www.w3.org/2002/07/owl#event:Event -->
<g id="edge21" class="edge"><title>Rhttp://www.w3.org/2000/01/rdf&#45;schema#Resource&#45;&gt;Rhttp://www.w3.org/2002/07/owl#event:Event</title>
<path fill="none" stroke="blue" d="M1030.05,-261.018C1026.24,-250.96 1020.68,-238.226 1013.79,-228 1011.27,-224.263 1008.34,-220.568 1005.26,-217.059"/>
<polygon fill="blue" stroke="blue" points="1007.8,-214.649 998.414,-209.729 1002.68,-219.427 1007.8,-214.649"/>
<text text-anchor="middle" x="1093.29" y="-231.8" font-family="Times,serif" font-size="14.00">event:hasEvent</text>
</g>
</g>
</svg>