<?xml version="1.0" encoding="UTF-8" standalone="no"?>
<!DOCTYPE svg PUBLIC "-//W3C//DTD SVG 1.1//EN"
 "http://www.w3.org/Graphics/SVG/1.1/DTD/svg11.dtd">
<!-- Generated by graphviz version 2.38.0 (20140413.2041)
 -->
<!-- Title: %3 Pages: 1 -->
<svg width="2127pt" height="392pt"
 viewBox="0.00 0.00 2126.63 392.00" xmlns="http://www.w3.org/2000/svg" xmlns:xlink="http://www.w3.org/1999/xlink">
<g id="graph0" class="graph" transform="scale(1 1) rotate(0) translate(4 388)">
<title>%3</title>
<polygon fill="white" stroke="none" points="-4,4 -4,-388 2122.63,-388 2122.63,4 -4,4"/>
<!-- Rhttp://www.w3.org/2002/07/owl#concept:Expression -->
<g id="node1" class="node"><title>Rhttp://www.w3.org/2002/07/owl#concept:Expression</title>
<g id="a_node1"><a xlink:href="http://www.w3.org/2002/07/owl#concept:Expression" xlink:title="concept:Expression">
<ellipse fill="none" stroke="blue" cx="821.694" cy="-192" rx="121.578" ry="18"/>
<text text-anchor="middle" x="821.694" y="-188.3" font-family="Times,serif" font-size="14.00">concept:Expression</text>
</a>
</g>
</g>
<!-- Rhttp://www.w3.org/2002/07/owl#concept:Information -->
<g id="node2" class="node"><title>Rhttp://www.w3.org/2002/07/owl#concept:Information</title>
<g id="a_node2"><a xlink:href="http://www.w3.org/2002/07/owl#concept:Information" xlink:title="concept:Information">
<ellipse fill="none" stroke="blue" cx="1285.69" cy="-105" rx="124.578" ry="18"/>
<text text-anchor="middle" x="1285.69" y="-101.3" font-family="Times,serif" font-size="14.00">concept:Information</text>
</a>
</g>
</g>
<!-- Rhttp://www.w3.org/2002/07/owl#concept:Expression&#45;&gt;Rhttp://www.w3.org/2002/07/owl#concept:Information -->
<g id="edge1" class="edge"><title>Rhttp://www.w3.org/2002/07/owl#concept:Expression&#45;&gt;Rhttp://www.w3.org/2002/07/owl#concept:Information</title>
<path fill="none" stroke="green" d="M937.791,-186.594C1055.53,-181.32 1224.12,-171.243 1250.69,-156 1260.21,-150.544 1267.75,-141.327 1273.36,-132.281"/>
<polygon fill="green" stroke="green" points="1276.48,-133.872 1278.33,-123.439 1270.38,-130.444 1276.48,-133.872"/>
<text text-anchor="middle" x="1324.19" y="-144.8" font-family="Times,serif" font-size="14.00">rdfs:subClassOf</text>
</g>
<!-- Rhttp://www.w3.org/2000/01/rdf&#45;schema#frbroo:F22_Self&#45;Contained_Expression -->
<g id="node3" class="node"><title>Rhttp://www.w3.org/2000/01/rdf&#45;schema#frbroo:F22_Self&#45;Contained_Expression</title>
<g id="a_node3"><a xlink:href="http://www.w3.org/2000/01/rdf-schema#frbroo:F22_Self-Contained_Expression" xlink:title="frbroo:F22_Self&#45;Contained_Expression">
<ellipse fill="none" stroke="purple" cx="1639.69" cy="-105" rx="211.463" ry="18"/>
<text text-anchor="middle" x="1639.69" y="-101.3" font-family="Times,serif" font-size="14.00">frbroo:F22_Self&#45;Contained_Expression</text>
</a>
</g>
</g>
<!-- Rhttp://www.w3.org/2002/07/owl#concept:Expression&#45;&gt;Rhttp://www.w3.org/2000/01/rdf&#45;schema#frbroo:F22_Self&#45;Contained_Expression -->
<g id="edge2" class="edge"><title>Rhttp://www.w3.org/2002/07/owl#concept:Expression&#45;&gt;Rhttp://www.w3.org/2000/01/rdf&#45;schema#frbroo:F22_Self&#45;Contained_Expression</title>
<path fill="none" stroke="green" d="M940.688,-188.187C1055.13,-184.405 1232.81,-175.703 1385.69,-156 1445.03,-148.352 1511.35,-135.138 1561.33,-124.214"/>
<polygon fill="green" stroke="green" points="1562.09,-127.631 1571.1,-122.062 1560.58,-120.794 1562.09,-127.631"/>
<text text-anchor="middle" x="1535.19" y="-144.8" font-family="Times,serif" font-size="14.00">rdfs:subClassOf</text>
</g>
<!-- Rhttp://www.w3.org/2000/01/rdf&#45;schema#Literal -->
<g id="node4" class="node"><title>Rhttp://www.w3.org/2000/01/rdf&#45;schema#Literal</title>
<g id="a_node4"><a xlink:href="http://www.w3.org/2000/01/rdf-schema#Literal" xlink:title="rdfs:Literal">
<ellipse fill="none" stroke="purple" cx="63.6943" cy="-105" rx="63.8893" ry="18"/>
<text text-anchor="middle" x="63.6943" y="-101.3" font-family="Times,serif" font-size="14.00">rdfs:Literal</text>
</a>
</g>
</g>
<!-- Rhttp://www.w3.org/2002/07/owl#concept:Expression&#45;&gt;Rhttp://www.w3.org/2000/01/rdf&#45;schema#Literal -->
<g id="edge3" class="edge"><title>Rhttp://www.w3.org/2002/07/owl#concept:Expression&#45;&gt;Rhttp://www.w3.org/2000/01/rdf&#45;schema#Literal</title>
<path fill="none" stroke="blue" d="M702.504,-188.328C590.761,-184.626 432.365,-175.961 373.694,-156 362.141,-152.069 362.16,-145.18 350.694,-141 281.261,-115.684 196.763,-107.911 137.494,-105.876"/>
<polygon fill="blue" stroke="blue" points="137.569,-102.377 127.469,-105.578 137.361,-109.373 137.569,-102.377"/>
<text text-anchor="middle" x="433.694" y="-144.8" font-family="Times,serif" font-size="14.00">text:hasTitle</text>
</g>
<!-- Rhttp://www.w3.org/2002/07/owl#concept:Expression&#45;&gt;Rhttp://www.w3.org/2000/01/rdf&#45;schema#Literal -->
<g id="edge6" class="edge"><title>Rhttp://www.w3.org/2002/07/owl#concept:Expression&#45;&gt;Rhttp://www.w3.org/2000/01/rdf&#45;schema#Literal</title>
<path fill="none" stroke="blue" d="M700.769,-189.755C491.61,-187.003 82.4035,-178.731 60.6943,-156 54.8871,-149.92 53.8944,-141.3 54.9079,-132.926"/>
<polygon fill="blue" stroke="blue" points="58.3585,-133.522 56.9503,-123.022 51.5028,-132.109 58.3585,-133.522"/>
<text text-anchor="middle" x="203.694" y="-144.8" font-family="Times,serif" font-size="14.00">infocar:hasPageNumberDescription</text>
</g>
<!-- Rhttp://www.w3.org/2002/07/owl#infocar:Carrier -->
<g id="node5" class="node"><title>Rhttp://www.w3.org/2002/07/owl#infocar:Carrier</title>
<g id="a_node5"><a xlink:href="http://www.w3.org/2002/07/owl#infocar:Carrier" xlink:title="infocar:Carrier">
<ellipse fill="none" stroke="blue" cx="469.694" cy="-18" rx="99.3824" ry="18"/>
<text text-anchor="middle" x="469.694" y="-14.3" font-family="Times,serif" font-size="14.00">infocar:Carrier</text>
</a>
</g>
</g>
<!-- Rhttp://www.w3.org/2002/07/owl#concept:Expression&#45;&gt;Rhttp://www.w3.org/2002/07/owl#infocar:Carrier -->
<g id="edge4" class="edge"><title>Rhttp://www.w3.org/2002/07/owl#concept:Expression&#45;&gt;Rhttp://www.w3.org/2002/07/owl#infocar:Carrier</title>
<path fill="none" stroke="blue" d="M739.168,-178.742C620.451,-160.918 415.022,-129.279 409.694,-123 388.52,-98.0444 415.888,-64.5802 440.219,-42.4313"/>
<polygon fill="blue" stroke="blue" points="442.731,-44.8845 447.947,-35.6629 438.119,-39.6187 442.731,-44.8845"/>
<text text-anchor="middle" x="494.194" y="-101.3" font-family="Times,serif" font-size="14.00">infocar:isOnCarrier</text>
</g>
<!-- Rhttp://www.w3.org/2002/07/owl#infocar:Page -->
<g id="node6" class="node"><title>Rhttp://www.w3.org/2002/07/owl#infocar:Page</title>
<g id="a_node6"><a xlink:href="http://www.w3.org/2002/07/owl#infocar:Page" xlink:title="infocar:Page">
<ellipse fill="none" stroke="blue" cx="675.694" cy="-105" rx="87.9851" ry="18"/>
<text text-anchor="middle" x="675.694" y="-101.3" font-family="Times,serif" font-size="14.00">infocar:Page</text>
</a>
</g>
</g>
<!-- Rhttp://www.w3.org/2002/07/owl#concept:Expression&#45;&gt;Rhttp://www.w3.org/2002/07/owl#infocar:Page -->
<g id="edge5" class="edge"><title>Rhttp://www.w3.org/2002/07/owl#concept:Expression&#45;&gt;Rhttp://www.w3.org/2002/07/owl#infocar:Page</title>
<path fill="none" stroke="blue" d="M729.276,-180.305C700.336,-174.926 673.602,-167.113 664.694,-156 659.34,-149.321 659.572,-140.59 661.944,-132.297"/>
<polygon fill="blue" stroke="blue" points="665.23,-133.503 665.505,-122.912 658.685,-131.02 665.23,-133.503"/>
<text text-anchor="middle" x="740.194" y="-144.8" font-family="Times,serif" font-size="14.00">infocar:isOnPage</text>
</g>
<!-- Rhttp://www.w3.org/2000/01/rdf&#45;schema#Resource -->
<g id="node7" class="node"><title>Rhttp://www.w3.org/2000/01/rdf&#45;schema#Resource</title>
<g id="a_node7"><a xlink:href="http://www.w3.org/2000/01/rdf-schema#Resource" xlink:title="rdfs:Resource">
<ellipse fill="none" stroke="purple" cx="856.694" cy="-105" rx="75.2868" ry="18"/>
<text text-anchor="middle" x="856.694" y="-101.3" font-family="Times,serif" font-size="14.00">rdfs:Resource</text>
</a>
</g>
</g>
<!-- Rhttp://www.w3.org/2002/07/owl#concept:Expression&#45;&gt;Rhttp://www.w3.org/2000/01/rdf&#45;schema#Resource -->
<g id="edge7" class="edge"><title>Rhttp://www.w3.org/2002/07/owl#concept:Expression&#45;&gt;Rhttp://www.w3.org/2000/01/rdf&#45;schema#Resource</title>
<path fill="none" stroke="blue" d="M818.983,-173.692C818.163,-163.756 818.413,-151.256 822.694,-141 824.265,-137.238 826.446,-133.653 828.954,-130.312"/>
<polygon fill="blue" stroke="blue" points="831.782,-132.393 835.695,-122.548 826.496,-127.804 831.782,-132.393"/>
<text text-anchor="middle" x="936.694" y="-144.8" font-family="Times,serif" font-size="14.00">concept:hasContentSubject</text>
</g>
<!-- Rhttp://www.w3.org/2002/07/owl#concept:Cycle -->
<g id="node8" class="node"><title>Rhttp://www.w3.org/2002/07/owl#concept:Cycle</title>
<g id="a_node8"><a xlink:href="http://www.w3.org/2002/07/owl#concept:Cycle" xlink:title="concept:Cycle">
<ellipse fill="none" stroke="blue" cx="1046.69" cy="-105" rx="96.3833" ry="18"/>
<text text-anchor="middle" x="1046.69" y="-101.3" font-family="Times,serif" font-size="14.00">concept:Cycle</text>
</a>
</g>
</g>
<!-- Rhttp://www.w3.org/2002/07/owl#concept:Expression&#45;&gt;Rhttp://www.w3.org/2002/07/owl#concept:Cycle -->
<g id="edge8" class="edge"><title>Rhttp://www.w3.org/2002/07/owl#concept:Expression&#45;&gt;Rhttp://www.w3.org/2002/07/owl#concept:Cycle</title>
<path fill="none" stroke="blue" d="M938.613,-186.924C987.053,-182.542 1035.5,-173.697 1050.69,-156 1056.04,-149.775 1056.91,-141.36 1055.87,-133.209"/>
<polygon fill="blue" stroke="blue" points="1059.25,-132.258 1053.73,-123.212 1052.4,-133.723 1059.25,-132.258"/>
<text text-anchor="middle" x="1151.69" y="-144.8" font-family="Times,serif" font-size="14.00">concept:isPartOfCycle</text>
</g>
<!-- Rhttp://www.w3.org/2002/07/owl#concept:PropositionalConcept -->
<g id="node10" class="node"><title>Rhttp://www.w3.org/2002/07/owl#concept:PropositionalConcept</title>
<g id="a_node10"><a xlink:href="http://www.w3.org/2002/07/owl#concept:PropositionalConcept" xlink:title="concept:PropositionalConcept">
<ellipse fill="none" stroke="blue" cx="1729.69" cy="-18" rx="170.07" ry="18"/>
<text text-anchor="middle" x="1729.69" y="-14.3" font-family="Times,serif" font-size="14.00">concept:PropositionalConcept</text>
</a>
</g>
</g>
<!-- Rhttp://www.w3.org/2002/07/owl#concept:Information&#45;&gt;Rhttp://www.w3.org/2002/07/owl#concept:PropositionalConcept -->
<g id="edge16" class="edge"><title>Rhttp://www.w3.org/2002/07/owl#concept:Information&#45;&gt;Rhttp://www.w3.org/2002/07/owl#concept:PropositionalConcept</title>
<path fill="none" stroke="green" d="M1357.52,-90.2488C1434.88,-75.4394 1558.04,-51.8626 1641.29,-35.9251"/>
<polygon fill="green" stroke="green" points="1642.07,-39.3384 1651.23,-34.0205 1640.75,-32.4632 1642.07,-39.3384"/>
<text text-anchor="middle" x="1592.19" y="-57.8" font-family="Times,serif" font-size="14.00">rdfs:subClassOf</text>
</g>
<!-- Rhttp://www.w3.org/2002/07/owl#infocar:Page&#45;&gt;Rhttp://www.w3.org/2002/07/owl#infocar:Carrier -->
<g id="edge9" class="edge"><title>Rhttp://www.w3.org/2002/07/owl#infocar:Page&#45;&gt;Rhttp://www.w3.org/2002/07/owl#infocar:Carrier</title>
<path fill="none" stroke="green" d="M638.389,-88.6071C604.437,-74.5977 554.14,-53.844 517.3,-38.6432"/>
<polygon fill="green" stroke="green" points="518.347,-35.2888 507.768,-34.7099 515.677,-41.7596 518.347,-35.2888"/>
<text text-anchor="middle" x="643.194" y="-57.8" font-family="Times,serif" font-size="14.00">rdfs:subClassOf</text>
</g>
<!-- Rhttp://www.w3.org/2002/07/owl#concept:Work -->
<g id="node9" class="node"><title>Rhttp://www.w3.org/2002/07/owl#concept:Work</title>
<g id="a_node9"><a xlink:href="http://www.w3.org/2002/07/owl#concept:Work" xlink:title="concept:Work">
<ellipse fill="none" stroke="blue" cx="1561.69" cy="-279" rx="94.7833" ry="18"/>
<text text-anchor="middle" x="1561.69" y="-275.3" font-family="Times,serif" font-size="14.00">concept:Work</text>
</a>
</g>
</g>
<!-- Rhttp://www.w3.org/2002/07/owl#concept:Work&#45;&gt;Rhttp://www.w3.org/2002/07/owl#concept:Expression -->
<g id="edge13" class="edge"><title>Rhttp://www.w3.org/2002/07/owl#concept:Work&#45;&gt;Rhttp://www.w3.org/2002/07/owl#concept:Expression</title>
<path fill="none" stroke="blue" d="M1482.85,-268.944C1348.25,-253.482 1074.19,-222.003 924.661,-204.827"/>
<polygon fill="blue" stroke="blue" points="924.888,-201.33 914.554,-203.666 924.09,-208.285 924.888,-201.33"/>
<text text-anchor="middle" x="1333.19" y="-231.8" font-family="Times,serif" font-size="14.00">concept:isExpressedIn</text>
</g>
<!-- Rhttp://www.w3.org/2002/07/owl#concept:Work&#45;&gt;Rhttp://www.w3.org/2000/01/rdf&#45;schema#Literal -->
<g id="edge12" class="edge"><title>Rhttp://www.w3.org/2002/07/owl#concept:Work&#45;&gt;Rhttp://www.w3.org/2000/01/rdf&#45;schema#Literal</title>
<path fill="none" stroke="blue" d="M1472.11,-272.911C1298.19,-262.798 902.726,-238.656 570.694,-210 339.641,-190.059 206.964,-328.263 51.6943,-156 45.9379,-149.614 46.2114,-140.955 48.7923,-132.639"/>
<polygon fill="blue" stroke="blue" points="52.1111,-133.77 52.6591,-123.189 45.6325,-131.119 52.1111,-133.77"/>
<text text-anchor="middle" x="630.694" y="-188.3" font-family="Times,serif" font-size="14.00">text:hasTitle</text>
</g>
<!-- Rhttp://www.w3.org/2002/07/owl#concept:Work&#45;&gt;Rhttp://www.w3.org/2002/07/owl#concept:PropositionalConcept -->
<g id="edge10" class="edge"><title>Rhttp://www.w3.org/2002/07/owl#concept:Work&#45;&gt;Rhttp://www.w3.org/2002/07/owl#concept:PropositionalConcept</title>
<path fill="none" stroke="green" d="M1624.47,-265.494C1695.73,-247.571 1808.7,-206.997 1859.69,-123 1882.05,-86.1712 1834.3,-56.9708 1790.5,-39.0017"/>
<polygon fill="green" stroke="green" points="1791.54,-35.6488 1780.95,-35.2291 1788.97,-42.159 1791.54,-35.6488"/>
<text text-anchor="middle" x="1903.19" y="-144.8" font-family="Times,serif" font-size="14.00">rdfs:subClassOf</text>
</g>
<!-- Rhttp://www.w3.org/2000/01/rdf&#45;schema#frbroo:F1_Work -->
<g id="node11" class="node"><title>Rhttp://www.w3.org/2000/01/rdf&#45;schema#frbroo:F1_Work</title>
<g id="a_node11"><a xlink:href="http://www.w3.org/2000/01/rdf-schema#frbroo:F1_Work" xlink:title="frbroo:F1_Work">
<ellipse fill="none" stroke="purple" cx="2012.69" cy="-192" rx="105.881" ry="18"/>
<text text-anchor="middle" x="2012.69" y="-188.3" font-family="Times,serif" font-size="14.00">frbroo:F1_Work</text>
</a>
</g>
</g>
<!-- Rhttp://www.w3.org/2002/07/owl#concept:Work&#45;&gt;Rhttp://www.w3.org/2000/01/rdf&#45;schema#frbroo:F1_Work -->
<g id="edge11" class="edge"><title>Rhttp://www.w3.org/2002/07/owl#concept:Work&#45;&gt;Rhttp://www.w3.org/2000/01/rdf&#45;schema#frbroo:F1_Work</title>
<path fill="none" stroke="green" d="M1628.71,-266.207C1640.99,-264.286 1653.71,-262.452 1665.69,-261 1766.17,-248.826 1794.32,-266.758 1892.69,-243 1919.95,-236.417 1949.02,-224.446 1971.72,-213.868"/>
<polygon fill="green" stroke="green" points="1973.5,-216.894 1981.03,-209.439 1970.5,-210.572 1973.5,-216.894"/>
<text text-anchor="middle" x="1994.19" y="-231.8" font-family="Times,serif" font-size="14.00">rdfs:subClassOf</text>
</g>
<!-- Rhttp://www.w3.org/2002/07/owl#concept:IndividualWork -->
<g id="node12" class="node"><title>Rhttp://www.w3.org/2002/07/owl#concept:IndividualWork</title>
<g id="a_node12"><a xlink:href="http://www.w3.org/2002/07/owl#concept:IndividualWork" xlink:title="concept:IndividualWork">
<ellipse fill="none" stroke="blue" cx="1733.69" cy="-366" rx="141.875" ry="18"/>
<text text-anchor="middle" x="1733.69" y="-362.3" font-family="Times,serif" font-size="14.00">concept:IndividualWork</text>
</a>
</g>
</g>
<!-- Rhttp://www.w3.org/2002/07/owl#concept:IndividualWork&#45;&gt;Rhttp://www.w3.org/2002/07/owl#concept:Work -->
<g id="edge14" class="edge"><title>Rhttp://www.w3.org/2002/07/owl#concept:IndividualWork&#45;&gt;Rhttp://www.w3.org/2002/07/owl#concept:Work</title>
<path fill="none" stroke="green" d="M1698.21,-348.48C1685.97,-342.712 1672.19,-336.143 1659.69,-330 1640.57,-320.602 1619.51,-309.9 1601.82,-300.815"/>
<polygon fill="green" stroke="green" points="1603.4,-297.693 1592.91,-296.228 1600.2,-303.917 1603.4,-297.693"/>
<text text-anchor="middle" x="1717.19" y="-318.8" font-family="Times,serif" font-size="14.00">rdfs:subClassOf</text>
</g>
<!-- Rhttp://www.w3.org/2000/01/rdf&#45;schema#frbroo:F14_Individual_Work -->
<g id="node13" class="node"><title>Rhttp://www.w3.org/2000/01/rdf&#45;schema#frbroo:F14_Individual_Work</title>
<g id="a_node13"><a xlink:href="http://www.w3.org/2000/01/rdf-schema#frbroo:F14_Individual_Work" xlink:title="frbroo:F14_Individual_Work">
<ellipse fill="none" stroke="purple" cx="1837.69" cy="-279" rx="163.271" ry="18"/>
<text text-anchor="middle" x="1837.69" y="-275.3" font-family="Times,serif" font-size="14.00">frbroo:F14_Individual_Work</text>
</a>
</g>
</g>
<!-- Rhttp://www.w3.org/2002/07/owl#concept:IndividualWork&#45;&gt;Rhttp://www.w3.org/2000/01/rdf&#45;schema#frbroo:F14_Individual_Work -->
<g id="edge15" class="edge"><title>Rhttp://www.w3.org/2002/07/owl#concept:IndividualWork&#45;&gt;Rhttp://www.w3.org/2000/01/rdf&#45;schema#frbroo:F14_Individual_Work</title>
<path fill="none" stroke="green" d="M1754.74,-347.799C1770.35,-335.042 1791.81,-317.504 1808.99,-303.462"/>
<polygon fill="green" stroke="green" points="1811.51,-305.924 1817.03,-296.885 1807.08,-300.504 1811.51,-305.924"/>
<text text-anchor="middle" x="1849.19" y="-318.8" font-family="Times,serif" font-size="14.00">rdfs:subClassOf</text>
</g>
</g>
</svg>