<?xml version="1.0" encoding="UTF-8" standalone="no"?>
<!DOCTYPE svg PUBLIC "-//W3C//DTD SVG 1.1//EN"
 "http://www.w3.org/Graphics/SVG/1.1/DTD/svg11.dtd">
<!-- Generated by graphviz version 2.38.0 (20140413.2041)
 -->
<!-- Title: %3 Pages: 1 -->
<svg width="2405pt" height="305pt"
 viewBox="0.00 0.00 2405.14 305.00" xmlns="http://www.w3.org/2000/svg" xmlns:xlink="http://www.w3.org/1999/xlink">
<g id="graph0" class="graph" transform="scale(1 1) rotate(0) translate(4 301)">
<title>%3</title>
<polygon fill="white" stroke="none" points="-4,4 -4,-301 2401.14,-301 2401.14,4 -4,4"/>
<!-- Rhttp://www.w3.org/2002/07/owl#i:Carrier -->
<g id="node1" class="node"><title>Rhttp://www.w3.org/2002/07/owl#i:Carrier</title>
<g id="a_node1"><a xlink:href="http://www.w3.org/2002/07/owl#i:Carrier" xlink:title="infocar:Carrier">
<ellipse fill="none" stroke="blue" cx="1027.14" cy="-105" rx="69.5877" ry="18"/>
<text text-anchor="middle" x="1027.14" y="-101.3" font-family="Times,serif" font-size="14.00">infocar:Carrier</text>
</a>
</g>
</g>
<!-- Rhttp://www.w3.org/2002/07/owl#h:PhysicalCreation -->
<g id="node2" class="node"><title>Rhttp://www.w3.org/2002/07/owl#h:PhysicalCreation</title>
<g id="a_node2"><a xlink:href="http://www.w3.org/2002/07/owl#h:PhysicalCreation" xlink:title="human:PhysicalCreation">
<ellipse fill="none" stroke="blue" cx="441.14" cy="-18" rx="118.079" ry="18"/>
<text text-anchor="middle" x="441.14" y="-14.3" font-family="Times,serif" font-size="14.00">human:PhysicalCreation</text>
</a>
</g>
</g>
<!-- Rhttp://www.w3.org/2002/07/owl#i:Carrier&#45;&gt;Rhttp://www.w3.org/2002/07/owl#h:PhysicalCreation -->
<g id="edge1" class="edge"><title>Rhttp://www.w3.org/2002/07/owl#i:Carrier&#45;&gt;Rhttp://www.w3.org/2002/07/owl#h:PhysicalCreation</title>
<path fill="none" stroke="green" d="M960.152,-99.9169C887.626,-94.9311 768.697,-85.1105 667.14,-69 613.454,-60.4834 553.403,-47.0069 508.703,-36.19"/>
<polygon fill="green" stroke="green" points="509.378,-32.7522 498.834,-33.7847 507.72,-39.5531 509.378,-32.7522"/>
<text text-anchor="middle" x="724.64" y="-57.8" font-family="Times,serif" font-size="14.00">rdfs:subClassOf</text>
</g>
<!-- Rhttp://www.w3.org/2000/01/rdf&#45;schema#c:E84_Information_Carrier -->
<g id="node3" class="node"><title>Rhttp://www.w3.org/2000/01/rdf&#45;schema#c:E84_Information_Carrier</title>
<g id="a_node3"><a xlink:href="http://www.w3.org/2000/01/rdf-schema#c:E84_Information_Carrier" xlink:title="cidoc:E84_Information_Carrier">
<ellipse fill="none" stroke="purple" cx="1298.14" cy="-18" rx="157.872" ry="18"/>
<text text-anchor="middle" x="1298.14" y="-14.3" font-family="Times,serif" font-size="14.00">cidoc:E84_Information_Carrier</text>
</a>
</g>
</g>
<!-- Rhttp://www.w3.org/2002/07/owl#i:Carrier&#45;&gt;Rhttp://www.w3.org/2000/01/rdf&#45;schema#c:E84_Information_Carrier -->
<g id="edge2" class="edge"><title>Rhttp://www.w3.org/2002/07/owl#i:Carrier&#45;&gt;Rhttp://www.w3.org/2000/01/rdf&#45;schema#c:E84_Information_Carrier</title>
<path fill="none" stroke="green" d="M1093.36,-99.3386C1151.46,-94.2861 1230.82,-84.7579 1258.14,-69 1268.21,-63.1911 1276.73,-53.7843 1283.28,-44.6884"/>
<polygon fill="green" stroke="green" points="1286.31,-46.452 1288.95,-36.1905 1280.49,-42.5679 1286.31,-46.452"/>
<text text-anchor="middle" x="1333.64" y="-57.8" font-family="Times,serif" font-size="14.00">rdfs:subClassOf</text>
</g>
<!-- Rhttp://www.w3.org/2000/01/rdf&#45;schema#Literal -->
<g id="node4" class="node"><title>Rhttp://www.w3.org/2000/01/rdf&#45;schema#Literal</title>
<g id="a_node4"><a xlink:href="http://www.w3.org/2000/01/rdf-schema#Literal" xlink:title="rdfs:Literal">
<ellipse fill="none" stroke="brown" cx="717.14" cy="-18" rx="63.8893" ry="18"/>
<text text-anchor="middle" x="717.14" y="-14.3" font-family="Times,serif" font-size="14.00">rdfs:Literal</text>
</a>
</g>
</g>
<!-- Rhttp://www.w3.org/2002/07/owl#i:Carrier&#45;&gt;Rhttp://www.w3.org/2000/01/rdf&#45;schema#Literal -->
<g id="edge3" class="edge"><title>Rhttp://www.w3.org/2002/07/owl#i:Carrier&#45;&gt;Rhttp://www.w3.org/2000/01/rdf&#45;schema#Literal</title>
<path fill="none" stroke="blue" d="M962.936,-97.777C921.73,-92.6449 867.46,-83.7466 821.14,-69 797.574,-61.4973 772.552,-49.6036 752.958,-39.2984"/>
<polygon fill="blue" stroke="blue" points="754.553,-36.182 744.085,-34.5456 751.248,-42.3526 754.553,-36.182"/>
<text text-anchor="middle" x="921.14" y="-57.8" font-family="Times,serif" font-size="14.00">infocar:carrierHasDescription</text>
</g>
<!-- Rhttp://www.w3.org/2002/07/owl#im:Photograph -->
<g id="node5" class="node"><title>Rhttp://www.w3.org/2002/07/owl#im:Photograph</title>
<g id="a_node5"><a xlink:href="http://www.w3.org/2002/07/owl#im:Photograph" xlink:title="image:Photograph">
<ellipse fill="none" stroke="blue" cx="1023.14" cy="-18" rx="98.5829" ry="18"/>
<text text-anchor="middle" x="1023.14" y="-14.3" font-family="Times,serif" font-size="14.00">image:Photograph</text>
</a>
</g>
</g>
<!-- Rhttp://www.w3.org/2002/07/owl#i:Carrier&#45;&gt;Rhttp://www.w3.org/2002/07/owl#im:Photograph -->
<g id="edge4" class="edge"><title>Rhttp://www.w3.org/2002/07/owl#i:Carrier&#45;&gt;Rhttp://www.w3.org/2002/07/owl#im:Photograph</title>
<path fill="none" stroke="blue" d="M1026.33,-86.799C1025.78,-75.1626 1025.05,-59.5479 1024.42,-46.2368"/>
<polygon fill="blue" stroke="blue" points="1027.91,-45.9998 1023.95,-36.1754 1020.92,-46.3289 1027.91,-45.9998"/>
<text text-anchor="middle" x="1140.14" y="-57.8" font-family="Times,serif" font-size="14.00">image:hasPhotoRepresentation</text>
</g>
<!-- Rhttp://www.w3.org/2002/07/owl#i:Book -->
<g id="node6" class="node"><title>Rhttp://www.w3.org/2002/07/owl#i:Book</title>
<g id="a_node6"><a xlink:href="http://www.w3.org/2002/07/owl#i:Book" xlink:title="infocar:Book">
<ellipse fill="none" stroke="blue" cx="1196.14" cy="-192" rx="59.2899" ry="18"/>
<text text-anchor="middle" x="1196.14" y="-188.3" font-family="Times,serif" font-size="14.00">infocar:Book</text>
</a>
</g>
</g>
<!-- Rhttp://www.w3.org/2002/07/owl#i:Book&#45;&gt;Rhttp://www.w3.org/2002/07/owl#i:Carrier -->
<g id="edge5" class="edge"><title>Rhttp://www.w3.org/2002/07/owl#i:Book&#45;&gt;Rhttp://www.w3.org/2002/07/owl#i:Carrier</title>
<path fill="none" stroke="green" d="M1166.7,-176.194C1139.02,-162.271 1097.37,-141.324 1066.78,-125.936"/>
<polygon fill="green" stroke="green" points="1068.17,-122.719 1057.67,-121.353 1065.03,-128.973 1068.17,-122.719"/>
<text text-anchor="middle" x="1179.64" y="-144.8" font-family="Times,serif" font-size="14.00">rdfs:subClassOf</text>
</g>
<!-- Rhttp://www.w3.org/2002/07/owl#i:Binding -->
<g id="node7" class="node"><title>Rhttp://www.w3.org/2002/07/owl#i:Binding</title>
<g id="a_node7"><a xlink:href="http://www.w3.org/2002/07/owl#i:Binding" xlink:title="infocar:Binding">
<ellipse fill="none" stroke="blue" cx="1055.14" cy="-279" rx="71.4873" ry="18"/>
<text text-anchor="middle" x="1055.14" y="-275.3" font-family="Times,serif" font-size="14.00">infocar:Binding</text>
</a>
</g>
</g>
<!-- Rhttp://www.w3.org/2002/07/owl#i:Binding&#45;&gt;Rhttp://www.w3.org/2002/07/owl#i:Carrier -->
<g id="edge6" class="edge"><title>Rhttp://www.w3.org/2002/07/owl#i:Binding&#45;&gt;Rhttp://www.w3.org/2002/07/owl#i:Carrier</title>
<path fill="none" stroke="green" d="M1040.98,-261.106C1031.03,-248.069 1018.56,-229.088 1013.14,-210 1008.77,-194.608 1011.52,-189.918 1013.14,-174 1014.53,-160.323 1017.46,-145.334 1020.29,-132.918"/>
<polygon fill="green" stroke="green" points="1023.69,-133.716 1022.59,-123.178 1016.88,-132.102 1023.69,-133.716"/>
<text text-anchor="middle" x="1070.64" y="-188.3" font-family="Times,serif" font-size="14.00">rdfs:subClassOf</text>
</g>
<!-- Rhttp://www.w3.org/2002/07/owl#i:Binding&#45;&gt;Rhttp://www.w3.org/2002/07/owl#i:Book -->
<g id="edge7" class="edge"><title>Rhttp://www.w3.org/2002/07/owl#i:Binding&#45;&gt;Rhttp://www.w3.org/2002/07/owl#i:Book</title>
<path fill="none" stroke="blue" d="M1064.08,-261.038C1070.57,-250.214 1080.27,-236.643 1092.14,-228 1105.79,-218.066 1122.45,-210.816 1138.4,-205.582"/>
<polygon fill="blue" stroke="blue" points="1139.67,-208.853 1148.21,-202.577 1137.62,-202.16 1139.67,-208.853"/>
<text text-anchor="middle" x="1153.64" y="-231.8" font-family="Times,serif" font-size="14.00">infocar:isBindingOf</text>
</g>
<!-- Rhttp://www.w3.org/2002/07/owl#i:Volume -->
<g id="node8" class="node"><title>Rhttp://www.w3.org/2002/07/owl#i:Volume</title>
<g id="a_node8"><a xlink:href="http://www.w3.org/2002/07/owl#i:Volume" xlink:title="infocar:Volume">
<ellipse fill="none" stroke="blue" cx="1246.14" cy="-279" rx="69.5877" ry="18"/>
<text text-anchor="middle" x="1246.14" y="-275.3" font-family="Times,serif" font-size="14.00">infocar:Volume</text>
</a>
</g>
</g>
<!-- Rhttp://www.w3.org/2002/07/owl#i:Volume&#45;&gt;Rhttp://www.w3.org/2002/07/owl#i:Book -->
<g id="edge8" class="edge"><title>Rhttp://www.w3.org/2002/07/owl#i:Volume&#45;&gt;Rhttp://www.w3.org/2002/07/owl#i:Book</title>
<path fill="none" stroke="green" d="M1236.02,-260.799C1228.93,-248.738 1219.32,-232.403 1211.31,-218.79"/>
<polygon fill="green" stroke="green" points="1214.16,-216.73 1206.07,-209.885 1208.13,-220.279 1214.16,-216.73"/>
<text text-anchor="middle" x="1281.64" y="-231.8" font-family="Times,serif" font-size="14.00">rdfs:subClassOf</text>
</g>
<!-- Rhttp://www.w3.org/2001/XMLSchema#nonNegativeInteger -->
<g id="node9" class="node"><title>Rhttp://www.w3.org/2001/XMLSchema#nonNegativeInteger</title>
<g id="a_node9"><a xlink:href="http://www.w3.org/2001/XMLSchema#nonNegativeInteger" xlink:title="xsd:nonNegativeInteger">
<ellipse fill="none" stroke="brown" cx="1397.14" cy="-192" rx="124.278" ry="18"/>
<text text-anchor="middle" x="1397.14" y="-188.3" font-family="Times,serif" font-size="14.00">xsd:nonNegativeInteger</text>
</a>
</g>
</g>
<!-- Rhttp://www.w3.org/2002/07/owl#i:Volume&#45;&gt;Rhttp://www.w3.org/2001/XMLSchema#nonNegativeInteger -->
<g id="edge9" class="edge"><title>Rhttp://www.w3.org/2002/07/owl#i:Volume&#45;&gt;Rhttp://www.w3.org/2001/XMLSchema#nonNegativeInteger</title>
<path fill="none" stroke="blue" d="M1292.77,-265.382C1309.34,-259.83 1327.69,-252.399 1343.14,-243 1354.57,-236.047 1365.68,-226.42 1374.82,-217.467"/>
<polygon fill="blue" stroke="blue" points="1377.48,-219.76 1382,-210.18 1372.49,-214.846 1377.48,-219.76"/>
<text text-anchor="middle" x="1452.14" y="-231.8" font-family="Times,serif" font-size="14.00">infocar:volumeHasNumber</text>
</g>
<!-- Rhttp://www.w3.org/2002/07/owl#i:Archive -->
<g id="node10" class="node"><title>Rhttp://www.w3.org/2002/07/owl#i:Archive</title>
<g id="a_node10"><a xlink:href="http://www.w3.org/2002/07/owl#i:Archive" xlink:title="infocar:Archive">
<ellipse fill="none" stroke="blue" cx="165.14" cy="-105" rx="71.4873" ry="18"/>
<text text-anchor="middle" x="165.14" y="-101.3" font-family="Times,serif" font-size="14.00">infocar:Archive</text>
</a>
</g>
</g>
<!-- Rhttp://www.w3.org/2002/07/owl#i:Archive&#45;&gt;Rhttp://www.w3.org/2002/07/owl#h:PhysicalCreation -->
<g id="edge10" class="edge"><title>Rhttp://www.w3.org/2002/07/owl#i:Archive&#45;&gt;Rhttp://www.w3.org/2002/07/owl#h:PhysicalCreation</title>
<path fill="none" stroke="green" d="M160.306,-86.6523C158.454,-75.947 158.363,-62.6532 166.14,-54 177.121,-41.7813 254.613,-32.6403 324.547,-26.7696"/>
<polygon fill="green" stroke="green" points="325.121,-30.2343 334.801,-25.9272 324.548,-23.2578 325.121,-30.2343"/>
<text text-anchor="middle" x="223.64" y="-57.8" font-family="Times,serif" font-size="14.00">rdfs:subClassOf</text>
</g>
<!-- Rhttp://www.w3.org/2000/01/rdf&#45;schema#c:E78_Collection -->
<g id="node11" class="node"><title>Rhttp://www.w3.org/2000/01/rdf&#45;schema#c:E78_Collection</title>
<g id="a_node11"><a xlink:href="http://www.w3.org/2000/01/rdf-schema#c:E78_Collection" xlink:title="cidoc:E78_Collection">
<ellipse fill="none" stroke="purple" cx="111.14" cy="-18" rx="111.28" ry="18"/>
<text text-anchor="middle" x="111.14" y="-14.3" font-family="Times,serif" font-size="14.00">cidoc:E78_Collection</text>
</a>
</g>
</g>
<!-- Rhttp://www.w3.org/2002/07/owl#i:Archive&#45;&gt;Rhttp://www.w3.org/2000/01/rdf&#45;schema#c:E78_Collection -->
<g id="edge11" class="edge"><title>Rhttp://www.w3.org/2002/07/owl#i:Archive&#45;&gt;Rhttp://www.w3.org/2000/01/rdf&#45;schema#c:E78_Collection</title>
<path fill="none" stroke="green" d="M103.495,-95.74C71.7599,-90.09 37.7394,-81.36 28.1401,-69 17.9538,-55.8842 27.9659,-45.4486 44.1134,-37.5766"/>
<polygon fill="green" stroke="green" points="45.8346,-40.6457 53.6261,-33.4663 43.0581,-34.2199 45.8346,-40.6457"/>
<text text-anchor="middle" x="85.6401" y="-57.8" font-family="Times,serif" font-size="14.00">rdfs:subClassOf</text>
</g>
<!-- Rhttp://www.w3.org/2002/07/owl#i:ArchiveElement -->
<g id="node12" class="node"><title>Rhttp://www.w3.org/2002/07/owl#i:ArchiveElement</title>
<g id="a_node12"><a xlink:href="http://www.w3.org/2002/07/owl#i:ArchiveElement" xlink:title="infocar:ArchiveElement">
<ellipse fill="none" stroke="blue" cx="554.14" cy="-192" rx="110.48" ry="18"/>
<text text-anchor="middle" x="554.14" y="-188.3" font-family="Times,serif" font-size="14.00">infocar:ArchiveElement</text>
</a>
</g>
</g>
<!-- Rhttp://www.w3.org/2002/07/owl#i:ArchiveElement&#45;&gt;Rhttp://www.w3.org/2002/07/owl#i:Carrier -->
<g id="edge12" class="edge"><title>Rhttp://www.w3.org/2002/07/owl#i:ArchiveElement&#45;&gt;Rhttp://www.w3.org/2002/07/owl#i:Carrier</title>
<path fill="none" stroke="green" d="M559.816,-173.613C564.474,-162.311 572.264,-148.357 584.14,-141 591.825,-136.239 825.846,-119.68 950.57,-111.157"/>
<polygon fill="green" stroke="green" points="951.084,-114.63 960.823,-110.458 950.608,-107.646 951.084,-114.63"/>
<text text-anchor="middle" x="641.64" y="-144.8" font-family="Times,serif" font-size="14.00">rdfs:subClassOf</text>
</g>
<!-- Rhttp://www.w3.org/2002/07/owl#i:ArchiveElement&#45;&gt;Rhttp://www.w3.org/2000/01/rdf&#45;schema#Literal -->
<g id="edge14" class="edge"><title>Rhttp://www.w3.org/2002/07/owl#i:ArchiveElement&#45;&gt;Rhttp://www.w3.org/2000/01/rdf&#45;schema#Literal</title>
<path fill="none" stroke="blue" d="M553.233,-173.646C552.721,-144.757 556.089,-86.7537 588.14,-54 603.272,-38.5365 624.492,-29.6941 645.359,-24.7011"/>
<polygon fill="blue" stroke="blue" points="646.166,-28.1079 655.221,-22.6076 644.713,-21.2605 646.166,-28.1079"/>
<text text-anchor="middle" x="661.64" y="-101.3" font-family="Times,serif" font-size="14.00">infocar:hasArchiveSignature</text>
</g>
<!-- Rhttp://www.w3.org/2002/07/owl#i:ArchiveElement&#45;&gt;Rhttp://www.w3.org/2002/07/owl#i:Archive -->
<g id="edge13" class="edge"><title>Rhttp://www.w3.org/2002/07/owl#i:ArchiveElement&#45;&gt;Rhttp://www.w3.org/2002/07/owl#i:Archive</title>
<path fill="none" stroke="blue" d="M488.259,-177.429C457.51,-171.035 420.429,-163.237 387.14,-156 332.586,-144.14 270.615,-130.139 226.038,-119.973"/>
<polygon fill="blue" stroke="blue" points="226.762,-116.548 216.234,-117.735 225.204,-123.373 226.762,-116.548"/>
<text text-anchor="middle" x="463.64" y="-144.8" font-family="Times,serif" font-size="14.00">infocar:isPartOfArchive</text>
</g>
<!-- Rhttp://www.w3.org/2002/07/owl#i:Legacy -->
<g id="node13" class="node"><title>Rhttp://www.w3.org/2002/07/owl#i:Legacy</title>
<g id="a_node13"><a xlink:href="http://www.w3.org/2002/07/owl#i:Legacy" xlink:title="infocar:Legacy">
<ellipse fill="none" stroke="blue" cx="441.14" cy="-105" rx="69.5877" ry="18"/>
<text text-anchor="middle" x="441.14" y="-101.3" font-family="Times,serif" font-size="14.00">infocar:Legacy</text>
</a>
</g>
</g>
<!-- Rhttp://www.w3.org/2002/07/owl#i:Legacy&#45;&gt;Rhttp://www.w3.org/2002/07/owl#h:PhysicalCreation -->
<g id="edge15" class="edge"><title>Rhttp://www.w3.org/2002/07/owl#i:Legacy&#45;&gt;Rhttp://www.w3.org/2002/07/owl#h:PhysicalCreation</title>
<path fill="none" stroke="green" d="M441.14,-86.799C441.14,-75.1626 441.14,-59.5479 441.14,-46.2368"/>
<polygon fill="green" stroke="green" points="444.64,-46.1754 441.14,-36.1754 437.64,-46.1755 444.64,-46.1754"/>
<text text-anchor="middle" x="498.64" y="-57.8" font-family="Times,serif" font-size="14.00">rdfs:subClassOf</text>
</g>
<!-- Rhttp://www.w3.org/2002/07/owl#i:Legacy&#45;&gt;Rhttp://www.w3.org/2000/01/rdf&#45;schema#c:E78_Collection -->
<g id="edge16" class="edge"><title>Rhttp://www.w3.org/2002/07/owl#i:Legacy&#45;&gt;Rhttp://www.w3.org/2000/01/rdf&#45;schema#c:E78_Collection</title>
<path fill="none" stroke="green" d="M395.437,-91.3068C373.212,-84.944 346.172,-76.9209 322.14,-69 303.712,-62.926 299.805,-59.3042 281.14,-54 253.26,-46.0768 222.331,-39.1665 194.58,-33.6265"/>
<polygon fill="green" stroke="green" points="194.999,-30.1419 184.512,-31.6481 193.649,-37.0106 194.999,-30.1419"/>
<text text-anchor="middle" x="379.64" y="-57.8" font-family="Times,serif" font-size="14.00">rdfs:subClassOf</text>
</g>
<!-- Rhttp://www.w3.org/2002/07/owl#i:LegacyElement -->
<g id="node14" class="node"><title>Rhttp://www.w3.org/2002/07/owl#i:LegacyElement</title>
<g id="a_node14"><a xlink:href="http://www.w3.org/2002/07/owl#i:LegacyElement" xlink:title="infocar:LegacyElement">
<ellipse fill="none" stroke="blue" cx="836.14" cy="-192" rx="108.581" ry="18"/>
<text text-anchor="middle" x="836.14" y="-188.3" font-family="Times,serif" font-size="14.00">infocar:LegacyElement</text>
</a>
</g>
</g>
<!-- Rhttp://www.w3.org/2002/07/owl#i:LegacyElement&#45;&gt;Rhttp://www.w3.org/2002/07/owl#i:Carrier -->
<g id="edge17" class="edge"><title>Rhttp://www.w3.org/2002/07/owl#i:LegacyElement&#45;&gt;Rhttp://www.w3.org/2002/07/owl#i:Carrier</title>
<path fill="none" stroke="green" d="M855.365,-174.038C869.988,-161.42 889.087,-145.619 898.14,-141 917.769,-130.985 940.585,-123.584 961.524,-118.236"/>
<polygon fill="green" stroke="green" points="962.426,-121.618 971.311,-115.847 960.766,-114.818 962.426,-121.618"/>
<text text-anchor="middle" x="955.64" y="-144.8" font-family="Times,serif" font-size="14.00">rdfs:subClassOf</text>
</g>
<!-- Rhttp://www.w3.org/2002/07/owl#i:LegacyElement&#45;&gt;Rhttp://www.w3.org/2002/07/owl#i:Legacy -->
<g id="edge18" class="edge"><title>Rhttp://www.w3.org/2002/07/owl#i:LegacyElement&#45;&gt;Rhttp://www.w3.org/2002/07/owl#i:Legacy</title>
<path fill="none" stroke="blue" d="M779.289,-176.569C761.524,-171.143 742.136,-164.251 725.14,-156 714.494,-150.832 714.244,-145.094 703.14,-141 633.511,-115.329 610.607,-133.476 537.14,-123 526.918,-121.542 516.116,-119.814 505.592,-118.027"/>
<polygon fill="blue" stroke="blue" points="506.064,-114.557 495.614,-116.302 504.872,-121.454 506.064,-114.557"/>
<text text-anchor="middle" x="799.64" y="-144.8" font-family="Times,serif" font-size="14.00">infocar:isPartOfLegacy</text>
</g>
<!-- Rhttp://www.w3.org/2002/07/owl#i:Manuscript -->
<g id="node15" class="node"><title>Rhttp://www.w3.org/2002/07/owl#i:Manuscript</title>
<g id="a_node15"><a xlink:href="http://www.w3.org/2002/07/owl#i:Manuscript" xlink:title="infocar:Manuscript">
<ellipse fill="none" stroke="blue" cx="1883.14" cy="-192" rx="89.8845" ry="18"/>
<text text-anchor="middle" x="1883.14" y="-188.3" font-family="Times,serif" font-size="14.00">infocar:Manuscript</text>
</a>
</g>
</g>
<!-- Rhttp://www.w3.org/2002/07/owl#i:Manuscript&#45;&gt;Rhttp://www.w3.org/2002/07/owl#i:Carrier -->
<g id="edge19" class="edge"><title>Rhttp://www.w3.org/2002/07/owl#i:Manuscript&#45;&gt;Rhttp://www.w3.org/2002/07/owl#i:Carrier</title>
<path fill="none" stroke="green" d="M1819.9,-179.2C1808.05,-177.256 1795.74,-175.417 1784.14,-174 1675.32,-160.708 1646.66,-171.522 1538.14,-156 1506.64,-151.495 1499.62,-145.602 1468.14,-141 1342.04,-122.567 1194.14,-113.325 1105.67,-109.104"/>
<polygon fill="green" stroke="green" points="1105.6,-105.597 1095.45,-108.626 1105.27,-112.589 1105.6,-105.597"/>
<text text-anchor="middle" x="1595.64" y="-144.8" font-family="Times,serif" font-size="14.00">rdfs:subClassOf</text>
</g>
<!-- Rhttp://www.w3.org/2000/01/rdf&#45;schema#f:F4_Manifestation_Singleton -->
<g id="node16" class="node"><title>Rhttp://www.w3.org/2000/01/rdf&#45;schema#f:F4_Manifestation_Singleton</title>
<g id="a_node16"><a xlink:href="http://www.w3.org/2000/01/rdf-schema#f:F4_Manifestation_Singleton" xlink:title="frbroo:F4_Manifestation_Singleton">
<ellipse fill="none" stroke="purple" cx="2010.14" cy="-105" rx="168.97" ry="18"/>
<text text-anchor="middle" x="2010.14" y="-101.3" font-family="Times,serif" font-size="14.00">frbroo:F4_Manifestation_Singleton</text>
</a>
</g>
</g>
<!-- Rhttp://www.w3.org/2002/07/owl#i:Manuscript&#45;&gt;Rhttp://www.w3.org/2000/01/rdf&#45;schema#f:F4_Manifestation_Singleton -->
<g id="edge20" class="edge"><title>Rhttp://www.w3.org/2002/07/owl#i:Manuscript&#45;&gt;Rhttp://www.w3.org/2000/01/rdf&#45;schema#f:F4_Manifestation_Singleton</title>
<path fill="none" stroke="green" d="M1876.8,-173.584C1874.17,-163.12 1873.16,-150.111 1880.14,-141 1885.46,-134.06 1898.77,-128.187 1914.95,-123.35"/>
<polygon fill="green" stroke="green" points="1916.07,-126.672 1924.77,-120.622 1914.2,-119.927 1916.07,-126.672"/>
<text text-anchor="middle" x="1937.64" y="-144.8" font-family="Times,serif" font-size="14.00">rdfs:subClassOf</text>
</g>
<!-- Rhttp://www.w3.org/2002/07/owl#i:Transcription -->
<g id="node17" class="node"><title>Rhttp://www.w3.org/2002/07/owl#i:Transcription</title>
<g id="a_node17"><a xlink:href="http://www.w3.org/2002/07/owl#i:Transcription" xlink:title="infocar:Transcription">
<ellipse fill="none" stroke="blue" cx="2155.14" cy="-192" rx="98.5829" ry="18"/>
<text text-anchor="middle" x="2155.14" y="-188.3" font-family="Times,serif" font-size="14.00">infocar:Transcription</text>
</a>
</g>
</g>
<!-- Rhttp://www.w3.org/2002/07/owl#i:Transcription&#45;&gt;Rhttp://www.w3.org/2002/07/owl#i:Carrier -->
<g id="edge22" class="edge"><title>Rhttp://www.w3.org/2002/07/owl#i:Transcription&#45;&gt;Rhttp://www.w3.org/2002/07/owl#i:Carrier</title>
<path fill="none" stroke="green" d="M2083.87,-179.481C2060.88,-174.165 2035.77,-166.603 2014.14,-156 2004.48,-151.264 2005.24,-144.712 1995.14,-141 1989.94,-139.087 1335.67,-116.549 1105.85,-108.686"/>
<polygon fill="green" stroke="green" points="1105.67,-105.178 1095.56,-108.334 1105.43,-112.174 1105.67,-105.178"/>
<text text-anchor="middle" x="2071.64" y="-144.8" font-family="Times,serif" font-size="14.00">rdfs:subClassOf</text>
</g>
<!-- Rhttp://www.w3.org/2002/07/owl#i:Transcription&#45;&gt;Rhttp://www.w3.org/2000/01/rdf&#45;schema#f:F4_Manifestation_Singleton -->
<g id="edge23" class="edge"><title>Rhttp://www.w3.org/2002/07/owl#i:Transcription&#45;&gt;Rhttp://www.w3.org/2000/01/rdf&#45;schema#f:F4_Manifestation_Singleton</title>
<path fill="none" stroke="green" d="M2151.58,-173.926C2148.47,-163.055 2142.86,-149.473 2133.14,-141 2125.4,-134.258 2116.45,-128.809 2106.97,-124.407"/>
<polygon fill="green" stroke="green" points="2108.32,-121.177 2097.74,-120.499 2105.59,-127.622 2108.32,-121.177"/>
<text text-anchor="middle" x="2201.64" y="-144.8" font-family="Times,serif" font-size="14.00">rdfs:subClassOf</text>
</g>
<!-- Rhttp://www.w3.org/2002/07/owl#h:Copy -->
<g id="node18" class="node"><title>Rhttp://www.w3.org/2002/07/owl#h:Copy</title>
<g id="a_node18"><a xlink:href="http://www.w3.org/2002/07/owl#h:Copy" xlink:title="human:Copy">
<ellipse fill="none" stroke="blue" cx="2293.14" cy="-105" rx="62.2891" ry="18"/>
<text text-anchor="middle" x="2293.14" y="-101.3" font-family="Times,serif" font-size="14.00">human:Copy</text>
</a>
</g>
</g>
<!-- Rhttp://www.w3.org/2002/07/owl#i:Transcription&#45;&gt;Rhttp://www.w3.org/2002/07/owl#h:Copy -->
<g id="edge21" class="edge"><title>Rhttp://www.w3.org/2002/07/owl#i:Transcription&#45;&gt;Rhttp://www.w3.org/2002/07/owl#h:Copy</title>
<path fill="none" stroke="green" d="M2227.28,-179.642C2243.09,-174.47 2258.78,-166.946 2271.14,-156 2278.08,-149.855 2282.93,-141.113 2286.27,-132.653"/>
<polygon fill="green" stroke="green" points="2289.64,-133.618 2289.54,-123.023 2283.01,-131.37 2289.64,-133.618"/>
<text text-anchor="middle" x="2339.64" y="-144.8" font-family="Times,serif" font-size="14.00">rdfs:subClassOf</text>
</g>
<!-- Rhttp://www.w3.org/2002/07/owl#i:ManuelTranscription -->
<g id="node19" class="node"><title>Rhttp://www.w3.org/2002/07/owl#i:ManuelTranscription</title>
<g id="a_node19"><a xlink:href="http://www.w3.org/2002/07/owl#i:ManuelTranscription" xlink:title="infocar:ManuelTranscription">
<ellipse fill="none" stroke="blue" cx="2155.14" cy="-279" rx="133.776" ry="18"/>
<text text-anchor="middle" x="2155.14" y="-275.3" font-family="Times,serif" font-size="14.00">infocar:ManuelTranscription</text>
</a>
</g>
</g>
<!-- Rhttp://www.w3.org/2002/07/owl#i:ManuelTranscription&#45;&gt;Rhttp://www.w3.org/2002/07/owl#i:Transcription -->
<g id="edge24" class="edge"><title>Rhttp://www.w3.org/2002/07/owl#i:ManuelTranscription&#45;&gt;Rhttp://www.w3.org/2002/07/owl#i:Transcription</title>
<path fill="none" stroke="green" d="M2155.14,-260.799C2155.14,-249.163 2155.14,-233.548 2155.14,-220.237"/>
<polygon fill="green" stroke="green" points="2158.64,-220.175 2155.14,-210.175 2151.64,-220.175 2158.64,-220.175"/>
<text text-anchor="middle" x="2212.64" y="-231.8" font-family="Times,serif" font-size="14.00">rdfs:subClassOf</text>
</g>
<!-- Rhttp://www.w3.org/2002/07/owl#i:ElectronicCarrier -->
<g id="node20" class="node"><title>Rhttp://www.w3.org/2002/07/owl#i:ElectronicCarrier</title>
<g id="a_node20"><a xlink:href="http://www.w3.org/2002/07/owl#i:ElectronicCarrier" xlink:title="infocar:ElectronicCarrier">
<ellipse fill="none" stroke="blue" cx="1657.14" cy="-192" rx="118.079" ry="18"/>
<text text-anchor="middle" x="1657.14" y="-188.3" font-family="Times,serif" font-size="14.00">infocar:ElectronicCarrier</text>
</a>
</g>
</g>
<!-- Rhttp://www.w3.org/2002/07/owl#i:ElectronicCarrier&#45;&gt;Rhttp://www.w3.org/2002/07/owl#i:Carrier -->
<g id="edge26" class="edge"><title>Rhttp://www.w3.org/2002/07/owl#i:ElectronicCarrier&#45;&gt;Rhttp://www.w3.org/2002/07/owl#i:Carrier</title>
<path fill="none" stroke="green" d="M1572.82,-179.332C1558.58,-177.471 1543.95,-175.626 1530.14,-174 1451.61,-164.753 1431.58,-165.997 1353.14,-156 1263.1,-144.525 1159.57,-128.089 1093.78,-117.236"/>
<polygon fill="green" stroke="green" points="1093.99,-113.724 1083.56,-115.544 1092.85,-120.63 1093.99,-113.724"/>
<text text-anchor="middle" x="1410.64" y="-144.8" font-family="Times,serif" font-size="14.00">rdfs:subClassOf</text>
</g>
<!-- Rhttp://www.w3.org/2002/07/owl#d:ElectronicMachine -->
<g id="node21" class="node"><title>Rhttp://www.w3.org/2002/07/owl#d:ElectronicMachine</title>
<g id="a_node21"><a xlink:href="http://www.w3.org/2002/07/owl#d:ElectronicMachine" xlink:title="device:ElectronicMachine">
<ellipse fill="none" stroke="blue" cx="1657.14" cy="-105" rx="127.277" ry="18"/>
<text text-anchor="middle" x="1657.14" y="-101.3" font-family="Times,serif" font-size="14.00">device:ElectronicMachine</text>
</a>
</g>
</g>
<!-- Rhttp://www.w3.org/2002/07/owl#i:ElectronicCarrier&#45;&gt;Rhttp://www.w3.org/2002/07/owl#d:ElectronicMachine -->
<g id="edge25" class="edge"><title>Rhttp://www.w3.org/2002/07/owl#i:ElectronicCarrier&#45;&gt;Rhttp://www.w3.org/2002/07/owl#d:ElectronicMachine</title>
<path fill="none" stroke="green" d="M1657.14,-173.799C1657.14,-162.163 1657.14,-146.548 1657.14,-133.237"/>
<polygon fill="green" stroke="green" points="1660.64,-133.175 1657.14,-123.175 1653.64,-133.175 1660.64,-133.175"/>
<text text-anchor="middle" x="1714.64" y="-144.8" font-family="Times,serif" font-size="14.00">rdfs:subClassOf</text>
</g>
<!-- Rhttp://www.w3.org/2002/07/owl#t:HandwrittenText -->
<g id="node22" class="node"><title>Rhttp://www.w3.org/2002/07/owl#t:HandwrittenText</title>
<g id="a_node22"><a xlink:href="http://www.w3.org/2002/07/owl#t:HandwrittenText" xlink:title="text:HandwrittenText">
<ellipse fill="none" stroke="blue" cx="1883.14" cy="-279" rx="116.18" ry="18"/>
<text text-anchor="middle" x="1883.14" y="-275.3" font-family="Times,serif" font-size="14.00">text:HandwrittenText</text>
</a>
</g>
</g>
<!-- Rhttp://www.w3.org/2002/07/owl#t:HandwrittenText&#45;&gt;Rhttp://www.w3.org/2002/07/owl#i:Manuscript -->
<g id="edge27" class="edge"><title>Rhttp://www.w3.org/2002/07/owl#t:HandwrittenText&#45;&gt;Rhttp://www.w3.org/2002/07/owl#i:Manuscript</title>
<path fill="none" stroke="blue" d="M1883.14,-260.799C1883.14,-249.163 1883.14,-233.548 1883.14,-220.237"/>
<polygon fill="blue" stroke="blue" points="1886.64,-220.175 1883.14,-210.175 1879.64,-220.175 1886.64,-220.175"/>
<text text-anchor="middle" x="1957.64" y="-231.8" font-family="Times,serif" font-size="14.00">infocar:isInManuscript</text>
</g>
</g>
</svg>