<?xml version="1.0" encoding="UTF-8" standalone="no"?>
<!DOCTYPE svg PUBLIC "-//W3C//DTD SVG 1.1//EN"
 "http://www.w3.org/Graphics/SVG/1.1/DTD/svg11.dtd">
<!-- Generated by graphviz version 2.38.0 (20140413.2041)
 -->
<!-- Title: %3 Pages: 1 -->
<svg width="1553pt" height="566pt"
 viewBox="0.00 0.00 1553.29 566.00" xmlns="http://www.w3.org/2000/svg" xmlns:xlink="http://www.w3.org/1999/xlink">
<g id="graph0" class="graph" transform="scale(1 1) rotate(0) translate(4 562)">
<title>%3</title>
<polygon fill="white" stroke="none" points="-4,4 -4,-562 1549.29,-562 1549.29,4 -4,4"/>
<!-- Rhttp://www.w3.org/2002/07/owl#i:Carrier -->
<g id="node1" class="node"><title>Rhttp://www.w3.org/2002/07/owl#i:Carrier</title>
<g id="a_node1"><a xlink:href="http://www.w3.org/2002/07/owl#i:Carrier" xlink:title="infocar:Carrier">
<ellipse fill="none" stroke="blue" cx="525.29" cy="-105" rx="69.5877" ry="18"/>
<text text-anchor="middle" x="525.29" y="-101.3" font-family="Times,serif" font-size="14.00">infocar:Carrier</text>
</a>
</g>
</g>
<!-- Rhttp://www.w3.org/2002/07/owl#h:PhysicalCreation -->
<g id="node2" class="node"><title>Rhttp://www.w3.org/2002/07/owl#h:PhysicalCreation</title>
<g id="a_node2"><a xlink:href="http://www.w3.org/2002/07/owl#h:PhysicalCreation" xlink:title="human:PhysicalCreation">
<ellipse fill="none" stroke="blue" cx="118.29" cy="-18" rx="118.079" ry="18"/>
<text text-anchor="middle" x="118.29" y="-14.3" font-family="Times,serif" font-size="14.00">human:PhysicalCreation</text>
</a>
</g>
</g>
<!-- Rhttp://www.w3.org/2002/07/owl#i:Carrier&#45;&gt;Rhttp://www.w3.org/2002/07/owl#h:PhysicalCreation -->
<g id="edge1" class="edge"><title>Rhttp://www.w3.org/2002/07/owl#i:Carrier&#45;&gt;Rhttp://www.w3.org/2002/07/owl#h:PhysicalCreation</title>
<path fill="none" stroke="green" d="M470.869,-93.7815C435.127,-86.9807 387.372,-77.7246 345.29,-69 293.676,-58.2994 235.635,-45.5013 191.163,-35.532"/>
<polygon fill="green" stroke="green" points="191.838,-32.0965 181.314,-33.3208 190.304,-38.9265 191.838,-32.0965"/>
<text text-anchor="middle" x="402.79" y="-57.8" font-family="Times,serif" font-size="14.00">rdfs:subClassOf</text>
</g>
<!-- Rhttp://www.w3.org/2000/01/rdf&#45;schema#ci:E84_Information_Carrier -->
<g id="node3" class="node"><title>Rhttp://www.w3.org/2000/01/rdf&#45;schema#ci:E84_Information_Carrier</title>
<g id="a_node3"><a xlink:href="http://www.w3.org/2000/01/rdf-schema#ci:E84_Information_Carrier" xlink:title="cidoc:E84_Information_Carrier">
<ellipse fill="none" stroke="purple" cx="415.29" cy="-18" rx="161.372" ry="18"/>
<text text-anchor="middle" x="415.29" y="-14.3" font-family="Times,serif" font-size="14.00">cidoc:E84_Information_Carrier</text>
</a>
</g>
</g>
<!-- Rhttp://www.w3.org/2002/07/owl#i:Carrier&#45;&gt;Rhttp://www.w3.org/2000/01/rdf&#45;schema#ci:E84_Information_Carrier -->
<g id="edge2" class="edge"><title>Rhttp://www.w3.org/2002/07/owl#i:Carrier&#45;&gt;Rhttp://www.w3.org/2000/01/rdf&#45;schema#ci:E84_Information_Carrier</title>
<path fill="none" stroke="green" d="M504.34,-87.8121C487.616,-74.8888 463.967,-56.6141 445.242,-42.1452"/>
<polygon fill="green" stroke="green" points="447.344,-39.3465 437.291,-36.0015 443.064,-44.8855 447.344,-39.3465"/>
<text text-anchor="middle" x="534.79" y="-57.8" font-family="Times,serif" font-size="14.00">rdfs:subClassOf</text>
</g>
<!-- Rhttp://www.w3.org/2000/01/rdf&#45;schema#Literal -->
<g id="node4" class="node"><title>Rhttp://www.w3.org/2000/01/rdf&#45;schema#Literal</title>
<g id="a_node4"><a xlink:href="http://www.w3.org/2000/01/rdf-schema#Literal" xlink:title="rdfs:Literal">
<ellipse fill="none" stroke="brown" cx="658.29" cy="-18" rx="63.8893" ry="18"/>
<text text-anchor="middle" x="658.29" y="-14.3" font-family="Times,serif" font-size="14.00">rdfs:Literal</text>
</a>
</g>
</g>
<!-- Rhttp://www.w3.org/2002/07/owl#i:Carrier&#45;&gt;Rhttp://www.w3.org/2000/01/rdf&#45;schema#Literal -->
<g id="edge3" class="edge"><title>Rhttp://www.w3.org/2002/07/owl#i:Carrier&#45;&gt;Rhttp://www.w3.org/2000/01/rdf&#45;schema#Literal</title>
<path fill="none" stroke="blue" d="M559.349,-89.0894C571.34,-83.3553 584.707,-76.3967 596.29,-69 608.734,-61.0527 621.584,-51.0361 632.336,-42.0591"/>
<polygon fill="blue" stroke="blue" points="634.758,-44.5936 640.108,-35.4485 630.223,-39.2616 634.758,-44.5936"/>
<text text-anchor="middle" x="716.29" y="-57.8" font-family="Times,serif" font-size="14.00">infocar:carrierHasDescription</text>
</g>
<!-- Rhttp://www.w3.org/2002/07/owl#im:Photograph -->
<g id="node5" class="node"><title>Rhttp://www.w3.org/2002/07/owl#im:Photograph</title>
<g id="a_node5"><a xlink:href="http://www.w3.org/2002/07/owl#im:Photograph" xlink:title="image:Photograph">
<ellipse fill="none" stroke="blue" cx="859.29" cy="-18" rx="98.5829" ry="18"/>
<text text-anchor="middle" x="859.29" y="-14.3" font-family="Times,serif" font-size="14.00">image:Photograph</text>
</a>
</g>
</g>
<!-- Rhttp://www.w3.org/2002/07/owl#i:Carrier&#45;&gt;Rhttp://www.w3.org/2002/07/owl#im:Photograph -->
<g id="edge4" class="edge"><title>Rhttp://www.w3.org/2002/07/owl#i:Carrier&#45;&gt;Rhttp://www.w3.org/2002/07/owl#im:Photograph</title>
<path fill="none" stroke="blue" d="M583.34,-94.9661C601.837,-92.2288 622.402,-89.3324 641.29,-87 680.967,-82.1003 785.288,-88.3172 820.29,-69 830.369,-63.4371 838.722,-54.0752 845.077,-44.9465"/>
<polygon fill="blue" stroke="blue" points="848.105,-46.7068 850.548,-36.3973 842.209,-42.9334 848.105,-46.7068"/>
<text text-anchor="middle" x="952.29" y="-57.8" font-family="Times,serif" font-size="14.00">image:hasPhotoRepresentation</text>
</g>
<!-- Rhttp://www.w3.org/2002/07/owl#i:Manuscript -->
<g id="node6" class="node"><title>Rhttp://www.w3.org/2002/07/owl#i:Manuscript</title>
<g id="a_node6"><a xlink:href="http://www.w3.org/2002/07/owl#i:Manuscript" xlink:title="infocar:Manuscript">
<ellipse fill="none" stroke="blue" cx="501.29" cy="-192" rx="89.8845" ry="18"/>
<text text-anchor="middle" x="501.29" y="-188.3" font-family="Times,serif" font-size="14.00">infocar:Manuscript</text>
</a>
</g>
</g>
<!-- Rhttp://www.w3.org/2002/07/owl#i:Manuscript&#45;&gt;Rhttp://www.w3.org/2002/07/owl#i:Carrier -->
<g id="edge5" class="edge"><title>Rhttp://www.w3.org/2002/07/owl#i:Manuscript&#45;&gt;Rhttp://www.w3.org/2002/07/owl#i:Carrier</title>
<path fill="none" stroke="green" d="M468.007,-175.172C453.738,-166.105 442.03,-153.969 450.29,-141 454.95,-133.683 461.583,-127.87 469,-123.259"/>
<polygon fill="green" stroke="green" points="470.874,-126.225 477.996,-118.381 467.537,-120.072 470.874,-126.225"/>
<text text-anchor="middle" x="507.79" y="-144.8" font-family="Times,serif" font-size="14.00">rdfs:subClassOf</text>
</g>
<!-- Rhttp://www.w3.org/2000/01/rdf&#45;schema#fr:F4_Manifestation_Singleton -->
<g id="node7" class="node"><title>Rhttp://www.w3.org/2000/01/rdf&#45;schema#fr:F4_Manifestation_Singleton</title>
<g id="a_node7"><a xlink:href="http://www.w3.org/2000/01/rdf-schema#fr:F4_Manifestation_Singleton" xlink:title="frbroo:F4_Manifestation_Singleton">
<ellipse fill="none" stroke="purple" cx="824.29" cy="-105" rx="173.569" ry="18"/>
<text text-anchor="middle" x="824.29" y="-101.3" font-family="Times,serif" font-size="14.00">frbroo:F4_Manifestation_Singleton</text>
</a>
</g>
</g>
<!-- Rhttp://www.w3.org/2002/07/owl#i:Manuscript&#45;&gt;Rhttp://www.w3.org/2000/01/rdf&#45;schema#fr:F4_Manifestation_Singleton -->
<g id="edge6" class="edge"><title>Rhttp://www.w3.org/2002/07/owl#i:Manuscript&#45;&gt;Rhttp://www.w3.org/2000/01/rdf&#45;schema#fr:F4_Manifestation_Singleton</title>
<path fill="none" stroke="green" d="M532.83,-175.109C543.374,-169.443 555.044,-162.777 565.29,-156 574.263,-150.065 574.408,-145.255 584.29,-141 610.496,-129.717 639.644,-121.955 668.34,-116.64"/>
<polygon fill="green" stroke="green" points="669.223,-120.039 678.466,-114.861 668.011,-113.145 669.223,-120.039"/>
<text text-anchor="middle" x="641.79" y="-144.8" font-family="Times,serif" font-size="14.00">rdfs:subClassOf</text>
</g>
<!-- Rhttp://www.w3.org/2002/07/owl#i:Typescript -->
<g id="node8" class="node"><title>Rhttp://www.w3.org/2002/07/owl#i:Typescript</title>
<g id="a_node8"><a xlink:href="http://www.w3.org/2002/07/owl#i:Typescript" xlink:title="infocar:Typescript">
<ellipse fill="none" stroke="blue" cx="746.29" cy="-192" rx="85.2851" ry="18"/>
<text text-anchor="middle" x="746.29" y="-188.3" font-family="Times,serif" font-size="14.00">infocar:Typescript</text>
</a>
</g>
</g>
<!-- Rhttp://www.w3.org/2002/07/owl#i:Typescript&#45;&gt;Rhttp://www.w3.org/2002/07/owl#i:Carrier -->
<g id="edge7" class="edge"><title>Rhttp://www.w3.org/2002/07/owl#i:Typescript&#45;&gt;Rhttp://www.w3.org/2002/07/owl#i:Carrier</title>
<path fill="none" stroke="green" d="M736.006,-173.992C728.372,-162.859 716.943,-148.951 703.29,-141 693.528,-135.315 638.799,-125.009 592.572,-117.047"/>
<polygon fill="green" stroke="green" points="593.002,-113.57 582.555,-115.335 591.822,-120.47 593.002,-113.57"/>
<text text-anchor="middle" x="779.79" y="-144.8" font-family="Times,serif" font-size="14.00">rdfs:subClassOf</text>
</g>
<!-- Rhttp://www.w3.org/2002/07/owl#i:Typescript&#45;&gt;Rhttp://www.w3.org/2000/01/rdf&#45;schema#fr:F4_Manifestation_Singleton -->
<g id="edge8" class="edge"><title>Rhttp://www.w3.org/2002/07/owl#i:Typescript&#45;&gt;Rhttp://www.w3.org/2000/01/rdf&#45;schema#fr:F4_Manifestation_Singleton</title>
<path fill="none" stroke="green" d="M809.322,-179.878C821.869,-174.691 833.548,-167.102 841.29,-156 846.189,-148.973 845.248,-140.414 842.076,-132.379"/>
<polygon fill="green" stroke="green" points="845.145,-130.69 837.545,-123.309 838.883,-133.819 845.145,-130.69"/>
<text text-anchor="middle" x="902.79" y="-144.8" font-family="Times,serif" font-size="14.00">rdfs:subClassOf</text>
</g>
<!-- Rhttp://www.w3.org/2002/07/owl#i:Sender -->
<g id="node9" class="node"><title>Rhttp://www.w3.org/2002/07/owl#i:Sender</title>
<g id="a_node9"><a xlink:href="http://www.w3.org/2002/07/owl#i:Sender" xlink:title="infocar:Sender">
<ellipse fill="none" stroke="blue" cx="976.29" cy="-279" rx="68.4888" ry="18"/>
<text text-anchor="middle" x="976.29" y="-275.3" font-family="Times,serif" font-size="14.00">infocar:Sender</text>
</a>
</g>
</g>
<!-- Rhttp://www.w3.org/2002/07/owl#h:AgentRole -->
<g id="node10" class="node"><title>Rhttp://www.w3.org/2002/07/owl#h:AgentRole</title>
<g id="a_node10"><a xlink:href="http://www.w3.org/2002/07/owl#h:AgentRole" xlink:title="human:AgentRole">
<ellipse fill="none" stroke="blue" cx="1069.29" cy="-192" rx="59.2899" ry="18"/>
<text text-anchor="middle" x="1069.29" y="-188.3" font-family="Times,serif" font-size="14.00">human:AgentRole</text>
</a>
</g>
</g>
<!-- Rhttp://www.w3.org/2002/07/owl#i:Sender&#45;&gt;Rhttp://www.w3.org/2002/07/owl#h:AgentRole -->
<g id="edge9" class="edge"><title>Rhttp://www.w3.org/2002/07/owl#i:Sender&#45;&gt;Rhttp://www.w3.org/2002/07/owl#h:AgentRole</title>
<path fill="none" stroke="green" d="M975.445,-260.559C975.831,-250.084 977.996,-237.074 985.29,-228 992.562,-218.952 1002.58,-212.215 1013.17,-207.207"/>
<polygon fill="green" stroke="green" points="1014.71,-210.353 1022.56,-203.237 1011.99,-203.905 1014.71,-210.353"/>
<text text-anchor="middle" x="1042.79" y="-231.8" font-family="Times,serif" font-size="14.00">rdfs:subClassOf</text>
</g>
<!-- Rhttp://www.w3.org/2002/07/owl#i:Receiver -->
<g id="node11" class="node"><title>Rhttp://www.w3.org/2002/07/owl#i:Receiver</title>
<g id="a_node11"><a xlink:href="http://www.w3.org/2002/07/owl#i:Receiver" xlink:title="infocar:Receiver">
<ellipse fill="none" stroke="blue" cx="1141.29" cy="-279" rx="76.8869" ry="18"/>
<text text-anchor="middle" x="1141.29" y="-275.3" font-family="Times,serif" font-size="14.00">infocar:Receiver</text>
</a>
</g>
</g>
<!-- Rhttp://www.w3.org/2002/07/owl#i:Receiver&#45;&gt;Rhttp://www.w3.org/2002/07/owl#h:AgentRole -->
<g id="edge10" class="edge"><title>Rhttp://www.w3.org/2002/07/owl#i:Receiver&#45;&gt;Rhttp://www.w3.org/2002/07/owl#h:AgentRole</title>
<path fill="none" stroke="green" d="M1129.56,-260.854C1122.56,-250.971 1113.31,-238.471 1104.29,-228 1101.03,-224.212 1097.44,-220.338 1093.84,-216.612"/>
<polygon fill="green" stroke="green" points="1096.07,-213.891 1086.55,-209.249 1091.1,-218.817 1096.07,-213.891"/>
<text text-anchor="middle" x="1172.79" y="-231.8" font-family="Times,serif" font-size="14.00">rdfs:subClassOf</text>
</g>
<!-- B_:genid1 -->
<g id="node12" class="node"><title>B_:genid1</title>
<ellipse fill="none" stroke="green" cx="704.29" cy="-366" rx="18" ry="18"/>
</g>
<!-- B_:genid1&#45;&gt;Rhttp://www.w3.org/2002/07/owl#i:Manuscript -->
<g id="edge11" class="edge"><title>B_:genid1&#45;&gt;Rhttp://www.w3.org/2002/07/owl#i:Manuscript</title>
<path fill="none" stroke="brown" d="M686.418,-363.264C631.592,-357.535 467.606,-337.255 436.29,-297 415.792,-270.652 444.78,-237.57 470.329,-215.884"/>
<polygon fill="brown" stroke="brown" points="472.563,-218.579 478.089,-209.539 468.132,-213.159 472.563,-218.579"/>
<text text-anchor="middle" x="463.79" y="-275.3" font-family="Times,serif" font-size="14.00">rdf:first</text>
</g>
<!-- B_:genid2 -->
<g id="node13" class="node"><title>B_:genid2</title>
<ellipse fill="none" stroke="green" cx="778.29" cy="-279" rx="18" ry="18"/>
</g>
<!-- B_:genid1&#45;&gt;B_:genid2 -->
<g id="edge12" class="edge"><title>B_:genid1&#45;&gt;B_:genid2</title>
<path fill="none" stroke="brown" d="M715.852,-351.719C727.691,-338.12 746.263,-316.787 760.078,-300.918"/>
<polygon fill="brown" stroke="brown" points="762.882,-303.028 766.808,-293.188 757.602,-298.432 762.882,-303.028"/>
<text text-anchor="middle" x="773.79" y="-318.8" font-family="Times,serif" font-size="14.00">rdf:rest</text>
</g>
<!-- B_:genid2&#45;&gt;Rhttp://www.w3.org/2002/07/owl#i:Typescript -->
<g id="edge13" class="edge"><title>B_:genid2&#45;&gt;Rhttp://www.w3.org/2002/07/owl#i:Typescript</title>
<path fill="none" stroke="brown" d="M772.271,-262.012C767.783,-250.093 761.552,-233.542 756.317,-219.637"/>
<polygon fill="brown" stroke="brown" points="759.52,-218.208 752.721,-210.083 752.968,-220.675 759.52,-218.208"/>
<text text-anchor="middle" x="791.79" y="-231.8" font-family="Times,serif" font-size="14.00">rdf:first</text>
</g>
<!-- Rhttp://www.w3.org/1999/02/22&#45;rdf&#45;syntax&#45;ns#nil -->
<g id="node14" class="node"><title>Rhttp://www.w3.org/1999/02/22&#45;rdf&#45;syntax&#45;ns#nil</title>
<g id="a_node14"><a xlink:href="http://www.w3.org/1999/02/22-rdf-syntax-ns#nil" xlink:title="rdf:nil">
<ellipse fill="none" stroke="brown" cx="888.29" cy="-192" rx="38.9931" ry="18"/>
<text text-anchor="middle" x="888.29" y="-188.3" font-family="Times,serif" font-size="14.00">rdf:nil</text>
</a>
</g>
</g>
<!-- B_:genid2&#45;&gt;Rhttp://www.w3.org/1999/02/22&#45;rdf&#45;syntax&#45;ns#nil -->
<g id="edge14" class="edge"><title>B_:genid2&#45;&gt;Rhttp://www.w3.org/1999/02/22&#45;rdf&#45;syntax&#45;ns#nil</title>
<path fill="none" stroke="brown" d="M792.221,-267.235C809.445,-253.925 839.154,-230.968 860.985,-214.099"/>
<polygon fill="brown" stroke="brown" points="863.151,-216.848 868.924,-207.964 858.871,-211.309 863.151,-216.848"/>
<text text-anchor="middle" x="867.79" y="-231.8" font-family="Times,serif" font-size="14.00">rdf:rest</text>
</g>
<!-- Rhttp://www.w3.org/2002/07/owl#i:Letter -->
<g id="node15" class="node"><title>Rhttp://www.w3.org/2002/07/owl#i:Letter</title>
<g id="a_node15"><a xlink:href="http://www.w3.org/2002/07/owl#i:Letter" xlink:title="infocar:Letter">
<ellipse fill="none" stroke="blue" cx="1019.29" cy="-453" rx="64.9885" ry="18"/>
<text text-anchor="middle" x="1019.29" y="-449.3" font-family="Times,serif" font-size="14.00">infocar:Letter</text>
</a>
</g>
</g>
<!-- Rhttp://www.w3.org/2002/07/owl#i:Letter&#45;&gt;B_:genid1 -->
<g id="edge15" class="edge"><title>Rhttp://www.w3.org/2002/07/owl#i:Letter&#45;&gt;B_:genid1</title>
<path fill="none" stroke="brown" d="M954.485,-451.588C879.352,-449.87 761.331,-442.959 726.29,-417 718.649,-411.34 713.618,-402.443 710.326,-393.714"/>
<polygon fill="brown" stroke="brown" points="713.643,-392.597 707.3,-384.111 706.967,-394.7 713.643,-392.597"/>
<text text-anchor="middle" x="797.29" y="-405.8" font-family="Times,serif" font-size="14.00">owl:disjointUnionOf</text>
</g>
<!-- Rhttp://www.w3.org/2002/07/owl#h:Agent -->
<g id="node16" class="node"><title>Rhttp://www.w3.org/2002/07/owl#h:Agent</title>
<g id="a_node16"><a xlink:href="http://www.w3.org/2002/07/owl#h:Agent" xlink:title="human:Agent">
<ellipse fill="none" stroke="blue" cx="998.29" cy="-366" rx="66.0889" ry="18"/>
<text text-anchor="middle" x="998.29" y="-362.3" font-family="Times,serif" font-size="14.00">human:Agent</text>
</a>
</g>
</g>
<!-- Rhttp://www.w3.org/2002/07/owl#i:Letter&#45;&gt;Rhttp://www.w3.org/2002/07/owl#h:Agent -->
<g id="edge16" class="edge"><title>Rhttp://www.w3.org/2002/07/owl#i:Letter&#45;&gt;Rhttp://www.w3.org/2002/07/owl#h:Agent</title>
<path fill="none" stroke="blue" d="M1015.04,-434.799C1012.16,-423.163 1008.31,-407.548 1005.02,-394.237"/>
<polygon fill="blue" stroke="blue" points="1008.33,-393.044 1002.53,-384.175 1001.53,-394.723 1008.33,-393.044"/>
<text text-anchor="middle" x="1067.29" y="-405.8" font-family="Times,serif" font-size="14.00">infocar:hasSender</text>
</g>
<!-- Rhttp://www.w3.org/2002/07/owl#i:Letter&#45;&gt;Rhttp://www.w3.org/2002/07/owl#h:Agent -->
<g id="edge17" class="edge"><title>Rhttp://www.w3.org/2002/07/owl#i:Letter&#45;&gt;Rhttp://www.w3.org/2002/07/owl#h:Agent</title>
<path fill="none" stroke="blue" d="M960.809,-444.915C926.482,-439.42 887.82,-430.441 877.29,-417 858.967,-393.613 890.9,-381.073 926.545,-374.4"/>
<polygon fill="blue" stroke="blue" points="927.392,-377.806 936.659,-372.67 926.212,-370.907 927.392,-377.806"/>
<text text-anchor="middle" x="940.79" y="-405.8" font-family="Times,serif" font-size="14.00">infocar:hasReceiver</text>
</g>
<!-- Rhttp://www.w3.org/2002/07/owl#ph:Place -->
<g id="node17" class="node"><title>Rhttp://www.w3.org/2002/07/owl#ph:Place</title>
<g id="a_node17"><a xlink:href="http://www.w3.org/2002/07/owl#ph:Place" xlink:title="physical:Place">
<ellipse fill="none" stroke="blue" cx="1177.29" cy="-366" rx="69.5877" ry="18"/>
<text text-anchor="middle" x="1177.29" y="-362.3" font-family="Times,serif" font-size="14.00">physical:Place</text>
</a>
</g>
</g>
<!-- Rhttp://www.w3.org/2002/07/owl#i:Letter&#45;&gt;Rhttp://www.w3.org/2002/07/owl#ph:Place -->
<g id="edge18" class="edge"><title>Rhttp://www.w3.org/2002/07/owl#i:Letter&#45;&gt;Rhttp://www.w3.org/2002/07/owl#ph:Place</title>
<path fill="none" stroke="blue" d="M1065.26,-440.265C1074.49,-438.241 1084.16,-436.356 1093.29,-435 1121.93,-430.745 1333.53,-438.172 1353.29,-417 1386.29,-381.637 1317.76,-370.652 1256.81,-367.557"/>
<polygon fill="blue" stroke="blue" points="1256.87,-364.056 1246.72,-367.11 1256.56,-371.049 1256.87,-364.056"/>
<text text-anchor="middle" x="1453.29" y="-405.8" font-family="Times,serif" font-size="14.00">physical:hasSendingLocation</text>
</g>
<!-- Rhttp://www.w3.org/2002/07/owl#i:Letter&#45;&gt;Rhttp://www.w3.org/2002/07/owl#ph:Place -->
<g id="edge19" class="edge"><title>Rhttp://www.w3.org/2002/07/owl#i:Letter&#45;&gt;Rhttp://www.w3.org/2002/07/owl#ph:Place</title>
<path fill="none" stroke="blue" d="M1069.24,-441.432C1088.59,-435.97 1110.36,-428.067 1128.29,-417 1139.17,-410.284 1149.38,-400.646 1157.64,-391.62"/>
<polygon fill="blue" stroke="blue" points="1160.41,-393.767 1164.35,-383.935 1155.14,-389.16 1160.41,-393.767"/>
<text text-anchor="middle" x="1244.29" y="-405.8" font-family="Times,serif" font-size="14.00">physical:hasReceivingLocation</text>
</g>
<!-- Rhttp://www.w3.org/2002/07/owl#h:Agent&#45;&gt;Rhttp://www.w3.org/2002/07/owl#i:Sender -->
<g id="edge20" class="edge"><title>Rhttp://www.w3.org/2002/07/owl#h:Agent&#45;&gt;Rhttp://www.w3.org/2002/07/owl#i:Sender</title>
<path fill="none" stroke="blue" d="M985.022,-348.123C981.474,-342.649 978.118,-336.345 976.29,-330 974.198,-322.743 973.528,-314.644 973.555,-307.113"/>
<polygon fill="blue" stroke="blue" points="977.058,-307.131 973.982,-296.993 970.064,-306.836 977.058,-307.131"/>
<text text-anchor="middle" x="1048.29" y="-318.8" font-family="Times,serif" font-size="14.00">human:agentHasRole</text>
</g>
<!-- Rhttp://www.w3.org/2002/07/owl#h:Agent&#45;&gt;Rhttp://www.w3.org/2002/07/owl#i:Receiver -->
<g id="edge21" class="edge"><title>Rhttp://www.w3.org/2002/07/owl#h:Agent&#45;&gt;Rhttp://www.w3.org/2002/07/owl#i:Receiver</title>
<path fill="none" stroke="blue" d="M1058.75,-358.589C1080.26,-353.682 1103.32,-345.072 1120.29,-330 1127.17,-323.888 1131.86,-315.154 1135.02,-306.691"/>
<polygon fill="blue" stroke="blue" points="1138.39,-307.644 1138.08,-297.054 1131.72,-305.527 1138.39,-307.644"/>
<text text-anchor="middle" x="1202.29" y="-318.8" font-family="Times,serif" font-size="14.00">human:agentHasRole</text>
</g>
<!-- Rhttp://www.w3.org/2002/07/owl#t:HandwrittenText -->
<g id="node18" class="node"><title>Rhttp://www.w3.org/2002/07/owl#t:HandwrittenText</title>
<g id="a_node18"><a xlink:href="http://www.w3.org/2002/07/owl#t:HandwrittenText" xlink:title="text:HandwrittenText">
<ellipse fill="none" stroke="blue" cx="616.29" cy="-279" rx="116.18" ry="18"/>
<text text-anchor="middle" x="616.29" y="-275.3" font-family="Times,serif" font-size="14.00">text:HandwrittenText</text>
</a>
</g>
</g>
<!-- Rhttp://www.w3.org/2002/07/owl#t:HandwrittenText&#45;&gt;Rhttp://www.w3.org/2002/07/owl#i:Manuscript -->
<g id="edge22" class="edge"><title>Rhttp://www.w3.org/2002/07/owl#t:HandwrittenText&#45;&gt;Rhttp://www.w3.org/2002/07/owl#i:Manuscript</title>
<path fill="none" stroke="blue" d="M593.569,-261.207C575.893,-248.142 551.193,-229.885 531.795,-215.547"/>
<polygon fill="blue" stroke="blue" points="533.693,-212.598 523.571,-209.469 529.533,-218.228 533.693,-212.598"/>
<text text-anchor="middle" x="640.79" y="-231.8" font-family="Times,serif" font-size="14.00">infocar:isInManuscript</text>
</g>
<!-- Rhttp://www.w3.org/2002/07/owl#t:LetterExpression -->
<g id="node19" class="node"><title>Rhttp://www.w3.org/2002/07/owl#t:LetterExpression</title>
<g id="a_node19"><a xlink:href="http://www.w3.org/2002/07/owl#t:LetterExpression" xlink:title="text:LetterExpression">
<ellipse fill="none" stroke="blue" cx="1115.29" cy="-540" rx="117.779" ry="18"/>
<text text-anchor="middle" x="1115.29" y="-536.3" font-family="Times,serif" font-size="14.00">text:LetterExpression</text>
</a>
</g>
</g>
<!-- Rhttp://www.w3.org/2002/07/owl#t:LetterExpression&#45;&gt;Rhttp://www.w3.org/2002/07/owl#i:Letter -->
<g id="edge23" class="edge"><title>Rhttp://www.w3.org/2002/07/owl#t:LetterExpression&#45;&gt;Rhttp://www.w3.org/2002/07/owl#i:Letter</title>
<path fill="none" stroke="blue" d="M1067.08,-523.487C1056.94,-518.506 1046.99,-512.109 1039.29,-504 1033.15,-497.543 1028.82,-488.968 1025.79,-480.745"/>
<polygon fill="blue" stroke="blue" points="1029.07,-479.526 1022.71,-471.056 1022.4,-481.646 1029.07,-479.526"/>
<text text-anchor="middle" x="1094.79" y="-492.8" font-family="Times,serif" font-size="14.00">infocar:isInLetter</text>
</g>
<!-- Rhttp://www.w3.org/2002/07/owl#tstruc:Letter -->
<g id="node20" class="node"><title>Rhttp://www.w3.org/2002/07/owl#tstruc:Letter</title>
<g id="a_node20"><a xlink:href="http://www.w3.org/2002/07/owl#tstruc:Letter" xlink:title="textstruct:Letter">
<ellipse fill="none" stroke="blue" cx="1192.29" cy="-453" rx="90.1842" ry="18"/>
<text text-anchor="middle" x="1192.29" y="-449.3" font-family="Times,serif" font-size="14.00">textstruct:Letter</text>
</a>
</g>
</g>
<!-- Rhttp://www.w3.org/2002/07/owl#t:LetterExpression&#45;&gt;Rhttp://www.w3.org/2002/07/owl#tstruc:Letter -->
<g id="edge24" class="edge"><title>Rhttp://www.w3.org/2002/07/owl#t:LetterExpression&#45;&gt;Rhttp://www.w3.org/2002/07/owl#tstruc:Letter</title>
<path fill="none" stroke="blue" d="M1135.41,-522.246C1141.7,-516.678 1148.49,-510.288 1154.29,-504 1161.31,-496.384 1168.35,-487.534 1174.43,-479.416"/>
<polygon fill="blue" stroke="blue" points="1177.29,-481.437 1180.38,-471.303 1171.65,-477.298 1177.29,-481.437"/>
<text text-anchor="middle" x="1274.79" y="-492.8" font-family="Times,serif" font-size="14.00">textstruct:hasLetterStructure</text>
</g>
</g>
</svg>