<?xml version="1.0" encoding="UTF-8" standalone="no"?>
<!DOCTYPE svg PUBLIC "-//W3C//DTD SVG 1.1//EN"
 "http://www.w3.org/Graphics/SVG/1.1/DTD/svg11.dtd">
<!-- Generated by graphviz version 2.38.0 (20140413.2041)
 -->
<!-- Title: %3 Pages: 1 -->
<svg width="1820pt" height="305pt"
 viewBox="0.00 0.00 1819.69 305.00" xmlns="http://www.w3.org/2000/svg" xmlns:xlink="http://www.w3.org/1999/xlink">
<g id="graph0" class="graph" transform="scale(1 1) rotate(0) translate(4 301)">
<title>%3</title>
<polygon fill="white" stroke="none" points="-4,4 -4,-301 1815.69,-301 1815.69,4 -4,4"/>
<!-- Rhttp://www.w3.org/2002/07/owl#t:Expression -->
<g id="node1" class="node"><title>Rhttp://www.w3.org/2002/07/owl#t:Expression</title>
<g id="a_node1"><a xlink:href="http://www.w3.org/2002/07/owl#t:Expression" xlink:title="text:Expression">
<ellipse fill="none" stroke="blue" cx="917.692" cy="-192" rx="88.2844" ry="18"/>
<text text-anchor="middle" x="917.692" y="-188.3" font-family="Times,serif" font-size="14.00">text:Expression</text>
</a>
</g>
</g>
<!-- Rhttp://www.w3.org/2002/07/owl#c:Expression -->
<g id="node2" class="node"><title>Rhttp://www.w3.org/2002/07/owl#c:Expression</title>
<g id="a_node2"><a xlink:href="http://www.w3.org/2002/07/owl#c:Expression" xlink:title="concept:Expression">
<ellipse fill="none" stroke="blue" cx="89.692" cy="-105" rx="89.8845" ry="18"/>
<text text-anchor="middle" x="89.692" y="-101.3" font-family="Times,serif" font-size="14.00">concept:Expression</text>
</a>
</g>
</g>
<!-- Rhttp://www.w3.org/2002/07/owl#t:Expression&#45;&gt;Rhttp://www.w3.org/2002/07/owl#c:Expression -->
<g id="edge1" class="edge"><title>Rhttp://www.w3.org/2002/07/owl#t:Expression&#45;&gt;Rhttp://www.w3.org/2002/07/owl#c:Expression</title>
<path fill="none" stroke="green" d="M829.307,-190.473C621.266,-188.803 116.188,-182.071 90.692,-156 84.8871,-150.064 83.2794,-141.586 83.5432,-133.294"/>
<polygon fill="green" stroke="green" points="87.0506,-133.426 84.7031,-123.094 80.0955,-132.635 87.0506,-133.426"/>
<text text-anchor="middle" x="148.192" y="-144.8" font-family="Times,serif" font-size="14.00">rdfs:subClassOf</text>
</g>
<!-- Rhttp://www.w3.org/2002/07/owl#l:HumanNaturalLanguageExpression -->
<g id="node3" class="node"><title>Rhttp://www.w3.org/2002/07/owl#l:HumanNaturalLanguageExpression</title>
<g id="a_node3"><a xlink:href="http://www.w3.org/2002/07/owl#l:HumanNaturalLanguageExpression" xlink:title="language:HumanNaturalLanguageExpression">
<ellipse fill="none" stroke="blue" cx="398.692" cy="-18" rx="203.364" ry="18"/>
<text text-anchor="middle" x="398.692" y="-14.3" font-family="Times,serif" font-size="14.00">language:HumanNaturalLanguageExpression</text>
</a>
</g>
</g>
<!-- Rhttp://www.w3.org/2002/07/owl#t:Expression&#45;&gt;Rhttp://www.w3.org/2002/07/owl#l:HumanNaturalLanguageExpression -->
<g id="edge2" class="edge"><title>Rhttp://www.w3.org/2002/07/owl#t:Expression&#45;&gt;Rhttp://www.w3.org/2002/07/owl#l:HumanNaturalLanguageExpression</title>
<path fill="none" stroke="green" d="M830.324,-188.896C653.73,-183.727 267.712,-167.418 228.692,-123 207.98,-99.4227 219.351,-73.8095 243.692,-54 252.293,-47.0005 262.013,-41.3362 272.291,-36.7604"/>
<polygon fill="green" stroke="green" points="273.93,-39.872 281.87,-32.857 271.288,-33.3895 273.93,-39.872"/>
<text text-anchor="middle" x="286.192" y="-101.3" font-family="Times,serif" font-size="14.00">rdfs:subClassOf</text>
</g>
<!-- Rhttp://www.w3.org/2002/07/owl#h:Person -->
<g id="node4" class="node"><title>Rhttp://www.w3.org/2002/07/owl#h:Person</title>
<g id="a_node4"><a xlink:href="http://www.w3.org/2002/07/owl#h:Person" xlink:title="human:Person">
<ellipse fill="none" stroke="blue" cx="951.692" cy="-105" rx="70.3881" ry="18"/>
<text text-anchor="middle" x="951.692" y="-101.3" font-family="Times,serif" font-size="14.00">human:Person</text>
</a>
</g>
</g>
<!-- Rhttp://www.w3.org/2002/07/owl#t:Expression&#45;&gt;Rhttp://www.w3.org/2002/07/owl#h:Person -->
<g id="edge3" class="edge"><title>Rhttp://www.w3.org/2002/07/owl#t:Expression&#45;&gt;Rhttp://www.w3.org/2002/07/owl#h:Person</title>
<path fill="none" stroke="blue" d="M832.074,-187.515C781.993,-183.477 725.566,-174.768 709.692,-156 705.387,-150.91 705.319,-146.032 709.692,-141 728.536,-119.321 809.264,-127.118 837.692,-123 852.254,-120.89 867.856,-118.59 882.699,-116.383"/>
<polygon fill="blue" stroke="blue" points="883.457,-119.809 892.831,-114.873 882.425,-112.885 883.457,-119.809"/>
<text text-anchor="middle" x="767.192" y="-144.8" font-family="Times,serif" font-size="14.00">text:hasAuthor</text>
</g>
<!-- Rhttp://www.w3.org/2002/07/owl#t:Expression&#45;&gt;Rhttp://www.w3.org/2002/07/owl#h:Person -->
<g id="edge4" class="edge"><title>Rhttp://www.w3.org/2002/07/owl#t:Expression&#45;&gt;Rhttp://www.w3.org/2002/07/owl#h:Person</title>
<path fill="none" stroke="blue" d="M871.494,-176.405C852.459,-167.846 837.06,-155.796 847.692,-141 855.698,-129.858 867.431,-122.215 880.159,-116.984"/>
<polygon fill="blue" stroke="blue" points="881.349,-120.276 889.565,-113.586 878.971,-113.692 881.349,-120.276"/>
<text text-anchor="middle" x="907.192" y="-144.8" font-family="Times,serif" font-size="14.00">text:hasRevisor</text>
</g>
<!-- Rhttp://www.w3.org/2002/07/owl#t:Expression&#45;&gt;Rhttp://www.w3.org/2002/07/owl#h:Person -->
<g id="edge5" class="edge"><title>Rhttp://www.w3.org/2002/07/owl#t:Expression&#45;&gt;Rhttp://www.w3.org/2002/07/owl#h:Person</title>
<path fill="none" stroke="blue" d="M949.394,-175.037C956.332,-169.953 962.769,-163.622 966.692,-156 970.525,-148.552 969.635,-139.965 966.933,-132.032"/>
<polygon fill="blue" stroke="blue" points="970.121,-130.586 962.934,-122.801 963.697,-133.368 970.121,-130.586"/>
<text text-anchor="middle" x="1029.69" y="-144.8" font-family="Times,serif" font-size="14.00">text:hasCopyist</text>
</g>
<!-- Rhttp://www.w3.org/2002/07/owl#t:Incipit -->
<g id="node5" class="node"><title>Rhttp://www.w3.org/2002/07/owl#t:Incipit</title>
<g id="a_node5"><a xlink:href="http://www.w3.org/2002/07/owl#t:Incipit" xlink:title="text:Incipit">
<ellipse fill="none" stroke="blue" cx="1108.69" cy="-105" rx="67.6881" ry="18"/>
<text text-anchor="middle" x="1108.69" y="-101.3" font-family="Times,serif" font-size="14.00">text:Incipit</text>
</a>
</g>
</g>
<!-- Rhttp://www.w3.org/2002/07/owl#t:Expression&#45;&gt;Rhttp://www.w3.org/2002/07/owl#t:Incipit -->
<g id="edge6" class="edge"><title>Rhttp://www.w3.org/2002/07/owl#t:Expression&#45;&gt;Rhttp://www.w3.org/2002/07/owl#t:Incipit</title>
<path fill="none" stroke="blue" d="M995.573,-183.432C1035.62,-178.025 1079.05,-169.307 1093.69,-156 1100.18,-150.106 1103.9,-141.531 1106.03,-133.142"/>
<polygon fill="blue" stroke="blue" points="1109.49,-133.67 1107.91,-123.194 1102.61,-132.371 1109.49,-133.67"/>
<text text-anchor="middle" x="1159.69" y="-144.8" font-family="Times,serif" font-size="14.00">text:hasIncipit</text>
</g>
<!-- Rhttp://www.w3.org/2002/07/owl#t:Explicit -->
<g id="node6" class="node"><title>Rhttp://www.w3.org/2002/07/owl#t:Explicit</title>
<g id="a_node6"><a xlink:href="http://www.w3.org/2002/07/owl#t:Explicit" xlink:title="text:Explicit">
<ellipse fill="none" stroke="blue" cx="1266.69" cy="-105" rx="72.5877" ry="18"/>
<text text-anchor="middle" x="1266.69" y="-101.3" font-family="Times,serif" font-size="14.00">text:Explicit</text>
</a>
</g>
</g>
<!-- Rhttp://www.w3.org/2002/07/owl#t:Expression&#45;&gt;Rhttp://www.w3.org/2002/07/owl#t:Explicit -->
<g id="edge7" class="edge"><title>Rhttp://www.w3.org/2002/07/owl#t:Expression&#45;&gt;Rhttp://www.w3.org/2002/07/owl#t:Explicit</title>
<path fill="none" stroke="blue" d="M1003.46,-187.596C1079.15,-183.415 1182.97,-174.463 1219.69,-156 1231.22,-150.206 1241.4,-140.368 1249.32,-130.943"/>
<polygon fill="blue" stroke="blue" points="1252.23,-132.902 1255.67,-122.88 1246.73,-128.572 1252.23,-132.902"/>
<text text-anchor="middle" x="1300.19" y="-144.8" font-family="Times,serif" font-size="14.00">text:hasExplicit</text>
</g>
<!-- Rhttp://www.w3.org/2002/07/owl#t&#45;structure:Structure -->
<g id="node7" class="node"><title>Rhttp://www.w3.org/2002/07/owl#t&#45;structure:Structure</title>
<g id="a_node7"><a xlink:href="http://www.w3.org/2002/07/owl#t-structure:Structure" xlink:title="textstruct:Structure">
<ellipse fill="none" stroke="blue" cx="480.692" cy="-105" rx="128.077" ry="18"/>
<text text-anchor="middle" x="480.692" y="-101.3" font-family="Times,serif" font-size="14.00">textstruct:Structure</text>
</a>
</g>
</g>
<!-- Rhttp://www.w3.org/2002/07/owl#t:Expression&#45;&gt;Rhttp://www.w3.org/2002/07/owl#t&#45;structure:Structure -->
<g id="edge8" class="edge"><title>Rhttp://www.w3.org/2002/07/owl#t:Expression&#45;&gt;Rhttp://www.w3.org/2002/07/owl#t&#45;structure:Structure</title>
<path fill="none" stroke="blue" d="M830.396,-188.861C714.706,-185.252 522.161,-176.262 496.692,-156 489.618,-150.372 485.623,-141.599 483.384,-132.963"/>
<polygon fill="blue" stroke="blue" points="486.81,-132.243 481.483,-123.085 479.936,-133.567 486.81,-132.243"/>
<text text-anchor="middle" x="599.692" y="-144.8" font-family="Times,serif" font-size="14.00">textstruct:hasStructure</text>
</g>
<!-- Rhttp://www.w3.org/2002/07/owl#t&#45;structure:Word -->
<g id="node8" class="node"><title>Rhttp://www.w3.org/2002/07/owl#t&#45;structure:Word</title>
<g id="a_node8"><a xlink:href="http://www.w3.org/2002/07/owl#t-structure:Word" xlink:title="textstruct:Word">
<ellipse fill="none" stroke="blue" cx="1465.69" cy="-105" rx="108.581" ry="18"/>
<text text-anchor="middle" x="1465.69" y="-101.3" font-family="Times,serif" font-size="14.00">textstruct:Word</text>
</a>
</g>
</g>
<!-- Rhttp://www.w3.org/2002/07/owl#t:Expression&#45;&gt;Rhttp://www.w3.org/2002/07/owl#t&#45;structure:Word -->
<g id="edge9" class="edge"><title>Rhttp://www.w3.org/2002/07/owl#t:Expression&#45;&gt;Rhttp://www.w3.org/2002/07/owl#t&#45;structure:Word</title>
<path fill="none" stroke="blue" d="M1004.38,-188.122C1114.78,-183.779 1299.12,-174.07 1364.69,-156 1387.71,-149.657 1411.73,-137.999 1430.57,-127.536"/>
<polygon fill="blue" stroke="blue" points="1432.42,-130.512 1439.38,-122.523 1428.96,-124.429 1432.42,-130.512"/>
<text text-anchor="middle" x="1490.19" y="-144.8" font-family="Times,serif" font-size="14.00">textstruct:hasWord</text>
</g>
<!-- Rhttp://www.w3.org/2002/07/owl#in:Page -->
<g id="node11" class="node"><title>Rhttp://www.w3.org/2002/07/owl#in:Page</title>
<g id="a_node11"><a xlink:href="http://www.w3.org/2002/07/owl#in:Page" xlink:title="infocar:Page">
<ellipse fill="none" stroke="blue" cx="89.692" cy="-18" rx="63.8893" ry="18"/>
<text text-anchor="middle" x="89.692" y="-14.3" font-family="Times,serif" font-size="14.00">infocar:Page</text>
</a>
</g>
</g>
<!-- Rhttp://www.w3.org/2002/07/owl#c:Expression&#45;&gt;Rhttp://www.w3.org/2002/07/owl#in:Page -->
<g id="edge15" class="edge"><title>Rhttp://www.w3.org/2002/07/owl#c:Expression&#45;&gt;Rhttp://www.w3.org/2002/07/owl#in:Page</title>
<path fill="none" stroke="blue" d="M89.692,-86.799C89.692,-75.1626 89.692,-59.5479 89.692,-46.2368"/>
<polygon fill="blue" stroke="blue" points="93.1921,-46.1754 89.692,-36.1754 86.1921,-46.1755 93.1921,-46.1754"/>
<text text-anchor="middle" x="147.192" y="-57.8" font-family="Times,serif" font-size="14.00">infocar:isOnPage</text>
</g>
<!-- Rhttp://www.w3.org/2002/07/owl#t:Author -->
<g id="node14" class="node"><title>Rhttp://www.w3.org/2002/07/owl#t:Author</title>
<g id="a_node14"><a xlink:href="http://www.w3.org/2002/07/owl#t:Author" xlink:title="text:Author">
<ellipse fill="none" stroke="blue" cx="950.692" cy="-18" rx="68.7879" ry="18"/>
<text text-anchor="middle" x="950.692" y="-14.3" font-family="Times,serif" font-size="14.00">text:Author</text>
</a>
</g>
</g>
<!-- Rhttp://www.w3.org/2002/07/owl#h:Person&#45;&gt;Rhttp://www.w3.org/2002/07/owl#t:Author -->
<g id="edge18" class="edge"><title>Rhttp://www.w3.org/2002/07/owl#h:Person&#45;&gt;Rhttp://www.w3.org/2002/07/owl#t:Author</title>
<path fill="none" stroke="blue" d="M951.49,-86.799C951.353,-75.1626 951.169,-59.5479 951.012,-46.2368"/>
<polygon fill="blue" stroke="blue" points="954.512,-46.1335 950.894,-36.1754 947.512,-46.216 954.512,-46.1335"/>
<text text-anchor="middle" x="1001.69" y="-57.8" font-family="Times,serif" font-size="14.00">human:hasRole</text>
</g>
<!-- Rhttp://www.w3.org/2002/07/owl#t:Revisor -->
<g id="node15" class="node"><title>Rhttp://www.w3.org/2002/07/owl#t:Revisor</title>
<g id="a_node15"><a xlink:href="http://www.w3.org/2002/07/owl#t:Revisor" xlink:title="text:Revisor">
<ellipse fill="none" stroke="blue" cx="1108.69" cy="-18" rx="71.4873" ry="18"/>
<text text-anchor="middle" x="1108.69" y="-14.3" font-family="Times,serif" font-size="14.00">text:Revisor</text>
</a>
</g>
</g>
<!-- Rhttp://www.w3.org/2002/07/owl#h:Person&#45;&gt;Rhttp://www.w3.org/2002/07/owl#t:Revisor -->
<g id="edge19" class="edge"><title>Rhttp://www.w3.org/2002/07/owl#h:Person&#45;&gt;Rhttp://www.w3.org/2002/07/owl#t:Revisor</title>
<path fill="none" stroke="blue" d="M1000.97,-92.1764C1018.94,-86.6596 1038.95,-79.0471 1055.69,-69 1067.22,-62.0845 1078.3,-52.2966 1087.33,-43.2118"/>
<polygon fill="blue" stroke="blue" points="1090.02,-45.4708 1094.4,-35.8244 1084.96,-40.633 1090.02,-45.4708"/>
<text text-anchor="middle" x="1125.69" y="-57.8" font-family="Times,serif" font-size="14.00">human:hasRole</text>
</g>
<!-- Rhttp://www.w3.org/2002/07/owl#t:Copyist -->
<g id="node16" class="node"><title>Rhttp://www.w3.org/2002/07/owl#t:Copyist</title>
<g id="a_node16"><a xlink:href="http://www.w3.org/2002/07/owl#t:Copyist" xlink:title="text:Copyist">
<ellipse fill="none" stroke="blue" cx="1270.69" cy="-18" rx="72.2875" ry="18"/>
<text text-anchor="middle" x="1270.69" y="-14.3" font-family="Times,serif" font-size="14.00">text:Copyist</text>
</a>
</g>
</g>
<!-- Rhttp://www.w3.org/2002/07/owl#h:Person&#45;&gt;Rhttp://www.w3.org/2002/07/owl#t:Copyist -->
<g id="edge20" class="edge"><title>Rhttp://www.w3.org/2002/07/owl#h:Person&#45;&gt;Rhttp://www.w3.org/2002/07/owl#t:Copyist</title>
<path fill="none" stroke="blue" d="M1002.35,-92.5302C1012.06,-90.5317 1022.17,-88.5879 1031.69,-87 1097.05,-76.1027 1116.62,-89.3227 1179.69,-69 1200.25,-62.376 1221.5,-51.0002 1238.29,-40.7715"/>
<polygon fill="blue" stroke="blue" points="1240.5,-43.5149 1247.12,-35.2443 1236.79,-37.5804 1240.5,-43.5149"/>
<text text-anchor="middle" x="1264.69" y="-57.8" font-family="Times,serif" font-size="14.00">human:hasRole</text>
</g>
<!-- Rhttp://www.w3.org/2002/07/owl#t&#45;structure:Structure&#45;&gt;Rhttp://www.w3.org/2002/07/owl#l:HumanNaturalLanguageExpression -->
<g id="edge10" class="edge"><title>Rhttp://www.w3.org/2002/07/owl#t&#45;structure:Structure&#45;&gt;Rhttp://www.w3.org/2002/07/owl#l:HumanNaturalLanguageExpression</title>
<path fill="none" stroke="blue" d="M388.159,-92.5136C327.395,-84.5179 258.292,-74.3632 253.692,-69 240.628,-53.767 247.822,-43.1696 264.479,-35.7986"/>
<polygon fill="blue" stroke="blue" points="265.86,-39.0188 273.994,-32.2307 263.402,-32.4643 265.86,-39.0188"/>
<text text-anchor="middle" x="354.692" y="-57.8" font-family="Times,serif" font-size="14.00">textstruct:isPartOfText</text>
</g>
<!-- Rhttp://www.w3.org/2002/07/owl#t&#45;structure:Structure&#45;&gt;Rhttp://www.w3.org/2002/07/owl#l:HumanNaturalLanguageExpression -->
<g id="edge11" class="edge"><title>Rhttp://www.w3.org/2002/07/owl#t&#45;structure:Structure&#45;&gt;Rhttp://www.w3.org/2002/07/owl#l:HumanNaturalLanguageExpression</title>
<path fill="none" stroke="green" d="M474.87,-86.8188C470.724,-76.4424 464.348,-63.4441 455.692,-54 451.47,-49.3933 446.504,-45.1768 441.294,-41.3899"/>
<polygon fill="green" stroke="green" points="443.229,-38.4733 432.977,-35.7986 439.323,-44.2825 443.229,-38.4733"/>
<text text-anchor="middle" x="524.192" y="-57.8" font-family="Times,serif" font-size="14.00">rdfs:subClassOf</text>
</g>
<!-- Rhttp://www.w3.org/2002/07/owl#t&#45;structure:Sentence -->
<g id="node9" class="node"><title>Rhttp://www.w3.org/2002/07/owl#t&#45;structure:Sentence</title>
<g id="a_node9"><a xlink:href="http://www.w3.org/2002/07/owl#t-structure:Sentence" xlink:title="textstruct:Sentence">
<ellipse fill="none" stroke="blue" cx="1574.69" cy="-18" rx="126.178" ry="18"/>
<text text-anchor="middle" x="1574.69" y="-14.3" font-family="Times,serif" font-size="14.00">textstruct:Sentence</text>
</a>
</g>
</g>
<!-- Rhttp://www.w3.org/2002/07/owl#t&#45;structure:Word&#45;&gt;Rhttp://www.w3.org/2002/07/owl#t&#45;structure:Sentence -->
<g id="edge12" class="edge"><title>Rhttp://www.w3.org/2002/07/owl#t&#45;structure:Word&#45;&gt;Rhttp://www.w3.org/2002/07/owl#t&#45;structure:Sentence</title>
<path fill="none" stroke="blue" d="M1430.46,-87.7877C1415.17,-78.5144 1402.76,-66.305 1412.69,-54 1420.74,-44.0228 1442.82,-36.7506 1468.18,-31.5092"/>
<polygon fill="blue" stroke="blue" points="1468.89,-34.9373 1478.04,-29.5984 1467.56,-28.0652 1468.89,-34.9373"/>
<text text-anchor="middle" x="1531.19" y="-57.8" font-family="Times,serif" font-size="14.00">textstruct:isPartOfSentence</text>
</g>
<!-- Rhttp://www.w3.org/2002/07/owl#t:SentenceExpression -->
<g id="node10" class="node"><title>Rhttp://www.w3.org/2002/07/owl#t:SentenceExpression</title>
<g id="a_node10"><a xlink:href="http://www.w3.org/2002/07/owl#t:SentenceExpression" xlink:title="text:SentenceExpression">
<ellipse fill="none" stroke="blue" cx="1430.69" cy="-279" rx="131.077" ry="18"/>
<text text-anchor="middle" x="1430.69" y="-275.3" font-family="Times,serif" font-size="14.00">text:SentenceExpression</text>
</a>
</g>
</g>
<!-- Rhttp://www.w3.org/2002/07/owl#t:SentenceExpression&#45;&gt;Rhttp://www.w3.org/2002/07/owl#t:Expression -->
<g id="edge13" class="edge"><title>Rhttp://www.w3.org/2002/07/owl#t:SentenceExpression&#45;&gt;Rhttp://www.w3.org/2002/07/owl#t:Expression</title>
<path fill="none" stroke="green" d="M1350.54,-264.719C1252.96,-248.552 1089.41,-221.452 993.735,-205.6"/>
<polygon fill="green" stroke="green" points="994.276,-202.142 983.839,-203.96 993.132,-209.048 994.276,-202.142"/>
<text text-anchor="middle" x="1263.19" y="-231.8" font-family="Times,serif" font-size="14.00">rdfs:subClassOf</text>
</g>
<!-- Rhttp://www.w3.org/2002/07/owl#t:SentenceExpression&#45;&gt;Rhttp://www.w3.org/2002/07/owl#t&#45;structure:Sentence -->
<g id="edge14" class="edge"><title>Rhttp://www.w3.org/2002/07/owl#t:SentenceExpression&#45;&gt;Rhttp://www.w3.org/2002/07/owl#t&#45;structure:Sentence</title>
<path fill="none" stroke="blue" d="M1462.03,-261.369C1514.49,-231.344 1617.51,-162.42 1649.69,-69 1651.86,-62.6968 1653.27,-59.6231 1649.69,-54 1646.2,-48.512 1641.59,-43.8705 1636.38,-39.9476"/>
<polygon fill="blue" stroke="blue" points="1638.05,-36.8616 1627.76,-34.3562 1634.24,-42.7344 1638.05,-36.8616"/>
<text text-anchor="middle" x="1710.19" y="-144.8" font-family="Times,serif" font-size="14.00">textstruct:hasSentence</text>
</g>
<!-- Rhttp://www.w3.org/2002/07/owl#t:WrittenText -->
<g id="node12" class="node"><title>Rhttp://www.w3.org/2002/07/owl#t:WrittenText</title>
<g id="a_node12"><a xlink:href="http://www.w3.org/2002/07/owl#t:WrittenText" xlink:title="text:WrittenText">
<ellipse fill="none" stroke="blue" cx="736.692" cy="-105" rx="92.0841" ry="18"/>
<text text-anchor="middle" x="736.692" y="-101.3" font-family="Times,serif" font-size="14.00">text:WrittenText</text>
</a>
</g>
</g>
<!-- Rhttp://www.w3.org/2002/07/owl#t:WrittenText&#45;&gt;Rhttp://www.w3.org/2002/07/owl#l:HumanNaturalLanguageExpression -->
<g id="edge16" class="edge"><title>Rhttp://www.w3.org/2002/07/owl#t:WrittenText&#45;&gt;Rhttp://www.w3.org/2002/07/owl#l:HumanNaturalLanguageExpression</title>
<path fill="none" stroke="green" d="M688.976,-89.5659C669.301,-83.456 646.322,-76.115 625.692,-69 607.743,-62.8096 603.981,-59.0991 585.692,-54 560.161,-46.8818 532.261,-40.787 505.986,-35.7736"/>
<polygon fill="green" stroke="green" points="506.477,-32.3048 496.004,-33.9052 505.189,-39.1853 506.477,-32.3048"/>
<text text-anchor="middle" x="683.192" y="-57.8" font-family="Times,serif" font-size="14.00">rdfs:subClassOf</text>
</g>
<!-- Rhttp://www.w3.org/2002/07/owl#in:WritingUtensil -->
<g id="node13" class="node"><title>Rhttp://www.w3.org/2002/07/owl#in:WritingUtensil</title>
<g id="a_node13"><a xlink:href="http://www.w3.org/2002/07/owl#in:WritingUtensil" xlink:title="infocar:WritingUtensil">
<ellipse fill="none" stroke="blue" cx="753.692" cy="-18" rx="109.681" ry="18"/>
<text text-anchor="middle" x="753.692" y="-14.3" font-family="Times,serif" font-size="14.00">infocar:WritingUtensil</text>
</a>
</g>
</g>
<!-- Rhttp://www.w3.org/2002/07/owl#t:WrittenText&#45;&gt;Rhttp://www.w3.org/2002/07/owl#in:WritingUtensil -->
<g id="edge17" class="edge"><title>Rhttp://www.w3.org/2002/07/owl#t:WrittenText&#45;&gt;Rhttp://www.w3.org/2002/07/owl#in:WritingUtensil</title>
<path fill="none" stroke="blue" d="M740.132,-86.799C742.46,-75.1626 745.582,-59.5479 748.245,-46.2368"/>
<polygon fill="blue" stroke="blue" points="751.728,-46.6677 750.257,-36.1754 744.864,-45.2948 751.728,-46.6677"/>
<text text-anchor="middle" x="821.192" y="-57.8" font-family="Times,serif" font-size="14.00">infocar:isWrittenWith</text>
</g>
</g>
</svg>