<?xml version="1.0" encoding="UTF-8" standalone="no"?>
<!DOCTYPE svg PUBLIC "-//W3C//DTD SVG 1.1//EN"
 "http://www.w3.org/Graphics/SVG/1.1/DTD/svg11.dtd">
<!-- Generated by graphviz version 2.38.0 (20140413.2041)
 -->
<!-- Title: %3 Pages: 1 -->
<svg width="2366pt" height="827pt"
 viewBox="0.00 0.00 2366.34 827.00" xmlns="http://www.w3.org/2000/svg" xmlns:xlink="http://www.w3.org/1999/xlink">
<g id="graph0" class="graph" transform="scale(1 1) rotate(0) translate(4 823)">
<title>%3</title>
<polygon fill="white" stroke="none" points="-4,4 -4,-823 2362.34,-823 2362.34,4 -4,4"/>
<!-- Rhttp://www.w3.org/2002/07/owl#testr:Structure -->
<g id="node1" class="node"><title>Rhttp://www.w3.org/2002/07/owl#testr:Structure</title>
<g id="a_node1"><a xlink:href="http://www.w3.org/2002/07/owl#testr:Structure" xlink:title="textstruct:Structure">
<ellipse fill="none" stroke="blue" cx="1326.34" cy="-105" rx="100.182" ry="18"/>
<text text-anchor="middle" x="1326.34" y="-101.3" font-family="Times,serif" font-size="14.00">textstruct:Structure</text>
</a>
</g>
</g>
<!-- Rhttp://www.w3.org/2002/07/owl#lang:HumanNaturalLanguageExpression -->
<g id="node2" class="node"><title>Rhttp://www.w3.org/2002/07/owl#lang:HumanNaturalLanguageExpression</title>
<g id="a_node2"><a xlink:href="http://www.w3.org/2002/07/owl#lang:HumanNaturalLanguageExpression" xlink:title="language:HumanNaturalLanguageExpression">
<ellipse fill="none" stroke="blue" cx="1177.34" cy="-18" rx="220.161" ry="18"/>
<text text-anchor="middle" x="1177.34" y="-14.3" font-family="Times,serif" font-size="14.00">language:HumanNaturalLanguageExpression</text>
</a>
</g>
</g>
<!-- Rhttp://www.w3.org/2002/07/owl#testr:Structure&#45;&gt;Rhttp://www.w3.org/2002/07/owl#lang:HumanNaturalLanguageExpression -->
<g id="edge1" class="edge"><title>Rhttp://www.w3.org/2002/07/owl#testr:Structure&#45;&gt;Rhttp://www.w3.org/2002/07/owl#lang:HumanNaturalLanguageExpression</title>
<path fill="none" stroke="green" d="M1297.61,-87.6111C1274.32,-74.3197 1241.26,-55.4652 1215.7,-40.8837"/>
<polygon fill="green" stroke="green" points="1217.42,-37.8354 1207,-35.9203 1213.96,-43.9156 1217.42,-37.8354"/>
<text text-anchor="middle" x="1318.84" y="-57.8" font-family="Times,serif" font-size="14.00">rdfs:subClassOf</text>
</g>
<!-- Rhttp://www.w3.org/2002/07/owl#testr:SyntacticStructure -->
<g id="node3" class="node"><title>Rhttp://www.w3.org/2002/07/owl#testr:SyntacticStructure</title>
<g id="a_node3"><a xlink:href="http://www.w3.org/2002/07/owl#testr:SyntacticStructure" xlink:title="textstruct:SyntacticStructure">
<ellipse fill="none" stroke="blue" cx="1776.34" cy="-366" rx="143.775" ry="18"/>
<text text-anchor="middle" x="1776.34" y="-362.3" font-family="Times,serif" font-size="14.00">textstruct:SyntacticStructure</text>
</a>
</g>
</g>
<!-- Rhttp://www.w3.org/2002/07/owl#testr:SyntacticStructure&#45;&gt;Rhttp://www.w3.org/2002/07/owl#testr:Structure -->
<g id="edge2" class="edge"><title>Rhttp://www.w3.org/2002/07/owl#testr:SyntacticStructure&#45;&gt;Rhttp://www.w3.org/2002/07/owl#testr:Structure</title>
<path fill="none" stroke="green" d="M1671.13,-353.694C1635.26,-348.155 1600.61,-340.392 1586.34,-330 1522.69,-283.638 1557.16,-230.534 1502.34,-174 1476.4,-147.245 1438.76,-130.84 1404.93,-120.87"/>
<polygon fill="green" stroke="green" points="1405.62,-117.427 1395.05,-118.102 1403.73,-124.168 1405.62,-117.427"/>
<text text-anchor="middle" x="1595.84" y="-231.8" font-family="Times,serif" font-size="14.00">rdfs:subClassOf</text>
</g>
<!-- Rhttp://www.w3.org/2002/07/owl#testr:CompositionalStructure -->
<g id="node4" class="node"><title>Rhttp://www.w3.org/2002/07/owl#testr:CompositionalStructure</title>
<g id="a_node4"><a xlink:href="http://www.w3.org/2002/07/owl#testr:CompositionalStructure" xlink:title="textstruct:CompositionalStructure">
<ellipse fill="none" stroke="blue" cx="1326.34" cy="-192" rx="167.07" ry="18"/>
<text text-anchor="middle" x="1326.34" y="-188.3" font-family="Times,serif" font-size="14.00">textstruct:CompositionalStructure</text>
</a>
</g>
</g>
<!-- Rhttp://www.w3.org/2002/07/owl#testr:CompositionalStructure&#45;&gt;Rhttp://www.w3.org/2002/07/owl#testr:Structure -->
<g id="edge3" class="edge"><title>Rhttp://www.w3.org/2002/07/owl#testr:CompositionalStructure&#45;&gt;Rhttp://www.w3.org/2002/07/owl#testr:Structure</title>
<path fill="none" stroke="green" d="M1326.34,-173.799C1326.34,-162.163 1326.34,-146.548 1326.34,-133.237"/>
<polygon fill="green" stroke="green" points="1329.84,-133.175 1326.34,-123.175 1322.84,-133.175 1329.84,-133.175"/>
<text text-anchor="middle" x="1383.84" y="-144.8" font-family="Times,serif" font-size="14.00">rdfs:subClassOf</text>
</g>
<!-- Rhttp://www.w3.org/2002/07/owl#testr:ContentStructure -->
<g id="node5" class="node"><title>Rhttp://www.w3.org/2002/07/owl#testr:ContentStructure</title>
<g id="a_node5"><a xlink:href="http://www.w3.org/2002/07/owl#testr:ContentStructure" xlink:title="textstruct:ContentStructure">
<ellipse fill="none" stroke="blue" cx="1339.34" cy="-279" rx="137.576" ry="18"/>
<text text-anchor="middle" x="1339.34" y="-275.3" font-family="Times,serif" font-size="14.00">textstruct:ContentStructure</text>
</a>
</g>
</g>
<!-- Rhttp://www.w3.org/2002/07/owl#testr:ContentStructure&#45;&gt;Rhttp://www.w3.org/2002/07/owl#testr:CompositionalStructure -->
<g id="edge4" class="edge"><title>Rhttp://www.w3.org/2002/07/owl#testr:ContentStructure&#45;&gt;Rhttp://www.w3.org/2002/07/owl#testr:CompositionalStructure</title>
<path fill="none" stroke="green" d="M1336.71,-260.799C1334.93,-249.163 1332.54,-233.548 1330.51,-220.237"/>
<polygon fill="green" stroke="green" points="1333.94,-219.531 1328.97,-210.175 1327.02,-220.59 1333.94,-219.531"/>
<text text-anchor="middle" x="1391.84" y="-231.8" font-family="Times,serif" font-size="14.00">rdfs:subClassOf</text>
</g>
<!-- Rhttp://www.w3.org/2002/07/owl#testr:ReadabilityStructure -->
<g id="node6" class="node"><title>Rhttp://www.w3.org/2002/07/owl#testr:ReadabilityStructure</title>
<g id="a_node6"><a xlink:href="http://www.w3.org/2002/07/owl#testr:ReadabilityStructure" xlink:title="textstruct:ReadabilityStructure">
<ellipse fill="none" stroke="blue" cx="330.343" cy="-279" rx="152.973" ry="18"/>
<text text-anchor="middle" x="330.343" y="-275.3" font-family="Times,serif" font-size="14.00">textstruct:ReadabilityStructure</text>
</a>
</g>
</g>
<!-- Rhttp://www.w3.org/2002/07/owl#testr:ReadabilityStructure&#45;&gt;Rhttp://www.w3.org/2002/07/owl#testr:CompositionalStructure -->
<g id="edge5" class="edge"><title>Rhttp://www.w3.org/2002/07/owl#testr:ReadabilityStructure&#45;&gt;Rhttp://www.w3.org/2002/07/owl#testr:CompositionalStructure</title>
<path fill="none" stroke="green" d="M449.989,-267.789C636.058,-251.91 993.708,-221.388 1189.67,-204.663"/>
<polygon fill="green" stroke="green" points="1190.08,-208.142 1199.75,-203.804 1189.49,-201.167 1190.08,-208.142"/>
<text text-anchor="middle" x="945.843" y="-231.8" font-family="Times,serif" font-size="14.00">rdfs:subClassOf</text>
</g>
<!-- Rhttp://www.w3.org/2002/07/owl#testr:ProsodicStructure -->
<g id="node7" class="node"><title>Rhttp://www.w3.org/2002/07/owl#testr:ProsodicStructure</title>
<g id="a_node7"><a xlink:href="http://www.w3.org/2002/07/owl#testr:ProsodicStructure" xlink:title="textstruct:ProsodicStructure">
<ellipse fill="none" stroke="blue" cx="1436.34" cy="-366" rx="140.275" ry="18"/>
<text text-anchor="middle" x="1436.34" y="-362.3" font-family="Times,serif" font-size="14.00">textstruct:ProsodicStructure</text>
</a>
</g>
</g>
<!-- Rhttp://www.w3.org/2002/07/owl#testr:ProsodicStructure&#45;&gt;Rhttp://www.w3.org/2002/07/owl#testr:ContentStructure -->
<g id="edge6" class="edge"><title>Rhttp://www.w3.org/2002/07/owl#testr:ProsodicStructure&#45;&gt;Rhttp://www.w3.org/2002/07/owl#testr:ContentStructure</title>
<path fill="none" stroke="green" d="M1416.71,-347.799C1402.29,-335.158 1382.51,-317.823 1366.56,-303.846"/>
<polygon fill="green" stroke="green" points="1368.44,-300.844 1358.61,-296.885 1363.83,-306.108 1368.44,-300.844"/>
<text text-anchor="middle" x="1451.84" y="-318.8" font-family="Times,serif" font-size="14.00">rdfs:subClassOf</text>
</g>
<!-- Rhttp://www.w3.org/2002/07/owl#testr:Word -->
<g id="node8" class="node"><title>Rhttp://www.w3.org/2002/07/owl#testr:Word</title>
<g id="a_node8"><a xlink:href="http://www.w3.org/2002/07/owl#testr:Word" xlink:title="textstruct:Word">
<ellipse fill="none" stroke="blue" cx="1369.34" cy="-627" rx="79.8859" ry="18"/>
<text text-anchor="middle" x="1369.34" y="-623.3" font-family="Times,serif" font-size="14.00">textstruct:Word</text>
</a>
</g>
</g>
<!-- Rhttp://www.w3.org/2002/07/owl#testr:Word&#45;&gt;Rhttp://www.w3.org/2002/07/owl#testr:SyntacticStructure -->
<g id="edge7" class="edge"><title>Rhttp://www.w3.org/2002/07/owl#testr:Word&#45;&gt;Rhttp://www.w3.org/2002/07/owl#testr:SyntacticStructure</title>
<path fill="none" stroke="green" d="M1443.07,-620.001C1474.41,-615.196 1510.52,-606.551 1540.34,-591 1546.71,-587.681 1691.9,-448.271 1751.33,-391.09"/>
<polygon fill="green" stroke="green" points="1754.01,-393.361 1758.79,-383.905 1749.16,-388.317 1754.01,-393.361"/>
<text text-anchor="middle" x="1705.84" y="-492.8" font-family="Times,serif" font-size="14.00">rdfs:subClassOf</text>
</g>
<!-- Rhttp://www.w3.org/2002/07/owl#testr:Sentence -->
<g id="node9" class="node"><title>Rhttp://www.w3.org/2002/07/owl#testr:Sentence</title>
<g id="a_node9"><a xlink:href="http://www.w3.org/2002/07/owl#testr:Sentence" xlink:title="textstruct:Sentence">
<ellipse fill="none" stroke="blue" cx="1765.34" cy="-540" rx="98.2828" ry="18"/>
<text text-anchor="middle" x="1765.34" y="-536.3" font-family="Times,serif" font-size="14.00">textstruct:Sentence</text>
</a>
</g>
</g>
<!-- Rhttp://www.w3.org/2002/07/owl#testr:Word&#45;&gt;Rhttp://www.w3.org/2002/07/owl#testr:Sentence -->
<g id="edge8" class="edge"><title>Rhttp://www.w3.org/2002/07/owl#testr:Word&#45;&gt;Rhttp://www.w3.org/2002/07/owl#testr:Sentence</title>
<path fill="none" stroke="blue" d="M1447.72,-623.175C1495.93,-619.372 1558.23,-610.678 1610.34,-591 1621.76,-586.689 1622.19,-580.96 1633.34,-576 1651.51,-567.918 1671.95,-561.374 1691.21,-556.229"/>
<polygon fill="blue" stroke="blue" points="1692.35,-559.55 1701.16,-553.665 1690.6,-552.771 1692.35,-559.55"/>
<text text-anchor="middle" x="1729.84" y="-579.8" font-family="Times,serif" font-size="14.00">textstruct:isPartOfSentence</text>
</g>
<!-- Rhttp://www.w3.org/2002/07/owl#testr:Line -->
<g id="node10" class="node"><title>Rhttp://www.w3.org/2002/07/owl#testr:Line</title>
<g id="a_node10"><a xlink:href="http://www.w3.org/2002/07/owl#testr:Line" xlink:title="textstruct:Line">
<ellipse fill="none" stroke="blue" cx="471.343" cy="-540" rx="75.2868" ry="18"/>
<text text-anchor="middle" x="471.343" y="-536.3" font-family="Times,serif" font-size="14.00">textstruct:Line</text>
</a>
</g>
</g>
<!-- Rhttp://www.w3.org/2002/07/owl#testr:Word&#45;&gt;Rhttp://www.w3.org/2002/07/owl#testr:Line -->
<g id="edge9" class="edge"><title>Rhttp://www.w3.org/2002/07/owl#testr:Word&#45;&gt;Rhttp://www.w3.org/2002/07/owl#testr:Line</title>
<path fill="none" stroke="blue" d="M1302.09,-617.163C1280.47,-614.421 1256.41,-611.473 1234.34,-609 1085.22,-592.291 1047.94,-587.727 898.343,-576 762.082,-565.318 727.344,-571.597 591.343,-558 575.392,-556.405 558.306,-554.254 542.175,-552.019"/>
<polygon fill="blue" stroke="blue" points="542.664,-548.553 532.273,-550.62 541.685,-555.484 542.664,-548.553"/>
<text text-anchor="middle" x="1146.84" y="-579.8" font-family="Times,serif" font-size="14.00">textstruct:isPartOfLine</text>
</g>
<!-- Rhttp://www.w3.org/2002/07/owl#testr:Verse -->
<g id="node11" class="node"><title>Rhttp://www.w3.org/2002/07/owl#testr:Verse</title>
<g id="a_node11"><a xlink:href="http://www.w3.org/2002/07/owl#testr:Verse" xlink:title="textstruct:Verse">
<ellipse fill="none" stroke="blue" cx="1369.34" cy="-540" rx="81.4863" ry="18"/>
<text text-anchor="middle" x="1369.34" y="-536.3" font-family="Times,serif" font-size="14.00">textstruct:Verse</text>
</a>
</g>
</g>
<!-- Rhttp://www.w3.org/2002/07/owl#testr:Word&#45;&gt;Rhttp://www.w3.org/2002/07/owl#testr:Verse -->
<g id="edge10" class="edge"><title>Rhttp://www.w3.org/2002/07/owl#testr:Word&#45;&gt;Rhttp://www.w3.org/2002/07/owl#testr:Verse</title>
<path fill="none" stroke="blue" d="M1369.34,-608.799C1369.34,-597.163 1369.34,-581.548 1369.34,-568.237"/>
<polygon fill="blue" stroke="blue" points="1372.84,-568.175 1369.34,-558.175 1365.84,-568.175 1372.84,-568.175"/>
<text text-anchor="middle" x="1452.84" y="-579.8" font-family="Times,serif" font-size="14.00">textstruct:isPartOfVerse</text>
</g>
<!-- Rhttp://www.w3.org/2002/07/owl#testr:Sentence&#45;&gt;Rhttp://www.w3.org/2002/07/owl#testr:SyntacticStructure -->
<g id="edge11" class="edge"><title>Rhttp://www.w3.org/2002/07/owl#testr:Sentence&#45;&gt;Rhttp://www.w3.org/2002/07/owl#testr:SyntacticStructure</title>
<path fill="none" stroke="green" d="M1766.44,-521.879C1768.35,-492.001 1772.31,-430.113 1774.6,-394.274"/>
<polygon fill="green" stroke="green" points="1778.11,-394.255 1775.25,-384.052 1771.12,-393.808 1778.11,-394.255"/>
<text text-anchor="middle" x="1829.84" y="-449.3" font-family="Times,serif" font-size="14.00">rdfs:subClassOf</text>
</g>
<!-- Rhttp://www.w3.org/2002/07/owl#testr:Paragraph -->
<g id="node12" class="node"><title>Rhttp://www.w3.org/2002/07/owl#testr:Paragraph</title>
<g id="a_node12"><a xlink:href="http://www.w3.org/2002/07/owl#testr:Paragraph" xlink:title="textstruct:Paragraph">
<ellipse fill="none" stroke="blue" cx="2008.34" cy="-453" rx="103.182" ry="18"/>
<text text-anchor="middle" x="2008.34" y="-449.3" font-family="Times,serif" font-size="14.00">textstruct:Paragraph</text>
</a>
</g>
</g>
<!-- Rhttp://www.w3.org/2002/07/owl#testr:Sentence&#45;&gt;Rhttp://www.w3.org/2002/07/owl#testr:Paragraph -->
<g id="edge12" class="edge"><title>Rhttp://www.w3.org/2002/07/owl#testr:Sentence&#45;&gt;Rhttp://www.w3.org/2002/07/owl#testr:Paragraph</title>
<path fill="none" stroke="blue" d="M1772.58,-521.905C1778.22,-510.733 1787.15,-496.815 1799.34,-489 1804.77,-485.52 1867,-475.346 1922.15,-466.858"/>
<polygon fill="blue" stroke="blue" points="1923,-470.269 1932.35,-465.295 1921.94,-463.35 1923,-470.269"/>
<text text-anchor="middle" x="1900.34" y="-492.8" font-family="Times,serif" font-size="14.00">textstruct:isPartOfParagraph</text>
</g>
<!-- Rhttp://www.w3.org/2002/07/owl#testr:Prose -->
<g id="node13" class="node"><title>Rhttp://www.w3.org/2002/07/owl#testr:Prose</title>
<g id="a_node13"><a xlink:href="http://www.w3.org/2002/07/owl#testr:Prose" xlink:title="textstruct:Prose">
<ellipse fill="none" stroke="blue" cx="1411.34" cy="-453" rx="81.4863" ry="18"/>
<text text-anchor="middle" x="1411.34" y="-449.3" font-family="Times,serif" font-size="14.00">textstruct:Prose</text>
</a>
</g>
</g>
<!-- Rhttp://www.w3.org/2002/07/owl#testr:Sentence&#45;&gt;Rhttp://www.w3.org/2002/07/owl#testr:Prose -->
<g id="edge13" class="edge"><title>Rhttp://www.w3.org/2002/07/owl#testr:Sentence&#45;&gt;Rhttp://www.w3.org/2002/07/owl#testr:Prose</title>
<path fill="none" stroke="blue" d="M1668.23,-537.215C1588.08,-534.147 1481.81,-525.92 1445.34,-504 1436.03,-498.402 1428.69,-489.158 1423.25,-480.131"/>
<polygon fill="blue" stroke="blue" points="1426.3,-478.419 1418.44,-471.319 1420.16,-481.773 1426.3,-478.419"/>
<text text-anchor="middle" x="1529.34" y="-492.8" font-family="Times,serif" font-size="14.00">textstruct:isPartOfProse</text>
</g>
<!-- Rhttp://www.w3.org/2002/07/owl#testr:Line&#45;&gt;Rhttp://www.w3.org/2002/07/owl#testr:ReadabilityStructure -->
<g id="edge22" class="edge"><title>Rhttp://www.w3.org/2002/07/owl#testr:Line&#45;&gt;Rhttp://www.w3.org/2002/07/owl#testr:ReadabilityStructure</title>
<path fill="none" stroke="green" d="M462.54,-521.748C450.611,-498.225 428.797,-454.698 411.343,-417 397.294,-386.655 398.156,-376.906 381.343,-348 372.662,-333.075 361.264,-317.589 351.444,-305.172"/>
<polygon fill="green" stroke="green" points="353.95,-302.703 344.952,-297.111 348.498,-307.094 353.95,-302.703"/>
<text text-anchor="middle" x="468.843" y="-405.8" font-family="Times,serif" font-size="14.00">rdfs:subClassOf</text>
</g>
<!-- Rhttp://www.w3.org/2002/07/owl#testr:Column -->
<g id="node17" class="node"><title>Rhttp://www.w3.org/2002/07/owl#testr:Column</title>
<g id="a_node17"><a xlink:href="http://www.w3.org/2002/07/owl#testr:Column" xlink:title="textstruct:Column">
<ellipse fill="none" stroke="blue" cx="215.343" cy="-453" rx="90.9839" ry="18"/>
<text text-anchor="middle" x="215.343" y="-449.3" font-family="Times,serif" font-size="14.00">textstruct:Column</text>
</a>
</g>
</g>
<!-- Rhttp://www.w3.org/2002/07/owl#testr:Line&#45;&gt;Rhttp://www.w3.org/2002/07/owl#testr:Column -->
<g id="edge23" class="edge"><title>Rhttp://www.w3.org/2002/07/owl#testr:Line&#45;&gt;Rhttp://www.w3.org/2002/07/owl#testr:Column</title>
<path fill="none" stroke="blue" d="M397.186,-536.46C336.502,-532.907 256.837,-524.391 232.343,-504 225.53,-498.328 221.438,-489.809 218.984,-481.401"/>
<polygon fill="blue" stroke="blue" points="222.344,-480.386 216.73,-471.401 215.515,-481.925 222.344,-480.386"/>
<text text-anchor="middle" x="323.843" y="-492.8" font-family="Times,serif" font-size="14.00">textstruct:isPartOfColumn</text>
</g>
<!-- Rhttp://www.w3.org/2002/07/owl#testr:Paragraph&#45;&gt;Rhttp://www.w3.org/2002/07/owl#testr:ContentStructure -->
<g id="edge16" class="edge"><title>Rhttp://www.w3.org/2002/07/owl#testr:Paragraph&#45;&gt;Rhttp://www.w3.org/2002/07/owl#testr:ContentStructure</title>
<path fill="none" stroke="green" d="M1933.52,-440.517C1919.52,-438.542 1905,-436.61 1891.34,-435 1730.02,-415.981 1689.38,-413.449 1527.34,-402 1507.64,-400.608 1185.95,-398.313 1172.34,-384 1135.84,-345.6 1204.89,-315.553 1264.97,-297.834"/>
<polygon fill="green" stroke="green" points="1266.25,-301.107 1274.9,-294.99 1264.33,-294.378 1266.25,-301.107"/>
<text text-anchor="middle" x="1229.84" y="-362.3" font-family="Times,serif" font-size="14.00">rdfs:subClassOf</text>
</g>
<!-- Rhttp://www.w3.org/2002/07/owl#testr:Section -->
<g id="node14" class="node"><title>Rhttp://www.w3.org/2002/07/owl#testr:Section</title>
<g id="a_node14"><a xlink:href="http://www.w3.org/2002/07/owl#testr:Section" xlink:title="textstruct:Section">
<ellipse fill="none" stroke="blue" cx="2027.34" cy="-366" rx="89.8845" ry="18"/>
<text text-anchor="middle" x="2027.34" y="-362.3" font-family="Times,serif" font-size="14.00">textstruct:Section</text>
</a>
</g>
</g>
<!-- Rhttp://www.w3.org/2002/07/owl#testr:Paragraph&#45;&gt;Rhttp://www.w3.org/2002/07/owl#testr:Section -->
<g id="edge17" class="edge"><title>Rhttp://www.w3.org/2002/07/owl#testr:Paragraph&#45;&gt;Rhttp://www.w3.org/2002/07/owl#testr:Section</title>
<path fill="none" stroke="blue" d="M2010.47,-434.754C2011.82,-425.062 2013.8,-412.781 2016.34,-402 2016.97,-399.359 2017.69,-396.629 2018.45,-393.911"/>
<polygon fill="blue" stroke="blue" points="2021.81,-394.893 2021.35,-384.308 2015.11,-392.869 2021.81,-394.893"/>
<text text-anchor="middle" x="2106.84" y="-405.8" font-family="Times,serif" font-size="14.00">textstruct:isPartOfSection</text>
</g>
<!-- Rhttp://www.w3.org/2002/07/owl#testr:Prose&#45;&gt;Rhttp://www.w3.org/2002/07/owl#lang:HumanNaturalLanguageExpression -->
<g id="edge15" class="edge"><title>Rhttp://www.w3.org/2002/07/owl#testr:Prose&#45;&gt;Rhttp://www.w3.org/2002/07/owl#lang:HumanNaturalLanguageExpression</title>
<path fill="none" stroke="blue" d="M1390.1,-435.607C1374.05,-424.154 1350.99,-409.601 1328.34,-402 1256.31,-377.823 1223.5,-423.086 1158.34,-384 1130.49,-367.29 1117.34,-355.982 1117.34,-323.5 1117.34,-323.5 1117.34,-323.5 1117.34,-104 1117.34,-80.4051 1132.96,-58.7585 1148.27,-43.215"/>
<polygon fill="blue" stroke="blue" points="1150.89,-45.5442 1155.68,-36.0931 1146.04,-40.4954 1150.89,-45.5442"/>
<text text-anchor="middle" x="1216.84" y="-231.8" font-family="Times,serif" font-size="14.00">textstruct:proseIsPartOfText</text>
</g>
<!-- Rhttp://www.w3.org/2002/07/owl#testr:Prose&#45;&gt;Rhttp://www.w3.org/2002/07/owl#testr:SyntacticStructure -->
<g id="edge14" class="edge"><title>Rhttp://www.w3.org/2002/07/owl#testr:Prose&#45;&gt;Rhttp://www.w3.org/2002/07/owl#testr:SyntacticStructure</title>
<path fill="none" stroke="green" d="M1436.07,-435.839C1454.64,-424.5 1481.11,-409.99 1506.34,-402 1521.59,-397.173 1596.14,-387.671 1663.05,-379.785"/>
<polygon fill="green" stroke="green" points="1663.76,-383.225 1673.29,-378.584 1662.95,-376.273 1663.76,-383.225"/>
<text text-anchor="middle" x="1563.84" y="-405.8" font-family="Times,serif" font-size="14.00">rdfs:subClassOf</text>
</g>
<!-- Rhttp://www.w3.org/2002/07/owl#testr:Section&#45;&gt;Rhttp://www.w3.org/2002/07/owl#lang:HumanNaturalLanguageExpression -->
<g id="edge19" class="edge"><title>Rhttp://www.w3.org/2002/07/owl#testr:Section&#45;&gt;Rhttp://www.w3.org/2002/07/owl#lang:HumanNaturalLanguageExpression</title>
<path fill="none" stroke="blue" d="M2007.76,-348.232C1991.61,-332.446 1971.34,-307.214 1971.34,-280 1971.34,-280 1971.34,-280 1971.34,-104 1971.34,-46.5338 1638.27,-27.8504 1403.57,-21.8186"/>
<polygon fill="blue" stroke="blue" points="1403.61,-18.3184 1393.52,-21.5664 1403.43,-25.3162 1403.61,-18.3184"/>
<text text-anchor="middle" x="2076.84" y="-188.3" font-family="Times,serif" font-size="14.00">textstruct:sectionIsPartOfText</text>
</g>
<!-- Rhttp://www.w3.org/2002/07/owl#testr:Section&#45;&gt;Rhttp://www.w3.org/2002/07/owl#testr:ContentStructure -->
<g id="edge18" class="edge"><title>Rhttp://www.w3.org/2002/07/owl#testr:Section&#45;&gt;Rhttp://www.w3.org/2002/07/owl#testr:ContentStructure</title>
<path fill="none" stroke="green" d="M1964.76,-353.09C1953.02,-351.156 1940.83,-349.349 1929.34,-348 1801.09,-332.941 1767.65,-344.634 1639.34,-330 1565.57,-321.586 1482.33,-307.33 1422.28,-296.188"/>
<polygon fill="green" stroke="green" points="1422.57,-292.682 1412.1,-294.287 1421.29,-299.563 1422.57,-292.682"/>
<text text-anchor="middle" x="1696.84" y="-318.8" font-family="Times,serif" font-size="14.00">rdfs:subClassOf</text>
</g>
<!-- Rhttp://www.w3.org/2000/01/rdf&#45;schema#Literal -->
<g id="node15" class="node"><title>Rhttp://www.w3.org/2000/01/rdf&#45;schema#Literal</title>
<g id="a_node15"><a xlink:href="http://www.w3.org/2000/01/rdf-schema#Literal" xlink:title="rdfs:Literal">
<ellipse fill="none" stroke="brown" cx="1720.34" cy="-279" rx="63.8893" ry="18"/>
<text text-anchor="middle" x="1720.34" y="-275.3" font-family="Times,serif" font-size="14.00">rdfs:Literal</text>
</a>
</g>
</g>
<!-- Rhttp://www.w3.org/2002/07/owl#testr:Section&#45;&gt;Rhttp://www.w3.org/2000/01/rdf&#45;schema#Literal -->
<g id="edge20" class="edge"><title>Rhttp://www.w3.org/2002/07/owl#testr:Section&#45;&gt;Rhttp://www.w3.org/2000/01/rdf&#45;schema#Literal</title>
<path fill="none" stroke="blue" d="M1963.11,-353.341C1951.87,-351.449 1940.28,-349.591 1929.34,-348 1861.59,-338.145 1838.78,-358.105 1776.34,-330 1769.03,-326.708 1755.81,-315.03 1744.05,-303.787"/>
<polygon fill="blue" stroke="blue" points="1746.22,-301.015 1736.61,-296.554 1741.34,-306.034 1746.22,-301.015"/>
<text text-anchor="middle" x="1866.84" y="-318.8" font-family="Times,serif" font-size="14.00">textstruct:sectionHasTitle</text>
</g>
<!-- Rhttp://www.w3.org/2001/XMLSchema#nonNegativeInteger -->
<g id="node16" class="node"><title>Rhttp://www.w3.org/2001/XMLSchema#nonNegativeInteger</title>
<g id="a_node16"><a xlink:href="http://www.w3.org/2001/XMLSchema#nonNegativeInteger" xlink:title="xsd:nonNegativeInteger">
<ellipse fill="none" stroke="brown" cx="2123.34" cy="-279" rx="124.278" ry="18"/>
<text text-anchor="middle" x="2123.34" y="-275.3" font-family="Times,serif" font-size="14.00">xsd:nonNegativeInteger</text>
</a>
</g>
</g>
<!-- Rhttp://www.w3.org/2002/07/owl#testr:Section&#45;&gt;Rhttp://www.w3.org/2001/XMLSchema#nonNegativeInteger -->
<g id="edge21" class="edge"><title>Rhttp://www.w3.org/2002/07/owl#testr:Section&#45;&gt;Rhttp://www.w3.org/2001/XMLSchema#nonNegativeInteger</title>
<path fill="none" stroke="blue" d="M2046.31,-348.207C2060.68,-335.484 2080.61,-317.837 2096.6,-303.681"/>
<polygon fill="blue" stroke="blue" points="2098.92,-306.299 2104.09,-297.049 2094.28,-301.058 2098.92,-306.299"/>
<text text-anchor="middle" x="2185.34" y="-318.8" font-family="Times,serif" font-size="14.00">textstruct:sectionHasNumber</text>
</g>
<!-- Rhttp://www.w3.org/2002/07/owl#testr:Column&#45;&gt;Rhttp://www.w3.org/2002/07/owl#testr:ReadabilityStructure -->
<g id="edge24" class="edge"><title>Rhttp://www.w3.org/2002/07/owl#testr:Column&#45;&gt;Rhttp://www.w3.org/2002/07/owl#testr:ReadabilityStructure</title>
<path fill="none" stroke="green" d="M227.501,-434.961C231.221,-429.378 235.166,-423.051 238.343,-417 253.727,-387.697 248.475,-375.858 266.343,-348 276.636,-331.953 290.977,-316.3 303.475,-304.065"/>
<polygon fill="green" stroke="green" points="306.148,-306.352 310.966,-296.916 301.315,-301.288 306.148,-306.352"/>
<text text-anchor="middle" x="323.843" y="-362.3" font-family="Times,serif" font-size="14.00">rdfs:subClassOf</text>
</g>
<!-- Rhttp://www.w3.org/2002/07/owl#testr:Page -->
<g id="node18" class="node"><title>Rhttp://www.w3.org/2002/07/owl#testr:Page</title>
<g id="a_node18"><a xlink:href="http://www.w3.org/2002/07/owl#testr:Page" xlink:title="textstruct:Page">
<ellipse fill="none" stroke="blue" cx="77.3431" cy="-366" rx="77.1866" ry="18"/>
<text text-anchor="middle" x="77.3431" y="-362.3" font-family="Times,serif" font-size="14.00">textstruct:Page</text>
</a>
</g>
</g>
<!-- Rhttp://www.w3.org/2002/07/owl#testr:Column&#45;&gt;Rhttp://www.w3.org/2002/07/owl#testr:Page -->
<g id="edge25" class="edge"><title>Rhttp://www.w3.org/2002/07/owl#testr:Column&#45;&gt;Rhttp://www.w3.org/2002/07/owl#testr:Page</title>
<path fill="none" stroke="blue" d="M142.916,-442.041C113.831,-436.424 85.1013,-428.237 76.3431,-417 71.3143,-410.548 70.1226,-402.072 70.6247,-393.937"/>
<polygon fill="blue" stroke="blue" points="74.097,-394.378 72.0053,-383.991 67.1635,-393.415 74.097,-394.378"/>
<text text-anchor="middle" x="157.343" y="-405.8" font-family="Times,serif" font-size="14.00">textstruct:isPartOfPage</text>
</g>
<!-- Rhttp://www.w3.org/2002/07/owl#testr:Page&#45;&gt;Rhttp://www.w3.org/2002/07/owl#lang:HumanNaturalLanguageExpression -->
<g id="edge27" class="edge"><title>Rhttp://www.w3.org/2002/07/owl#testr:Page&#45;&gt;Rhttp://www.w3.org/2002/07/owl#lang:HumanNaturalLanguageExpression</title>
<path fill="none" stroke="blue" d="M79.5965,-347.778C81.6428,-330.631 84.3431,-303.543 84.3431,-280 84.3431,-280 84.3431,-280 84.3431,-104 84.3431,-60.4002 644.456,-35.6644 962.758,-25.1276"/>
<polygon fill="blue" stroke="blue" points="963.161,-28.6163 973.04,-24.7893 962.931,-21.6201 963.161,-28.6163"/>
<text text-anchor="middle" x="181.343" y="-188.3" font-family="Times,serif" font-size="14.00">textstruct:pageIsPartOfText</text>
</g>
<!-- Rhttp://www.w3.org/2002/07/owl#testr:Page&#45;&gt;Rhttp://www.w3.org/2002/07/owl#testr:ReadabilityStructure -->
<g id="edge26" class="edge"><title>Rhttp://www.w3.org/2002/07/owl#testr:Page&#45;&gt;Rhttp://www.w3.org/2002/07/owl#testr:ReadabilityStructure</title>
<path fill="none" stroke="green" d="M88.5347,-347.873C96.7876,-336.688 109.037,-322.765 123.343,-315 143.945,-303.818 167.259,-296.046 190.624,-290.675"/>
<polygon fill="green" stroke="green" points="191.594,-294.047 200.632,-288.518 190.119,-287.204 191.594,-294.047"/>
<text text-anchor="middle" x="180.843" y="-318.8" font-family="Times,serif" font-size="14.00">rdfs:subClassOf</text>
</g>
<!-- Rhttp://www.w3.org/2002/07/owl#testr:Note -->
<g id="node19" class="node"><title>Rhttp://www.w3.org/2002/07/owl#testr:Note</title>
<g id="a_node19"><a xlink:href="http://www.w3.org/2002/07/owl#testr:Note" xlink:title="textstruct:Note">
<ellipse fill="none" stroke="blue" cx="809.343" cy="-366" rx="77.9862" ry="18"/>
<text text-anchor="middle" x="809.343" y="-362.3" font-family="Times,serif" font-size="14.00">textstruct:Note</text>
</a>
</g>
</g>
<!-- Rhttp://www.w3.org/2002/07/owl#testr:Note&#45;&gt;Rhttp://www.w3.org/2002/07/owl#testr:ContentStructure -->
<g id="edge28" class="edge"><title>Rhttp://www.w3.org/2002/07/owl#testr:Note&#45;&gt;Rhttp://www.w3.org/2002/07/owl#testr:ContentStructure</title>
<path fill="none" stroke="green" d="M859.982,-352.158C905.39,-341.023 973.966,-325.144 1034.34,-315 1094.96,-304.815 1162.86,-296.704 1219.18,-290.865"/>
<polygon fill="green" stroke="green" points="1219.6,-294.339 1229.19,-289.837 1218.89,-287.376 1219.6,-294.339"/>
<text text-anchor="middle" x="1091.84" y="-318.8" font-family="Times,serif" font-size="14.00">rdfs:subClassOf</text>
</g>
<!-- Rhttp://www.w3.org/2002/07/owl#testr:Marginalia -->
<g id="node20" class="node"><title>Rhttp://www.w3.org/2002/07/owl#testr:Marginalia</title>
<g id="a_node20"><a xlink:href="http://www.w3.org/2002/07/owl#testr:Marginalia" xlink:title="textstruct:Marginalia">
<ellipse fill="none" stroke="blue" cx="1036.34" cy="-453" rx="105.881" ry="18"/>
<text text-anchor="middle" x="1036.34" y="-449.3" font-family="Times,serif" font-size="14.00">textstruct:Marginalia</text>
</a>
</g>
</g>
<!-- Rhttp://www.w3.org/2002/07/owl#testr:Marginalia&#45;&gt;Rhttp://www.w3.org/2002/07/owl#testr:Note -->
<g id="edge30" class="edge"><title>Rhttp://www.w3.org/2002/07/owl#testr:Marginalia&#45;&gt;Rhttp://www.w3.org/2002/07/owl#testr:Note</title>
<path fill="none" stroke="green" d="M988.286,-436.861C973.747,-431.458 958.019,-424.756 944.343,-417 934.985,-411.692 934.883,-406.975 925.343,-402 909.361,-393.666 891.083,-386.99 873.836,-381.796"/>
<polygon fill="green" stroke="green" points="874.403,-378.317 863.825,-378.907 872.463,-385.043 874.403,-378.317"/>
<text text-anchor="middle" x="1001.84" y="-405.8" font-family="Times,serif" font-size="14.00">rdfs:subClassOf</text>
</g>
<!-- Rhttp://www.w3.org/2002/07/owl#t:WrittenText -->
<g id="node21" class="node"><title>Rhttp://www.w3.org/2002/07/owl#t:WrittenText</title>
<g id="a_node21"><a xlink:href="http://www.w3.org/2002/07/owl#t:WrittenText" xlink:title="text:WrittenText">
<ellipse fill="none" stroke="blue" cx="997.343" cy="-366" rx="92.0841" ry="18"/>
<text text-anchor="middle" x="997.343" y="-362.3" font-family="Times,serif" font-size="14.00">text:WrittenText</text>
</a>
</g>
</g>
<!-- Rhttp://www.w3.org/2002/07/owl#testr:Marginalia&#45;&gt;Rhttp://www.w3.org/2002/07/owl#t:WrittenText -->
<g id="edge29" class="edge"><title>Rhttp://www.w3.org/2002/07/owl#testr:Marginalia&#45;&gt;Rhttp://www.w3.org/2002/07/owl#t:WrittenText</title>
<path fill="none" stroke="green" d="M1139.31,-448.753C1185.9,-443.448 1225.7,-430.892 1201.34,-402 1200.28,-400.734 1132.81,-389.323 1075.76,-379.869"/>
<polygon fill="green" stroke="green" points="1076.05,-376.369 1065.61,-378.19 1074.9,-383.275 1076.05,-376.369"/>
<text text-anchor="middle" x="1266.84" y="-405.8" font-family="Times,serif" font-size="14.00">rdfs:subClassOf</text>
</g>
<!-- Rhttp://www.w3.org/2002/07/owl#testr:InterlinearNote -->
<g id="node22" class="node"><title>Rhttp://www.w3.org/2002/07/owl#testr:InterlinearNote</title>
<g id="a_node22"><a xlink:href="http://www.w3.org/2002/07/owl#testr:InterlinearNote" xlink:title="textstruct:InterlinearNote">
<ellipse fill="none" stroke="blue" cx="604.343" cy="-453" rx="128.077" ry="18"/>
<text text-anchor="middle" x="604.343" y="-449.3" font-family="Times,serif" font-size="14.00">textstruct:InterlinearNote</text>
</a>
</g>
</g>
<!-- Rhttp://www.w3.org/2002/07/owl#testr:InterlinearNote&#45;&gt;Rhttp://www.w3.org/2002/07/owl#testr:Note -->
<g id="edge32" class="edge"><title>Rhttp://www.w3.org/2002/07/owl#testr:InterlinearNote&#45;&gt;Rhttp://www.w3.org/2002/07/owl#testr:Note</title>
<path fill="none" stroke="green" d="M556.51,-436.265C537.384,-427.472 522.399,-415.561 534.343,-402 546.901,-387.742 648.601,-377.757 724.692,-372.198"/>
<polygon fill="green" stroke="green" points="725.051,-375.681 734.776,-371.476 724.552,-368.699 725.051,-375.681"/>
<text text-anchor="middle" x="591.843" y="-405.8" font-family="Times,serif" font-size="14.00">rdfs:subClassOf</text>
</g>
<!-- Rhttp://www.w3.org/2002/07/owl#testr:InterlinearNote&#45;&gt;Rhttp://www.w3.org/2002/07/owl#t:WrittenText -->
<g id="edge31" class="edge"><title>Rhttp://www.w3.org/2002/07/owl#testr:InterlinearNote&#45;&gt;Rhttp://www.w3.org/2002/07/owl#t:WrittenText</title>
<path fill="none" stroke="green" d="M626.47,-435.243C642.898,-423.768 666.348,-409.347 689.343,-402 777.31,-373.896 804.737,-395.673 896.343,-384 904.647,-382.942 913.313,-381.698 921.926,-380.372"/>
<polygon fill="green" stroke="green" points="922.656,-383.801 931.988,-378.785 921.565,-376.886 922.656,-383.801"/>
<text text-anchor="middle" x="746.843" y="-405.8" font-family="Times,serif" font-size="14.00">rdfs:subClassOf</text>
</g>
<!-- Rhttp://www.w3.org/2002/07/owl#testr:Gloss -->
<g id="node23" class="node"><title>Rhttp://www.w3.org/2002/07/owl#testr:Gloss</title>
<g id="a_node23"><a xlink:href="http://www.w3.org/2002/07/owl#testr:Gloss" xlink:title="textstruct:Gloss">
<ellipse fill="none" stroke="blue" cx="831.343" cy="-453" rx="80.6858" ry="18"/>
<text text-anchor="middle" x="831.343" y="-449.3" font-family="Times,serif" font-size="14.00">textstruct:Gloss</text>
</a>
</g>
</g>
<!-- Rhttp://www.w3.org/2002/07/owl#testr:Gloss&#45;&gt;Rhttp://www.w3.org/2002/07/owl#testr:Note -->
<g id="edge34" class="edge"><title>Rhttp://www.w3.org/2002/07/owl#testr:Gloss&#45;&gt;Rhttp://www.w3.org/2002/07/owl#testr:Note</title>
<path fill="none" stroke="green" d="M818.75,-435.025C815.365,-429.547 812.146,-423.265 810.343,-417 808.287,-409.854 807.494,-401.894 807.35,-394.464"/>
<polygon fill="green" stroke="green" points="810.85,-394.509 807.514,-384.453 803.851,-394.394 810.85,-394.509"/>
<text text-anchor="middle" x="867.843" y="-405.8" font-family="Times,serif" font-size="14.00">rdfs:subClassOf</text>
</g>
<!-- Rhttp://www.w3.org/2002/07/owl#testr:Gloss&#45;&gt;Rhttp://www.w3.org/2002/07/owl#t:WrittenText -->
<g id="edge33" class="edge"><title>Rhttp://www.w3.org/2002/07/owl#testr:Gloss&#45;&gt;Rhttp://www.w3.org/2002/07/owl#t:WrittenText</title>
<path fill="none" stroke="green" d="M889.833,-440.42C900.306,-438.498 911.133,-436.61 921.343,-435 952.763,-430.046 1042.31,-440.864 1063.34,-417 1073.35,-405.64 1063.95,-395.164 1049.42,-386.768"/>
<polygon fill="green" stroke="green" points="1050.87,-383.575 1040.38,-382.073 1047.64,-389.787 1050.87,-383.575"/>
<text text-anchor="middle" x="1125.84" y="-405.8" font-family="Times,serif" font-size="14.00">rdfs:subClassOf</text>
</g>
<!-- Rhttp://www.w3.org/2002/07/owl#testr:MarginalGloss -->
<g id="node24" class="node"><title>Rhttp://www.w3.org/2002/07/owl#testr:MarginalGloss</title>
<g id="a_node24"><a xlink:href="http://www.w3.org/2002/07/owl#testr:MarginalGloss" xlink:title="textstruct:MarginalGloss">
<ellipse fill="none" stroke="blue" cx="1033.34" cy="-540" rx="122.678" ry="18"/>
<text text-anchor="middle" x="1033.34" y="-536.3" font-family="Times,serif" font-size="14.00">textstruct:MarginalGloss</text>
</a>
</g>
</g>
<!-- Rhttp://www.w3.org/2002/07/owl#testr:MarginalGloss&#45;&gt;Rhttp://www.w3.org/2002/07/owl#testr:Marginalia -->
<g id="edge36" class="edge"><title>Rhttp://www.w3.org/2002/07/owl#testr:MarginalGloss&#45;&gt;Rhttp://www.w3.org/2002/07/owl#testr:Marginalia</title>
<path fill="none" stroke="green" d="M1033.95,-521.799C1034.36,-510.163 1034.91,-494.548 1035.38,-481.237"/>
<polygon fill="green" stroke="green" points="1038.88,-481.293 1035.74,-471.175 1031.89,-481.046 1038.88,-481.293"/>
<text text-anchor="middle" x="1092.84" y="-492.8" font-family="Times,serif" font-size="14.00">rdfs:subClassOf</text>
</g>
<!-- Rhttp://www.w3.org/2002/07/owl#testr:MarginalGloss&#45;&gt;Rhttp://www.w3.org/2002/07/owl#testr:Gloss -->
<g id="edge35" class="edge"><title>Rhttp://www.w3.org/2002/07/owl#testr:MarginalGloss&#45;&gt;Rhttp://www.w3.org/2002/07/owl#testr:Gloss</title>
<path fill="none" stroke="green" d="M973.73,-524.174C955.02,-518.728 934.514,-511.924 916.343,-504 898.37,-496.163 879.467,-485.331 864.063,-475.753"/>
<polygon fill="green" stroke="green" points="865.753,-472.68 855.431,-470.29 862.009,-478.595 865.753,-472.68"/>
<text text-anchor="middle" x="973.843" y="-492.8" font-family="Times,serif" font-size="14.00">rdfs:subClassOf</text>
</g>
<!-- Rhttp://www.w3.org/2002/07/owl#testr:InterlinearGloss -->
<g id="node25" class="node"><title>Rhttp://www.w3.org/2002/07/owl#testr:InterlinearGloss</title>
<g id="a_node25"><a xlink:href="http://www.w3.org/2002/07/owl#testr:InterlinearGloss" xlink:title="textstruct:InterlinearGloss">
<ellipse fill="none" stroke="blue" cx="731.343" cy="-540" rx="130.777" ry="18"/>
<text text-anchor="middle" x="731.343" y="-536.3" font-family="Times,serif" font-size="14.00">textstruct:InterlinearGloss</text>
</a>
</g>
</g>
<!-- Rhttp://www.w3.org/2002/07/owl#testr:InterlinearGloss&#45;&gt;Rhttp://www.w3.org/2002/07/owl#testr:InterlinearNote -->
<g id="edge38" class="edge"><title>Rhttp://www.w3.org/2002/07/owl#testr:InterlinearGloss&#45;&gt;Rhttp://www.w3.org/2002/07/owl#testr:InterlinearNote</title>
<path fill="none" stroke="green" d="M661.346,-524.767C648.64,-519.782 636.285,-513.06 626.343,-504 619.592,-497.848 614.807,-489.248 611.464,-480.912"/>
<polygon fill="green" stroke="green" points="614.753,-479.714 608.171,-471.411 608.139,-482.006 614.753,-479.714"/>
<text text-anchor="middle" x="683.843" y="-492.8" font-family="Times,serif" font-size="14.00">rdfs:subClassOf</text>
</g>
<!-- Rhttp://www.w3.org/2002/07/owl#testr:InterlinearGloss&#45;&gt;Rhttp://www.w3.org/2002/07/owl#testr:Gloss -->
<g id="edge37" class="edge"><title>Rhttp://www.w3.org/2002/07/owl#testr:InterlinearGloss&#45;&gt;Rhttp://www.w3.org/2002/07/owl#testr:Gloss</title>
<path fill="none" stroke="green" d="M736.615,-521.937C740.611,-511.345 747.024,-498.071 756.343,-489 762.922,-482.597 770.888,-477.21 779.14,-472.73"/>
<polygon fill="green" stroke="green" points="780.776,-475.825 788.154,-468.221 777.644,-469.565 780.776,-475.825"/>
<text text-anchor="middle" x="813.843" y="-492.8" font-family="Times,serif" font-size="14.00">rdfs:subClassOf</text>
</g>
<!-- Rhttp://www.w3.org/2002/07/owl#t:Expression -->
<g id="node26" class="node"><title>Rhttp://www.w3.org/2002/07/owl#t:Expression</title>
<g id="a_node26"><a xlink:href="http://www.w3.org/2002/07/owl#t:Expression" xlink:title="text:Expression">
<ellipse fill="none" stroke="blue" cx="905.343" cy="-714" rx="88.2844" ry="18"/>
<text text-anchor="middle" x="905.343" y="-710.3" font-family="Times,serif" font-size="14.00">text:Expression</text>
</a>
</g>
</g>
<!-- Rhttp://www.w3.org/2002/07/owl#t:Expression&#45;&gt;Rhttp://www.w3.org/2002/07/owl#testr:Word -->
<g id="edge39" class="edge"><title>Rhttp://www.w3.org/2002/07/owl#t:Expression&#45;&gt;Rhttp://www.w3.org/2002/07/owl#testr:Word</title>
<path fill="none" stroke="blue" d="M989.803,-708.66C1081.35,-703.299 1221.22,-693.007 1272.34,-678 1294.48,-671.502 1317.51,-659.873 1335.56,-649.464"/>
<polygon fill="blue" stroke="blue" points="1337.7,-652.268 1344.52,-644.165 1334.14,-646.243 1337.7,-652.268"/>
<text text-anchor="middle" x="1375.34" y="-666.8" font-family="Times,serif" font-size="14.00">textstruct:hasWord</text>
</g>
<!-- Rhttp://www.w3.org/2002/07/owl#t:Expression&#45;&gt;Rhttp://www.w3.org/2002/07/owl#testr:Line -->
<g id="edge40" class="edge"><title>Rhttp://www.w3.org/2002/07/owl#t:Expression&#45;&gt;Rhttp://www.w3.org/2002/07/owl#testr:Line</title>
<path fill="none" stroke="blue" d="M866.829,-697.736C787.126,-666.149 604.353,-593.714 518.071,-559.519"/>
<polygon fill="blue" stroke="blue" points="519.122,-556.171 508.536,-555.74 516.543,-562.678 519.122,-556.171"/>
<text text-anchor="middle" x="794.843" y="-623.3" font-family="Times,serif" font-size="14.00">textstruct:hasLine</text>
</g>
<!-- Rhttp://www.w3.org/2002/07/owl#t:Expression&#45;&gt;Rhttp://www.w3.org/2000/01/rdf&#45;schema#Literal -->
<g id="edge41" class="edge"><title>Rhttp://www.w3.org/2002/07/owl#t:Expression&#45;&gt;Rhttp://www.w3.org/2000/01/rdf&#45;schema#Literal</title>
<path fill="none" stroke="blue" d="M989.063,-708.051C1078.8,-700.792 1212.67,-683.655 1244.34,-645 1288.29,-591.365 1209.98,-550.323 1242.34,-489 1262.19,-451.387 1282.35,-451.99 1321.34,-435 1382.33,-408.425 1401.98,-414.357 1467.34,-402 1519.47,-392.146 1542.73,-415.598 1585.34,-384 1612.65,-363.753 1592.96,-337.609 1618.34,-315 1629.65,-304.934 1643.98,-297.734 1658.31,-292.596"/>
<polygon fill="blue" stroke="blue" points="1659.78,-295.798 1668.19,-289.357 1657.6,-289.146 1659.78,-295.798"/>
<text text-anchor="middle" x="1334.34" y="-492.8" font-family="Times,serif" font-size="14.00">textstruct:hasLineNumber</text>
</g>
<!-- Rhttp://www.w3.org/2002/07/owl#t:Expression&#45;&gt;Rhttp://www.w3.org/2002/07/owl#testr:Column -->
<g id="edge42" class="edge"><title>Rhttp://www.w3.org/2002/07/owl#t:Expression&#45;&gt;Rhttp://www.w3.org/2002/07/owl#testr:Column</title>
<path fill="none" stroke="blue" d="M842.826,-701.272C748.209,-682.69 563.632,-643.172 412.343,-591 323.01,-560.194 272.056,-581.745 218.343,-504 213.806,-497.433 212.137,-489.148 211.862,-481.221"/>
<polygon fill="blue" stroke="blue" points="215.362,-481.287 212.18,-471.181 208.365,-481.065 215.362,-481.287"/>
<text text-anchor="middle" x="486.843" y="-579.8" font-family="Times,serif" font-size="14.00">textstruct:hasColumn</text>
</g>
<!-- Rhttp://www.w3.org/2002/07/owl#t:Expression&#45;&gt;Rhttp://www.w3.org/2002/07/owl#testr:Page -->
<g id="edge43" class="edge"><title>Rhttp://www.w3.org/2002/07/owl#t:Expression&#45;&gt;Rhttp://www.w3.org/2002/07/owl#testr:Page</title>
<path fill="none" stroke="blue" d="M816.64,-713.411C596.417,-713.259 42.3431,-705.205 42.3431,-628 42.3431,-628 42.3431,-628 42.3431,-452 42.3431,-431.055 51.542,-409.245 60.5079,-392.963"/>
<polygon fill="blue" stroke="blue" points="63.6827,-394.466 65.6886,-384.062 57.633,-390.944 63.6827,-394.466"/>
<text text-anchor="middle" x="106.343" y="-536.3" font-family="Times,serif" font-size="14.00">textstruct:hasPage</text>
</g>
<!-- Rhttp://www.w3.org/2002/07/owl#t:SentenceExpression -->
<g id="node27" class="node"><title>Rhttp://www.w3.org/2002/07/owl#t:SentenceExpression</title>
<g id="a_node27"><a xlink:href="http://www.w3.org/2002/07/owl#t:SentenceExpression" xlink:title="text:SentenceExpression">
<ellipse fill="none" stroke="blue" cx="1840.34" cy="-801" rx="131.077" ry="18"/>
<text text-anchor="middle" x="1840.34" y="-797.3" font-family="Times,serif" font-size="14.00">text:SentenceExpression</text>
</a>
</g>
</g>
<!-- Rhttp://www.w3.org/2002/07/owl#t:SentenceExpression&#45;&gt;Rhttp://www.w3.org/2002/07/owl#testr:Sentence -->
<g id="edge45" class="edge"><title>Rhttp://www.w3.org/2002/07/owl#t:SentenceExpression&#45;&gt;Rhttp://www.w3.org/2002/07/owl#testr:Sentence</title>
<path fill="none" stroke="blue" d="M1840.2,-782.938C1839.66,-733.642 1837.17,-593.415 1826.34,-576 1823.12,-570.818 1818.83,-566.326 1814.02,-562.452"/>
<polygon fill="blue" stroke="blue" points="1815.71,-559.365 1805.51,-556.501 1811.7,-565.101 1815.71,-559.365"/>
<text text-anchor="middle" x="1918.34" y="-666.8" font-family="Times,serif" font-size="14.00">textstruct:hasSentence</text>
</g>
<!-- Rhttp://www.w3.org/2002/07/owl#t:SentenceExpression&#45;&gt;Rhttp://www.w3.org/2002/07/owl#testr:Paragraph -->
<g id="edge46" class="edge"><title>Rhttp://www.w3.org/2002/07/owl#t:SentenceExpression&#45;&gt;Rhttp://www.w3.org/2002/07/owl#testr:Paragraph</title>
<path fill="none" stroke="blue" d="M1933.99,-788.384C1975.6,-777.443 2015.34,-756.207 2015.34,-715 2015.34,-715 2015.34,-715 2015.34,-539 2015.34,-519.687 2013.53,-497.99 2011.74,-481.35"/>
<polygon fill="blue" stroke="blue" points="2015.2,-480.765 2010.6,-471.222 2008.24,-481.553 2015.2,-480.765"/>
<text text-anchor="middle" x="2099.34" y="-623.3" font-family="Times,serif" font-size="14.00">textstruct:hasParagraph</text>
</g>
<!-- Rhttp://www.w3.org/2002/07/owl#t:SentenceExpression&#45;&gt;Rhttp://www.w3.org/2002/07/owl#testr:Prose -->
<g id="edge48" class="edge"><title>Rhttp://www.w3.org/2002/07/owl#t:SentenceExpression&#45;&gt;Rhttp://www.w3.org/2002/07/owl#testr:Prose</title>
<path fill="none" stroke="blue" d="M1726.91,-791.865C1548.62,-776.409 1215.89,-735.864 1146.34,-645 1136.62,-632.295 1138.73,-623.074 1146.34,-609 1179.94,-546.869 1213.37,-547.234 1279.34,-522 1328.89,-503.047 1357.62,-539.163 1397.34,-504 1403.87,-498.223 1407.46,-489.677 1409.41,-481.279"/>
<polygon fill="blue" stroke="blue" points="1412.88,-481.738 1411.05,-471.303 1405.97,-480.602 1412.88,-481.738"/>
<text text-anchor="middle" x="1213.34" y="-623.3" font-family="Times,serif" font-size="14.00">textstruct:hasProse</text>
</g>
<!-- Rhttp://www.w3.org/2002/07/owl#t:SentenceExpression&#45;&gt;Rhttp://www.w3.org/2002/07/owl#testr:Section -->
<g id="edge47" class="edge"><title>Rhttp://www.w3.org/2002/07/owl#t:SentenceExpression&#45;&gt;Rhttp://www.w3.org/2002/07/owl#testr:Section</title>
<path fill="none" stroke="blue" d="M1964.14,-794.95C2072.03,-787.057 2211.34,-766.83 2211.34,-715 2211.34,-715 2211.34,-715 2211.34,-452 2211.34,-428.923 2214.22,-417.737 2197.34,-402 2184.86,-390.358 2150.12,-382.164 2115.27,-376.648"/>
<polygon fill="blue" stroke="blue" points="2115.38,-373.125 2104.97,-375.092 2114.33,-380.046 2115.38,-373.125"/>
<text text-anchor="middle" x="2284.84" y="-579.8" font-family="Times,serif" font-size="14.00">textstruct:hasSection</text>
</g>
<!-- Rhttp://www.w3.org/2002/07/owl#t:SentenceExpression&#45;&gt;Rhttp://www.w3.org/2002/07/owl#t:Expression -->
<g id="edge44" class="edge"><title>Rhttp://www.w3.org/2002/07/owl#t:SentenceExpression&#45;&gt;Rhttp://www.w3.org/2002/07/owl#t:Expression</title>
<path fill="none" stroke="green" d="M1709.63,-799.273C1483.01,-797.345 1034.79,-790.339 967.343,-765 952.552,-759.443 938.613,-748.886 927.712,-738.898"/>
<polygon fill="green" stroke="green" points="929.975,-736.219 920.342,-731.807 925.121,-741.263 929.975,-736.219"/>
<text text-anchor="middle" x="1024.84" y="-753.8" font-family="Times,serif" font-size="14.00">rdfs:subClassOf</text>
</g>
</g>
</svg>