<?xml version="1.0" encoding="UTF-8" standalone="no"?>
<!DOCTYPE svg PUBLIC "-//W3C//DTD SVG 1.1//EN"
 "http://www.w3.org/Graphics/SVG/1.1/DTD/svg11.dtd">
<!-- Generated by graphviz version 2.38.0 (20140413.2041)
 -->
<!-- Title: %3 Pages: 1 -->
<svg width="2234pt" height="1175pt"
 viewBox="0.00 0.00 2234.34 1175.00" xmlns="http://www.w3.org/2000/svg" xmlns:xlink="http://www.w3.org/1999/xlink">
<g id="graph0" class="graph" transform="scale(1 1) rotate(0) translate(4 1171)">
<title>%3</title>
<polygon fill="white" stroke="none" points="-4,4 -4,-1171 2230.34,-1171 2230.34,4 -4,4"/>
<!-- Rhttp://www.w3.org/2002/07/owl#testr:Structure -->
<g id="node1" class="node"><title>Rhttp://www.w3.org/2002/07/owl#testr:Structure</title>
<g id="a_node1"><a xlink:href="http://www.w3.org/2002/07/owl#testr:Structure" xlink:title="textstruct:Structure">
<ellipse fill="none" stroke="blue" cx="999.341" cy="-105" rx="100.182" ry="18"/>
<text text-anchor="middle" x="999.341" y="-101.3" font-family="Times,serif" font-size="14.00">textstruct:Structure</text>
</a>
</g>
</g>
<!-- Rhttp://www.w3.org/2002/07/owl#lang:HumanNaturalLanguageExpression -->
<g id="node2" class="node"><title>Rhttp://www.w3.org/2002/07/owl#lang:HumanNaturalLanguageExpression</title>
<g id="a_node2"><a xlink:href="http://www.w3.org/2002/07/owl#lang:HumanNaturalLanguageExpression" xlink:title="language:HumanNaturalLanguageExpression">
<ellipse fill="none" stroke="blue" cx="911.341" cy="-18" rx="220.161" ry="18"/>
<text text-anchor="middle" x="911.341" y="-14.3" font-family="Times,serif" font-size="14.00">language:HumanNaturalLanguageExpression</text>
</a>
</g>
</g>
<!-- Rhttp://www.w3.org/2002/07/owl#testr:Structure&#45;&gt;Rhttp://www.w3.org/2002/07/owl#lang:HumanNaturalLanguageExpression -->
<g id="edge1" class="edge"><title>Rhttp://www.w3.org/2002/07/owl#testr:Structure&#45;&gt;Rhttp://www.w3.org/2002/07/owl#lang:HumanNaturalLanguageExpression</title>
<path fill="none" stroke="green" d="M981.955,-87.2067C968.903,-74.5994 950.845,-57.1579 936.259,-43.0683"/>
<polygon fill="green" stroke="green" points="938.616,-40.4793 928.992,-36.0493 933.753,-45.5142 938.616,-40.4793"/>
<text text-anchor="middle" x="1018.84" y="-57.8" font-family="Times,serif" font-size="14.00">rdfs:subClassOf</text>
</g>
<!-- Rhttp://www.w3.org/2002/07/owl#testr:SyntacticStructure -->
<g id="node3" class="node"><title>Rhttp://www.w3.org/2002/07/owl#testr:SyntacticStructure</title>
<g id="a_node3"><a xlink:href="http://www.w3.org/2002/07/owl#testr:SyntacticStructure" xlink:title="textstruct:SyntacticStructure">
<ellipse fill="none" stroke="blue" cx="695.341" cy="-540" rx="143.775" ry="18"/>
<text text-anchor="middle" x="695.341" y="-536.3" font-family="Times,serif" font-size="14.00">textstruct:SyntacticStructure</text>
</a>
</g>
</g>
<!-- Rhttp://www.w3.org/2002/07/owl#testr:SyntacticStructure&#45;&gt;Rhttp://www.w3.org/2002/07/owl#testr:Structure -->
<g id="edge2" class="edge"><title>Rhttp://www.w3.org/2002/07/owl#testr:SyntacticStructure&#45;&gt;Rhttp://www.w3.org/2002/07/owl#testr:Structure</title>
<path fill="none" stroke="green" d="M711.171,-521.893C724.478,-505.682 741.341,-480.008 741.341,-454 741.341,-454 741.341,-454 741.341,-191 741.341,-154.273 836.848,-130.772 911.644,-117.998"/>
<polygon fill="green" stroke="green" points="912.294,-121.438 921.582,-116.342 911.143,-114.533 912.294,-121.438"/>
<text text-anchor="middle" x="798.841" y="-318.8" font-family="Times,serif" font-size="14.00">rdfs:subClassOf</text>
</g>
<!-- Rhttp://www.w3.org/2002/07/owl#testr:CompositionalStructure -->
<g id="node4" class="node"><title>Rhttp://www.w3.org/2002/07/owl#testr:CompositionalStructure</title>
<g id="a_node4"><a xlink:href="http://www.w3.org/2002/07/owl#testr:CompositionalStructure" xlink:title="textstruct:CompositionalStructure">
<ellipse fill="none" stroke="blue" cx="1139.34" cy="-192" rx="167.07" ry="18"/>
<text text-anchor="middle" x="1139.34" y="-188.3" font-family="Times,serif" font-size="14.00">textstruct:CompositionalStructure</text>
</a>
</g>
</g>
<!-- Rhttp://www.w3.org/2002/07/owl#testr:CompositionalStructure&#45;&gt;Rhttp://www.w3.org/2002/07/owl#testr:Structure -->
<g id="edge3" class="edge"><title>Rhttp://www.w3.org/2002/07/owl#testr:CompositionalStructure&#45;&gt;Rhttp://www.w3.org/2002/07/owl#testr:Structure</title>
<path fill="none" stroke="green" d="M1111.68,-174.207C1089.78,-160.907 1059.01,-142.228 1035.21,-127.78"/>
<polygon fill="green" stroke="green" points="1036.83,-124.667 1026.47,-122.469 1033.2,-130.651 1036.83,-124.667"/>
<text text-anchor="middle" x="1135.84" y="-144.8" font-family="Times,serif" font-size="14.00">rdfs:subClassOf</text>
</g>
<!-- Rhttp://www.w3.org/2002/07/owl#testr:ContentStructure -->
<g id="node5" class="node"><title>Rhttp://www.w3.org/2002/07/owl#testr:ContentStructure</title>
<g id="a_node5"><a xlink:href="http://www.w3.org/2002/07/owl#testr:ContentStructure" xlink:title="textstruct:ContentStructure">
<ellipse fill="none" stroke="blue" cx="1217.34" cy="-279" rx="137.576" ry="18"/>
<text text-anchor="middle" x="1217.34" y="-275.3" font-family="Times,serif" font-size="14.00">textstruct:ContentStructure</text>
</a>
</g>
</g>
<!-- Rhttp://www.w3.org/2002/07/owl#testr:ContentStructure&#45;&gt;Rhttp://www.w3.org/2002/07/owl#testr:CompositionalStructure -->
<g id="edge4" class="edge"><title>Rhttp://www.w3.org/2002/07/owl#testr:ContentStructure&#45;&gt;Rhttp://www.w3.org/2002/07/owl#testr:CompositionalStructure</title>
<path fill="none" stroke="green" d="M1201.56,-260.799C1190.24,-248.471 1174.83,-231.679 1162.18,-217.89"/>
<polygon fill="green" stroke="green" points="1164.44,-215.177 1155.1,-210.175 1159.28,-219.91 1164.44,-215.177"/>
<text text-anchor="middle" x="1240.84" y="-231.8" font-family="Times,serif" font-size="14.00">rdfs:subClassOf</text>
</g>
<!-- Rhttp://www.w3.org/2002/07/owl#testr:ProsodicStructure -->
<g id="node6" class="node"><title>Rhttp://www.w3.org/2002/07/owl#testr:ProsodicStructure</title>
<g id="a_node6"><a xlink:href="http://www.w3.org/2002/07/owl#testr:ProsodicStructure" xlink:title="textstruct:ProsodicStructure">
<ellipse fill="none" stroke="blue" cx="1226.34" cy="-366" rx="140.275" ry="18"/>
<text text-anchor="middle" x="1226.34" y="-362.3" font-family="Times,serif" font-size="14.00">textstruct:ProsodicStructure</text>
</a>
</g>
</g>
<!-- Rhttp://www.w3.org/2002/07/owl#testr:ProsodicStructure&#45;&gt;Rhttp://www.w3.org/2002/07/owl#testr:ContentStructure -->
<g id="edge5" class="edge"><title>Rhttp://www.w3.org/2002/07/owl#testr:ProsodicStructure&#45;&gt;Rhttp://www.w3.org/2002/07/owl#testr:ContentStructure</title>
<path fill="none" stroke="green" d="M1224.52,-347.799C1223.29,-336.163 1221.63,-320.548 1220.22,-307.237"/>
<polygon fill="green" stroke="green" points="1223.69,-306.751 1219.16,-297.175 1216.73,-307.488 1223.69,-306.751"/>
<text text-anchor="middle" x="1280.84" y="-318.8" font-family="Times,serif" font-size="14.00">rdfs:subClassOf</text>
</g>
<!-- Rhttp://www.w3.org/2002/07/owl#testr:Word -->
<g id="node7" class="node"><title>Rhttp://www.w3.org/2002/07/owl#testr:Word</title>
<g id="a_node7"><a xlink:href="http://www.w3.org/2002/07/owl#testr:Word" xlink:title="textstruct:Word">
<ellipse fill="none" stroke="blue" cx="1503.34" cy="-627" rx="79.8859" ry="18"/>
<text text-anchor="middle" x="1503.34" y="-623.3" font-family="Times,serif" font-size="14.00">textstruct:Word</text>
</a>
</g>
</g>
<!-- Rhttp://www.w3.org/2002/07/owl#testr:Word&#45;&gt;Rhttp://www.w3.org/2002/07/owl#testr:SyntacticStructure -->
<g id="edge6" class="edge"><title>Rhttp://www.w3.org/2002/07/owl#testr:Word&#45;&gt;Rhttp://www.w3.org/2002/07/owl#testr:SyntacticStructure</title>
<path fill="none" stroke="green" d="M1446.5,-614.315C1435.84,-612.359 1424.78,-610.487 1414.34,-609 1399.74,-606.92 1018.03,-571.148 816.859,-552.345"/>
<polygon fill="green" stroke="green" points="817.11,-548.854 806.827,-551.408 816.458,-555.823 817.11,-548.854"/>
<text text-anchor="middle" x="1270.84" y="-579.8" font-family="Times,serif" font-size="14.00">rdfs:subClassOf</text>
</g>
<!-- Rhttp://www.w3.org/2002/07/owl#testr:Verse -->
<g id="node8" class="node"><title>Rhttp://www.w3.org/2002/07/owl#testr:Verse</title>
<g id="a_node8"><a xlink:href="http://www.w3.org/2002/07/owl#testr:Verse" xlink:title="textstruct:Verse">
<ellipse fill="none" stroke="blue" cx="1503.34" cy="-540" rx="81.4863" ry="18"/>
<text text-anchor="middle" x="1503.34" y="-536.3" font-family="Times,serif" font-size="14.00">textstruct:Verse</text>
</a>
</g>
</g>
<!-- Rhttp://www.w3.org/2002/07/owl#testr:Word&#45;&gt;Rhttp://www.w3.org/2002/07/owl#testr:Verse -->
<g id="edge7" class="edge"><title>Rhttp://www.w3.org/2002/07/owl#testr:Word&#45;&gt;Rhttp://www.w3.org/2002/07/owl#testr:Verse</title>
<path fill="none" stroke="blue" d="M1503.34,-608.799C1503.34,-597.163 1503.34,-581.548 1503.34,-568.237"/>
<polygon fill="blue" stroke="blue" points="1506.84,-568.175 1503.34,-558.175 1499.84,-568.175 1506.84,-568.175"/>
<text text-anchor="middle" x="1586.84" y="-579.8" font-family="Times,serif" font-size="14.00">textstruct:isPartOfVerse</text>
</g>
<!-- Rhttp://www.w3.org/2002/07/owl#testr:Verse&#45;&gt;Rhttp://www.w3.org/2002/07/owl#testr:ProsodicStructure -->
<g id="edge19" class="edge"><title>Rhttp://www.w3.org/2002/07/owl#testr:Verse&#45;&gt;Rhttp://www.w3.org/2002/07/owl#testr:ProsodicStructure</title>
<path fill="none" stroke="green" d="M1433.93,-530.541C1363.33,-520.407 1260.79,-500.95 1235.34,-471 1217.51,-450.016 1217.68,-417.307 1220.75,-394.181"/>
<polygon fill="green" stroke="green" points="1224.26,-394.426 1222.38,-384 1217.35,-393.324 1224.26,-394.426"/>
<text text-anchor="middle" x="1292.84" y="-449.3" font-family="Times,serif" font-size="14.00">rdfs:subClassOf</text>
</g>
<!-- Rhttp://www.w3.org/2002/07/owl#testr:Line -->
<g id="node15" class="node"><title>Rhttp://www.w3.org/2002/07/owl#testr:Line</title>
<g id="a_node15"><a xlink:href="http://www.w3.org/2002/07/owl#testr:Line" xlink:title="textstruct:Line">
<ellipse fill="none" stroke="blue" cx="1434.34" cy="-453" rx="75.2868" ry="18"/>
<text text-anchor="middle" x="1434.34" y="-449.3" font-family="Times,serif" font-size="14.00">textstruct:Line</text>
</a>
</g>
</g>
<!-- Rhttp://www.w3.org/2002/07/owl#testr:Verse&#45;&gt;Rhttp://www.w3.org/2002/07/owl#testr:Line -->
<g id="edge20" class="edge"><title>Rhttp://www.w3.org/2002/07/owl#testr:Verse&#45;&gt;Rhttp://www.w3.org/2002/07/owl#testr:Line</title>
<path fill="none" stroke="green" d="M1459.08,-524.897C1449.71,-519.81 1440.96,-513.012 1435.34,-504 1431.12,-497.239 1429.8,-488.899 1429.84,-480.981"/>
<polygon fill="green" stroke="green" points="1433.33,-481.206 1430.55,-470.984 1426.35,-480.712 1433.33,-481.206"/>
<text text-anchor="middle" x="1492.84" y="-492.8" font-family="Times,serif" font-size="14.00">rdfs:subClassOf</text>
</g>
<!-- Rhttp://www.w3.org/2002/07/owl#testr:Strophe -->
<g id="node16" class="node"><title>Rhttp://www.w3.org/2002/07/owl#testr:Strophe</title>
<g id="a_node16"><a xlink:href="http://www.w3.org/2002/07/owl#testr:Strophe" xlink:title="textstruct:Strophe">
<ellipse fill="none" stroke="blue" cx="1619.34" cy="-453" rx="91.784" ry="18"/>
<text text-anchor="middle" x="1619.34" y="-449.3" font-family="Times,serif" font-size="14.00">textstruct:Strophe</text>
</a>
</g>
</g>
<!-- Rhttp://www.w3.org/2002/07/owl#testr:Verse&#45;&gt;Rhttp://www.w3.org/2002/07/owl#testr:Strophe -->
<g id="edge21" class="edge"><title>Rhttp://www.w3.org/2002/07/owl#testr:Verse&#45;&gt;Rhttp://www.w3.org/2002/07/owl#testr:Strophe</title>
<path fill="none" stroke="blue" d="M1525.71,-522.611C1543.56,-509.525 1568.78,-491.048 1588.55,-476.564"/>
<polygon fill="blue" stroke="blue" points="1590.65,-479.362 1596.65,-470.629 1586.51,-473.716 1590.65,-479.362"/>
<text text-anchor="middle" x="1659.34" y="-492.8" font-family="Times,serif" font-size="14.00">textstruct:isPartOfStrophe</text>
</g>
<!-- Rhttp://www.w3.org/2002/07/owl#testr:Sentence -->
<g id="node9" class="node"><title>Rhttp://www.w3.org/2002/07/owl#testr:Sentence</title>
<g id="a_node9"><a xlink:href="http://www.w3.org/2002/07/owl#testr:Sentence" xlink:title="textstruct:Sentence">
<ellipse fill="none" stroke="blue" cx="325.341" cy="-714" rx="98.2828" ry="18"/>
<text text-anchor="middle" x="325.341" y="-710.3" font-family="Times,serif" font-size="14.00">textstruct:Sentence</text>
</a>
</g>
</g>
<!-- Rhttp://www.w3.org/2002/07/owl#testr:Sentence&#45;&gt;Rhttp://www.w3.org/2002/07/owl#testr:SyntacticStructure -->
<g id="edge8" class="edge"><title>Rhttp://www.w3.org/2002/07/owl#testr:Sentence&#45;&gt;Rhttp://www.w3.org/2002/07/owl#testr:SyntacticStructure</title>
<path fill="none" stroke="green" d="M327.764,-695.788C329.572,-685.884 332.572,-673.384 337.341,-663 349.696,-636.097 351.54,-625.166 376.341,-609 428.696,-574.873 495.198,-557.533 553.919,-548.848"/>
<polygon fill="green" stroke="green" points="554.613,-552.285 564.028,-547.426 553.637,-545.353 554.613,-552.285"/>
<text text-anchor="middle" x="433.841" y="-623.3" font-family="Times,serif" font-size="14.00">rdfs:subClassOf</text>
</g>
<!-- Rhttp://www.w3.org/2002/07/owl#testr:Paragraph -->
<g id="node10" class="node"><title>Rhttp://www.w3.org/2002/07/owl#testr:Paragraph</title>
<g id="a_node10"><a xlink:href="http://www.w3.org/2002/07/owl#testr:Paragraph" xlink:title="textstruct:Paragraph">
<ellipse fill="none" stroke="blue" cx="103.341" cy="-627" rx="103.182" ry="18"/>
<text text-anchor="middle" x="103.341" y="-623.3" font-family="Times,serif" font-size="14.00">textstruct:Paragraph</text>
</a>
</g>
</g>
<!-- Rhttp://www.w3.org/2002/07/owl#testr:Sentence&#45;&gt;Rhttp://www.w3.org/2002/07/owl#testr:Paragraph -->
<g id="edge9" class="edge"><title>Rhttp://www.w3.org/2002/07/owl#testr:Sentence&#45;&gt;Rhttp://www.w3.org/2002/07/owl#testr:Paragraph</title>
<path fill="none" stroke="blue" d="M229.786,-709.767C177.88,-705.797 120.963,-697.072 104.341,-678 98.9662,-671.833 97.4122,-663.433 97.5947,-655.278"/>
<polygon fill="blue" stroke="blue" points="101.083,-655.567 98.5976,-645.268 94.1181,-654.869 101.083,-655.567"/>
<text text-anchor="middle" x="205.341" y="-666.8" font-family="Times,serif" font-size="14.00">textstruct:isPartOfParagraph</text>
</g>
<!-- Rhttp://www.w3.org/2002/07/owl#testr:Prose -->
<g id="node11" class="node"><title>Rhttp://www.w3.org/2002/07/owl#testr:Prose</title>
<g id="a_node11"><a xlink:href="http://www.w3.org/2002/07/owl#testr:Prose" xlink:title="textstruct:Prose">
<ellipse fill="none" stroke="blue" cx="581.341" cy="-627" rx="81.4863" ry="18"/>
<text text-anchor="middle" x="581.341" y="-623.3" font-family="Times,serif" font-size="14.00">textstruct:Prose</text>
</a>
</g>
</g>
<!-- Rhttp://www.w3.org/2002/07/owl#testr:Sentence&#45;&gt;Rhttp://www.w3.org/2002/07/owl#testr:Prose -->
<g id="edge10" class="edge"><title>Rhttp://www.w3.org/2002/07/owl#testr:Sentence&#45;&gt;Rhttp://www.w3.org/2002/07/owl#testr:Prose</title>
<path fill="none" stroke="blue" d="M330.856,-695.901C335.371,-684.728 342.904,-670.809 354.341,-663 366.482,-654.71 439.961,-644.357 500.082,-637.068"/>
<polygon fill="blue" stroke="blue" points="500.856,-640.501 510.368,-635.835 500.023,-633.55 500.856,-640.501"/>
<text text-anchor="middle" x="438.341" y="-666.8" font-family="Times,serif" font-size="14.00">textstruct:isPartOfProse</text>
</g>
<!-- Rhttp://www.w3.org/2002/07/owl#testr:Prose&#45;&gt;Rhttp://www.w3.org/2002/07/owl#lang:HumanNaturalLanguageExpression -->
<g id="edge12" class="edge"><title>Rhttp://www.w3.org/2002/07/owl#testr:Prose&#45;&gt;Rhttp://www.w3.org/2002/07/owl#lang:HumanNaturalLanguageExpression</title>
<path fill="none" stroke="blue" d="M559.307,-609.365C541.487,-593.849 519.341,-568.946 519.341,-541 519.341,-541 519.341,-541 519.341,-104 519.341,-59.818 615.652,-38.5519 712.796,-28.3392"/>
<polygon fill="blue" stroke="blue" points="713.208,-31.8155 722.804,-27.3256 712.502,-24.8511 713.208,-31.8155"/>
<text text-anchor="middle" x="618.841" y="-318.8" font-family="Times,serif" font-size="14.00">textstruct:proseIsPartOfText</text>
</g>
<!-- Rhttp://www.w3.org/2002/07/owl#testr:Prose&#45;&gt;Rhttp://www.w3.org/2002/07/owl#testr:SyntacticStructure -->
<g id="edge11" class="edge"><title>Rhttp://www.w3.org/2002/07/owl#testr:Prose&#45;&gt;Rhttp://www.w3.org/2002/07/owl#testr:SyntacticStructure</title>
<path fill="none" stroke="green" d="M603.321,-609.611C620.68,-596.668 645.115,-578.449 664.442,-564.038"/>
<polygon fill="green" stroke="green" points="666.723,-566.704 672.648,-557.92 662.539,-561.092 666.723,-566.704"/>
<text text-anchor="middle" x="702.841" y="-579.8" font-family="Times,serif" font-size="14.00">rdfs:subClassOf</text>
</g>
<!-- Rhttp://www.w3.org/2002/07/owl#t:Expression -->
<g id="node12" class="node"><title>Rhttp://www.w3.org/2002/07/owl#t:Expression</title>
<g id="a_node12"><a xlink:href="http://www.w3.org/2002/07/owl#t:Expression" xlink:title="text:Expression">
<ellipse fill="none" stroke="blue" cx="1078.34" cy="-714" rx="88.2844" ry="18"/>
<text text-anchor="middle" x="1078.34" y="-710.3" font-family="Times,serif" font-size="14.00">text:Expression</text>
</a>
</g>
</g>
<!-- Rhttp://www.w3.org/2002/07/owl#t:Expression&#45;&gt;Rhttp://www.w3.org/2002/07/owl#lang:HumanNaturalLanguageExpression -->
<g id="edge14" class="edge"><title>Rhttp://www.w3.org/2002/07/owl#t:Expression&#45;&gt;Rhttp://www.w3.org/2002/07/owl#lang:HumanNaturalLanguageExpression</title>
<path fill="none" stroke="green" d="M1018.75,-700.63C957.594,-686.176 871.341,-660.099 871.341,-628 871.341,-628 871.341,-628 871.341,-104 871.341,-82.5329 881.915,-60.6702 892.19,-44.4938"/>
<polygon fill="green" stroke="green" points="895.136,-46.3853 897.799,-36.1305 889.322,-42.4865 895.136,-46.3853"/>
<text text-anchor="middle" x="928.841" y="-362.3" font-family="Times,serif" font-size="14.00">rdfs:subClassOf</text>
</g>
<!-- Rhttp://www.w3.org/2002/07/owl#t:Expression&#45;&gt;Rhttp://www.w3.org/2002/07/owl#testr:Word -->
<g id="edge15" class="edge"><title>Rhttp://www.w3.org/2002/07/owl#t:Expression&#45;&gt;Rhttp://www.w3.org/2002/07/owl#testr:Word</title>
<path fill="none" stroke="blue" d="M1139.23,-700.822C1217.78,-685.112 1354,-657.868 1435.7,-641.529"/>
<polygon fill="blue" stroke="blue" points="1436.51,-644.936 1445.63,-639.543 1435.14,-638.072 1436.51,-644.936"/>
<text text-anchor="middle" x="1381.34" y="-666.8" font-family="Times,serif" font-size="14.00">textstruct:hasWord</text>
</g>
<!-- Rhttp://www.w3.org/2002/07/owl#concept:Expression -->
<g id="node13" class="node"><title>Rhttp://www.w3.org/2002/07/owl#concept:Expression</title>
<g id="a_node13"><a xlink:href="http://www.w3.org/2002/07/owl#concept:Expression" xlink:title="owl:concept:Expression">
<ellipse fill="none" stroke="blue" cx="1021.34" cy="-627" rx="121.578" ry="18"/>
<text text-anchor="middle" x="1021.34" y="-623.3" font-family="Times,serif" font-size="14.00">owl:concept:Expression</text>
</a>
</g>
</g>
<!-- Rhttp://www.w3.org/2002/07/owl#t:Expression&#45;&gt;Rhttp://www.w3.org/2002/07/owl#concept:Expression -->
<g id="edge13" class="edge"><title>Rhttp://www.w3.org/2002/07/owl#t:Expression&#45;&gt;Rhttp://www.w3.org/2002/07/owl#concept:Expression</title>
<path fill="none" stroke="green" d="M1066.81,-695.799C1058.69,-683.702 1047.7,-667.305 1038.55,-653.667"/>
<polygon fill="green" stroke="green" points="1041.33,-651.532 1032.86,-645.175 1035.52,-655.43 1041.33,-651.532"/>
<text text-anchor="middle" x="1110.84" y="-666.8" font-family="Times,serif" font-size="14.00">rdfs:subClassOf</text>
</g>
<!-- Rhttp://www.w3.org/2002/07/owl#t:SentenceExpression -->
<g id="node14" class="node"><title>Rhttp://www.w3.org/2002/07/owl#t:SentenceExpression</title>
<g id="a_node14"><a xlink:href="http://www.w3.org/2002/07/owl#t:SentenceExpression" xlink:title="text:SentenceExpression">
<ellipse fill="none" stroke="blue" cx="525.341" cy="-801" rx="131.077" ry="18"/>
<text text-anchor="middle" x="525.341" y="-797.3" font-family="Times,serif" font-size="14.00">text:SentenceExpression</text>
</a>
</g>
</g>
<!-- Rhttp://www.w3.org/2002/07/owl#t:SentenceExpression&#45;&gt;Rhttp://www.w3.org/2002/07/owl#testr:Sentence -->
<g id="edge17" class="edge"><title>Rhttp://www.w3.org/2002/07/owl#t:SentenceExpression&#45;&gt;Rhttp://www.w3.org/2002/07/owl#testr:Sentence</title>
<path fill="none" stroke="blue" d="M416.33,-790.902C395.127,-785.534 374.023,-777.359 356.341,-765 347.98,-759.156 341.424,-750.262 336.538,-741.587"/>
<polygon fill="blue" stroke="blue" points="339.53,-739.749 331.885,-732.414 333.288,-742.915 339.53,-739.749"/>
<text text-anchor="middle" x="436.341" y="-753.8" font-family="Times,serif" font-size="14.00">textstruct:hasSentence</text>
</g>
<!-- Rhttp://www.w3.org/2002/07/owl#t:SentenceExpression&#45;&gt;Rhttp://www.w3.org/2002/07/owl#testr:Prose -->
<g id="edge18" class="edge"><title>Rhttp://www.w3.org/2002/07/owl#t:SentenceExpression&#45;&gt;Rhttp://www.w3.org/2002/07/owl#testr:Prose</title>
<path fill="none" stroke="blue" d="M526.815,-782.636C528.981,-761.629 533.95,-725.421 544.341,-696 549.513,-681.357 557.553,-666.079 564.82,-653.723"/>
<polygon fill="blue" stroke="blue" points="567.976,-655.268 570.165,-644.902 561.989,-651.641 567.976,-655.268"/>
<text text-anchor="middle" x="611.341" y="-710.3" font-family="Times,serif" font-size="14.00">textstruct:hasProse</text>
</g>
<!-- Rhttp://www.w3.org/2002/07/owl#t:SentenceExpression&#45;&gt;Rhttp://www.w3.org/2002/07/owl#t:Expression -->
<g id="edge16" class="edge"><title>Rhttp://www.w3.org/2002/07/owl#t:SentenceExpression&#45;&gt;Rhttp://www.w3.org/2002/07/owl#t:Expression</title>
<path fill="none" stroke="green" d="M613.288,-787.563C705.196,-774.407 853.542,-752.724 981.341,-732 988.734,-730.801 996.436,-729.515 1004.13,-728.206"/>
<polygon fill="green" stroke="green" points="1004.94,-731.618 1014.2,-726.478 1003.75,-724.719 1004.94,-731.618"/>
<text text-anchor="middle" x="913.841" y="-753.8" font-family="Times,serif" font-size="14.00">rdfs:subClassOf</text>
</g>
<!-- Rhttp://www.w3.org/2002/07/owl#testr:Strophe&#45;&gt;Rhttp://www.w3.org/2002/07/owl#lang:HumanNaturalLanguageExpression -->
<g id="edge23" class="edge"><title>Rhttp://www.w3.org/2002/07/owl#testr:Strophe&#45;&gt;Rhttp://www.w3.org/2002/07/owl#lang:HumanNaturalLanguageExpression</title>
<path fill="none" stroke="blue" d="M1557.45,-439.686C1494.88,-425.412 1407.34,-399.615 1407.34,-367 1407.34,-367 1407.34,-367 1407.34,-104 1407.34,-69.6592 1220.25,-45.4383 1075.88,-31.8601"/>
<polygon fill="blue" stroke="blue" points="1075.84,-28.3416 1065.56,-30.9008 1075.19,-35.3116 1075.84,-28.3416"/>
<text text-anchor="middle" x="1514.34" y="-231.8" font-family="Times,serif" font-size="14.00">textstruct:stropheIsPartOfText</text>
</g>
<!-- Rhttp://www.w3.org/2002/07/owl#testr:Strophe&#45;&gt;Rhttp://www.w3.org/2002/07/owl#testr:ProsodicStructure -->
<g id="edge22" class="edge"><title>Rhttp://www.w3.org/2002/07/owl#testr:Strophe&#45;&gt;Rhttp://www.w3.org/2002/07/owl#testr:ProsodicStructure</title>
<path fill="none" stroke="green" d="M1554.54,-440.188C1542.53,-438.257 1530.08,-436.425 1518.34,-435 1465.25,-428.555 1327.17,-438.824 1278.34,-417 1265.71,-411.354 1254.3,-401.271 1245.4,-391.631"/>
<polygon fill="green" stroke="green" points="1248.04,-389.331 1238.84,-384.088 1242.76,-393.928 1248.04,-389.331"/>
<text text-anchor="middle" x="1335.84" y="-405.8" font-family="Times,serif" font-size="14.00">rdfs:subClassOf</text>
</g>
<!-- Rhttp://www.w3.org/2002/07/owl#testr:Hemistich -->
<g id="node17" class="node"><title>Rhttp://www.w3.org/2002/07/owl#testr:Hemistich</title>
<g id="a_node17"><a xlink:href="http://www.w3.org/2002/07/owl#testr:Hemistich" xlink:title="textstruct:Hemistich">
<ellipse fill="none" stroke="blue" cx="1779.34" cy="-540" rx="103.182" ry="18"/>
<text text-anchor="middle" x="1779.34" y="-536.3" font-family="Times,serif" font-size="14.00">textstruct:Hemistich</text>
</a>
</g>
</g>
<!-- Rhttp://www.w3.org/2002/07/owl#testr:Hemistich&#45;&gt;Rhttp://www.w3.org/2002/07/owl#testr:Strophe -->
<g id="edge24" class="edge"><title>Rhttp://www.w3.org/2002/07/owl#testr:Hemistich&#45;&gt;Rhttp://www.w3.org/2002/07/owl#testr:Strophe</title>
<path fill="none" stroke="green" d="M1775.14,-521.819C1771.6,-510.903 1765.46,-497.311 1755.34,-489 1741.8,-477.876 1725.13,-470.24 1708.17,-465.009"/>
<polygon fill="green" stroke="green" points="1708.75,-461.535 1698.17,-462.199 1706.85,-468.274 1708.75,-461.535"/>
<text text-anchor="middle" x="1823.84" y="-492.8" font-family="Times,serif" font-size="14.00">rdfs:subClassOf</text>
</g>
<!-- Rhttp://www.w3.org/2002/07/owl#testr:FreeVerse -->
<g id="node18" class="node"><title>Rhttp://www.w3.org/2002/07/owl#testr:FreeVerse</title>
<g id="a_node18"><a xlink:href="http://www.w3.org/2002/07/owl#testr:FreeVerse" xlink:title="textstruct:FreeVerse">
<ellipse fill="none" stroke="blue" cx="1704.34" cy="-627" rx="102.882" ry="18"/>
<text text-anchor="middle" x="1704.34" y="-623.3" font-family="Times,serif" font-size="14.00">textstruct:FreeVerse</text>
</a>
</g>
</g>
<!-- Rhttp://www.w3.org/2002/07/owl#testr:FreeVerse&#45;&gt;Rhttp://www.w3.org/2002/07/owl#testr:Verse -->
<g id="edge25" class="edge"><title>Rhttp://www.w3.org/2002/07/owl#testr:FreeVerse&#45;&gt;Rhttp://www.w3.org/2002/07/owl#testr:Verse</title>
<path fill="none" stroke="green" d="M1698.15,-608.585C1693.34,-597.57 1685.58,-583.956 1674.34,-576 1650.88,-559.39 1621.33,-550.284 1593.43,-545.401"/>
<polygon fill="green" stroke="green" points="1593.66,-541.894 1583.23,-543.787 1592.56,-548.808 1593.66,-541.894"/>
<text text-anchor="middle" x="1745.84" y="-579.8" font-family="Times,serif" font-size="14.00">rdfs:subClassOf</text>
</g>
<!-- Rhttp://www.w3.org/2002/07/owl#testr:RhymingVerse -->
<g id="node19" class="node"><title>Rhttp://www.w3.org/2002/07/owl#testr:RhymingVerse</title>
<g id="a_node19"><a xlink:href="http://www.w3.org/2002/07/owl#testr:RhymingVerse" xlink:title="textstruct:RhymingVerse">
<ellipse fill="none" stroke="blue" cx="1283.34" cy="-627" rx="122.379" ry="18"/>
<text text-anchor="middle" x="1283.34" y="-623.3" font-family="Times,serif" font-size="14.00">textstruct:RhymingVerse</text>
</a>
</g>
</g>
<!-- Rhttp://www.w3.org/2002/07/owl#testr:RhymingVerse&#45;&gt;Rhttp://www.w3.org/2002/07/owl#testr:Verse -->
<g id="edge26" class="edge"><title>Rhttp://www.w3.org/2002/07/owl#testr:RhymingVerse&#45;&gt;Rhttp://www.w3.org/2002/07/owl#testr:Verse</title>
<path fill="none" stroke="green" d="M1313.22,-609.498C1333,-599.001 1359.74,-585.622 1384.34,-576 1402.87,-568.752 1423.53,-562.177 1442.36,-556.732"/>
<polygon fill="green" stroke="green" points="1443.36,-560.088 1452.02,-553.991 1441.44,-553.354 1443.36,-560.088"/>
<text text-anchor="middle" x="1441.84" y="-579.8" font-family="Times,serif" font-size="14.00">rdfs:subClassOf</text>
</g>
<!-- Rhttp://www.w3.org/2002/07/owl#testr:RhythmicProse -->
<g id="node20" class="node"><title>Rhttp://www.w3.org/2002/07/owl#testr:RhythmicProse</title>
<g id="a_node20"><a xlink:href="http://www.w3.org/2002/07/owl#testr:RhythmicProse" xlink:title="textstruct:RhythmicProse">
<ellipse fill="none" stroke="blue" cx="846.341" cy="-714" rx="126.178" ry="18"/>
<text text-anchor="middle" x="846.341" y="-710.3" font-family="Times,serif" font-size="14.00">textstruct:RhythmicProse</text>
</a>
</g>
</g>
<!-- Rhttp://www.w3.org/2002/07/owl#testr:RhythmicProse&#45;&gt;Rhttp://www.w3.org/2002/07/owl#testr:Prose -->
<g id="edge27" class="edge"><title>Rhttp://www.w3.org/2002/07/owl#testr:RhythmicProse&#45;&gt;Rhttp://www.w3.org/2002/07/owl#testr:Prose</title>
<path fill="none" stroke="green" d="M797.415,-697.32C779.942,-691.513 760.172,-684.706 742.341,-678 726.117,-671.899 722.717,-668.681 706.341,-663 685.939,-655.923 663.298,-649.24 642.952,-643.648"/>
<polygon fill="green" stroke="green" points="643.735,-640.234 633.168,-640.994 641.902,-646.99 643.735,-640.234"/>
<text text-anchor="middle" x="799.841" y="-666.8" font-family="Times,serif" font-size="14.00">rdfs:subClassOf</text>
</g>
<!-- Rhttp://www.w3.org/2002/07/owl#litera:Expression -->
<g id="node21" class="node"><title>Rhttp://www.w3.org/2002/07/owl#litera:Expression</title>
<g id="a_node21"><a xlink:href="http://www.w3.org/2002/07/owl#litera:Expression" xlink:title="literature:Expression">
<ellipse fill="none" stroke="blue" cx="1078.34" cy="-801" rx="109.381" ry="18"/>
<text text-anchor="middle" x="1078.34" y="-797.3" font-family="Times,serif" font-size="14.00">literature:Expression</text>
</a>
</g>
</g>
<!-- Rhttp://www.w3.org/2002/07/owl#litera:Expression&#45;&gt;Rhttp://www.w3.org/2002/07/owl#t:Expression -->
<g id="edge28" class="edge"><title>Rhttp://www.w3.org/2002/07/owl#litera:Expression&#45;&gt;Rhttp://www.w3.org/2002/07/owl#t:Expression</title>
<path fill="none" stroke="green" d="M1078.34,-782.799C1078.34,-771.163 1078.34,-755.548 1078.34,-742.237"/>
<polygon fill="green" stroke="green" points="1081.84,-742.175 1078.34,-732.175 1074.84,-742.175 1081.84,-742.175"/>
<text text-anchor="middle" x="1135.84" y="-753.8" font-family="Times,serif" font-size="14.00">rdfs:subClassOf</text>
</g>
<!-- Rhttp://www.w3.org/2002/07/owl#litera:Poem -->
<g id="node22" class="node"><title>Rhttp://www.w3.org/2002/07/owl#litera:Poem</title>
<g id="a_node22"><a xlink:href="http://www.w3.org/2002/07/owl#litera:Poem" xlink:title="literature:Poem">
<ellipse fill="none" stroke="blue" cx="1078.34" cy="-888" rx="83.3857" ry="18"/>
<text text-anchor="middle" x="1078.34" y="-884.3" font-family="Times,serif" font-size="14.00">literature:Poem</text>
</a>
</g>
</g>
<!-- Rhttp://www.w3.org/2002/07/owl#litera:Poem&#45;&gt;Rhttp://www.w3.org/2002/07/owl#litera:Expression -->
<g id="edge29" class="edge"><title>Rhttp://www.w3.org/2002/07/owl#litera:Poem&#45;&gt;Rhttp://www.w3.org/2002/07/owl#litera:Expression</title>
<path fill="none" stroke="green" d="M1078.34,-869.799C1078.34,-858.163 1078.34,-842.548 1078.34,-829.237"/>
<polygon fill="green" stroke="green" points="1081.84,-829.175 1078.34,-819.175 1074.84,-829.175 1081.84,-829.175"/>
<text text-anchor="middle" x="1135.84" y="-840.8" font-family="Times,serif" font-size="14.00">rdfs:subClassOf</text>
</g>
<!-- Rhttp://www.w3.org/2002/07/owl#litera:VersePoem -->
<g id="node23" class="node"><title>Rhttp://www.w3.org/2002/07/owl#litera:VersePoem</title>
<g id="a_node23"><a xlink:href="http://www.w3.org/2002/07/owl#litera:VersePoem" xlink:title="literature:VersePoem">
<ellipse fill="none" stroke="blue" cx="1835.34" cy="-975" rx="108.581" ry="18"/>
<text text-anchor="middle" x="1835.34" y="-971.3" font-family="Times,serif" font-size="14.00">literature:VersePoem</text>
</a>
</g>
</g>
<!-- Rhttp://www.w3.org/2002/07/owl#litera:VersePoem&#45;&gt;Rhttp://www.w3.org/2002/07/owl#testr:Verse -->
<g id="edge31" class="edge"><title>Rhttp://www.w3.org/2002/07/owl#litera:VersePoem&#45;&gt;Rhttp://www.w3.org/2002/07/owl#testr:Verse</title>
<path fill="none" stroke="blue" d="M1835.34,-956.744C1835.34,-939.57 1835.34,-912.464 1835.34,-889 1835.34,-889 1835.34,-889 1835.34,-626 1835.34,-600.531 1828.54,-590.117 1807.34,-576 1802.71,-572.917 1673.93,-558.878 1585.49,-549.544"/>
<polygon fill="blue" stroke="blue" points="1585.76,-546.054 1575.45,-548.487 1585.03,-553.015 1585.76,-546.054"/>
<text text-anchor="middle" x="1925.34" y="-753.8" font-family="Times,serif" font-size="14.00">literature:poemHasVerse</text>
</g>
<!-- Rhttp://www.w3.org/2002/07/owl#litera:VersePoem&#45;&gt;Rhttp://www.w3.org/2002/07/owl#testr:Strophe -->
<g id="edge32" class="edge"><title>Rhttp://www.w3.org/2002/07/owl#litera:VersePoem&#45;&gt;Rhttp://www.w3.org/2002/07/owl#testr:Strophe</title>
<path fill="none" stroke="blue" d="M1932.84,-966.953C1981.59,-957.521 2030.34,-936.271 2030.34,-889 2030.34,-889 2030.34,-889 2030.34,-539 2030.34,-475.924 1842.36,-459.287 1720.66,-455.126"/>
<polygon fill="blue" stroke="blue" points="1720.66,-451.624 1710.56,-454.804 1720.44,-458.621 1720.66,-451.624"/>
<text text-anchor="middle" x="2128.34" y="-710.3" font-family="Times,serif" font-size="14.00">literature:poemHasStrophe</text>
</g>
<!-- Rhttp://www.w3.org/2002/07/owl#litera:VersePoem&#45;&gt;Rhttp://www.w3.org/2002/07/owl#litera:Poem -->
<g id="edge30" class="edge"><title>Rhttp://www.w3.org/2002/07/owl#litera:VersePoem&#45;&gt;Rhttp://www.w3.org/2002/07/owl#litera:Poem</title>
<path fill="none" stroke="green" d="M1748.13,-964.208C1600.73,-947.657 1304.34,-914.376 1160.45,-898.22"/>
<polygon fill="green" stroke="green" points="1160.69,-894.724 1150.36,-897.086 1159.9,-901.681 1160.69,-894.724"/>
<text text-anchor="middle" x="1558.84" y="-927.8" font-family="Times,serif" font-size="14.00">rdfs:subClassOf</text>
</g>
<!-- Rhttp://www.w3.org/2002/07/owl#litera:VerseSong -->
<g id="node24" class="node"><title>Rhttp://www.w3.org/2002/07/owl#litera:VerseSong</title>
<g id="a_node24"><a xlink:href="http://www.w3.org/2002/07/owl#litera:VerseSong" xlink:title="literature:VerseSong">
<ellipse fill="none" stroke="blue" cx="1835.34" cy="-1062" rx="106.681" ry="18"/>
<text text-anchor="middle" x="1835.34" y="-1058.3" font-family="Times,serif" font-size="14.00">literature:VerseSong</text>
</a>
</g>
</g>
<!-- Rhttp://www.w3.org/2002/07/owl#litera:VerseSong&#45;&gt;Rhttp://www.w3.org/2002/07/owl#litera:VersePoem -->
<g id="edge33" class="edge"><title>Rhttp://www.w3.org/2002/07/owl#litera:VerseSong&#45;&gt;Rhttp://www.w3.org/2002/07/owl#litera:VersePoem</title>
<path fill="none" stroke="green" d="M1835.34,-1043.8C1835.34,-1032.16 1835.34,-1016.55 1835.34,-1003.24"/>
<polygon fill="green" stroke="v" points="1838.84,-1003.18 1835.34,-993.175 1831.84,-1003.18 1838.84,-1003.18"/>
<text text-anchor="middle" x="1892.84" y="-1014.8" font-family="Times,serif" font-size="14.00">rdfs:subClassOf</text>
</g>
<!-- Rhttp://www.w3.org/2002/07/owl#litera:Hymn -->
<g id="node25" class="node"><title>Rhttp://www.w3.org/2002/07/owl#litera:Hymn</title>
<g id="a_node25"><a xlink:href="http://www.w3.org/2002/07/owl#litera:Hymn" xlink:title="literature:Hymn">
<ellipse fill="none" stroke="blue" cx="1835.34" cy="-1149" rx="85.5853" ry="18"/>
<text text-anchor="middle" x="1835.34" y="-1145.3" font-family="Times,serif" font-size="14.00">literature:Hymn</text>
</a>
</g>
</g>
<!-- Rhttp://www.w3.org/2002/07/owl#litera:Hymn&#45;&gt;Rhttp://www.w3.org/2002/07/owl#litera:VerseSong -->
<g id="edge34" class="edge"><title>Rhttp://www.w3.org/2002/07/owl#litera:Hymn&#45;&gt;Rhttp://www.w3.org/2002/07/owl#litera:VerseSong</title>
<path fill="none" stroke="green" d="M1835.34,-1130.8C1835.34,-1119.16 1835.34,-1103.55 1835.34,-1090.24"/>
<polygon fill="green" stroke="green" points="1838.84,-1090.18 1835.34,-1080.18 1831.84,-1090.18 1838.84,-1090.18"/>
<text text-anchor="middle" x="1892.84" y="-1101.8" font-family="Times,serif" font-size="14.00">rdfs:subClassOf</text>
</g>
<!-- Rhttp://www.w3.org/2002/07/owl#litera:ProsePoem -->
<g id="node26" class="node"><title>Rhttp://www.w3.org/2002/07/owl#litera:ProsePoem</title>
<g id="a_node26"><a xlink:href="http://www.w3.org/2002/07/owl#litera:ProsePoem" xlink:title="literature:ProsePoem">
<ellipse fill="none" stroke="blue" cx="692.341" cy="-975" rx="109.381" ry="18"/>
<text text-anchor="middle" x="692.341" y="-971.3" font-family="Times,serif" font-size="14.00">literature:ProsePoem</text>
</a>
</g>
</g>
<!-- Rhttp://www.w3.org/2002/07/owl#litera:ProsePoem&#45;&gt;Rhttp://www.w3.org/2002/07/owl#testr:Prose -->
<g id="edge37" class="edge"><title>Rhttp://www.w3.org/2002/07/owl#litera:ProsePoem&#45;&gt;Rhttp://www.w3.org/2002/07/owl#testr:Prose</title>
<path fill="none" stroke="blue" d="M692.341,-956.744C692.341,-939.57 692.341,-912.464 692.341,-889 692.341,-889 692.341,-889 692.341,-713 692.341,-681.242 663.346,-659.744 634.994,-646.313"/>
<polygon fill="blue" stroke="blue" points="636.408,-643.111 625.849,-642.233 633.556,-649.504 636.408,-643.111"/>
<text text-anchor="middle" x="782.841" y="-797.3" font-family="Times,serif" font-size="14.00">literature:poemHasProse</text>
</g>
<!-- Rhttp://www.w3.org/2002/07/owl#litera:ProsePoem&#45;&gt;Rhttp://www.w3.org/2002/07/owl#t:SentenceExpression -->
<g id="edge36" class="edge"><title>Rhttp://www.w3.org/2002/07/owl#litera:ProsePoem&#45;&gt;Rhttp://www.w3.org/2002/07/owl#t:SentenceExpression</title>
<path fill="none" stroke="green" d="M644.774,-958.685C617.667,-947.803 584.91,-930.691 563.341,-906 544.235,-884.128 534.446,-851.852 529.63,-829.069"/>
<polygon fill="green" stroke="green" points="533.026,-828.196 527.699,-819.037 526.153,-829.519 533.026,-828.196"/>
<text text-anchor="middle" x="620.841" y="-884.3" font-family="Times,serif" font-size="14.00">rdfs:subClassOf</text>
</g>
<!-- Rhttp://www.w3.org/2002/07/owl#litera:ProsePoem&#45;&gt;Rhttp://www.w3.org/2002/07/owl#litera:Poem -->
<g id="edge35" class="edge"><title>Rhttp://www.w3.org/2002/07/owl#litera:ProsePoem&#45;&gt;Rhttp://www.w3.org/2002/07/owl#litera:Poem</title>
<path fill="none" stroke="green" d="M755.217,-960.154C825.914,-944.586 940.214,-919.417 1012.21,-903.561"/>
<polygon fill="green" stroke="green" points="1013.07,-906.957 1022.08,-901.388 1011.57,-900.12 1013.07,-906.957"/>
<text text-anchor="middle" x="966.841" y="-927.8" font-family="Times,serif" font-size="14.00">rdfs:subClassOf</text>
</g>
</g>
</svg>